<svg xmlns="http://www.w3.org/2000/svg" xmlns:xlink="http://www.w3.org/1999/xlink" width="2716.0" height="1528.0" background="#FFFFFF"><g type="COMPO" id="CompositeShape_1"><path rough-pts="1127.9911,490.98276 1126.0197,555.62885 1128.1107,609.896 1136.2881,662.74176 1152.5763,723.1238 1175.7926,790.8885 1179.7684,832.126 1176.4045,835.884 1177.277,845.44147 1180.7451,858.1974 1185.167,871.54956 1188.9019,882.8968 1189.3169,884.31976 1184.1584,842.16 1185.2644,842.65814 1187.3607,825.6431 1201.8318,813.3757 1215.6378,802.6393 1224.8906,796.6845 1230.4867,798.7421 1232.4807,810.75024 1232.0248,830.6271 1230.2709,856.2906 1228.3712,885.65894 1227.6879,916.66736 1227.8977,916.68134 1228.1077,916.69556 1228.3174,916.71265 1228.5269,916.7356 1228.7362,916.76733 1240.4291,916.8292 1249.2607,915.0338 1256.434,911.776 1263.1509,907.45 1270.6146,902.4505 1280.028,897.1721 1282.1941,898.2702 1283.098,903.9508 1283.262,913.4879 1283.2075,926.15533 1283.457,941.2272 1284.5328,957.97754 1300.1328,952.1985 1315.8885,939.361 1331.8707,924.7932 1348.1499,913.8228 1364.7971,911.77783 1381.8829,923.9863 1388.2314,934.1623 1394.3489,946.5344 1401.164,958.789 1409.605,968.61255 1420.6008,973.6915 1435.0801,971.71246 1446.4825,964.2831 1455.4464,952.9659 1462.9728,939.4983 1470.0627,925.61743 1477.7169,913.0607 1486.9368,903.5656 1498.5958,899.60583 1512.7415,900.85095 1516.2753,905.16235 1531.2037,907.88654 1542.2828,912.9148 1554.5731,920.71277 1563.1399,927.67456 1567.6036,929.15857 1570.6036,924.03625 1572.5673,913.656 1573.9214,899.3657 1575.0933,882.51337 1576.5101,864.4473 1578.5947,846.5235 1581.7783,830.0822 1586.4883,816.47174 1593.1511,807.0399 1602.1941,803.135 1614.0448,806.10516 1618.1165,811.9054 1627.3313,821.12744 1638.5525,848.07605 1644.1895,868.5079 1643.8448,870.4792 1642.2395,887.54004 1638.6036,900.45795 1634.0991,916.4617 1630.8873,927.8726 1623.5747,953.8532 1612.7471,963.50385 1595.8977,984.58167 1593.779,994.4264 1590.7548,1003.5938 1586.8329,1012.2617 1581.0156,1014.449 1585.1614,1010.0894 1594.7762,1001.35815 1606.2881,992.5044 1614.1375,987.38196 1618.5326,983.9377 1624.7402,979.7533 1630.3462,976.0677 1640.0653,969.42316 1640.482,973.8754 1623.0753,989.27655 1620.4563,1002.77313 1608.8949,1012.54364 1606.8999,1015.9389 1573.0023,1030.5308 1571.2999,1032.3175 1565.1074,1040.2628 1558.4327,1046.6958 1550.5458,1052.0667 1540.7164,1056.8259 1455.1493,1080.3434 1452.251,1080.0413 1364.1608,1084.2747 1325.1097,1078.9991 1325.235,1079.3042 1277.8757,1066.5404 1226.2122,1039.4309 1206.4185,1025.0609 1159.9144,957.7566 1149.6808,897.29596 1148.4884,862.54816 1152.0807,859.11176 1156.8005,853.4798 1170.0422,840.87524 1179.8464,832.5506 1182.654,829.86475 1182.1482,825.73065 1184.3575,816.9133 1189.9744,801.5111 1192.995,796.5821 1196.0193,788.45465 1204.8276,775.55945 1218.4937,763.70605 1235.0,755.0 1232.1099,738.3748 1225.4686,695.15356 1223.1508,634.1466 1229.446,574.0038 1245.753,516.7489 1273.4712,464.4062 1314.0,419.0 1287.0172,408.5968 1256.8812,403.7106 1224.9519,402.7246 1192.5887,404.02197 1161.1515,405.98602 1132.0,407.0 " stroke-linejoin="round" id="Polygon_74" d="M1127.9912 490.9828 C1122.5668 609.697,  1125.2649 651.328,  1175.5542 790.51337L1179.7684 832.126 C1169.4688 832.11053,  1184.8987 868.8723,  1189.2386 884.0447L1184.1584 842.16 C1183.3762 836.5342,  1183.1858 830.91895,  1183.5514 825.39276C1202.8187 812.17377,  1218.8336 799.4956,  1224.8906 796.6845C1240.4532 789.4615,  1227.4897 854.4323,  1227.4781 916.6504C1228.0377 916.69244,  1228.3876 916.7054,  1228.7362 916.76733C1255.7854 919.0114,  1258.4502 907.7448,  1280.028 897.1721C1285.9708 894.30206,  1281.2073 923.2824,  1284.5328 957.97754C1315.6245 957.02985,  1347.2256 881.76404,  1381.8829 923.9863C1395.4303 940.6001,  1402.0192 984.27106,  1435.0801 971.71246C1460.991 961.8999,  1466.2643 918.3362,  1486.9368 903.5656C1494.5175 898.15424,  1505.6521 898.6511,  1517.202 902.0032C1522.1489 903.293,  1526.957 905.15765,  1531.6688 907.43115C1545.1462 913.6432,  1557.4681 922.1377,  1563.1399 927.67456C1573.8159 938.14764,  1573.1469 900.89453,  1576.5101 864.4473C1579.8655 828.0159,  1587.2513 792.3912,  1614.0448 806.10516C1626.3591 812.412,  1637.1487 838.79376,  1644.1891 868.5076L1643.8448 870.4792 C1645.4009 876.20575,  1645.4092 881.93115,  1644.751 887.8199L1623.5747 953.8532 C1613.2076 962.59705,  1603.7833 972.65485,  1595.8977 984.58167C1593.9573 996.5305,  1590.1528 1006.73413,  1584.539 1016.46173C1583.1135 1013.52496,  1584.1163 1011.84247,  1585.1614 1010.0894C1598.9587 995.8673,  1625.5096 979.42676,  1640.5651 969.3046C1643.5973 973.035,  1642.8932 974.08203,  1642.1348 975.1038C1635.7585 981.20996,  1629.666 986.18317,  1623.0752 989.27655C1623.1198 993.692,  1622.7822 998.27344,  1622.1394 1002.9874C1618.1615 1007.7818,  1614.1455 1010.9945,  1609.868 1013.94696C1598.5431 1021.07495,  1586.1808 1026.6183,  1573.0022 1030.531C1563.9615 1043.2968,  1556.3622 1050.3044,  1540.7164 1056.8259C1381.7542 1122.0608,  1129.5127 1082.2556,  1148.4884 862.54816C1153.2295 856.354,  1167.595 842.7565,  1182.7946 829.4659L1182.1482 825.73065 C1185.3351 813.1724,  1189.9423 800.34534,  1195.8528 788.2809C1204.322 773.48224,  1217.8942 761.6452,  1235.0 755.0C1209.6567 637.81696,  1219.1993 501.5265,  1314.0 419.0C1264.0945 391.599,  1187.1108 407.0,  1132.0 407.0C1130.5491 439.21234,  1129.1003 466.70895,  1127.9912 490.9828" stroke-linecap="round" path-type="area" fill="#0000ff" fill-opacity="0.7882353067398071"/><path rough-pts="1678.5074,886.5043 1666.319,908.5935 1656.6588,918.7102 1654.9565,896.404 1652.4218,894.87256 1654.0593,866.3397 1651.1892,839.31384 1643.7903,813.18994 1640.6616,807.3677 1634.0436,790.0413 1636.3201,792.90405 1635.087,796.9937 1631.9349,788.578 1615.6967,766.0882 1604.2676,755.9147 1603.5344,754.0372 1608.0747,749.9637 1598.9674,742.34015 1601.787,735.63983 1592.0165,724.53906 1580.085,714.7108 1576.2545,710.276 1577.6003,715.4758 1583.9469,736.03735 1595.1478,746.3303 1585.2546,758.4918 1571.7933,770.72797 1571.5905,769.96704 1562.1132,770.47534 1552.7026,771.3685 1553.9899,782.9336 1552.257,785.5937 1533.2478,796.1283 1512.7494,804.37537 1490.9,810.127 1443.1455,813.04333 1397.84,803.62836 1356.9907,783.22754 1322.6045,753.1866 1296.6887,714.8512 1281.2505,669.56714 1270.3768,675.6122 1261.2294,688.52057 1255.9617,701.8524 1254.55,703.30963 1247.9862,718.90735 1239.1852,734.2425 1232.1099,738.3748 1225.4686,695.15356 1223.1508,634.1466 1229.446,574.0038 1245.753,516.7489 1273.4712,464.4062 1314.0,419.0 1287.0172,408.5968 1256.8812,403.7106 1224.9519,402.7246 1192.5887,404.02197 1161.1515,405.98602 1132.0,407.0 1127.9911,490.98276 1126.0197,555.62885 1128.1107,609.896 1136.2881,662.74176 1152.5763,723.1238 1175.7926,790.8885 1179.7684,832.126 1176.4045,835.884 1177.277,845.44147 1180.7451,858.1974 1185.167,871.54956 1188.9019,882.8968 1189.3169,884.31976 1184.1584,842.16 1185.2644,842.65814 1187.3607,825.6431 1201.8318,813.3757 1215.6378,802.6393 1224.8906,796.6845 1230.4867,798.7421 1232.4807,810.75024 1232.0248,830.6271 1230.2709,856.2906 1228.3712,885.65894 1227.6879,916.66736 1227.8977,916.68134 1228.1077,916.69556 1228.3174,916.71265 1228.5269,916.7356 1228.7362,916.76733 1240.4291,916.8292 1249.2607,915.0338 1256.434,911.776 1263.1509,907.45 1270.6146,902.4505 1280.028,897.1721 1282.1941,898.2702 1283.098,903.9508 1283.262,913.4879 1283.2075,926.15533 1283.457,941.2272 1284.5328,957.97754 1300.1328,952.1985 1315.8885,939.361 1331.8707,924.7932 1348.1499,913.8228 1364.7971,911.77783 1381.8829,923.9863 1388.2314,934.1623 1394.3489,946.5344 1401.164,958.789 1409.605,968.61255 1420.6008,973.6915 1435.0801,971.71246 1446.4825,964.2831 1455.4464,952.9659 1462.9728,939.4983 1470.0627,925.61743 1477.7169,913.0607 1486.9368,903.5656 1498.5958,899.60583 1512.7415,900.85095 1516.2753,905.16235 1531.2037,907.88654 1542.2828,912.9148 1554.5731,920.71277 1563.1399,927.67456 1567.6036,929.15857 1570.6036,924.03625 1572.5673,913.656 1573.9214,899.3657 1575.0933,882.51337 1576.5101,864.4473 1578.5947,846.5235 1581.7783,830.0822 1586.4883,816.47174 1593.1511,807.0399 1602.1941,803.135 1614.0448,806.10516 1618.1165,811.9054 1627.3313,821.12744 1638.5525,848.07605 1644.1895,868.5079 1643.8448,870.4792 1642.2395,887.54004 1638.6036,900.45795 1634.0991,916.4617 1618.3499,937.1135 1600.7659,966.32574 1587.4952,994.8746 1589.4095,987.9646 1595.8977,984.58167 1593.779,994.4264 1590.7548,1003.5938 1586.8329,1012.2617 1581.0156,1014.449 1585.1614,1010.0894 1594.7762,1001.35815 1606.2881,992.5044 1614.1375,987.38196 1618.5326,983.9377 1624.7402,979.7533 1630.3462,976.0677 1640.0653,969.42316 1640.482,973.8754 1623.0753,989.27655 1620.4563,1002.77313 1624.1567,1002.21643 1642.093,979.5294 1644.9807,969.89526 1647.9066,964.88525 1648.0066,963.93066 1649.6564,957.333 1650.014,946.83887 1647.7146,936.5934 1637.2233,939.0644 1649.9608,927.4779 1651.8654,923.73016 1652.7329,931.23254 1652.8169,922.73364 1653.3372,918.32574 1652.1106,893.8759 1659.8379,885.09265 1683.3091,862.53326 " stroke-linejoin="round" id="Polygon_98" d="M1678.5077 886.50433 C1673.5958 899.1784,  1666.175 909.74994,  1657.5167 919.468C1657.6614 910.54706,  1656.5221 902.38947,  1654.4473 894.34845C1656.7107 864.19714,  1652.9072 834.1868,  1641.3317 807.08215C1639.8052 800.5557,  1637.9165 794.5328,  1635.8057 789.33044C1636.2256 792.07336,  1636.5244 794.4282,  1636.7902 796.80853C1628.422 781.26135,  1618.0082 767.2548,  1605.1151 755.0256C1605.9261 732.9765,  1591.1506 723.5916,  1575.5577 711.14233C1579.5166 723.0758,  1582.383 737.1213,  1591.3418 749.1519C1588.5471 755.47156,  1580.7437 763.53436,  1572.1984 770.8335C1565.3755 770.19574,  1559.006 770.612,  1552.7026 771.3685C1552.879 775.0757,  1553.1534 778.7657,  1553.4958 782.4433C1535.8943 796.43066,  1514.3907 805.49274,  1490.9 810.127C1394.28 829.1883,  1300.3118 766.1871,  1281.2505 669.5671C1253.6681 683.50806,  1256.3708 715.88416,  1234.2723 740.32874C1210.7386 625.15784,  1223.6431 497.65805,  1314.0 419.0C1264.0945 391.599,  1187.1108 407.0,  1132.0 407.0C1123.453 596.75085,  1114.982 622.8684,  1175.5542 790.51337L1179.7684 832.126 C1169.4688 832.11053,  1184.8987 868.8723,  1189.2386 884.0447L1184.1584 842.16 C1183.3762 836.5342,  1183.1858 830.91895,  1183.5514 825.39276C1202.8187 812.17377,  1218.8336 799.4956,  1224.8906 796.6845C1240.4532 789.4615,  1227.4897 854.4323,  1227.4781 916.6504C1228.0377 916.69244,  1228.3876 916.7054,  1228.7362 916.76733C1255.7854 919.0114,  1258.4502 907.7448,  1280.028 897.1721C1285.9708 894.30206,  1281.2073 923.2824,  1284.5328 957.97754C1315.6245 957.02985,  1347.2256 881.76404,  1381.8829 923.9863C1395.4303 940.6001,  1402.0192 984.27106,  1435.0801 971.71246C1460.991 961.8999,  1466.2643 918.3362,  1486.9368 903.5656C1494.5175 898.15424,  1505.6521 898.6511,  1517.202 902.0032C1522.1489 903.293,  1526.957 905.15765,  1531.6688 907.43115C1545.1462 913.6432,  1557.4681 922.1377,  1563.1399 927.67456C1573.8159 938.14764,  1573.1469 900.89453,  1576.5101 864.4473C1579.8655 828.0159,  1587.2513 792.3912,  1614.0448 806.10516C1626.3591 812.412,  1637.1487 838.79376,  1644.1891 868.5076L1643.8448 870.4792 C1645.4009 876.20575,  1645.4092 881.93115,  1644.751 887.8199L1634.0991 916.4617 C1615.275 939.6749,  1599.5114 966.0198,  1586.8562 994.5889C1587.4921 989.0998,  1590.997 986.2264,  1595.8977 984.58167C1593.9573 996.5305,  1590.1528 1006.73413,  1584.539 1016.46173C1583.1135 1013.52496,  1584.1163 1011.84247,  1585.1614 1010.0894C1598.9587 995.8673,  1625.5096 979.42676,  1640.5651 969.3046C1643.5973 973.035,  1642.8932 974.08203,  1642.1348 975.1038C1635.7585 981.20996,  1629.666 986.18317,  1623.0752 989.27655C1623.1198 993.692,  1622.7822 998.27344,  1622.1394 1002.9874C1632.4143 994.6911,  1640.7867 983.25446,  1646.8082 970.77246C1646.0753 968.66956,  1647.2114 967.05493,  1648.3269 965.3729C1648.0267 964.05493,  1648.0267 964.05493,  1648.0267 964.05493C1651.2242 954.36,  1650.842 944.10645,  1647.1001 935.00555C1642.8357 934.4849,  1647.9468 929.6295,  1652.7712 924.5953C1652.5701 926.12573,  1652.6653 928.5013,  1652.7185 930.8095C1653.4874 921.17633,  1653.3448 908.25616,  1652.666 893.96844C1662.0259 882.39874,  1672.4374 872.0948,  1683.3091 862.53326C1683.28 871.4204,  1681.299 879.3019,  1678.5077 886.50433" stroke-linecap="round" path-type="area" fill="#0000ff" fill-opacity="0.7882353067398071"/><path rough-pts="1388.2314,934.1623 1394.3489,946.5344 1401.164,958.789 1409.605,968.61255 1420.6008,973.6915 1435.0801,971.71246 1446.4825,964.2831 1455.4464,952.9659 1462.9728,939.4983 1470.0627,925.61743 1477.7169,913.0607 1486.9368,903.5656 1498.5958,899.60583 1512.7415,900.85095 1516.2753,905.16235 1531.2037,907.88654 1542.2828,912.9148 1554.5731,920.71277 1563.1399,927.67456 1567.6036,929.15857 1570.6036,924.03625 1572.5673,913.656 1573.9214,899.3657 1575.0933,882.51337 1576.5101,864.4473 1578.5947,846.5235 1581.7783,830.0822 1586.4883,816.47174 1593.1511,807.0399 1602.1941,803.135 1614.0448,806.10516 1618.1165,811.9054 1627.3313,821.12744 1638.5525,848.07605 1644.1895,868.5079 1643.8448,870.4792 1642.2395,887.54004 1638.6036,900.45795 1634.0991,916.4617 1630.8873,927.8726 1623.5747,953.8532 1612.7471,963.50385 1595.8977,984.58167 1593.779,994.4264 1590.7548,1003.5938 1586.8329,1012.2617 1581.0156,1014.449 1585.1614,1010.0894 1594.7762,1001.35815 1606.2881,992.5044 1614.1375,987.38196 1618.5326,983.9377 1624.7402,979.7533 1630.3462,976.0677 1640.0653,969.42316 1640.482,973.8754 1623.0753,989.27655 1620.4563,1002.77313 1608.8949,1012.54364 1606.8999,1015.9389 1573.0023,1030.5308 1571.2999,1032.3175 1565.1074,1040.2628 1558.4327,1046.6958 1550.5458,1052.0667 1540.7164,1056.8259 1455.1493,1080.3434 1452.251,1080.0413 1364.1608,1084.2747 1325.1097,1078.9991 1325.235,1079.3042 1277.8757,1066.5404 1226.2122,1039.4309 1206.4185,1025.0609 1159.9144,957.7566 1149.6808,897.29596 1148.4884,862.54816 1152.0807,859.11176 1156.8005,853.4798 1170.0422,840.87524 1179.8464,832.5506 1182.654,829.86475 1184.1584,842.16 1189.3169,884.31976 1188.9019,882.8968 1185.167,871.54956 1180.7451,858.1974 1177.277,845.44147 1176.4045,835.884 1179.7684,832.126 1175.7926,790.8885 1179.0,800.0 1182.1482,825.73065 1184.3575,816.9133 1189.9744,801.5111 1192.995,796.5821 1187.1348,806.2512 1183.6671,823.8606 1185.2644,842.65814 1187.3607,825.6431 1201.8318,813.3757 1215.6378,802.6393 1224.8906,796.6845 1230.4867,798.7421 1232.4807,810.75024 1232.0248,830.6271 1230.2709,856.2906 1228.3712,885.65894 1227.6879,916.66736 1227.8977,916.68134 1228.1077,916.69556 1228.3174,916.71265 1228.5269,916.7356 1228.7362,916.76733 1240.4291,916.8292 1249.2607,915.0338 1256.434,911.776 1263.1509,907.45 1270.6146,902.4505 1280.028,897.1721 1282.1941,898.2702 1283.098,903.9508 1283.262,913.4879 1283.2075,926.15533 1283.457,941.2272 1284.5328,957.97754 1300.1328,952.1985 1315.8885,939.361 1331.8707,924.7932 1348.1499,913.8228 1364.7971,911.77783 1381.8829,923.9863 " stroke-linejoin="round" id="Polygon_72" d="M1388.2316 934.1624 C1398.3619 953.59515,  1407.5293 982.178,  1435.0801 971.71246C1460.991 961.8999,  1466.2643 918.3362,  1486.9368 903.5656C1494.5175 898.15424,  1505.6521 898.6511,  1517.202 902.0032C1522.1489 903.293,  1526.957 905.15765,  1531.6688 907.43115C1545.1462 913.6432,  1557.4681 922.1377,  1563.1399 927.67456C1573.8159 938.14764,  1573.1469 900.89453,  1576.5101 864.4473C1579.8655 828.0159,  1587.2513 792.3912,  1614.0448 806.10516C1626.3591 812.412,  1637.1487 838.79376,  1644.1891 868.5076L1643.8448 870.4792 C1645.4009 876.20575,  1645.4092 881.93115,  1644.751 887.8199L1623.5747 953.8532 C1613.2076 962.59705,  1603.7833 972.65485,  1595.8977 984.58167C1593.9573 996.5305,  1590.1528 1006.73413,  1584.539 1016.46173C1583.1135 1013.52496,  1584.1163 1011.84247,  1585.1614 1010.0894C1598.9587 995.8673,  1625.5096 979.42676,  1640.5651 969.3046C1643.5973 973.035,  1642.8932 974.08203,  1642.1348 975.1038C1635.7585 981.20996,  1629.666 986.18317,  1623.0752 989.27655C1623.1198 993.692,  1622.7822 998.27344,  1622.1394 1002.9874C1618.1615 1007.7818,  1614.1455 1010.9945,  1609.868 1013.94696C1598.5431 1021.07495,  1586.1808 1026.6183,  1573.0022 1030.531C1563.9615 1043.2968,  1556.3622 1050.3044,  1540.7164 1056.8259C1381.7542 1122.0608,  1129.5127 1082.2556,  1148.4884 862.54816C1153.2295 856.354,  1167.595 842.7565,  1182.7946 829.4659L1189.3169 884.31976 C1184.8987 868.8723,  1169.4688 832.11053,  1179.7684 832.126L1175.7926 790.8885 C1176.6788 793.62616,  1177.8273 796.7877,  1179.0 800.0L1182.1482 825.73065 C1184.5372 815.8543,  1187.986 805.89215,  1192.1841 796.2331C1186.8794 804.97516,  1184.2372 815.0273,  1183.5514 825.39276C1202.8187 812.17377,  1218.8336 799.4956,  1224.8906 796.6845C1240.4532 789.4615,  1227.4897 854.4323,  1227.4781 916.6504C1228.0377 916.69244,  1228.3876 916.7054,  1228.7362 916.76733C1255.7854 919.0114,  1258.4502 907.7448,  1280.028 897.1721C1285.9708 894.30206,  1281.2073 923.2824,  1284.5328 957.97754C1315.6245 957.02985,  1347.2256 881.76404,  1381.8829 923.9863C1384.1409 926.7553,  1386.2054 930.2759,  1388.2316 934.1624" stroke-linecap="round" path-type="area" fill="#0000ff" fill-opacity="0.7882353067398071"/><path rough-pts="1281.2504,669.5669 1296.6887,714.8512 1322.6045,753.1866 1356.9907,783.22754 1397.84,803.62836 1443.1455,813.04333 1490.9,810.127 1512.7494,804.37537 1533.2478,796.1283 1552.257,785.5937 1553.9899,782.9336 1552.7026,771.3685 1562.1132,770.47534 1571.5905,769.96704 1571.7933,770.72797 1585.2546,758.4918 1595.1478,746.3303 1583.9469,736.03735 1577.6003,715.4758 1576.2545,710.276 1567.3154,704.2046 1555.0304,691.0702 1546.5641,680.5225 1542.1566,675.3512 1537.6417,670.2464 1528.3167,660.23395 1518.6418,650.47723 1508.6709,640.9684 1498.4568,631.6997 1491.57,637.51196 1469.9625,648.96796 1441.5522,656.79785 1410.1082,659.7689 1379.3986,656.6484 1353.1921,646.2036 1347.7859,642.3036 1347.1992,635.7034 1342.4501,634.25055 1334.953,636.3864 1326.1223,640.5525 1317.3723,645.1904 1310.118,648.74176 1303.9506,651.69135 1297.7614,655.3736 1291.8785,659.4642 1286.6299,663.6385 1282.343,667.57214 " stroke-linejoin="round" id="Polygon_102" d="M1281.2505 669.5671 C1300.3118 766.1871,  1394.28 829.1883,  1490.9 810.127C1514.3907 805.49274,  1535.8943 796.43066,  1554.7017 784.0074C1553.1534 778.7657,  1552.879 775.0757,  1552.7026 771.3685C1559.006 770.612,  1565.3755 770.19574,  1571.7693 769.9606C1580.7437 763.53436,  1588.5471 755.47156,  1595.5184 746.7811C1582.383 737.1213,  1579.5166 723.0758,  1576.367 710.47363C1568.5542 705.55066,  1561.3856 699.3408,  1555.0304 691.0702C1538.5898 669.6982,  1519.0919 650.0024,  1498.4572 631.69965C1496.3766 633.6652,  1494.0858 635.6034,  1491.57 637.51196C1461.9081 660.0139,  1383.6831 671.5206,  1347.7859 642.3036C1351.7184 622.91736,  1322.1882 643.7647,  1310.118 648.74176C1299.1575 653.22797,  1286.4738 662.92316,  1280.8539 669.1346" stroke-linecap="round" path-type="area" fill="#0000ff" fill-opacity="0.7882353067398071"/><path rough-pts="1586.6875,1137.2517 1604.8982,1137.5702 1623.0029,1136.6302 1640.9545,1134.4701 1658.7056,1131.1271 1676.2095,1126.6394 1693.419,1121.0447 1696.9541,1135.4694 1699.7998,1150.0262 1702.0083,1164.6685 1703.6312,1179.3486 1704.7207,1194.02 1705.329,1208.6355 1691.2539,1210.462 1675.1447,1213.7008 1658.6372,1217.6202 1643.3661,1221.4884 1630.967,1224.5734 1623.0757,1226.1433 1469.1342,1226.1431 1452.251,1080.0413 1455.1493,1080.3434 1540.7164,1056.8259 1550.5458,1052.0667 1558.4327,1046.6958 1565.1074,1040.2628 1571.2999,1032.3175 1572.6625,1030.3336 1576.3264,1028.809 1582.021,1020.60754 1581.0156,1014.449 1586.8329,1012.2617 1590.7548,1003.5938 1593.779,994.4264 1595.8977,984.58167 1612.7471,963.50385 1623.5747,953.8532 1614.1375,987.38196 1618.5326,983.9377 1630.3462,976.0677 1640.0653,969.42316 1640.482,973.8754 1623.0752,989.27655 1619.6017,1007.17804 1620.5029,1012.4223 1613.7397,1037.3883 1604.8815,1063.2644 1596.023,1089.1403 1589.2599,1114.1061 " stroke-linejoin="round" id="Polygon_50" d="M1586.6875 1137.2517 C1623.1842 1139.1721,  1659.3256 1133.3159,  1693.419 1121.0447C1701.2136 1149.7307,  1704.5593 1179.4917,  1705.329 1208.6355C1680.3033 1210.3882,  1633.2607 1225.0063,  1623.0757 1226.1433L1469.1342 1226.1431 L1452.251 1080.0413 C1483.3318 1076.1436,  1513.4012 1068.0355,  1540.7164 1056.8259C1556.3622 1050.3044,  1563.9615 1043.2968,  1572.8585 1030.0422C1585.6641 1016.9283,  1592.9426 1002.77875,  1595.8977 984.58167C1603.7833 972.65485,  1613.2076 962.59705,  1622.9272 953.1866L1614.1375 987.38196 C1623.6688 980.34625,  1633.4138 974.1126,  1640.5651 969.30457C1643.5973 973.035,  1642.8932 974.08203,  1642.1348 975.1038C1635.7585 981.20996,  1629.666 986.18317,  1623.0752 989.27655C1623.5184 1033.1414,  1586.2446 1093.3875,  1586.6875 1137.2517" stroke-linecap="round" path-type="area" fill="#0000ff" fill-opacity="0.7882353067398071"/><path rough-pts="1236.338,1243.2405 1392.5654,1243.2402 1325.1097,1078.9991 1325.235,1079.3042 1277.8757,1066.5404 1226.2122,1039.4309 1233.5936,1065.9276 1235.3956,1091.334 1228.7009,1107.0535 1212.546,1115.531 1185.9669,1119.2123 1148.0005,1120.5427 1133.9675,1162.9438 1133.2241,1197.2793 1144.4299,1223.0132 1166.2445,1239.6088 1197.3274,1246.5299 " stroke-linejoin="round" id="Polygon_123" d="M1236.338 1243.2405 L1392.5654 1243.2402 L1325.1097 1078.9991 C1288.5132 1072.4761,  1254.2152 1059.6556,  1225.7327 1040.1466C1248.524 1117.346,  1232.266 1118.6841,  1148.0005 1120.5427C1105.7516 1213.053,  1151.2821 1260.3877,  1236.3384 1243.2405" stroke-linecap="round" path-type="area" fill="#0000ff" fill-opacity="0.7882353067398071"/><path rough-pts="1698.0487,534.7799 1702.349,595.0784 1702.1926,681.5535 1695.8834,779.208 1683.3091,862.53357 1678.5074,886.5043 1666.319,908.5935 1652.8169,922.73364 1653.3372,918.32574 1652.1809,885.0399 1648.771,847.7215 1642.7185,812.2341 1634.0436,790.0413 1633.635,784.4416 1621.1312,770.2076 1603.5344,754.0372 1608.0747,749.9637 1598.9674,742.34015 1595.816,688.9243 1592.1711,637.97565 1594.3022,593.2906 1608.479,558.66534 1640.9712,537.8963 " stroke-linejoin="round" id="Polygon_22" d="M1698.0487 534.7799 C1705.7656 589.4025,  1706.5483 747.4431,  1683.8579 862.66736C1681.394 889.1039,  1669.104 907.33813,  1653.7223 923.59674C1653.5531 875.1139,  1645.7762 779.658,  1621.1312 770.2076C1612.286 766.9633,  1605.3921 762.8994,  1599.9415 758.29144C1607.811 747.9671,  1606.2317 743.5472,  1604.1554 739.61566C1597.3389 635.5724,  1555.1285 520.8292,  1698.0487 534.7799" stroke-linecap="round" path-type="area" fill="#0000ff" fill-opacity="0.7882353067398071"/><path rough-pts="1350.2094,912.9698 1361.8273,904.84106 1374.7349,900.20795 1388.2168,899.04126 1401.5573,901.3114 1414.0408,906.9887 1424.9519,916.04407 1427.4878,919.00696 1443.207,908.91003 1460.3274,901.9411 1478.3776,898.24677 1496.8867,897.9745 1515.3846,901.27216 1516.2753,905.16235 1527.8214,905.7908 1531.2037,907.88654 1542.2828,912.9148 1554.5731,920.71277 1563.1399,927.67456 1567.6036,929.15857 1570.6036,924.03625 1572.5673,913.656 1573.9214,899.3657 1575.0933,882.51337 1576.5101,864.4473 1578.5947,846.5235 1581.7783,830.0822 1586.4883,816.47174 1593.1511,807.0399 1602.1941,803.135 1614.0448,806.10516 1618.1165,811.9054 1627.3313,821.12744 1638.5525,848.07605 1644.1895,868.5079 1640.3406,847.0191 1638.6179,820.5189 1635.087,796.9937 1631.9349,788.578 1615.6967,766.0882 1604.2676,755.9147 1609.5569,769.4609 1600.1179,769.59064 1590.6235,769.64087 1581.1044,769.72766 1571.7933,770.72797 1569.6385,772.979 1553.9899,782.9336 1553.8596,786.1168 1555.6339,800.74976 1557.5964,815.33466 1559.318,829.93915 1560.3701,844.63086 1560.3234,859.47736 1544.4609,859.5675 1529.1459,855.2873 1514.1638,849.1515 1499.3008,843.67474 1484.3431,841.37213 1469.0767,844.7583 1466.1909,847.5929 1462.9365,852.8461 1459.3469,859.8925 1455.456,868.1062 1451.2974,876.8619 1446.9044,885.5341 1442.299,893.48364 1437.5266,900.09863 1432.6208,904.75336 1427.6151,906.8221 1422.5433,905.6797 1417.4392,900.7006 1413.1096,893.34485 1409.154,884.79456 1405.1462,875.88947 1400.6599,867.4692 1395.2694,860.3736 1388.5485,855.4424 1373.4038,860.655 1362.2102,864.5079 1352.9917,867.6808 1343.7732,870.8536 1332.5795,874.7065 1317.435,879.9191 1318.4551,869.5291 1319.8997,858.9695 1321.4053,848.3242 1322.6083,837.6775 1323.145,827.1134 1322.6523,816.7162 1311.317,824.50494 1300.2295,833.4984 1289.0085,842.33093 1277.2733,849.6365 1264.6432,854.0495 1250.737,854.2043 1252.4124,827.32666 1260.0151,806.8415 1270.3656,791.20276 1280.2843,778.8649 1286.5919,768.28217 1286.1085,757.90875 1278.7815,759.8628 1271.7595,761.33655 1264.8578,762.38965 1257.892,763.0815 1250.6779,763.4721 1243.0306,763.62085 1249.1853,752.7107 1256.0715,742.3549 1263.385,732.33325 1270.8214,722.4254 1278.0764,712.41174 1284.8461,702.0718 1279.0685,702.1011 1273.291,702.09454 1267.5137,702.05133 1261.737,701.9709 1255.9617,701.8524 1254.55,703.30963 1247.9862,718.90735 1239.1852,734.2425 1232.1099,738.3748 1235.0,755.0 1218.4937,763.70605 1204.8276,775.55945 1196.0193,788.45465 1192.995,796.5821 1187.1348,806.2512 1183.6671,823.8606 1187.3607,825.6431 1201.8318,813.3757 1215.6378,802.6393 1224.8906,796.6845 1230.4867,798.7421 1232.4807,810.75024 1232.0248,830.6271 1230.2709,856.2906 1228.3712,885.65894 1227.6879,916.66736 1227.8977,916.68134 1228.1077,916.69556 1228.3174,916.71265 1228.5269,916.7356 1228.7362,916.76733 1240.4291,916.8292 1249.2607,915.0338 1256.434,911.776 1263.1509,907.45 1270.6146,902.4505 1280.028,897.1721 1282.1941,898.2702 1283.098,903.9508 1283.262,913.4879 1283.2075,926.15533 1283.457,941.2272 1283.6282,945.28577 1299.5015,942.6135 1313.9448,938.0248 1327.0542,931.6483 1338.9263,923.61273 1349.6567,914.0467 1350.5288,913.1575 " stroke-linejoin="round" id="Polygon_145" d="M1350.2094 912.9698 C1371.6785 893.1971,  1405.1792 894.5751,  1424.9519 916.04407C1425.8398 917.0082,  1426.6852 917.9966,  1427.4879 919.00696C1452.7723 899.254,  1486.1813 892.43665,  1517.2845 901.82477C1535.8137 907.4047,  1555.5039 920.22015,  1563.1399 927.67456C1573.8159 938.14764,  1573.1469 900.89453,  1576.5101 864.4473C1579.8655 828.0159,  1587.2513 792.3912,  1614.0448 806.10516C1626.3591 812.412,  1637.1487 838.79376,  1644.1891 868.5076C1638.6569 851.6743,  1639.6849 822.7328,  1636.7902 796.80853C1628.422 781.26135,  1618.0082 767.2548,  1605.1151 755.0256C1609.6929 759.46014,  1609.8737 764.17126,  1609.5569 769.4609C1597.0813 769.73724,  1584.3782 769.49677,  1571.7693 769.9606C1566.6687 775.5569,  1560.8282 779.9605,  1554.7017 784.00745C1555.8923 808.1864,  1561.6168 833.3213,  1560.3234 859.47736C1527.9088 865.7047,  1500.0614 830.6206,  1469.0767 844.7583C1463.6963 847.5919,  1455.9022 868.6906,  1446.9044 885.5341C1437.8829 902.3511,  1427.658 914.9129,  1417.4392 900.7006C1408.1224 887.7434,  1403.6049 862.5808,  1388.5485 855.4424C1352.9917 867.6808,  1352.9917 867.6808,  1317.435 879.9191C1318.808 859.365,  1324.9103 837.28796,  1322.6523 816.7162C1299.4803 830.17847,  1280.0792 859.0638,  1250.737 854.2043C1246.0404 793.0263,  1295.9862 779.47687,  1286.1085 757.90875C1271.0267 762.337,  1258.8811 763.5255,  1243.0306 763.62085C1254.4056 741.09973,  1271.9956 723.2247,  1284.8461 702.0718C1275.217 702.1502,  1265.5864 702.082,  1255.9619 701.85254C1250.0206 714.3358,  1245.1525 728.2936,  1234.2723 740.32874C1232.7007 743.9721,  1233.812 749.507,  1235.0 755.0C1217.8942 761.6452,  1204.322 773.48224,  1195.3947 788.07104C1194.5697 790.8999,  1193.348 793.5549,  1192.184 796.2331C1186.8794 804.97516,  1184.2372 815.0273,  1183.5514 825.39276C1202.8187 812.17377,  1218.8336 799.4956,  1224.8906 796.6845C1240.4532 789.4615,  1227.4897 854.4323,  1227.4781 916.6504C1228.0377 916.69244,  1228.3876 916.7054,  1228.7362 916.76733C1255.7854 919.0114,  1258.4502 907.7448,  1280.028 897.1721C1285.228 894.6608,  1282.231 916.535,  1283.6283 945.28577C1312.0216 942.43115,  1333.7332 930.6231,  1350.9226 912.74976" stroke-linecap="round" path-type="area" fill="#0d0d0d" fill-opacity="0.7686274647712708"/><path rough-pts="1364.7971,911.77783 1348.1499,913.8228 1331.8707,924.7932 1315.8885,939.361 1300.1328,952.1985 1284.5328,957.97754 1283.457,941.2272 1283.2075,926.15533 1283.262,913.4879 1283.098,903.9508 1282.1941,898.2702 1280.028,897.1721 1270.6146,902.4505 1263.1509,907.45 1256.434,911.776 1249.2607,915.0338 1240.4291,916.8292 1228.7362,916.76733 1228.5269,916.7356 1228.3174,916.71265 1228.1077,916.69556 1227.8977,916.68134 1227.6879,916.66736 1228.3712,885.65894 1230.2709,856.2906 1232.0248,830.6271 1232.4807,810.75024 1230.4867,798.7421 1224.8906,796.6845 1215.6378,802.6393 1201.8318,813.3757 1187.3607,825.6431 1185.2644,842.65814 1190.6722,836.16034 1190.37,852.0187 1189.9056,868.059 1189.9902,883.8601 1189.3169,884.31976 1190.3086,889.63745 1191.3345,898.9993 1194.649,913.05566 1200.6448,925.6074 1203.6548,930.14935 1207.6909,936.0273 1212.5609,942.6746 1218.0725,949.52454 1224.0334,956.01056 1230.2518,961.566 1236.5458,965.60986 1242.7129,967.59 1248.5612,966.9398 1253.8984,963.0924 1258.5322,955.48126 1262.2708,943.5397 1261.6968,954.1521 1261.6682,965.2234 1262.226,976.49994 1263.41,987.7276 1265.2612,998.6525 1267.8204,1009.02106 1287.0302,1000.65656 1301.6056,990.4585 1313.3932,979.3901 1324.2393,968.4143 1335.99,958.4945 1350.4916,950.59406 1358.9902,953.53894 1369.4131,965.72455 1381.4761,983.1625 1394.8948,1001.86395 1409.3848,1017.8401 1424.6624,1027.1025 1443.9795,1026.4755 1459.1876,1014.6087 1471.417,995.7744 1481.7971,974.2443 1491.4585,954.2904 1501.531,940.18475 1515.4608,933.2612 1530.4741,934.4744 1545.4924,941.01434 1559.4354,950.07043 1571.2238,958.83264 1579.7782,964.4909 1582.3816,961.2906 1584.5789,950.6602 1586.4506,934.81104 1588.0757,915.95404 1589.5345,896.3004 1590.9071,878.0612 1593.0474,864.1698 1596.7737,851.7202 1601.6707,840.395 1607.3218,829.8763 1613.311,819.84656 1618.1165,811.9054 1614.0448,806.10516 1602.1941,803.135 1593.1511,807.0399 1586.4883,816.47174 1581.7783,830.0822 1578.5947,846.5235 1576.5101,864.4473 1575.0933,882.51337 1573.9214,899.3657 1572.5673,913.656 1570.6036,924.03625 1567.6036,929.15857 1563.1399,927.67456 1554.5731,920.71277 1542.2828,912.9148 1531.2037,907.88654 1516.2753,905.16235 1512.7415,900.85095 1498.5958,899.60583 1486.9368,903.5656 1477.7169,913.0607 1470.0627,925.61743 1462.9728,939.4983 1455.4464,952.9659 1446.4825,964.2831 1435.0801,971.71246 1420.6008,973.6915 1409.605,968.61255 1401.164,958.789 1394.3489,946.5344 1388.2314,934.1623 1381.8829,923.9863 " stroke-linejoin="round" id="Polygon_129" d="M1364.7971 911.77783 C1336.706 904.78827,  1310.4426 957.1878,  1284.5328 957.97754C1281.2073 923.2824,  1285.9708 894.30206,  1280.028 897.1721C1258.4502 907.7448,  1255.7854 919.0114,  1228.7362 916.76733C1228.3876 916.7054,  1228.0377 916.69244,  1227.688 916.66736C1227.4897 854.4323,  1240.4532 789.4615,  1224.8906 796.6845C1218.8336 799.4956,  1202.8187 812.17377,  1186.8613 825.93445C1183.1857 830.9176,  1183.376 836.53143,  1184.1577 842.1559C1186.4282 840.3941,  1188.1737 838.2279,  1190.6722 836.16034C1190.6879 851.78723,  1189.3944 868.3196,  1189.9902 883.8599C1189.9796 886.6351,  1190.3973 888.5961,  1190.3086 889.63745C1191.2871 902.9922,  1194.0182 915.40594,  1200.6448 925.6074C1205.511 932.97754,  1217.6859 951.7636,  1230.2518 961.566C1242.8385 971.3399,  1255.8173 972.1311,  1262.2708 943.5397C1260.6049 964.13635,  1261.9674 989.0099,  1267.8204 1009.02106C1312.1049 994.7681,  1317.5067 963.73364,  1350.4916 950.59406C1365.3755 944.5839,  1393.5095 1017.9506,  1424.6624 1027.1025C1468.159 1039.936,  1480.2216 959.69995,  1501.531 940.18475C1527.587 916.32776,  1566.623 958.15186,  1579.7782 964.4909C1585.4443 966.9944,  1588.1952 911.65106,  1590.9071 878.0612C1593.2485 849.54504,  1606.8641 830.93524,  1618.1395 811.83844C1617.8176 808.5363,  1615.9495 807.0806,  1614.0448 806.10516C1587.2513 792.3912,  1579.8655 828.0159,  1576.5101 864.4473C1573.1469 900.89453,  1573.8159 938.14764,  1563.1399 927.67456C1557.4681 922.1377,  1545.1462 913.6432,  1531.5554 907.4259C1526.957 905.15765,  1522.1489 903.293,  1517.2845 901.82477C1505.6521 898.6511,  1494.5175 898.15424,  1486.9368 903.5656C1466.2643 918.3362,  1460.991 961.8999,  1435.0801 971.71246C1402.0192 984.27106,  1395.4303 940.6001,  1381.8829 923.9863C1376.1067 916.9493,  1370.4154 913.1758,  1364.7971 911.77783" stroke-linecap="round" path-type="area" fill="#ffbd00" fill-opacity="1.0"/><path rough-pts="1317.435,879.9191 1332.5795,874.7065 1343.7732,870.8536 1352.9917,867.6808 1362.2102,864.5079 1373.4038,860.655 1388.5485,855.4424 1395.2694,860.3736 1400.6599,867.4692 1405.1462,875.88947 1409.154,884.79456 1413.1096,893.34485 1417.4392,900.7006 1422.5433,905.6797 1427.6151,906.8221 1432.6208,904.75336 1437.5266,900.09863 1442.299,893.48364 1446.9044,885.5341 1451.2974,876.8619 1455.456,868.1062 1459.3469,859.8925 1462.9365,852.8461 1466.1909,847.5929 1469.0767,844.7583 1484.3431,841.37213 1499.3008,843.67474 1514.1638,849.1515 1529.1459,855.2873 1544.4609,859.5675 1560.3234,859.47736 1560.3701,844.63086 1559.318,829.93915 1557.5964,815.33466 1555.6339,800.74976 1553.8596,786.1168 1553.9899,782.9336 1552.257,785.5937 1533.2478,796.1283 1512.7494,804.37537 1490.9,810.127 1443.1455,813.04333 1397.84,803.62836 1356.9907,783.22754 1322.6045,753.1866 1296.6887,714.8512 1281.2504,669.5669 1270.3768,675.6122 1261.2294,688.52057 1255.9617,701.8524 1261.737,701.9709 1267.5137,702.05133 1273.291,702.09454 1279.0685,702.1011 1284.8461,702.0718 1278.0764,712.41174 1270.8214,722.4254 1263.385,732.33325 1256.0715,742.3549 1249.1853,752.7107 1243.0306,763.62085 1250.6779,763.4721 1257.892,763.0815 1264.8578,762.38965 1271.7595,761.33655 1278.7815,759.8628 1286.1085,757.90875 1286.5919,768.28217 1280.2843,778.8649 1270.3656,791.20276 1260.0151,806.8415 1252.4124,827.32666 1250.737,854.2043 1264.6432,854.0495 1277.2733,849.6365 1289.0085,842.33093 1300.2295,833.4984 1311.317,824.50494 1322.6523,816.7162 1323.145,827.1134 1322.6083,837.6775 1321.4053,848.3242 1319.8997,858.9695 1318.4551,869.5291 " stroke-linejoin="round" id="Polygon_83" d="M1317.435 879.9191 C1352.9917 867.6808,  1352.9917 867.6808,  1388.5485 855.4424C1403.6049 862.5808,  1408.1224 887.7434,  1417.4392 900.7006C1427.658 914.9129,  1437.8829 902.3511,  1446.9044 885.5341C1455.9022 868.6906,  1463.6963 847.5919,  1469.0767 844.7583C1500.0614 830.6206,  1527.9088 865.7047,  1560.3234 859.47736C1561.6168 833.3213,  1555.8923 808.1864,  1553.4958 782.4433C1535.8943 796.43066,  1514.3907 805.49274,  1490.9 810.127C1394.28 829.1883,  1300.3118 766.1871,  1281.2505 669.5671C1266.75 675.78876,  1260.8054 688.0513,  1255.3306 701.3948C1265.5864 702.082,  1275.217 702.1502,  1284.8461 702.0718C1271.9956 723.2247,  1254.4056 741.09973,  1243.0306 763.62085C1258.8811 763.5255,  1271.0267 762.337,  1286.1085 757.90875C1295.9862 779.47687,  1246.0404 793.0263,  1250.737 854.2043C1280.0792 859.0638,  1299.4803 830.17847,  1322.6523 816.7162C1324.9103 837.28796,  1318.808 859.365,  1317.435 879.9191" stroke-linecap="round" path-type="area" fill="#ffbd00" fill-opacity="1.0"/><path rough-pts="1335.2578,627.202 1325.6898,598.80774 1327.3673,573.81537 1338.0398,552.1714 1355.4553,533.822 1377.3632,518.7136 1401.5121,506.79257 1394.624,519.0045 1388.4408,535.4357 1384.0865,553.96265 1382.6842,572.46185 1385.3579,588.8099 1393.2314,600.8834 1406.3137,608.6723 1418.5441,609.7478 1429.9094,605.1273 1440.396,595.8285 1449.9905,582.8688 1458.6798,567.26587 1466.4327,550.0014 1473.2535,532.1288 1479.1294,514.6658 1484.0468,498.62976 1487.9922,485.03842 1490.9525,474.9093 1492.5779,477.57852 1491.2949,480.95947 1488.4796,484.81104 1485.5071,488.89178 1483.7529,492.96057 1484.5928,496.77628 1492.9703,520.2842 1503.6195,544.5809 1512.6726,569.05914 1516.2605,593.1118 1510.5156,616.1318 1498.4568,631.6997 1491.57,637.51196 1469.9625,648.96796 1441.5522,656.79785 1410.1082,659.7689 1379.3986,656.6484 1353.1921,646.2036 1347.7859,642.3036 " stroke-linejoin="round" id="Polygon_101" d="M1335.2578 627.202 C1303.3752 566.9758,  1352.4741 527.4831,  1401.5121 506.79257C1387.7805 525.5818,  1371.5356 582.4266,  1393.2314 600.8834C1420.2393 623.8533,  1442.2156 600.4366,  1458.6798 567.26587C1475.1088 534.0233,  1486.0258 491.02692,  1490.9525 474.9093C1498.0286 479.3753,  1479.4021 489.55887,  1484.5928 496.77628C1496.4977 542.59875,  1545.2415 596.7962,  1491.57 637.51196C1457.6707 663.2285,  1360.342 674.58386,  1335.2578 627.202" stroke-linecap="round" path-type="area" fill="#ffbd00" fill-opacity="1.0"/><path rough-pts="1336.2366,753.3753 1324.3667,742.57007 1318.293,726.4783 1317.807,706.7529 1322.6996,685.0467 1332.7622,663.0126 1347.7859,642.3036 1368.921,654.26794 1381.6276,676.16266 1390.0165,702.4305 1398.1984,727.51385 1410.2844,745.8553 1430.3854,751.8976 1442.4036,745.8574 1457.574,731.567 1473.7214,712.5293 1488.6707,692.2466 1500.2466,674.22156 1506.2743,661.9571 1509.0905,671.74567 1511.3075,688.5636 1512.7369,708.94653 1513.1893,729.4295 1512.4763,746.548 1510.4093,756.8373 1503.6814,760.7039 1489.949,763.83057 1472.4792,766.27997 1454.5385,768.1149 1439.3938,769.3984 1430.3119,770.19324 1418.1926,770.9869 1403.2888,770.4502 1386.6211,768.50226 1369.2094,765.0612 1352.0745,760.04596 " stroke-linejoin="round" id="Polygon_106" d="M1336.2366 753.3753 C1306.5615 738.15356,  1312.9165 681.2947,  1347.7859 642.3035C1401.2255 652.5971,  1379.4279 755.8172,  1430.3854 751.8976C1449.8198 750.4026,  1501.2175 678.3906,  1506.2743 661.9571C1512.3802 672.195,  1516.0236 745.39764,  1510.4093 756.8373C1506.136 765.35266,  1440.235 769.0503,  1430.3119 770.19324C1409.5385 773.05664,  1365.9348 768.4264,  1336.2366 753.3753" stroke-linecap="round" path-type="area" fill="#00ff00" fill-opacity="0.8666666746139526"/><path rough-pts="1581.0156,1014.449 1582.021,1020.60754 1576.3264,1028.809 1573.0022,1030.531 1606.8999,1015.9389 1635.8059,994.38965 1658.8098,967.07886 1675.0018,935.2021 1683.4717,899.9551 1683.3091,862.53326 1681.7247,873.04474 1658.0208,948.0665 1648.5239,963.7215 1640.482,973.8754 1640.0653,969.42316 1630.3462,976.0677 1618.5326,983.9377 1614.1375,987.38196 1606.2881,992.5044 1594.7762,1001.35815 1585.1614,1010.0894 " stroke-linejoin="round" id="Polygon_11" d="M1584.539 1016.46173 C1581.6034 1021.5484,  1578.1731 1026.5049,  1574.256 1031.5127C1645.1824 1009.1011,  1692.8738 938.7546,  1683.3091 862.53326C1674.2886 911.2615,  1660.5442 952.2402,  1641.3843 974.6346C1642.8932 974.08203,  1643.5973 973.035,  1644.2474 971.9664C1625.5096 979.42676,  1598.9587 995.8673,  1585.1614 1010.0894C1584.1163 1011.84247,  1583.1135 1013.52496,  1582.1459 1015.1412" stroke-linecap="round" path-type="area" fill-opacity="0.0"/><path rough-pts="1595.8977,984.58167 1593.779,994.4264 1590.7548,1003.5938 1586.8329,1012.2617 1581.0156,1014.449 1585.1614,1010.0894 1594.7762,1001.35815 1606.2881,992.5044 1614.1375,987.38196 1618.5326,983.9377 1630.3462,976.0677 1640.0653,969.42316 1640.482,973.8754 1648.5239,963.7215 1658.0208,948.0665 1681.7247,873.04474 1683.3091,862.53357 1678.5074,886.5043 1666.319,908.5935 1652.8169,922.73364 1649.9608,927.4779 1637.2233,939.0644 1631.4358,945.12537 1623.5747,953.8532 1612.7471,963.50385 " stroke-linejoin="round" id="Polygon_20" d="M1595.8977 984.58167 C1593.9573 996.5305,  1590.1528 1006.73413,  1584.539 1016.46173C1583.1135 1013.52496,  1584.1163 1011.84247,  1585.1614 1010.0894C1598.9587 995.8673,  1625.5096 979.42676,  1640.5651 969.3046C1643.5973 973.035,  1642.8932 974.08203,  1642.1348 975.1038C1660.5442 952.2402,  1674.2886 911.2615,  1683.8579 862.6674C1677.9984 920.94293,  1625.849 939.2809,  1595.8977 984.58167" stroke-linecap="round" path-type="area" fill="#00ff00" fill-opacity="0.8666666746139526"/><path rough-pts="1400.4282,921.5133 1407.7649,931.12366 1414.6575,940.95905 1420.9707,950.47754 1426.569,959.1372 1431.3171,966.3961 1435.0801,971.71246 1420.6008,973.6915 1409.605,968.61255 1401.164,958.789 1394.3489,946.5344 1388.2314,934.1623 1381.8829,923.9863 1364.7971,911.77783 1348.1499,913.8228 1331.8707,924.7932 1315.8885,939.361 1300.1328,952.1985 1284.5328,957.97754 1283.6282,945.28577 1299.5015,942.6135 1313.9448,938.0248 1327.0542,931.6483 1338.9263,923.61273 1349.6567,914.0467 1350.5288,913.1575 1361.8273,904.84106 1374.7349,900.20795 1384.5331,914.3816 1393.5632,913.3628 " stroke-linejoin="round" id="Polygon_150" d="M1400.4282 921.5133 C1415.4556 940.14795,  1428.63 963.38367,  1435.0801 971.71246C1402.0192 984.27106,  1395.4303 940.6001,  1381.8829 923.9863C1347.2256 881.76404,  1315.6245 957.02985,  1284.5328 957.97754C1284.1172 953.6406,  1283.8279 949.393,  1283.6283 945.28577C1312.0216 942.43115,  1333.7332 930.6231,  1350.9226 912.74976C1359.8126 904.1253,  1371.8232 899.51276,  1383.9358 899.03723C1393.2152 912.7569,  1396.8859 916.9759,  1400.4282 921.5133" stroke-linecap="round" path-type="area" fill="#ff0000" fill-opacity="1.0"/><path rough-pts="1427.4878,919.00696 1431.1467,924.2319 1435.5288,933.1981 1438.1061,942.6862 1438.8854,952.4391 1437.8743,962.20013 1435.0801,971.71246 1446.4825,964.2831 1455.4464,952.9659 1462.9728,939.4983 1470.0627,925.61743 1477.7169,913.0607 1486.9368,903.5656 1498.5958,899.60583 1512.7415,900.85095 1516.2753,905.16235 1515.3846,901.27216 1496.8867,897.9745 1478.3776,898.24677 1460.3274,901.9411 1443.207,908.91003 " stroke-linejoin="round" id="Polygon_64" d="M1427.4879 919.00696 C1439.5283 934.1629,  1441.9862 954.27045,  1435.0801 971.71246C1460.991 961.8999,  1466.2643 918.3362,  1486.9368 903.5656C1494.5175 898.15424,  1505.6521 898.6511,  1517.202 902.0032C1486.1813 892.43665,  1452.7723 899.254,  1427.4874 919.00616" stroke-linecap="round" path-type="area" fill="#ff0000" fill-opacity="1.0"/><path rough-pts="1652.734,931.1278 1652.8169,922.73364 1666.319,908.5935 1678.5074,886.5043 1683.3091,862.53357 1681.7247,873.04474 1658.0208,948.0665 1648.5239,963.7215 1640.0653,969.42316 1630.3462,976.0677 1618.5326,983.9377 1614.1375,987.38196 1623.5747,953.8532 1631.4358,945.12537 1637.2233,939.0644 1649.9608,927.4779 1651.8654,923.73016 1652.7329,931.23254 " stroke-linejoin="round" id="Polygon_34" d="M1653.2119 930.9474 C1653.2834 928.41144,  1653.3268 925.6633,  1653.3398 922.73425C1669.104 907.33813,  1681.394 889.1039,  1684.2174 862.63055C1675.6334 904.43164,  1664.3251 940.5708,  1649.1454 964.1213C1641.621 968.9538,  1627.7698 977.50653,  1613.929 987.0905L1623.5747 953.8532 C1633.0209 943.414,  1643.4331 934.3396,  1652.7714 924.5953C1652.5701 926.12573,  1652.6653 928.5013,  1652.7185 930.8095" stroke-linecap="round" path-type="area" fill-opacity="0.0"/><path rough-pts="1400.4282,921.5133 1407.7649,931.12366 1414.6575,940.95905 1420.9707,950.47754 1426.569,959.1372 1431.3171,966.3961 1435.0801,971.71246 1437.8743,962.20013 1438.8854,952.4391 1438.1061,942.6862 1435.5288,933.1981 1431.1467,924.2319 1427.4878,919.00696 1424.9519,916.04407 1414.0408,906.9887 1401.5573,901.3114 1388.2168,899.04126 1384.5331,914.3816 1393.5632,913.3628 " stroke-linejoin="round" id="Polygon_149" d="M1400.4282 921.5133 C1415.4556 940.14795,  1428.63 963.38367,  1435.0801 971.71246C1442.4467 953.10767,  1439.159 931.47003,  1424.9519 916.04407C1414.0237 904.1783,  1398.902 898.4497,  1383.9358 899.03723C1393.2152 912.7569,  1396.8859 916.9759,  1400.4282 921.5133" stroke-linecap="round" path-type="area" fill="#ff0000" fill-opacity="1.0"/><path rough-pts="1620.4563,1002.77313 1619.6017,1007.17804 1635.8059,994.38965 1658.8098,967.07886 1675.0018,935.2021 1683.4717,899.9551 1683.3091,862.53357 1681.7247,873.04474 1658.0208,948.0665 1648.0405,963.9486 1647.9066,964.88525 1644.9807,969.89526 1642.093,979.5294 1624.1567,1002.21643 " stroke-linejoin="round" id="Polygon_59" d="M1622.1395 1002.9875 C1621.9365 1004.4761,  1621.7031 1005.97784,  1621.4417 1007.49176C1664.5707 975.4298,  1690.6072 920.6917,  1683.3091 862.53326C1675.6334 904.43164,  1664.3251 940.5708,  1649.1454 964.1213C1648.0255 964.0569,  1648.0261 964.0559,  1648.0267 964.05493C1647.2114 967.05493,  1646.0753 968.66956,  1644.9183 970.21405C1640.7867 983.25446,  1632.4143 994.6911,  1621.9063 1004.34235" stroke-linecap="round" path-type="area" fill="#0000ff" fill-opacity="0.7882353067398071"/><path rough-pts="1587.4952,994.8746 1589.4095,987.9646 1595.8977,984.58167 1593.779,994.4264 1590.7548,1003.5938 1586.8329,1012.2617 1581.0156,1014.449 1585.1614,1010.0894 1594.7762,1001.35815 1606.2881,992.5044 1614.1375,987.38196 1618.5326,983.9377 1630.3462,976.0677 1640.0653,969.42316 1640.482,973.8754 1623.0752,989.27655 1620.4563,1002.77313 1608.8949,1012.54364 1606.8999,1015.9389 1573.0022,1030.531 1577.7412,1022.40985 1578.4366,1017.1609 1585.5779,997.5065 " stroke-linejoin="round" id="Polygon_88" d="M1584.6624 992.6 C1587.4921 989.0998,  1590.997 986.2264,  1595.8977 984.58167C1593.9573 996.5305,  1590.1528 1006.73413,  1584.539 1016.46173C1583.1135 1013.52496,  1584.1163 1011.84247,  1585.1614 1010.0894C1598.9587 995.8673,  1625.5096 979.42676,  1640.5651 969.3046C1643.5973 973.035,  1642.8932 974.08203,  1642.1348 975.1038C1635.7585 981.20996,  1629.666 986.18317,  1623.0752 989.27655C1623.1198 993.692,  1622.7822 998.27344,  1622.1394 1002.9874C1618.1615 1007.7818,  1614.1455 1010.9945,  1609.868 1013.94696C1598.5431 1021.07495,  1586.1808 1026.6183,  1573.0022 1030.531C1575.1844 1026.577,  1577.5991 1022.685,  1580.2694 1018.263C1580.5944 1009.32794,  1583.6239 1001.88586,  1586.8562 994.58887" stroke-linecap="round" path-type="area" fill="#00ff00" fill-opacity="0.8666666746139526"/><path rough-pts="1277.8757,1066.5404 1325.235,1079.3042 1224.2584,1028.3887 1226.2122,1039.4309 " stroke-linejoin="round" id="Polygon_99" d="M1277.8756 1066.5404 C1292.5083 1071.8552,  1307.8749 1075.995,  1323.7023 1079.0156L1224.2584 1028.3887 C1225.3329 1032.1229,  1226.3376 1035.7026,  1227.2703 1039.1344C1241.5195 1050.9598,  1259.093 1059.7183,  1277.8756 1066.5404" stroke-linecap="round" path-type="area" fill-opacity="0.0"/><path rough-pts="1624.7402,979.7533 1630.3462,976.0677 1640.0653,969.42316 1648.0405,963.9486 1653.4863,953.3649 1657.9148,925.17303 1656.6588,918.7102 1652.8169,922.73364 1652.7329,931.23254 1652.4443,944.942 1648.0066,963.93066 1649.6564,957.333 1650.014,946.83887 1647.7146,936.5934 1637.2233,939.0644 1631.4358,945.12537 1630.6398,946.0091 " stroke-linejoin="round" id="Polygon_115" d="M1624.5662 979.8901 C1634.4513 973.3176,  1643.2813 967.6845,  1648.0249 964.05786C1655.5034 950.0964,  1658.3856 934.4417,  1657.9077 918.67487C1656.2761 920.8606,  1655.01 922.2356,  1653.7223 923.59674C1653.3268 925.6633,  1653.2834 928.41144,  1653.2119 930.9474C1653.0642 945.7949,  1651.6421 957.94366,  1648.0267 964.05493C1651.2242 954.36,  1650.842 944.10645,  1647.1001 935.00555C1635.224 941.5989,  1632.7977 943.8497,  1630.3702 946.1212L1624.7402 979.7533 " stroke-linecap="round" path-type="area" fill="#00ff00" fill-opacity="0.8666666746139526"/><path rough-pts="1637.2233,939.0644 1647.7146,936.5934 1650.014,946.83887 1649.6564,957.333 1646.5891,967.52264 1640.0653,969.42316 1648.5239,963.7215 1658.0208,948.0665 1681.7247,873.04474 1683.3091,862.53357 1678.5074,886.5043 1666.319,908.5935 1652.8169,922.73364 1649.9608,927.4779 " stroke-linejoin="round" id="Polygon_16" d="M1647.1001 935.00555 C1651.9651 946.8381,  1651.1509 960.619,  1644.2476 971.9664C1643.5762 967.2802,  1646.1274 965.50854,  1648.0249 964.05786C1664.3251 940.5708,  1675.6334 904.43164,  1683.8578 862.66736C1680.4578 897.88403,  1659.9105 918.5269,  1637.63 939.3502" stroke-linecap="round" path-type="area" fill="#00ff00" fill-opacity="0.8666666746139526"/><path rough-pts="1634.0991,916.4617 1630.8873,927.8726 1623.5747,953.8532 1612.7471,963.50385 1595.8977,984.58167 1589.4095,987.9646 1587.4952,994.8746 1600.7659,966.32574 1618.3499,937.1135 " stroke-linejoin="round" id="Polygon_90" d="M1634.0991 916.4617 L1623.5747 953.8532 C1613.2076 962.59705,  1603.7833 972.65485,  1595.8977 984.58167C1590.997 986.2264,  1587.4921 989.0998,  1584.6624 992.6C1599.5114 966.0198,  1615.275 939.6749,  1633.4506 915.9551" stroke-linecap="round" path-type="area" fill-opacity="0.0"/><path rough-pts="1651.8654,923.73016 1652.8169,922.73364 1653.3372,918.32574 1652.3278,893.6577 1652.1809,885.0399 1648.771,847.7215 1642.7185,812.2341 1640.6616,807.3677 1635.087,796.9937 1638.6179,820.5189 1640.3406,847.0191 1644.1891,868.5076 1646.9705,881.39734 1651.8469,915.5373 " stroke-linejoin="round" id="Polygon_31" d="M1652.7714 924.59534 C1653.0896 924.26324,  1653.4066 923.9304,  1653.7223 923.59674C1653.4769 892.12305,  1650.3124 841.74554,  1641.488 807.1527C1639.7854 803.4617,  1638.1005 799.893,  1636.2778 796.38446C1639.6849 822.7328,  1638.6569 851.6743,  1644.1895 868.5079C1648.5599 886.9544,  1651.4857 906.6854,  1652.4344 923.69464" stroke-linecap="round" path-type="area" fill-opacity="0.0"/><path rough-pts="1652.3096,894.51337 1652.3278,893.6577 1652.1809,885.0399 1648.771,847.7215 1642.7185,812.2341 1640.6616,807.3677 1635.087,796.9937 1638.6179,820.5189 1640.3406,847.0191 1644.1895,868.5079 1652.4218,894.87256 " stroke-linejoin="round" id="Polygon_51" d="M1652.3289 893.6511 C1652.3285 893.6533,  1652.3281 893.6555,  1652.3278 893.6577C1651.3274 865.79407,  1647.9034 832.30194,  1641.488 807.15265C1639.7854 803.4617,  1638.1005 799.893,  1636.2778 796.38446C1639.6849 822.7328,  1638.6569 851.6743,  1644.1895 868.5079C1648.7714 876.85236,  1652.1719 885.5303,  1654.4473 894.34845" stroke-linecap="round" path-type="area" fill="#0000ff" fill-opacity="0.7882353067398071"/><path rough-pts="1635.087,796.9937 1636.3201,792.90405 1634.0436,790.0413 1633.635,784.4416 1621.1312,770.2076 1603.5344,754.0372 1608.0747,749.9637 1598.9674,742.34015 1601.787,735.63983 1592.0165,724.53906 1580.085,714.7108 1576.2545,710.276 1577.6003,715.4758 1583.9469,736.03735 1595.1478,746.3303 1604.2676,755.9147 1615.6967,766.0882 1631.9349,788.578 " stroke-linejoin="round" id="Polygon_26" d="M1636.7902 796.80853 C1636.5244 794.4282,  1636.2256 792.07336,  1635.8855 789.7556C1631.7661 779.37494,  1626.9128 772.4246,  1621.1312 770.2076C1612.286 766.9633,  1605.3921 762.8994,  1599.9415 758.29144C1604.9672 732.3646,  1590.645 723.1879,  1575.5577 711.14233C1579.5166 723.0758,  1582.383 737.1213,  1591.3418 749.1519C1612.728 760.42914,  1626.4889 777.54,  1636.278 796.3844" stroke-linecap="round" path-type="area" fill="#0000ff" fill-opacity="0.7882353067398071"/><path rough-pts="1640.6616,807.3677 1634.0436,790.0413 1630.7461,768.0714 1619.1957,749.91785 1598.9674,742.34015 1608.0747,749.9637 1603.5344,754.0372 1604.2676,755.9147 1615.6967,766.0882 1631.9349,788.578 1635.087,796.9937 " stroke-linejoin="round" id="Polygon_27" d="M1641.488 807.1527 C1639.8052 800.5557,  1637.9165 794.5328,  1635.8057 789.33044C1632.1478 764.2799,  1623.434 743.29205,  1598.9674 742.34015C1606.5131 744.0799,  1608.23 749.1739,  1609.0895 755.21704C1620.9994 770.0921,  1633.1207 787.85614,  1641.3315 807.08215" stroke-linecap="round" path-type="area" fill="#0000ff" fill-opacity="0.7882353067398071"/><path rough-pts="1603.5344,754.0372 1608.0747,749.9637 1598.9674,742.34015 1601.787,735.63983 1592.0165,724.53906 1580.085,714.7108 1576.2545,710.276 1577.6003,715.4758 1583.9469,736.03735 1596.6409,755.26636 " stroke-linejoin="round" id="Polygon_2" d="M1608.7455 753.09357 C1604.9672 732.3646,  1590.645 723.1879,  1575.5577 711.14233C1580.3577 726.4405,  1583.8936 744.7242,  1599.9415 758.29144" stroke-linecap="round" path-type="area" fill="#00ff00" fill-opacity="0.8666666746139526"/><path rough-pts="1595.1478,746.3303 1596.6409,755.26636 1603.5344,754.0372 1604.2676,755.9147 1609.5569,769.4609 1600.1179,769.59064 1590.6235,769.64087 1581.1044,769.72766 1571.7933,770.72797 1585.2546,758.4918 " stroke-linejoin="round" id="Polygon_80" d="M1591.3418 749.152 C1593.7336 752.364,  1596.5598 755.43243,  1599.9415 758.29144C1609.617 757.87555,  1609.9275 763.2723,  1609.5569 769.4609C1597.0813 769.73724,  1584.3782 769.49677,  1571.7693 769.9606C1580.7437 763.53436,  1588.5471 755.47156,  1595.5184 746.7811" stroke-linecap="round" path-type="area" fill="#00ff00" fill-opacity="0.8666666746139526"/><path rough-pts="1621.1312,770.2076 1633.635,784.4416 1634.0436,790.0413 1630.7461,768.0714 1619.1957,749.91785 1598.9674,742.34015 1608.0747,749.9637 1603.5344,754.0372 " stroke-linejoin="round" id="Polygon_3" d="M1621.1312 770.2076 C1626.9128 772.4246,  1631.7661 779.37494,  1635.8057 789.3305C1632.1478 764.2799,  1623.434 743.29205,  1598.9674 742.34015C1606.2317 743.5472,  1607.811 747.9671,  1608.7455 753.0936C1605.3921 762.8994,  1612.286 766.9633,  1621.1312 770.2076" stroke-linecap="round" path-type="area" fill="#0000ff" fill-opacity="0.7882353067398071"/><path rough-pts="1648.0249,964.05786 1658.0208,948.0665 1681.7247,873.04474 1683.3091,862.53357 1678.5074,886.5043 1666.319,908.5935 1656.6588,918.7102 1657.9148,925.17303 1653.4863,953.3649 1648.0405,963.9486 " stroke-linejoin="round" id="Polygon_55" d="M1649.1454 964.1213 C1664.3251 940.5708,  1675.6334 904.43164,  1683.8578 862.66736C1681.6305 886.8876,  1671.0955 904.22723,  1657.5167 919.468C1658.3856 934.4417,  1655.5034 950.0964,  1649.5721 964.56995" stroke-linecap="round" path-type="area" fill="#00ff00" fill-opacity="0.8666666746139526"/><path rough-pts="1648.7981,897.2036 1651.8469,915.5373 1651.8654,923.73016 1649.9608,927.4779 1637.2233,939.0644 1642.8094,927.1501 1635.306,918.58545 1640.0798,908.6191 " stroke-linejoin="round" id="Polygon_94" d="M1649.6594 897.07367 C1651.0212 906.2883,  1651.9674 915.3213,  1652.4344 923.69464C1647.9468 929.6295,  1642.8357 934.4849,  1637.63 939.3502C1644.6299 928.9976,  1640.6956 923.49194,  1635.3507 919.0622C1637.6686 915.4975,  1638.9587 912.0093,  1640.0889 908.5338C1642.6661 904.3513,  1645.7854 900.6423,  1648.9639 897.0063" stroke-linecap="round" path-type="area" fill-opacity="0.0"/><path rough-pts="1576.2545,710.276 1567.3154,704.2046 1555.0304,691.0702 1546.5641,680.5225 1542.1566,675.3512 1562.1539,682.1773 1572.1521,696.5373 " stroke-linejoin="round" id="Polygon_1" d="M1575.5577 711.14233 C1568.5542 705.55066,  1561.3856 699.3408,  1555.0304 691.0702C1550.9203 685.7272,  1546.619 680.48895,  1542.1567 675.3511C1566.7354 677.25244,  1571.8433 692.3746,  1576.3668 710.47363" stroke-linecap="round" path-type="area" fill="#00ff00" fill-opacity="0.8666666746139526"/><path rough-pts="1196.0193,788.45465 1196.7723,786.43097 1204.9058,772.18494 1214.5286,759.2852 1225.7944,748.24347 1232.1099,738.3748 1235.0,755.0 1218.4937,763.70605 1204.8276,775.55945 " stroke-linejoin="round" id="Polygon_65" d="M1195.8528 788.2809 C1203.4303 772.81366,  1213.1499 758.5999,  1225.7944 748.24347C1228.9857 745.729,  1231.786 743.0791,  1234.2723 740.32874C1232.7007 743.9721,  1233.812 749.507,  1235.0 755.0C1217.8942 761.6452,  1204.322 773.48224,  1195.3947 788.07104" stroke-linecap="round" path-type="area" fill-opacity="0.0"/><path rough-pts="1630.8873,927.8726 1623.5747,953.8532 1631.4358,945.12537 1637.2233,939.0644 1642.8094,927.1501 1635.306,918.58545 " stroke-linejoin="round" id="Polygon_43" d="M1630.8873 927.8726 L1623.5747 953.8532 C1627.8062 948.4628,  1632.7595 943.9022,  1637.63 939.3502C1644.6299 928.9976,  1640.6956 923.49194,  1635.3507 919.0622C1634.9542 922.1375,  1633.5535 925.2906,  1632.0636 928.4231" stroke-linecap="round" path-type="area" fill="#0000ff" fill-opacity="0.7882353067398071"/><path rough-pts="1182.654,829.86475 1189.2825,884.03845 1188.9019,882.8968 1185.167,871.54956 1180.7451,858.1974 1177.277,845.44147 1176.4045,835.884 1179.7684,832.126 1179.8464,832.5506 " stroke-linejoin="round" id="Polygon_8" d="M1182.654 829.86475 L1189.2825 884.03845 C1184.8987 868.8723,  1169.4688 832.11053,  1179.7684 832.126C1179.7686 832.1254,  1179.7687 832.1249,  1179.7688 832.1243C1180.6034 831.38727,  1181.6968 830.4258,  1182.7946 829.4659" stroke-linecap="round" path-type="area" fill-opacity="0.0"/><path rough-pts="1624.7402,979.7533 1618.5326,983.9377 1614.1375,987.38196 1623.5747,953.8532 1630.6398,946.0091 " stroke-linejoin="round" id="Polygon_116" d="M1624.5662 979.89 C1621.1064 982.19037,  1617.5173 984.6058,  1613.929 987.0905L1623.5747 953.8532 C1625.396 950.7964,  1627.8838 948.44794,  1630.3702 946.1212L1624.7402 979.7533 " stroke-linecap="round" path-type="area" fill="#00ff00" fill-opacity="0.8666666746139526"/><path rough-pts="1652.3278,893.65814 1652.1809,885.0399 1648.771,847.7215 1642.7185,812.2341 1640.6616,807.3677 1643.7903,813.18994 1651.1892,839.31384 1654.0593,866.3397 " stroke-linejoin="round" id="Polygon_30" d="M1652.666 893.96844 C1651.3274 865.79407,  1647.9034 832.30194,  1641.488 807.15265C1652.9081 834.18884,  1656.7113 864.20166,  1652.3278 893.6577" stroke-linecap="round" path-type="area" fill="#0000ff" fill-opacity="0.7882353067398071"/><path rough-pts="1190.6722,836.16034 1190.37,852.0187 1189.9056,868.059 1189.9902,883.8601 1189.3169,884.31976 1188.2397,874.4734 1185.8629,865.6553 1183.8888,857.4103 1183.3462,849.74304 1185.2644,842.65814 " stroke-linejoin="round" id="Polygon_128" d="M1190.6722 836.16034 C1190.6879 851.78723,  1189.3944 868.3196,  1189.9902 883.8599C1187.8009 864.52014,  1175.6814 848.56537,  1190.6722 836.16034" stroke-linecap="round" path-type="area" fill-opacity="0.0"/><path rough-pts="1620.4563,1002.77313 1623.0752,989.27655 1626.3237,987.9617 1629.4882,986.3396 1632.5409,984.4138 1635.4552,982.1884 1638.2043,979.6673 1640.761,976.8545 1640.482,973.8754 1644.9807,969.89526 1642.093,979.5294 1624.1567,1002.21643 " stroke-linejoin="round" id="Polygon_60" d="M1622.1394 1002.9874 C1622.7822 998.27344,  1623.1198 993.692,  1623.0752 989.27655C1629.6385 986.95703,  1635.8586 982.7695,  1640.761 976.8545C1641.2372 976.2799,  1641.6951 975.6961,  1642.1348 975.1038C1642.5835 973.233,  1643.7615 971.75854,  1644.9185 970.21405C1640.7867 983.25446,  1632.4143 994.6911,  1621.9063 1004.34235" stroke-linecap="round" path-type="area" fill="#0000ff" fill-opacity="0.7882353067398071"/><path rough-pts="1630.6398,946.0091 1631.4358,945.12537 1637.2233,939.0644 1642.8094,927.1501 1635.3508,919.06323 " stroke-linejoin="round" id="Polygon_113" d="M1630.3702 946.1212 C1632.7977 943.8497,  1635.224 941.5989,  1637.63 939.3502C1644.6299 928.9976,  1640.6956 923.49194,  1635.3507 919.0622L1630.6398 946.0091 " stroke-linecap="round" path-type="area" fill="#00ff00" fill-opacity="0.8666666746139526"/><path rough-pts="1648.7981,897.2036 1646.9705,881.39734 1643.9498,870.84625 1642.2395,887.54004 1644.7437,887.8838 1640.0798,908.6191 " stroke-linejoin="round" id="Polygon_93" d="M1649.6594 897.0736 C1648.3629 888.30096,  1646.6897 879.36365,  1644.6945 870.674C1646.344 882.45264,  1644.359 895.4022,  1640.0889 908.5338C1642.6661 904.3513,  1645.7854 900.6423,  1648.9639 897.0063" stroke-linecap="round" path-type="area" fill="#00ff00" fill-opacity="0.8666666746139526"/><path rough-pts="1571.7933,770.72797 1571.5905,769.96704 1562.1132,770.47534 1552.7026,771.3685 1553.9899,782.9336 1569.6385,772.979 " stroke-linejoin="round" id="Polygon_77" d="M1571.7693 769.9606 C1565.3755 770.19574,  1559.006 770.612,  1552.7026 771.3685C1552.879 775.0757,  1553.1534 778.7657,  1553.4958 782.4433C1560.8282 779.9605,  1566.6687 775.5569,  1572.1985 770.8335" stroke-linecap="round" path-type="area" fill="#00ff00" fill-opacity="0.8666666746139526"/><path rough-pts="1595.8977,984.58167 1612.7471,963.50385 1623.5747,953.8532 1630.8873,927.8726 1631.5509,929.4931 1620.4557,949.79724 1608.1292,968.48157 " stroke-linejoin="round" id="Polygon_45" d="M1595.8977 984.58167 C1603.7833 972.65485,  1613.2076 962.59705,  1622.9272 953.1866L1630.8873 927.8726 C1621.9894 949.60486,  1607.8411 969.84686,  1595.8977 984.58167" stroke-linecap="round" path-type="area" fill="#0000ff" fill-opacity="0.7882353067398071"/><path rough-pts="1384.5331,914.3816 1374.7349,900.20795 1361.8273,904.84106 1350.5288,913.1575 1359.3423,903.07916 1365.7216,899.26697 1372.4686,898.93115 1379.4482,901.52985 1386.525,906.52106 " stroke-linejoin="round" id="Polygon_147" d="M1383.9358 899.03723 C1371.8232 899.51276,  1359.8126 904.1253,  1350.2094 912.9698C1353.8574 909.69824,  1356.6604 906.4699,  1359.3423 903.07916C1368.4072 894.63257,  1379.1113 899.2791,  1389.505 909.2114" stroke-linecap="round" path-type="area" fill="#ff0000" fill-opacity="1.0"/><path rough-pts="1623.0752,989.27655 1640.482,973.8754 1640.0653,969.42316 1630.3462,976.0677 1624.7402,979.7533 " stroke-linejoin="round" id="Polygon_117" d="M1623.0752 989.27655 C1629.666 986.18317,  1635.7585 981.20996,  1641.3843 974.6346C1642.8932 974.08203,  1643.5973 973.035,  1644.2474 971.9664C1636.0485 972.3413,  1630.4972 975.9466,  1624.5662 979.8901L1623.0753 989.27655 " stroke-linecap="round" path-type="area" fill="#00ff00" fill-opacity="0.8666666746139526"/><path rough-pts="1598.9674,742.34015 1608.0747,749.9637 1603.5344,754.0372 1596.6409,755.26636 1595.1478,746.3303 " stroke-linejoin="round" id="Polygon_82" d="M1604.1554 739.61566 C1606.2317 743.5472,  1607.811 747.9671,  1608.7455 753.0936C1596.5598 755.43243,  1593.7336 752.364,  1591.3418 749.152C1596.6918 745.31836,  1597.8416 743.8378,  1598.9674 742.34015" stroke-linecap="round" path-type="area" fill="#0000ff" fill-opacity="0.7882353067398071"/><path rough-pts="1279.3463,670.94086 1274.9565,676.289 1269.8242,681.86395 1264.3655,687.42896 1258.996,692.7471 1254.1313,697.5815 1250.1879,701.6954 1255.9617,701.8524 1261.2294,688.52057 1270.3768,675.6122 1281.2505,669.56714 " stroke-linejoin="round" id="Polygon_104" d="M1279.3463 670.94086 C1271.5867 681.25256,  1256.8768 694.346,  1250.1879 701.6954C1252.1123 701.7543,  1254.037 701.80664,  1255.9619 701.85254C1260.8054 688.0513,  1266.75 675.78876,  1280.2388 667.8294C1280.2725 669.77716,  1279.7667 670.38245,  1279.3463 670.94086" stroke-linecap="round" path-type="area" fill-opacity="0.0"/><path rough-pts="1179.0,800.00006 1182.1482,825.73065 1179.8464,832.5506 1179.7684,832.126 1175.7926,790.8885 " stroke-linejoin="round" id="Polygon_10" d="M1179.0 800.00006 L1182.1482 825.73065 C1180.9999 827.744,  1180.3702 829.94617,  1179.7684 832.126L1175.7926 790.8885 C1176.6788 793.62616,  1177.8273 796.7877,  1179.0 800.0" stroke-linecap="round" path-type="area" fill="#0000ff" fill-opacity="0.7882353067398071"/><path rough-pts="1185.157,842.8707 1184.1584,842.16 1189.3169,884.31976 1188.2397,874.4734 1185.8629,865.6553 1183.8888,857.4103 1183.3462,849.74304 1185.2644,842.65814 " stroke-linejoin="round" id="Polygon_125" d="M1184.1577 842.1559 C1184.158 842.1572,  1184.1582 842.15857,  1184.1584 842.16L1189.3169 884.31976 C1188.1659 867.7432,  1179.4454 853.9778,  1185.2644 842.65814" stroke-linecap="round" path-type="area" fill-opacity="0.0"/><path rough-pts="1656.6588,918.7102 1652.8169,922.73364 1653.3372,918.32574 1652.3278,893.6577 1652.4218,894.87256 1654.9565,896.404 " stroke-linejoin="round" id="Polygon_54" d="M1657.5168 919.4681 C1656.2761 920.8606,  1655.01 922.2356,  1653.7223 923.59674C1653.3773 914.3777,  1653.1687 904.548,  1652.666 893.96844C1652.3281 893.6555,  1652.3285 893.6533,  1652.3289 893.6511C1656.5221 902.38947,  1657.6614 910.54706,  1657.9077 918.67487" stroke-linecap="round" path-type="area" fill="#00ff00" fill-opacity="0.8666666746139526"/><path rough-pts="1636.3132,913.5582 1638.1127,909.99426 1640.0798,908.6191 1644.7437,887.8838 1642.2395,887.54004 1638.6036,900.45795 " stroke-linejoin="round" id="Polygon_109" d="M1635.6904 913.06104 C1636.985 911.4047,  1638.2914 909.76154,  1639.6094 908.1316C1642.3687 901.5232,  1643.9971 894.56445,  1644.7511 887.8199L1638.6036 900.45795 L1636.3132 913.5582 " stroke-linecap="round" path-type="area" fill="#00ff00" fill-opacity="0.8666666746139526"/><path rough-pts="1149.6808,897.29596 1148.4884,862.54816 1152.0807,859.11176 " stroke-linejoin="round" id="Polygon_120" d="M1147.7692 897.40735 C1147.2184 886.3309,  1147.4375 874.7154,  1148.4884 862.54816C1149.2786 861.5158,  1150.336 860.2778,  1151.6202 858.8698L1149.6808 897.29596 " stroke-linecap="round" path-type="area" fill="#00ff00" fill-opacity="0.8666666746139526"/><path rough-pts="1652.3278,893.6577 1653.3372,918.32574 1652.8169,922.73364 1651.8654,923.73016 1651.8469,915.5373 1648.7965,897.1891 1652.1106,893.8759 " stroke-linejoin="round" id="Polygon_96" d="M1652.666 893.96844 C1653.1687 904.548,  1653.3773 914.3777,  1653.3398 922.7343C1653.4066 923.9304,  1653.0896 924.26324,  1652.7714 924.59534C1651.9674 915.3213,  1651.0212 906.2883,  1649.6594 897.07367C1650.0234 895.7942,  1651.0895 894.59033,  1652.1621 893.39465" stroke-linecap="round" path-type="area" fill="#00ff00" fill-opacity="0.8666666746139526"/><path rough-pts="1623.0752,989.27655 1640.482,973.8754 1640.761,976.8545 1638.2043,979.6673 1635.4552,982.1884 1632.5409,984.4138 1629.4882,986.3396 1626.3237,987.9617 " stroke-linejoin="round" id="Polygon_6" d="M1623.0752 989.27655 C1629.666 986.18317,  1635.7585 981.20996,  1641.3843 974.6346C1641.6951 975.6961,  1641.2372 976.2799,  1640.761 976.8545C1635.8586 982.7695,  1629.6385 986.95703,  1623.0752 989.27655" stroke-linecap="round" path-type="area" fill="#00ff00" fill-opacity="0.8666666746139526"/><path rough-pts="1573.0022,1030.531 1606.8999,1015.9389 1608.8949,1012.54364 1600.1001,1019.9761 1595.5825,1022.3268 1591.0284,1024.4458 1586.4657,1026.3296 1581.922,1027.9739 1577.4248,1029.3756 " stroke-linejoin="round" id="Polygon_122" d="M1573.0022 1030.531 C1586.1808 1026.6183,  1598.5431 1021.07495,  1609.8896 1014.16296C1606.7498 1016.0993,  1603.4926 1018.11334,  1600.1001 1019.9761C1591.1202 1024.9069,  1581.7543 1028.4695,  1573.0023 1030.5308" stroke-linecap="round" path-type="area" fill="#0000ff" fill-opacity="0.7882353067398071"/><path rough-pts="1604.2676,755.9147 1603.5344,754.0372 1596.6409,755.26636 1595.1478,746.3303 " stroke-linejoin="round" id="Polygon_23" d="M1609.0892 755.217 C1608.9867 754.49585,  1608.872 753.7882,  1608.7454 753.09357C1596.5598 755.43243,  1593.7336 752.364,  1591.3418 749.152C1598.6195 749.11456,  1601.9423 752.0163,  1605.115 755.02563" stroke-linecap="round" path-type="area" fill="#0000ff" fill-opacity="0.7882353067398071"/><path rough-pts="1573.0022,1030.531 1576.3264,1028.809 1582.021,1020.60754 1581.0156,1014.449 1577.7412,1022.40985 1572.6625,1030.3336 " stroke-linejoin="round" id="Polygon_13" d="M1574.256 1031.5127 C1578.1731 1026.5049,  1581.6034 1021.5484,  1584.539 1016.46173C1578.7096 1020.8804,  1575.717 1025.7837,  1572.8585 1030.0422" stroke-linecap="round" path-type="area" fill-opacity="0.0"/><path rough-pts="1187.3607,825.6431 1185.843,826.81415 1182.654,829.86475 1182.1482,825.73065 1184.3575,816.9133 1189.9744,801.5111 1192.995,796.5821 1187.1348,806.2512 1183.6671,823.8606 " stroke-linejoin="round" id="Polygon_68" d="M1186.8613 825.93445 C1185.5033 827.1056,  1184.1456 828.28455,  1182.7946 829.46594L1182.1482 825.73065 C1184.5372 815.8543,  1187.986 805.89215,  1192.1841 796.2331C1186.8794 804.97516,  1184.2372 815.0273,  1183.5514 825.39276" stroke-linecap="round" path-type="area" fill="#0000ff" fill-opacity="0.7882353067398071"/><path rough-pts="1184.1584,842.16 1182.654,829.86475 1185.843,826.81415 1187.3607,825.6431 " stroke-linejoin="round" id="Polygon_70" d="M1184.1584 842.16 L1182.654 829.86475 C1184.1456 828.28455,  1185.5033 827.1056,  1186.8613 825.93445C1183.1858 830.91895,  1183.3762 836.5342,  1184.1584 842.16" stroke-linecap="round" path-type="area" fill="#ffbd00" fill-opacity="1.0"/><path rough-pts="1608.8949,1012.54364 1619.6017,1007.17804 1620.4563,1002.77313 " stroke-linejoin="round" id="Polygon_61" d="M1609.8896 1014.16296 C1613.2704 1012.1035,  1616.5609 1009.9226,  1619.756 1007.62714C1621.7031 1005.97784,  1621.9365 1004.4761,  1622.1395 1002.9875C1618.1615 1007.7818,  1614.1455 1010.9945,  1609.868 1013.94696" stroke-linecap="round" path-type="area" fill="#0000ff" fill-opacity="0.7882353067398071"/><path rough-pts="1638.6036,900.45795 1642.2395,887.54004 1643.8448,870.4792 " stroke-linejoin="round" id="Polygon_107" d="M1638.6036 900.45795 L1642.2395 887.54004 C1645.4092 881.93115,  1645.4009 876.20575,  1644.5775 870.7516L1638.6036 900.45795 " stroke-linecap="round" path-type="area" fill="#0000ff" fill-opacity="0.7882353067398071"/><path rough-pts="1647.9066,964.88525 1640.482,973.8754 1640.0653,969.42316 1646.5891,967.52264 1648.0066,963.93066 " stroke-linejoin="round" id="Polygon_38" d="M1648.3271 965.37286 C1646.0961 968.73694,  1643.7826 971.83136,  1641.3843 974.6346C1644.7526 971.5772,  1646.723 967.7499,  1648.06 963.77234C1648.0267 964.05493,  1648.0267 964.05493,  1648.0267 964.05493" stroke-linecap="round" path-type="area" fill="#0000ff" fill-opacity="0.7882353067398071"/><path rough-pts="1644.9807,969.89526 1640.482,973.8754 1640.0653,969.42316 1646.5891,967.52264 1648.0066,963.93066 1647.9066,964.88525 1648.0405,963.9486 " stroke-linejoin="round" id="Polygon_58" d="M1644.9185 970.21405 C1643.7615 971.75854,  1642.5835 973.233,  1641.3843 974.6346C1644.7526 971.5772,  1646.723 967.7499,  1648.06 963.77234C1648.0261 964.0559,  1648.0255 964.0569,  1648.0249 964.05786C1648.7145 966.6632,  1647.7928 968.7318,  1646.8083 970.77246" stroke-linecap="round" path-type="area" fill="#0000ff" fill-opacity="0.7882353067398071"/><path rough-pts="1635.306,918.58545 1630.8873,927.8726 1634.0991,916.4617 1636.3132,913.5582 1635.3508,919.06323 " stroke-linejoin="round" id="Polygon_112" d="M1636.2455 918.9787 C1634.9542 922.1375,  1633.5535 925.2906,  1632.0636 928.4231L1634.0991 916.4617 C1634.1931 914.986,  1634.9397 914.0213,  1635.6903 913.061L1635.3508 919.06323 " stroke-linecap="round" path-type="area" fill="#00ff00" fill-opacity="0.8666666746139526"/><path rough-pts="1635.306,918.58545 1640.0798,908.6191 1638.1127,909.99426 1636.3132,913.5582 1635.3508,919.06323 " stroke-linejoin="round" id="Polygon_111" d="M1636.2455 918.9787 C1637.6686 915.4975,  1638.9587 912.0093,  1640.0889 908.5338C1638.2914 909.76154,  1636.985 911.4047,  1635.6904 913.06104L1635.3508 919.06323 " stroke-linecap="round" path-type="area" fill="#0000ff" fill-opacity="0.7882353067398071"/><path rough-pts="1636.3132,913.5582 1634.0991,916.4617 1638.6036,900.45795 " stroke-linejoin="round" id="Polygon_110" d="M1635.6903 913.061 C1634.9397 914.0213,  1634.1931 914.986,  1633.4506 915.95514L1638.6036 900.45795 L1636.3132 913.5582 " stroke-linecap="round" path-type="area" fill="#00ff00" fill-opacity="0.8666666746139526"/><path rough-pts="1516.2753,905.16235 1527.8214,905.7908 1531.2037,907.88654 " stroke-linejoin="round" id="Polygon_63" d="M1517.202 902.0032 C1521.9896 903.39264,  1526.8486 905.2727,  1531.5554 907.4259C1526.957 905.15765,  1522.1489 903.293,  1517.2845 901.82477" stroke-linecap="round" path-type="area" fill="#00ff00" fill-opacity="0.8666666746139526"/><path rough-pts="1647.9066,964.88525 1648.5239,963.7215 1640.0653,969.42316 1646.5891,967.52264 1648.0066,963.93066 " stroke-linejoin="round" id="Polygon_37" d="M1648.3271 965.37286 C1648.6012 964.9597,  1648.8739 964.5425,  1649.1454 964.1213C1646.1274 965.50854,  1643.5762 967.2802,  1640.5651 969.3046C1645.8413 969.34674,  1647.1105 966.5974,  1648.0602 963.77234C1648.0267 964.05493,  1648.0267 964.05493,  1648.0267 964.05493" stroke-linecap="round" path-type="area" fill="#0000ff" fill-opacity="0.7882353067398071"/><path rough-pts="1578.4366,1017.1609 1577.7412,1022.40985 1573.0022,1030.531 " stroke-linejoin="round" id="Polygon_86" d="M1580.2694 1018.263 C1577.5991 1022.685,  1575.1844 1026.577,  1572.8585 1030.0422C1574.5176 1025.9425,  1576.1107 1021.40125,  1577.7792 1016.90857" stroke-linecap="round" path-type="area" fill-opacity="0.0"/><path rough-pts="1182.654,829.86475 1182.1482,825.73065 1179.8464,832.5506 " stroke-linejoin="round" id="Polygon_7" d="M1182.654 829.86475 L1182.1482 825.73065 C1181.0 827.7434,  1180.3705 829.94507,  1179.7688 832.1243C1180.6034 831.38727,  1181.6968 830.4258,  1182.7946 829.4659" stroke-linecap="round" path-type="area" fill="#0000ff" fill-opacity="0.7882353067398071"/><path rough-pts="1192.995,796.5821 1196.0193,788.45465 1194.2815,789.9461 " stroke-linejoin="round" id="Polygon_66" d="M1192.184 796.2331 C1193.348 793.5549,  1194.5697 790.8999,  1195.8528 788.2809C1193.8738 790.55634,  1192.4877 793.1215,  1191.242 795.7545" stroke-linecap="round" path-type="area" fill-opacity="0.0"/><path rough-pts="1652.734,931.1278 1652.8169,922.73364 1651.8654,923.73016 1652.7329,931.23254 " stroke-linejoin="round" id="Polygon_33" d="M1653.2119 930.9474 C1653.2834 928.41144,  1653.3268 925.6633,  1653.3398 922.73425C1653.4066 923.9304,  1653.0896 924.26324,  1652.7714 924.59534C1652.5701 926.12573,  1652.6653 928.5013,  1652.7185 930.8095" stroke-linecap="round" path-type="area" fill="#00ff00" fill-opacity="0.8666666746139526"/><path stroke-linejoin="round" id="ConsecLine_1" d="M1224.2584 1028.3887 C1249.8198 1117.2295,  1235.9634 1118.6025,  1148.0005 1120.5427C1105.7516 1213.053,  1151.2821 1260.3877,  1236.3384 1243.2405" stroke-linecap="round" fill="none" stroke-width="5.0" stroke="#000000" stroke-opacity="1.0"/><path stroke-linejoin="round" id="ConsecLine_12" d="M1283.6282 945.28577 C1316.8693 941.9438,  1340.952 926.33014,  1359.3423 903.07916C1371.6431 891.61743,  1386.9623 904.26483,  1400.4282 921.5133C1415.4556 940.14795,  1428.63 963.38367,  1435.0801 971.71246" stroke-linecap="round" fill="none" stroke-width="5.0" display="none" stroke="#000000" stroke-opacity="1.0"/><path stroke-linejoin="round" id="ConsecLine_2" d="M1484.5928 496.77628 C1496.4977 542.59875,  1545.2415 596.7962,  1491.57 637.51196C1457.6707 663.2285,  1360.342 674.58386,  1335.2578 627.202C1303.3752 566.9758,  1352.4741 527.4831,  1401.5121 506.79257C1387.7805 525.5818,  1371.5356 582.4266,  1393.2314 600.8834C1420.2393 623.8533,  1442.2156 600.4366,  1458.6798 567.26587C1475.1088 534.0233,  1486.0258 491.02692,  1490.9525 474.9093C1498.0286 479.3753,  1479.4021 489.55887,  1484.5928 496.77628" stroke-linecap="round" fill="none" stroke-width="5.0" display="none" stroke="#000000" stroke-opacity="1.0"/><line x1="1169.3167" y1="724.33307" x2="1179.8464" id="StraightLine_1465" stroke-linecap="round" y2="832.55084" fill="none" stroke-width="25.5" display="none" stroke="#ff8800" stroke-opacity="1.0"/><path stroke-linejoin="round" id="ConsecLine_3" d="M1179.7684 832.126 C1167.7103 832.1079,  1190.9175 882.49713,  1190.3086 889.63745" stroke-linecap="round" fill="none" stroke-width="3.0" display="none" stroke="#000000" stroke-opacity="1.0"/><path stroke-linejoin="round" id="CircleArc_0" path-type="circle-arc" stroke-linecap="round" end-point="1573.0023,1030.5308" start-point="1644.1895,868.5079" circle-center="1546.4106,922.19727" d="M1644.1895 868.5079 C1673.8145 922.46063,  1654.0529 990.35114,  1600.1001 1019.9761C1591.1202 1024.9069,  1581.7543 1028.4695,  1573.0023 1030.5308" middle-point="1649.0,966.0" fill="none" stroke-width="5.0" display="none" stroke="#000000" stroke-opacity="1.0"/><line x1="1645.144" y1="877.22076" x2="1607.5957" id="StraightLine_1466" stroke-linecap="round" y2="1010.62384" fill="none" stroke-width="5.0" stroke="#000000" stroke-opacity="1.0"/><path stroke-linejoin="round" id="CircleArc_1" path-type="circle-arc" stroke-linecap="round" end-point="1652.3278,893.6577" start-point="1595.1478,746.3303" circle-center="1496.4531,869.3951" d="M1595.1478 746.3303 C1640.5074 782.7075,  1660.4414 839.1363,  1652.3278 893.6577" middle-point="1636.2563,796.3155" fill="none" stroke-width="5.0" stroke="#008cff" stroke-opacity="1.0"/><path stroke-linejoin="round" id="ConsecLine_4" d="M1388.5485 855.4424 C1403.6049 862.5808,  1408.1224 887.7434,  1417.4392 900.7006C1427.658 914.9129,  1437.8829 902.3511,  1446.9044 885.5341C1455.9022 868.6906,  1463.6963 847.5919,  1469.0767 844.7583C1500.0614 830.6206,  1527.9088 865.7047,  1560.3234 859.47736C1561.8016 829.5847,  1554.1135 801.0258,  1552.7026 771.3685C1571.4366 769.12,  1590.7551 769.8774,  1609.5569 769.4609C1612.2802 723.9929,  1578.2345 721.2676,  1555.0304 691.0702C1538.5898 669.6982,  1519.0919 650.0024,  1498.4572 631.69965" stroke-linecap="round" fill="none" stroke-width="5.0" display="none" stroke="#ff0000" stroke-opacity="0.2"/><path stroke-linejoin="round" id="ConsecLine_5" d="M1189.9902 883.8601 C1187.8019 864.5215,  1175.6808 848.56586,  1190.6722 836.16034C1190.7035 867.41406,  1185.4984 902.2898,  1200.6448 925.6074C1205.511 932.97754,  1217.6859 951.7636,  1230.2518 961.566C1242.8385 971.3399,  1255.8173 972.1311,  1262.2708 943.5397C1260.6049 964.13635,  1261.9674 989.0099,  1267.8204 1009.02106C1312.1049 994.7681,  1317.5067 963.73364,  1350.4916 950.59406C1365.3755 944.5839,  1393.5095 1017.9506,  1424.6624 1027.1025C1468.159 1039.936,  1480.2216 959.69995,  1501.531 940.18475C1527.587 916.32776,  1566.623 958.15186,  1579.7782 964.4909C1585.4443 966.9944,  1588.1952 911.65106,  1590.9071 878.0612C1593.3241 848.6252,  1607.7543 829.7449,  1619.223 809.9885" stroke-linecap="round" fill="none" stroke-width="5.0" stroke="#ff0000" stroke-opacity="0.2"/><path stroke-linejoin="round" id="ConsecLine_6" d="M1684.5232 859.24207 C1680.0004 920.25165,  1626.4215 938.41486,  1595.8977 984.58167" stroke-linecap="round" fill="none" stroke-width="3.0" stroke="#008cff" stroke-opacity="0.2"/><line x1="1153.9211" y1="829.82715" x2="1148.8331" id="StraightLine_1467" stroke-linecap="round" y2="910.7837" fill="none" stroke-width="25.5" display="none" stroke="#ff8800" stroke-opacity="1.0"/><path stroke-linejoin="round" id="CircleArc_2" path-type="circle-arc" stroke-linecap="round" end-point="1623.0752,989.27655" start-point="1635.3507,919.0622" circle-center="1609.1597,950.66345" d="M1635.3507 919.0622 C1652.7878 933.514,  1655.2128 959.4174,  1640.761 976.8545C1635.8586 982.7695,  1629.6385 986.95703,  1623.0752 989.27655" middle-point="1649.9054,955.60156" fill="none" stroke-width="3.0" stroke="#000000" stroke-opacity="0.2"/><path stroke-linejoin="round" id="CircleArc_3" path-type="circle-arc" stroke-linecap="round" end-point="1598.9674,742.34015" start-point="1281.2505,669.5671" circle-center="1456.3552,635.0223" d="M1281.2505 669.5671 C1300.3118 766.1871,  1394.28 829.1883,  1490.9 810.127C1535.8583 801.2576,  1573.5376 776.1698,  1598.9674 742.34015" middle-point="1396.7943,803.2713" fill="none" stroke-width="5.0" display="none" stroke="#000000" stroke-opacity="1.0"/><path stroke-linejoin="round" id="CircleArc_4" path-type="circle-arc" stroke-linecap="round" end-point="1683.3091,862.53326" start-point="1573.0022,1030.531" circle-center="1941.3698,1152.1882" d="M1573.0022 1030.531 C1595.397 962.7214,  1634.7655 905.2267,  1683.3091 862.53326" middle-point="1611.705,947.6979" fill="none" stroke-width="3.0" stroke="#008cff" stroke-opacity="0.2"/><line x1="1469.1342" y1="1226.1431" x2="1452.3357" id="StraightLine_1468" stroke-linecap="round" y2="1080.7739" fill="none" stroke-width="5.0" display="none" stroke="#000000" stroke-opacity="1.0"/><path stroke-linejoin="round" id="CircleArc_5" path-type="circle-arc" stroke-linecap="round" end-point="1573.0022,1030.531" start-point="1683.3091,862.53326" circle-center="1529.6014,881.8212" d="M1683.3091 862.53326 C1692.8738 938.7546,  1645.1824 1009.1011,  1573.0022 1030.531" middle-point="1657.8092,968.77435" fill="none" stroke-width="3.0" stroke="#008cff" stroke-opacity="0.2"/><path stroke-linejoin="round" id="ConsecLine_7" d="M1542.1566 675.3512 C1595.7831 679.4993,  1556.7219 746.5834,  1621.1312 770.2076C1649.8186 781.20807,  1655.6505 908.7415,  1652.6293 941.71533" stroke-linecap="round" fill="none" stroke-width="3.0" stroke="#000000" stroke-opacity="0.2"/><path stroke-linejoin="round" id="CircleArc_6" path-type="circle-arc" stroke-linecap="round" end-point="1427.4874,919.00616" start-point="1533.4003,908.28735" circle-center="1488.8115,996.3222" d="M1533.4003 908.28735 C1498.1653 890.4412,  1457.2124 895.78546,  1427.4874 919.00616" middle-point="1476.4155,898.4208" fill="none" stroke-width="5.0" display="none" stroke="#ff0000" stroke-opacity="1.0"/><path stroke-linejoin="round" id="ConsecLine_8" d="M1595.8977 984.58167 C1580.9456 989.5998,  1578.9868 1006.0551,  1569.5521 1016.85443" stroke-linecap="round" fill="none" stroke-width="3.0" stroke="#000000" stroke-opacity="0.2"/><path stroke-linejoin="round" id="ConsecLine_9" d="M1347.7859 642.3035 C1351.7184 622.91736,  1322.1882 643.7647,  1310.118 648.74176C1298.0237 653.6921,  1283.831 664.9848,  1279.3463 670.94086C1271.5867 681.25256,  1256.8768 694.346,  1250.1879 701.6954C1261.7341 702.04877,  1273.2913 702.1659,  1284.8461 702.0718C1271.9956 723.2247,  1254.4056 741.09973,  1243.0306 763.62085C1258.8811 763.5255,  1271.0267 762.337,  1286.1085 757.90875C1295.9862 779.47687,  1246.0404 793.0263,  1250.737 854.2043C1280.0792 859.0638,  1299.4803 830.17847,  1322.6523 816.7162C1324.9103 837.28796,  1318.808 859.365,  1317.435 879.9191" stroke-linecap="round" fill="none" stroke-width="5.0" stroke="#000000" stroke-opacity="1.0"/><path stroke-linejoin="round" id="ConsecLine_10" d="M1598.9674 742.34015 C1649.9027 744.32184,  1632.5652 833.1397,  1644.1895 868.5079" stroke-linecap="round" fill="none" stroke-width="25.5" stroke="#008cff" stroke-opacity="0.2"/><path stroke-linejoin="round" id="ConsecLine_11" d="M1644.1895 868.5079 C1651.3912 905.3431,  1619.382 955.6087,  1595.8977 984.58167" stroke-linecap="round" fill="none" stroke-width="3.0" stroke="#000000" stroke-opacity="0.2"/><path stroke-linejoin="round" id="ConsecLine_12" d="M1148.4884 862.54816 C1158.6028 849.3339,  1212.5189 802.4263,  1224.8906 796.6845C1240.4532 789.4615,  1227.4897 854.4323,  1227.4781 916.6504C1227.8977 916.6893,  1228.3179 916.693,  1228.7362 916.76733C1255.7854 919.0114,  1258.4502 907.7448,  1280.028 897.1721C1285.9708 894.30206,  1281.2073 923.2824,  1284.5328 957.97754C1315.6245 957.02985,  1347.2256 881.76404,  1381.8829 923.9863C1395.4303 940.6001,  1402.0192 984.27106,  1435.0801 971.71246C1460.991 961.8999,  1466.2643 918.3362,  1486.9368 903.5656C1506.7332 889.4343,  1550.7651 915.5942,  1563.1399 927.67456C1573.8159 938.14764,  1573.1469 900.89453,  1576.5101 864.4473C1579.8655 828.0159,  1587.2513 792.3912,  1614.0448 806.10516C1642.1919 820.52075,  1662.3727 939.8178,  1648.0249 964.05786C1636.6401 972.7618,  1601.7183 993.0229,  1585.1614 1010.0894C1568.8556 1037.4434,  1562.8046 1047.6191,  1540.7164 1056.8259C1381.7542 1122.0608,  1129.5127 1082.2556,  1148.4884 862.54816" stroke-linecap="round" fill="none" stroke-width="3.0" stroke="#ff0000" stroke-opacity="0.2"/><path stroke-linejoin="round" id="ConsecLine_13" d="M1347.7859 642.3035 C1401.2255 652.5971,  1379.4279 755.8172,  1430.3854 751.8976C1449.8198 750.4026,  1501.2175 678.3906,  1506.2743 661.9571C1512.3802 672.195,  1516.0236 745.39764,  1510.4093 756.8373C1506.136 765.35266,  1440.235 769.0503,  1430.3119 770.19324C1409.5385 773.05664,  1365.9348 768.4264,  1336.2366 753.3753C1306.5615 738.15356,  1312.9165 681.2947,  1347.7859 642.3035" stroke-linecap="round" fill="none" stroke-width="5.0" stroke="#000000" stroke-opacity="1.0"/><path stroke-linejoin="round" id="ConsecLine_14" d="M1598.9674 742.34015 C1597.3389 635.5724,  1555.1285 520.8292,  1698.0487 534.7799C1709.9757 619.2026,  1705.3385 950.6666,  1623.0752 989.27655" stroke-linecap="round" fill="none" stroke-width="3.0" stroke="#000000" stroke-opacity="0.2"/><line x1="1222.3384" y1="1243.2405" x2="1392.5654" id="StraightLine_1469" stroke-linecap="round" y2="1243.2402" fill="none" stroke-width="5.0" display="none" stroke="#000000" stroke-opacity="1.0"/><path stroke-linejoin="round" id="CircleArc_7" path-type="circle-arc" stroke-linecap="round" end-point="1435.0801,971.71246" start-point="1350.2094,912.9698" circle-center="1386.0435,951.8782" d="M1350.2094 912.9698 C1371.6785 893.1971,  1405.1792 894.5751,  1424.9519 916.04407C1439.159 931.47003,  1442.4467 953.10767,  1435.0801 971.71246" middle-point="1409.9673,904.70135" fill="none" stroke-width="5.0" display="none" stroke="#ff0000" stroke-opacity="1.0"/><line x1="1623.0757" y1="1226.1433" x2="1469.1342" id="StraightLine_1470" stroke-linecap="round" y2="1226.1431" fill="none" stroke-width="5.0" display="none" stroke="#000000" stroke-opacity="1.0"/><path stroke-linejoin="round" id="CircleArc_8" path-type="circle-arc" stroke-linecap="round" end-point="1388.5485,855.4424" start-point="1317.435,879.9191" d="M1317.435 879.9191 C1352.9917 867.6808,  1352.9917 867.6808,  1388.5485 855.4424" middle-point="1350.8846,871.2959" fill="none" stroke-width="5.0" display="none" stroke="#000000" stroke-opacity="1.0"/><path stroke-linejoin="round" id="ConsecLine_15" d="M1595.8977 984.58167 C1592.571 1005.06683,  1583.7654 1020.42255,  1569.7572 1037.0437" stroke-linecap="round" fill="none" stroke-width="3.0" stroke="#000000" stroke-opacity="0.2"/><path stroke-linejoin="round" id="ConsecLine_16" d="M1623.0752 989.27655 C1623.5184 1033.1414,  1586.2446 1093.3875,  1586.6875 1137.2517C1623.1842 1139.1721,  1659.3256 1133.3159,  1693.419 1121.0447C1701.2136 1149.7307,  1704.5593 1179.4917,  1705.329 1208.6355C1680.3033 1210.3882,  1633.2607 1225.0063,  1623.0757 1226.1433" stroke-linecap="round" fill="none" stroke-width="3.0" display="none" stroke="#000000" stroke-opacity="0.2"/><line x1="1644.1895" y1="868.5079" x2="1623.0753" id="StraightLine_1471" stroke-linecap="round" y2="989.27655" fill="none" stroke-width="3.0" stroke="#000000" stroke-opacity="0.2"/><line x1="1392.5654" y1="1243.2405" x2="1325.235" id="StraightLine_1472" stroke-linecap="round" y2="1079.3042" fill="none" stroke-width="5.0" display="none" stroke="#000000" stroke-opacity="1.0"/><path stroke-linejoin="round" id="ConsecLine_17" d="M1284.3453 665.65564 C1250.0195 681.9024,  1258.7343 722.2901,  1225.7944 748.24347C1201.5168 768.12787,  1188.022 802.2316,  1179.7684 832.126" stroke-linecap="round" fill="none" stroke-width="5.0" stroke="#000000" stroke-opacity="1.0"/><line x1="1224.2583" y1="1028.3887" x2="1325.235" id="StraightLine_1473" stroke-linecap="round" y2="1079.3042" fill="none" stroke-width="5.0" stroke="#008cff" stroke-opacity="1.0"/><path stroke-linejoin="round" id="ConsecLine_18" d="M1235.0 755.0 C1209.6567 637.81696,  1219.1993 501.5265,  1314.0 419.0C1264.0945 391.599,  1187.1108 407.0,  1132.0 407.0C1123.2943 600.2741,  1114.6676 623.78186,  1179.0 800.0" stroke-linecap="round" fill="none" stroke-width="5.0" stroke="#008cff" stroke-opacity="1.0"/><line x1="1179.0" y1="800.00006" x2="1189.3169" id="StraightLine_1474" stroke-linecap="round" y2="884.3199" fill="none" stroke-width="5.0" display="none" stroke="#008cff" stroke-opacity="1.0"/><path stroke-linejoin="round" id="CircleArc_9" path-type="circle-arc" stroke-linecap="round" end-point="1184.1584,842.16" start-point="1235.0,755.0" circle-center="1264.3383,830.5216" d="M1235.0 755.0 C1199.3341 768.8553,  1179.0305 805.2809,  1184.1584 842.16" middle-point="1196.0,787.0" fill="none" stroke-width="5.0" stroke="#008cff" stroke-opacity="1.0"/></g></svg>