<svg xmlns="http://www.w3.org/2000/svg" xmlns:xlink="http://www.w3.org/1999/xlink" width="2716.0" height="1528.0" background="#FFFFFF"><g type="COMPO" id="CompositeShape_0"><path rough-pts="1406.71,1144.0116 1406.71,918.1926 1387.271,921.4681 1350.1581,923.34357 1315.3569,922.056 1289.4017,919.8178 1272.3584,912.8186 1265.9336,898.3722 1274.9348,893.6652 1286.0149,894.64484 1306.1499,894.69653 1324.8811,892.3751 1341.0771,885.99396 1353.6068,873.8668 1361.3394,854.30743 1364.551,872.6307 1375.2239,884.7452 1390.9497,891.90674 1409.3196,895.371 1427.925,896.3934 1438.1727,895.7291 1447.1384,874.7377 1441.3013,853.45844 1432.1729,828.6733 1421.0074,801.9907 1413.9579,786.1462 1417.6434,796.53876 1433.4001,816.9365 1453.407,830.3707 1478.4684,833.5337 1483.5403,796.9584 1483.937,765.2538 1479.3728,736.6834 1469.5623,709.5104 1454.2205,681.99805 1433.0616,652.4098 1425.5286,644.587 1416.4983,638.3008 1406.3809,633.73865 1395.5862,631.0879 1384.5248,630.53625 1373.6069,632.27136 1372.775,637.7865 1371.8364,643.288 1370.7959,648.7739 1369.6573,654.2422 1368.4253,659.6909 1367.1044,665.11835 1356.6927,657.774 1347.3239,650.3899 1338.2118,643.4409 1328.5701,637.4015 1317.6128,632.74646 1304.554,629.95074 1295.2382,630.37054 1284.91,633.4877 1275.4437,639.1442 1268.713,647.1819 1266.5923,657.4426 1270.9557,669.76855 1265.1888,662.6022 1259.4639,653.8738 1253.547,644.645 1247.2047,635.97736 1240.2034,628.9324 1232.3096,624.57184 1229.6764,635.4359 1223.3234,653.28687 1216.8712,670.5108 1214.6431,676.1691 1205.0276,702.1271 1195.8698,729.2053 1188.562,755.44836 1184.1849,779.6793 1183.6989,801.0344 1188.3159,818.02747 1199.2479,829.172 1217.7067,832.9818 1244.9043,827.9708 1254.6632,821.4315 1253.7339,841.9464 1249.8278,866.79486 1243.1233,893.1506 1233.7983,918.1875 1222.0311,939.0793 1208.0,953.0 1189.9512,963.4788 1172.8992,972.8949 1157.4614,982.8018 1144.2542,994.7526 1133.8947,1010.30084 1127.0,1031.0 1124.0125,1049.3468 1122.3497,1067.9929 1121.6145,1086.81 1121.4093,1105.6692 1121.3369,1124.4419 1121.0,1143.0 1178.9768,1141.0403 1213.8303,1133.3691 1234.5602,1119.958 1250.1653,1100.7783 1269.6455,1075.8018 1302.0,1045.0 1302.0,1122.0001 1304.5,1099.0 " stroke-linejoin="round" id="Polygon_17" d="M1406.71 1144.0116 L1406.71 918.1926 C1367.9004 927.1801,  1312.385 922.16455,  1289.4017 919.8178C1271.8331 918.02136,  1265.95 907.7206,  1265.6072 893.9196C1312.6753 895.7016,  1352.1819 898.34534,  1361.3394 854.30743C1358.8724 895.0786,  1407.9713 896.85205,  1438.1814 896.3575C1447.2384 892.56805,  1449.0885 884.6109,  1447.1384 874.7377C1442.618 851.98926,  1428.3142 818.2318,  1413.9271 785.9081C1426.5432 814.2618,  1446.8416 837.0253,  1478.4684 833.5337C1493.0978 754.3547,  1481.3864 714.81995,  1433.0616 652.4098C1419.7667 635.3529,  1395.0259 626.38965,  1373.6069 632.27136C1372.0526 643.31433,  1369.8326 654.2862,  1367.1044 665.11835C1344.715 650.78613,  1333.2971 633.3666,  1304.554 629.95074C1288.1847 627.9877,  1254.4952 643.1571,  1270.9557 669.76855C1259.225 657.7056,  1249.1454 629.90094,  1232.3096 624.57184C1231.6917 638.00977,  1200.399 705.1012,  1188.562 755.44836C1176.725 805.7955,  1180.9622 847.8047,  1244.9043 827.9708C1248.5177 826.8478,  1251.7555 824.58484,  1254.6631 821.4315C1255.9001 856.2439,  1238.2076 934.01385,  1208.0 953.0C1171.3169 976.05615,  1136.9135 983.4154,  1127.0 1031.0C1119.4357 1067.3088,  1122.203 1106.1844,  1121.0 1143.0C1266.0764 1144.7731,  1218.4172 1112.4482,  1302.0 1045.0L1302.0 1122.0001 L1304.5 1099.0 L1406.71 1144.0116 " stroke-linecap="round" path-type="area" fill="#5b4915" fill-opacity="0.6784313917160034"/><path rough-pts="1442.2952,899.3775 1420.1614,914.2168 1387.271,921.4681 1350.1581,923.34357 1315.3569,922.056 1289.4017,919.8178 1272.3584,912.8186 1265.9336,898.3722 1274.9348,893.6652 1286.0149,894.64484 1306.1499,894.69653 1324.8811,892.3751 1341.0771,885.99396 1353.6068,873.8668 1361.3394,854.30743 1364.551,872.6307 1375.2239,884.7452 1390.9497,891.90674 1409.3196,895.371 1427.925,896.3934 1438.1727,895.7291 " stroke-linejoin="round" id="Polygon_8" d="M1442.2952 899.37756 C1417.9993 931.6623,  1321.659 923.1115,  1289.4017 919.8178C1271.8331 918.02136,  1265.95 907.7206,  1265.6072 893.9196C1312.6753 895.7016,  1352.1819 898.34534,  1361.3394 854.30743C1358.8724 895.0786,  1407.9713 896.85205,  1438.1814 896.3575C1442.5049 899.0962,  1442.4006 899.23724,  1442.295 899.37756" stroke-linecap="round" path-type="area" fill="#5b4915" fill-opacity="0.7686274647712708"/><path rough-pts="1217.065,641.0264 1216.5868,646.59296 1216.4249,652.238 1216.4761,657.6882 1216.6366,662.6699 1216.8036,666.90985 1216.8712,670.5108 1223.3234,653.28687 1229.6764,635.4359 1232.3096,624.57184 1227.7732,623.92816 1224.173,625.0035 1221.4053,627.52454 1219.367,631.2175 1217.9545,635.8093 " stroke-linejoin="round" id="Polygon_0" d="M1217.065 641.0264 C1215.7238 651.8988,  1216.8994 664.88257,  1216.8737 670.13464C1225.2993 648.1609,  1232.0264 630.7309,  1232.3096 624.57184C1222.2323 621.38336,  1218.3903 630.14923,  1217.065 641.0264" stroke-linecap="round" path-type="area" fill="#5b4915" fill-opacity="0.6784313917160034"/><path rough-pts="1387.8274,726.64294 1395.6614,748.08405 1405.3319,772.4853 1413.9579,786.1462 1409.0588,775.0191 1397.5807,749.36694 " stroke-linejoin="round" id="Polygon_3" d="M1387.8274 726.64294 C1394.0393 742.9492,  1401.4083 766.2848,  1412.2749 787.0268C1404.2941 764.26526,  1394.6235 743.2652,  1387.8274 726.64294" stroke-linecap="round" path-type="area" fill-opacity="0.0"/><path rough-pts="1405.3319,772.4853 1395.6614,748.08405 1387.8274,726.64294 1397.5807,749.36694 1409.0588,775.0191 1413.9579,786.1462 " stroke-linejoin="round" id="Polygon_16" d="M1405.332 772.48535 C1398.0941 755.96625,  1392.6168 739.2153,  1387.8274 726.64294C1394.6235 743.2652,  1404.2941 764.26526,  1413.9271 785.9081C1409.7866 782.2771,  1407.4817 777.3914,  1405.332 772.4853" stroke-linecap="round" path-type="area" fill-opacity="0.0"/><path stroke-dasharray="5.0,5.0" stroke-linejoin="round" id="ConsecLine_1" d="M1232.3096 624.57184 C1231.6917 638.00977,  1200.399 705.1012,  1188.562 755.44836C1176.725 805.7955,  1180.9622 847.8047,  1244.9043 827.9708C1273.8116 818.9864,  1278.6782 737.0482,  1282.7847 709.93445C1283.6472 745.8245,  1284.8303 783.117,  1281.6171 818.8834C1278.8225 849.7192,  1242.5369 915.0257,  1289.4017 919.8178C1328.1105 923.77026,  1459.0986 935.29285,  1447.1384 874.7377C1439.5913 836.7577,  1404.7736 768.09064,  1387.8274 726.64294C1402.1958 764.3599,  1422.7546 839.6845,  1478.4684 833.5337C1493.0978 754.3547,  1481.3864 714.81995,  1433.0616 652.4098C1419.7667 635.3529,  1395.0259 626.38965,  1373.6069 632.27136C1372.0526 643.31433,  1369.8326 654.2862,  1367.1044 665.11835C1344.715 650.78613,  1333.2971 633.3666,  1304.554 629.95074C1288.1847 627.9877,  1254.4952 643.1571,  1270.9557 669.76855C1259.225 657.7056,  1249.1454 629.90094,  1232.3096 624.57184C1222.2323 621.38336,  1218.3903 630.14923,  1217.065 641.0264C1215.7238 651.8988,  1216.8994 664.88257,  1216.8737 670.13464" stroke-linecap="round" fill="none" stroke-width="3.0" stroke="#000000" stroke-opacity="0.76862746"/><path stroke-dasharray="5.0,5.0" stroke-linejoin="round" id="ConsecLine_19" d="M1254.6632 821.4315 C1255.9001 856.2439,  1238.2076 934.01385,  1208.0 953.0C1171.3169 976.05615,  1136.9135 983.4154,  1127.0 1031.0C1119.4357 1067.3088,  1122.203 1106.1844,  1121.0 1143.0" stroke-linecap="round" fill="none" stroke-width="3.0" display="none" stroke="#000000" stroke-opacity="0.76862746"/><line stroke-dasharray="5.0,5.0" x1="1406.71" y1="918.1926" x2="1406.71" id="StraightLine_93" stroke-linecap="round" y2="1144.0116" fill="none" stroke-width="3.0" display="none" stroke="#000000" stroke-opacity="0.76862746"/><line stroke-dasharray="5.0,5.0" x1="1302.0" y1="1045.0" x2="1302.0" id="StraightLine_95" stroke-linecap="round" y2="1122.0" fill="none" stroke-width="3.0" display="none" stroke="#000000" stroke-opacity="0.76862746"/><path stroke-dasharray="5.0,5.0" stroke-linejoin="round" id="ConsecLine_23" d="M1302.0 1045.0 C1218.4172 1112.4482,  1266.0764 1144.7731,  1121.0 1143.0" stroke-linecap="round" fill="none" stroke-width="3.0" display="none" stroke="#000000" stroke-opacity="0.76862746"/><line stroke-dasharray="5.0,5.0" x1="1307.0" y1="1076.0" x2="1301.9999" id="StraightLine_100" stroke-linecap="round" y2="1122.0" fill="none" stroke-width="3.0" stroke="#000000" stroke-opacity="0.76862746"/><line stroke-dasharray="5.0,5.0" x1="1309.0358" y1="1076.2671" x2="1302.0" id="StraightLine_102" stroke-linecap="round" y2="1122.0001" fill="none" stroke-width="3.0" stroke="#000000" stroke-opacity="0.76862746"/><path stroke-dasharray="5.0,5.0" stroke-linejoin="round" id="ConsecLine_5" d="M1265.6068 893.9061 C1305.9421 894.9464,  1351.4255 901.98267,  1361.3394 854.30743C1358.6957 897.99963,  1415.2712 896.906,  1444.3577 896.22974" stroke-linecap="round" fill="none" stroke-width="3.0" display="none" stroke="#000000" stroke-opacity="0.76862746"/><line stroke-dasharray="5.0,5.0" x1="1304.5" y1="1099.0" x2="1406.71" id="StraightLine_105" stroke-linecap="round" y2="1144.0116" fill="none" stroke-width="3.0" display="none" stroke="#000000" stroke-opacity="0.76862746"/></g><g type="COMPO" id="CompositeShape_1"><path rough-pts="1304.0,716.0 1307.6371,726.50214 1309.8785,741.5059 1311.7302,758.3845 1314.1973,774.5109 1318.2854,787.25836 1325.0,794.0 1327.6914,794.00726 1329.487,792.1055 1330.5576,788.69226 1331.074,784.16437 1331.2067,778.91943 1331.127,773.35474 1330.6456,767.5405 1329.9688,761.9059 1329.1719,756.7617 1328.3298,752.4181 1327.5183,749.18567 1326.8125,747.375 1324.8666,741.3385 1321.9751,735.4969 1318.2904,729.9463 1313.9646,724.7826 1309.1504,720.1018 " stroke-linejoin="round" id="Polygon_4" d="M1304.0 716.0 C1313.3401 730.75165,  1308.2739 788.2738,  1325.0 794.0C1331.3928 796.1886,  1331.3853 784.5391,  1331.127 773.35474C1330.4103 761.7536,  1328.0681 749.3677,  1326.8125 747.375C1323.9685 735.1713,  1314.5352 723.56055,  1304.0 716.0" stroke-linecap="round" path-type="area" fill="#0000ff" fill-opacity="0.658823549747467"/><path stroke-dasharray="5.0,5.0" stroke-linejoin="round" id="ConsecLine_2" d="M1304.0 716.0 C1313.3401 730.75165,  1308.2739 788.2738,  1325.0 794.0C1331.3928 796.1886,  1331.3853 784.5391,  1331.127 773.35474C1330.4103 761.7536,  1328.0681 749.3677,  1326.8125 747.375C1323.9685 735.1713,  1314.5352 723.56055,  1304.0 716.0" stroke-linecap="round" fill="none" stroke-width="3.0" display="none" stroke="#000000" stroke-opacity="0.76862746"/></g><g type="COMPO" id="CompositeShape_2"><path rough-pts="1350.0,713.0 1349.858,725.92114 1350.6409,739.8435 1352.8477,753.8399 1356.977,766.9829 1363.5281,778.3453 1373.0,787.0 1372.6243,776.0753 1370.1151,763.74 1366.0358,750.62946 1360.9482,737.37897 1355.4155,724.6239 " stroke-linejoin="round" id="Polygon_5" d="M1350.0 713.0 C1349.1243 737.2232,  1350.8029 773.01654,  1373.0 787.0C1374.7567 766.98517,  1360.3386 734.69336,  1350.0 713.0" stroke-linecap="round" path-type="area" fill="#0000ff" fill-opacity="0.658823549747467"/><path stroke-dasharray="5.0,5.0" stroke-linejoin="round" id="ConsecLine_3" d="M1350.0 713.0 C1349.1243 737.2232,  1350.8029 773.01654,  1373.0 787.0C1374.7567 766.98517,  1360.3386 734.69336,  1350.0 713.0" stroke-linecap="round" fill="none" stroke-width="3.0" display="none" stroke="#000000" stroke-opacity="0.76862746"/></g><g type="COMPO" id="CompositeShape_3"><path rough-pts="1402.25,845.75 1403.8468,843.5824 1405.2015,841.28784 1406.3948,838.90906 1407.5071,836.48773 1408.6194,834.06647 1409.8125,831.6875 1400.8845,829.33386 1391.6611,827.68414 1382.2521,826.7323 1372.7661,826.4718 1363.3123,826.8964 1354.0,828.0 1346.0884,828.171 1338.217,827.6868 1330.379,826.7374 1322.5679,825.513 1314.7771,824.20386 1307.0,823.0 1316.3384,834.4503 1333.3656,843.2018 1354.2764,848.98114 1375.2644,851.51465 1392.5242,850.5287 " stroke-linejoin="round" id="Polygon_6" d="M1402.25 845.75 C1405.7401 841.5699,  1407.2916 836.375,  1409.8125 831.6875C1392.3246 826.27216,  1372.4102 825.1181,  1354.0 828.0C1338.1326 829.12445,  1322.5449 825.1755,  1307.0 823.0C1315.4509 848.4171,  1392.8695 859.2826,  1402.25 845.75" stroke-linecap="round" path-type="area" fill="#0000ff" fill-opacity="0.658823549747467"/><path stroke-dasharray="5.0,5.0" stroke-linejoin="round" id="ConsecLine_4" d="M1354.0 828.0 C1338.1326 829.12445,  1322.5449 825.1755,  1307.0 823.0C1315.4509 848.4171,  1392.8695 859.2826,  1402.25 845.75C1405.7401 841.5699,  1407.2916 836.375,  1409.8125 831.6875C1392.3246 826.27216,  1372.4102 825.1181,  1354.0 828.0" stroke-linecap="round" fill="none" stroke-width="3.0" display="none" stroke="#000000" stroke-opacity="0.76862746"/></g><line stroke-dasharray="5.0,5.0" x1="1295.0" y1="852.0" x2="1303.0" id="StraightLine_66" stroke-linecap="round" y2="852.0" fill="none" stroke-width="3.0" stroke="#000000" stroke-opacity="0.76862746"/><g type="COMPO" id="CompositeShape_5"><path stroke-dasharray="5.0,5.0" stroke-linejoin="round" id="ConsecLine_11" d="M1286.0 865.0 C1289.0 865.3333,  1292.0 865.6667,  1295.0 866.0" stroke-linecap="round" fill="none" stroke-width="3.0" stroke="#000000" stroke-opacity="0.76862746"/></g><line stroke-dasharray="5.0,5.0" x1="1309.0" y1="860.0" x2="1319.0" id="StraightLine_67" stroke-linecap="round" y2="860.0" fill="none" stroke-width="3.0" stroke="#000000" stroke-opacity="0.76862746"/><line stroke-dasharray="5.0,5.0" x1="1399.0" y1="860.0" x2="1407.0" id="StraightLine_68" stroke-linecap="round" y2="860.0" fill="none" stroke-width="3.0" stroke="#000000" stroke-opacity="0.76862746"/><line stroke-dasharray="5.0,5.0" x1="1423.0" y1="881.0" x2="1431.0" id="StraightLine_69" stroke-linecap="round" y2="881.0" fill="none" stroke-width="3.0" stroke="#000000" stroke-opacity="0.76862746"/><line stroke-dasharray="5.0,5.0" x1="1423.0" y1="854.0" x2="1431.0" id="StraightLine_70" stroke-linecap="round" y2="854.0" fill="none" stroke-width="3.0" stroke="#000000" stroke-opacity="0.76862746"/><g type="COMPO" id="CompositeShape_9"><line stroke-dasharray="5.0,5.0" x1="1347.4999" y1="1045.0" x2="1347.4999" id="StraightLine_96" stroke-linecap="round" y2="1122.0" fill="none" stroke-width="3.0" stroke="#000000" stroke-opacity="0.76862746"/><line stroke-dasharray="5.0,5.0" x1="1345.9595" y1="1083.7501" x2="1347.4999" id="StraightLine_104" stroke-linecap="round" y2="1083.7501" fill="none" stroke-width="3.0" stroke="#000000" stroke-opacity="0.76862746"/></g></svg>