<svg xmlns="http://www.w3.org/2000/svg" xmlns:xlink="http://www.w3.org/1999/xlink" width="2716.0" height="1528.0" background="#FFFFFF"><g type="COMPO" id="CompositeShape_0"><path rough-pts="1434.0619,1107.0289 1430.9225,1041.1542 1426.2428,958.6457 1421.296,872.83136 1417.3556,797.0393 1416.1804,764.0684 1394.345,768.7675 1361.1288,767.9819 1336.0131,763.51904 1332.1863,758.55164 1328.1077,756.053 1317.4501,739.4231 1305.5778,717.70337 1294.0278,694.9671 1284.3375,675.28796 1282.3878,671.4976 1282.7606,703.0573 1282.9415,742.455 1281.5116,784.8795 1277.0537,825.69354 1268.1515,860.2602 1253.3881,883.94244 1242.5171,891.5997 1230.5756,896.4636 1217.9275,899.5323 1204.9374,901.8031 1191.9694,904.27386 1184.2075,906.89075 1179.3881,907.94244 1160.9469,920.1153 1145.2162,939.8946 1132.6453,964.27386 1130.6764,969.113 1130.6764,973.89435 1130.6764,1142.9421 1197.3881,1142.942 1197.8761,1112.5608 1201.2554,1091.4386 1208.5127,1077.0084 1220.635,1066.7029 1238.6091,1057.9551 1248.5652,1053.9619 1263.4222,1048.1981 1288.6375,1038.3826 1305.1978,1031.0339 1307.2415,1030.0481 1321.5767,1022.4658 1333.9847,1014.90674 1346.8077,1006.64185 1362.3881,996.94244 1362.388,1021.27563 1362.388,1045.609 1362.3881,1069.9424 1362.3881,1094.2756 1362.388,1118.6089 1362.3881,1142.9363 1434.3881,1142.9423 " stroke-linejoin="round" id="Polygon_123" d="M1434.062 1107.0289 C1431.104 1026.2493,  1418.3851 841.5213,  1416.0592 763.8133C1385.7638 770.99365,  1352.6481 768.6947,  1336.0131 763.51904C1325.4836 760.8481,  1295.2495 697.3678,  1282.3857 671.3233C1282.3857 724.03644,  1289.7205 850.5537,  1253.3881 883.94244C1232.9601 902.71533,  1203.9213 898.7425,  1179.3881 907.94244C1157.454 916.1677,  1139.7465 944.2368,  1129.0813 973.3203L1130.6764 1142.9421 L1197.3881 1142.942 C1196.1312 1071.2096,  1206.2992 1070.4329,  1263.4222 1048.1981C1322.0254 1026.6003,  1326.909 1018.26184,  1362.3881 996.94244C1362.3881 1045.6073,  1362.3881 1094.2716,  1362.3881 1142.9364L1434.3881 1142.9423 C1434.8898 1137.4456,  1434.7103 1124.734,  1434.062 1107.0289" stroke-linecap="round" path-type="area" fill="#9c7526" fill-opacity="0.886274516582489"/><path rough-pts="1474.3475,728.80286 1468.1368,729.4229 1452.3828,728.5306 1436.8962,726.2019 1422.0713,721.8592 1408.3021,714.9248 1395.9823,704.82104 1392.837,720.61285 1386.0363,735.91864 1375.986,749.07117 1363.0927,758.4032 1347.7628,762.2478 1332.1863,758.55164 1328.1077,756.053 1317.4501,739.4231 1305.5778,717.70337 1294.0278,694.9671 1284.3375,675.28796 1282.3878,671.4976 1278.0443,662.7398 1269.4261,646.08 1262.1526,630.0679 1256.393,614.1409 1252.3162,597.73694 1250.0914,580.29364 1249.8881,561.24884 1249.8881,465.03256 1292.2073,551.4423 1382.8898,551.4424 1382.8899,455.22614 1425.2091,541.6359 1444.1864,551.66254 1458.0964,577.9321 1467.976,613.7521 1474.8611,652.42957 1479.7883,687.2719 1483.7943,711.5866 " stroke-linejoin="round" id="Polygon_8" d="M1474.3434 729.50684 C1446.1534 729.3755,  1416.5973 726.1865,  1395.9823 704.82104C1393.6494 735.3727,  1367.5817 772.82513,  1331.8356 759.49744C1315.7767 742.5882,  1285.2811 676.2565,  1278.0443 662.7398C1259.5763 628.3981,  1248.1609 601.3149,  1249.8881 561.24884L1249.8881 465.03256 L1292.2073 551.4423 L1382.8898 551.4424 L1382.8899 455.22614 L1425.2091 541.6359 C1468.922 540.98444,  1476.013 677.9469,  1483.7943 711.5866C1485.5913 719.2983,  1485.1509 726.0797,  1482.9353 732.0183" stroke-linecap="round" path-type="area" fill="#9c7527" fill-opacity="0.8666666746139526"/><path rough-pts="1119.7396,720.0236 1114.8926,736.9315 1108.6655,768.5949 1106.0061,810.50604 1106.8961,857.08923 1111.3169,902.76855 1119.2498,941.9683 1130.6764,969.113 1132.6453,964.27386 1145.2162,939.8946 1160.9469,920.1153 1179.3881,907.94244 1184.2075,906.89075 1178.007,899.4917 1173.5687,884.17523 1170.4818,864.2722 1168.5054,843.6411 1167.3982,826.14056 1166.9196,815.6293 1167.2733,795.5598 1169.6212,783.0833 1173.6915,774.52924 1179.2119,766.22626 1185.91,754.50336 1190.499,741.5973 1190.8264,732.59515 1186.9633,727.90216 1180.5802,726.4498 1172.5471,726.85657 1163.7343,727.7411 1155.0115,727.7219 1158.6823,719.02423 1160.8124,714.88715 1158.6261,715.22595 1155.5107,715.8152 1151.6862,716.5509 1147.3727,717.32904 1142.7904,718.04584 1138.1594,718.5974 1135.8348,718.7514 1133.5808,718.82513 1131.4244,718.80554 1129.3934,718.6796 1127.5154,718.4345 1125.8177,718.05725 1124.5658,717.6437 1123.5494,717.07184 1122.7959,716.32886 1122.3326,715.40155 1123.4037,714.4571 " stroke-linejoin="round" id="Polygon_110" d="M1119.6553 720.22015 C1118.0919 725.84674,  1116.5249 731.4405,  1114.8926 736.9315C1098.8583 786.2936,  1104.3419 930.59625,  1130.6764 969.1129C1141.6049 941.3629,  1158.5979 915.7387,  1179.3881 907.94244C1180.9244 907.36633,  1182.4784 906.84186,  1184.0469 906.3602C1170.2233 903.6319,  1167.409 827.08984,  1166.9196 815.6293C1165.5199 767.8,  1176.4753 781.3731,  1191.3016 741.9053C1194.1857 717.8091,  1171.736 729.57947,  1155.0115 727.7219C1156.6163 723.20483,  1158.6012 718.96716,  1160.8124 714.8871C1157.5157 715.2452,  1147.3236 717.72894,  1138.1594 718.5974C1133.4585 718.97705,  1129.0144 718.9529,  1125.8177 718.05725C1123.6351 717.51373,  1122.2551 716.4093,  1122.1893 714.5027C1123.3757 718.2799,  1121.5654 719.2484,  1119.688 720.1021" stroke-linecap="round" path-type="area" fill="#9c7527" fill-opacity="0.7882353067398071"/><path rough-pts="1131.452,702.2298 1130.7384,682.8739 1132.7412,677.2106 1145.0798,650.4071 1162.5188,628.8526 1172.5363,622.1124 1175.7963,620.3914 1187.1768,614.95544 1221.1719,611.12384 1219.1122,632.77423 1215.6859,653.90485 1211.1528,674.6386 1208.5275,683.65283 1204.4954,697.9669 1197.4911,719.77344 1190.499,741.5973 1190.8264,732.59515 1186.9633,727.90216 1180.5802,726.4498 1172.5471,726.85657 1163.7343,727.7411 1155.0115,727.7219 1158.6823,719.02423 1160.8124,714.88715 1163.0933,710.8551 1167.9712,702.9978 1173.0431,695.2357 1178.0358,687.35223 1182.6763,679.13086 1176.1869,680.06 1169.8542,682.3222 1163.7776,685.5715 1158.0553,689.4618 1152.787,693.6473 1148.0708,697.78186 1145.9944,699.7386 1144.0933,701.5529 1142.3795,703.1815 1140.8657,704.58105 1139.5642,705.70844 1137.654,705.9306 " stroke-linejoin="round" id="Polygon_107" d="M1131.452 702.2298 L1130.7384 682.8739 C1139.4734 657.29706,  1151.1757 634.4582,  1172.2936 621.6885C1173.1558 620.2184,  1174.3143 619.8243,  1175.479 619.4432C1187.3473 613.5086,  1202.2816 610.1624,  1221.1719 611.12384C1219.6941 636.2765,  1215.0128 660.1629,  1208.8882 683.6163C1203.1315 703.00134,  1196.5602 722.2436,  1190.499 741.5973C1194.1857 717.8091,  1171.736 729.57947,  1155.0115 727.7219C1161.4309 709.65356,  1173.9298 696.05634,  1182.6763 679.13086C1169.6064 679.4254,  1156.8848 689.7944,  1148.0708 697.78186C1143.7512 701.80884,  1140.4086 705.24066,  1138.4878 706.52026C1137.4404 706.2057,  1137.2239 706.4784,  1137.0044 706.74866" stroke-linecap="round" path-type="area" fill="#9c7527" fill-opacity="0.33725491166114807"/><path rough-pts="1305.1978,1142.9423 1305.1978,1125.7781 1305.1978,1031.0339 1288.6375,1038.3826 1263.4222,1048.1981 1248.5652,1053.9619 1248.5652,1142.9423 " stroke-linejoin="round" id="Polygon_181" d="M1305.1978 1142.9423 L1305.1978 1125.7781 L1305.1978 1031.0339 C1294.8031 1035.9944,  1281.7357 1041.4489,  1263.4222 1048.1981C1257.981 1050.3162,  1252.9657 1052.2394,  1248.3458 1054.0479L1248.5652 1142.9423 L1305.1978 1142.9423 " stroke-linecap="round" path-type="area" fill="#9c7526" fill-opacity="0.886274516582489"/><path rough-pts="1336.0131,763.51904 1332.1863,758.55164 1347.7628,762.2478 1363.0927,758.4032 1375.986,749.07117 1386.0363,735.91864 1392.837,720.61285 1395.9823,704.82104 1408.3021,714.9248 1422.0713,721.8592 1436.8962,726.2019 1452.3828,728.5306 1468.1368,729.4229 1474.3475,728.80286 1480.3859,737.2853 1460.1943,754.5966 1429.4406,764.69824 1416.1804,764.0684 1394.345,768.7675 1361.1288,767.9819 " stroke-linejoin="round" id="Polygon_9" d="M1336.0131 763.51904 C1334.6455 763.1721,  1332.9456 761.7994,  1330.9944 759.6161C1367.5817 772.82513,  1393.6494 735.3727,  1395.9823 704.82104C1416.5973 726.1865,  1446.1534 729.3755,  1474.3434 729.50684C1467.7488 772.72314,  1369.1609 773.83246,  1336.0131 763.51904" stroke-linecap="round" path-type="area" fill="#9c7527" fill-opacity="0.6392157077789307"/><path rough-pts="1248.5652,1142.9423 1248.5652,1053.9619 1238.6091,1057.9551 1220.635,1066.7029 1208.5127,1077.0084 1201.2554,1091.4386 1197.8761,1112.5608 1197.3881,1142.942 " stroke-linejoin="round" id="Polygon_182" d="M1248.5652 1142.9423 L1248.5652 1053.9619 C1204.4658 1071.2246,  1196.251 1078.0425,  1197.3881 1142.942L1248.5652 1142.9423 " stroke-linecap="round" path-type="area" fill="#cbd6a9" fill-opacity="0.19607843458652496"/><path rough-pts="1425.2091,541.636 1382.8899,455.22614 1398.9452,463.65997 1411.8813,475.51727 1421.3372,490.02087 1426.9513,506.39337 1428.3622,523.8575 " stroke-linejoin="round" id="Polygon_42" d="M1425.2091 541.636 L1382.8899 455.22614 C1417.8792 468.1521,  1436.3204 506.28296,  1425.2091 541.6359" stroke-linecap="round" path-type="area" fill="#9c7527" fill-opacity="0.6392157077789307"/><path rough-pts="1123.4037,714.4571 1122.3326,715.40155 1122.7959,716.32886 1123.5494,717.07184 1124.5658,717.6437 1125.8177,718.05725 1127.5154,718.4345 1129.3934,718.6796 1131.4244,718.80554 1133.5808,718.82513 1135.8348,718.7514 1138.1594,718.5974 1142.7904,718.04584 1147.3727,717.32904 1151.6862,716.5509 1155.5107,715.8152 1158.6261,715.22595 1160.8124,714.88715 1163.0933,710.8551 1167.9712,702.9978 1173.0431,695.2357 1178.0358,687.35223 1182.6763,679.13086 1176.1869,680.06 1169.8542,682.3222 1163.7776,685.5715 1158.0553,689.4618 1152.787,693.6473 1148.0708,697.78186 1145.9944,699.7386 1144.0933,701.5529 1142.3795,703.1815 1140.8657,704.58105 1139.5642,705.70844 1137.654,705.9306 1131.452,702.2298 1134.061,710.0448 1127.3774,715.7102 " stroke-linejoin="round" id="Polygon_108" d="M1122.1893 714.5027 C1122.2551 716.4093,  1123.6351 717.51373,  1125.8177 718.05725C1129.0144 718.9529,  1133.4585 718.97705,  1138.1594 718.5974C1147.3236 717.72894,  1157.5157 715.2452,  1160.8124 714.88715C1167.4459 702.647,  1176.1165 691.82495,  1182.6763 679.13086C1169.6064 679.4254,  1156.8848 689.7944,  1148.0708 697.78186C1143.7512 701.80884,  1140.4086 705.24066,  1138.4878 706.52026C1134.1997 710.38104,  1129.952 714.2056,  1125.1097 717.2056" stroke-linecap="round" path-type="area" fill="#9c7527" fill-opacity="0.33725491166114807"/><path rough-pts="1172.5363,622.1124 1162.5188,628.8526 1145.0798,650.4071 1132.7412,677.2106 1130.7384,682.8739 1131.452,680.8101 1130.067,657.0052 1140.1692,639.1991 1158.1963,626.4618 " stroke-linejoin="round" id="Polygon_100" d="M1172.2936 621.6885 C1151.1757 634.4582,  1139.4734 657.29706,  1130.7384 682.8739L1131.452 680.8101 C1121.3911 648.0072,  1144.3711 630.416,  1172.0051 620.626" stroke-linecap="round" path-type="area" fill="#9c7527" fill-opacity="0.33725491166114807"/><path rough-pts="1248.5652,1145.1888 1248.5652,1142.9423 1197.3881,1142.942 1130.6764,1146.6141 " stroke-linejoin="round" id="Polygon_184" d="M1248.5652 1145.1888 L1248.5652 1142.9423 L1197.3881 1142.942 L1130.6764 1146.6141 L1248.5652 1145.1888 " stroke-linecap="round" path-type="area" fill-opacity="0.0"/><path rough-pts="1123.4037,714.4571 1122.1876,714.27704 1121.7906,712.5338 1123.3848,706.85474 1130.7384,682.8739 1131.452,702.2298 1134.061,710.0448 1127.3774,715.7102 " stroke-linejoin="round" id="Polygon_109" d="M1122.1893 714.5027 C1122.1731 714.0327,  1122.2368 713.514,  1122.3881 712.9428C1124.582 702.5199,  1127.45 692.50287,  1130.7384 682.8739L1131.452 702.2298 C1133.6724 710.8507,  1129.6527 714.39105,  1125.1097 717.2056" stroke-linecap="round" path-type="area" fill="#9c7527" fill-opacity="0.33725491166114807"/><path rough-pts="1208.5275,683.65283 1211.1528,674.6386 1215.6859,653.90485 1219.1122,632.77423 1221.1719,611.12384 1187.1768,614.95544 1175.7963,620.3914 1180.5856,617.86316 1203.7742,612.47314 1224.2001,609.3618 1221.364,631.87494 1216.8534,654.0951 1211.0901,676.1 " stroke-linejoin="round" id="Polygon_102" d="M1208.8882 683.6163 C1215.0128 660.1629,  1219.6941 636.2765,  1221.1719 611.12384C1202.2816 610.1624,  1187.3473 613.5086,  1175.316 619.9653C1192.5848 613.8457,  1210.9891 611.0502,  1224.2001 609.3618C1222.129 634.64667,  1216.1517 659.24115,  1208.8956 683.62836" stroke-linecap="round" path-type="area" fill="#9c7527" fill-opacity="0.33725491166114807"/><path rough-pts="1197.3881,1142.942 1130.6764,1146.403 1130.6764,1142.9423 " stroke-linejoin="round" id="Polygon_19" d="M1197.3881 1142.942 L1130.6764 1146.403 L1130.6764 1142.9423 L1197.3833 1142.9423 " stroke-linecap="round" path-type="area" fill-opacity="0.0"/><path rough-pts="1248.5652,1142.9423 1248.5652,1145.1888 1305.1978,1144.5042 1305.1978,1142.9423 " stroke-linejoin="round" id="Polygon_183" d="M1248.5652 1142.9423 L1248.5652 1145.1888 L1305.1978 1144.5042 L1305.1978 1142.9423 L1248.5652 1142.9423 " stroke-linecap="round" path-type="area" fill-opacity="0.0"/><path rough-pts="1362.3881,1142.9423 1362.3881,1143.8126 1305.1978,1144.504 1305.1978,1142.9423 " stroke-linejoin="round" id="Polygon_216" d="M1362.3881 1142.9364 C1362.3881 1142.9364,  1362.3881 1142.9364,  1362.3881 1142.9364L1305.1978 1144.504 L1305.1978 1142.9423 L1362.3881 1142.9423 " stroke-linecap="round" path-type="area" fill-opacity="0.0"/><path rough-pts="1190.499,741.5973 1193.5142,735.6897 1199.8069,715.4079 1205.7732,695.09863 1208.5275,683.65283 1204.4954,697.9669 1197.4911,719.77344 " stroke-linejoin="round" id="Polygon_104" d="M1191.3016 741.9053 C1192.0302 739.966,  1192.768 737.8987,  1193.5142 735.6897C1198.9548 718.34247,  1204.3225 701.09973,  1208.8882 683.6163C1203.1315 703.00134,  1196.5602 722.2436,  1190.499 741.5973" stroke-linecap="round" path-type="area" fill="#9c7527" fill-opacity="0.33725491166114807"/><path rough-pts="1434.3881,1142.9423 1362.3881,1143.8126 1362.3881,1142.9423 " stroke-linejoin="round" id="Polygon_178" d="M1434.3881 1142.9423 L1362.3881 1143.8126 C1362.3881 1142.9364,  1362.3881 1142.9364,  1362.3881 1142.9364L1434.3881 1142.9421 " stroke-linecap="round" path-type="area" fill-opacity="0.0"/><line x1="1249.8881" y1="561.24884" x2="1249.8881" id="StraightLine_0" stroke-linecap="round" y2="465.03256" fill="none" stroke-width="5.0" stroke="#000000" stroke-opacity="0.65882355"/><line x1="1249.8881" y1="465.03256" x2="1292.2073" id="StraightLine_1" stroke-linecap="round" y2="551.4423" fill="none" stroke-width="5.0" stroke="#000000" stroke-opacity="0.65882355"/><line x1="1292.2073" y1="551.4424" x2="1382.8898" id="StraightLine_2" stroke-linecap="round" y2="551.4424" fill="none" stroke-width="5.0" stroke="#000000" stroke-opacity="0.65882355"/><line x1="1382.8898" y1="551.4424" x2="1382.8898" id="StraightLine_3" stroke-linecap="round" y2="455.22617" fill="none" stroke-width="5.0" stroke="#000000" stroke-opacity="0.65882355"/><line x1="1125.3354" y1="1142.9423" x2="1434.3881" id="StraightLine_168" stroke-linecap="round" y2="1142.9423" fill="none" stroke-width="5.0" stroke="#000000" stroke-opacity="0.65882355"/><line x1="1382.8899" y1="455.22614" x2="1425.2091" id="StraightLine_4" stroke-linecap="round" y2="541.6359" fill="none" stroke-width="5.0" display="none" stroke="#000000" stroke-opacity="0.65882355"/><path stroke-linejoin="round" id="ConsecLine_32" d="M1282.3857 671.3233 C1282.3857 724.03644,  1289.7205 850.5537,  1253.3881 883.94244C1232.9601 902.71533,  1203.9213 898.7425,  1179.3881 907.94244C1140.0957 922.67706,  1114.3663 1001.0917,  1118.3881 1034.9423" stroke-linecap="round" fill="none" stroke-width="5.0" stroke="#000000" stroke-opacity="0.65882355"/><line x1="1130.6764" y1="969.11285" x2="1130.6764" id="StraightLine_171" stroke-linecap="round" y2="1146.4028" fill="none" stroke-width="5.0" stroke="#000000" stroke-opacity="0.65882355"/><path stroke-linejoin="round" id="ConsecLine_49" d="M1136.3881 701.94244 C1135.3693 706.6588,  1136.2175 707.6658,  1138.4874 706.52045C1140.4083 705.2409,  1143.7511 701.809,  1148.0708 697.78186C1156.8848 689.7944,  1169.6064 679.4254,  1182.6763 679.13086C1173.9298 696.05634,  1161.4309 709.65356,  1155.0115 727.7219C1171.7871 729.58514,  1194.3231 717.73694,  1191.2997 741.91034" stroke-linecap="round" fill="none" stroke-width="5.0" stroke="#000000" stroke-opacity="0.65882355"/><path stroke-linejoin="round" id="ConsecLine_73" d="M1131.452 680.8101 C1114.8197 626.58154,  1188.4865 613.92596,  1224.2001 609.3618C1220.4838 654.7328,  1204.1901 697.88074,  1190.499 741.5973" stroke-linecap="round" fill="none" stroke-width="5.0" stroke="#000000" stroke-opacity="0.65882355"/><path stroke-linejoin="round" id="CircleArc_2" path-type="circle-arc" stroke-linecap="round" end-point="1119.688,720.1021" start-point="1147.4337,677.94995" circle-center="1100.6262,677.3475" d="M1147.4337 677.94995 C1147.1927 696.67017,  1135.9628 712.7018,  1119.688 720.1021" middle-point="1138.4337,704.94995" fill="none" stroke-width="5.0" stroke="#000000" stroke-opacity="0.65882355"/><path stroke-linejoin="round" id="ConsecLine_78" d="M1197.3881 1142.942 C1196.1312 1071.2096,  1206.2992 1070.4329,  1263.4222 1048.1981C1322.0254 1026.6003,  1326.909 1018.26184,  1362.3881 996.94244" stroke-linecap="round" fill="none" stroke-width="5.0" display="none" stroke="#000000" stroke-opacity="0.6392157"/><line x1="1305.1978" y1="1031.0339" x2="1305.1978" id="StraightLine_526" stroke-linecap="round" y2="1125.7781" fill="none" stroke-width="5.0" display="none" stroke="#000000" stroke-opacity="0.6392157"/><line x1="1302.179" y1="1092.2329" x2="1305.1978" id="StraightLine_531" stroke-linecap="round" y2="1125.7781" fill="none" stroke-width="5.0" stroke="#000000" stroke-opacity="0.6392157"/><line x1="1434.3881" y1="1142.9421" x2="1125.358" id="StraightLine_542" stroke-linecap="round" y2="1146.6785" fill="none" stroke-width="5.0" stroke="#000000" stroke-opacity="0.6392157"/><line x1="1305.1978" y1="1031.0339" x2="1305.1978" id="StraightLine_549" stroke-linecap="round" y2="1144.504" fill="none" stroke-width="5.0" stroke="#000000" stroke-opacity="0.6392157"/><line x1="1248.5652" y1="1053.9619" x2="1248.5652" id="StraightLine_551" stroke-linecap="round" y2="1145.1887" fill="none" stroke-width="5.0" stroke="#000000" stroke-opacity="0.6392157"/><line x1="1130.6764" y1="1146.403" x2="1197.3881" id="StraightLine_172" stroke-linecap="round" y2="1142.942" fill="none" stroke-width="5.0" stroke="#000000" stroke-opacity="0.65882355"/><path stroke-linejoin="round" id="ConsecLine_48" d="M1184.0376 906.3631 C1170.2235 903.6381,  1167.409 827.09033,  1166.9196 815.6293C1165.4512 765.4499,  1177.5818 782.8552,  1193.5142 735.6897C1206.2532 695.07184,  1218.5925 655.0266,  1221.1719 611.12384C1142.4327 607.1163,  1132.4252 677.9509,  1114.8926 736.9315C1098.8583 786.2936,  1104.3419 930.59625,  1130.6764 969.1129" stroke-linecap="round" fill="none" stroke-width="5.0" stroke="#000000" stroke-opacity="0.65882355"/><path stroke-linejoin="round" id="CircleArc_0" path-type="circle-arc" stroke-linecap="round" end-point="1425.2091,541.6359" start-point="1382.8899,455.22614" circle-center="1358.7291,520.6267" d="M1382.8899 455.22614 C1417.8792 468.1521,  1436.3204 506.28296,  1425.2091 541.6359" middle-point="1417.3881,482.94244" fill="none" stroke-width="5.0" display="none" stroke="#000000" stroke-opacity="0.65882355"/><path stroke-linejoin="round" id="ConsecLine_4" d="M1425.2091 541.636 C1468.922 540.98444,  1476.013 677.9469,  1483.7943 711.5866C1497.9086 772.1563,  1373.997 775.3371,  1336.0131 763.51904C1323.9794 760.4665,  1286.209 677.98956,  1278.0443 662.7398C1259.5763 628.3981,  1248.1609 601.3149,  1249.8881 561.24884" stroke-linecap="round" fill="none" stroke-width="5.0" display="none" stroke="#000000" stroke-opacity="0.65882355"/><path stroke-linejoin="round" id="ConsecLine_33" d="M1415.6946 744.59705 C1415.8885 817.24646,  1437.3981 1109.9623,  1434.3881 1142.9423" stroke-linecap="round" fill="none" stroke-width="5.0" stroke="#000000" stroke-opacity="0.65882355"/><line x1="1131.452" y1="680.8101" x2="1131.452" id="StraightLine_209" stroke-linecap="round" y2="714.49084" fill="none" stroke-width="5.0" stroke="#000000" stroke-opacity="0.65882355"/><path stroke-linejoin="round" id="ConsecLine_40" d="M1397.3881 1003.94244 C1386.7499 1009.27026,  1373.2882 1001.71124,  1362.3881 996.94244C1362.3881 1045.6093,  1362.3881 1094.2755,  1362.3881 1142.9423" stroke-linecap="round" fill="none" stroke-width="5.0" stroke="#000000" stroke-opacity="0.65882355"/><path stroke-linejoin="round" id="ConsecLine_51" d="M1122.3881 712.94244 C1121.6235 715.8306,  1123.0969 717.3797,  1125.8177 718.05725C1129.0144 718.9529,  1133.4585 718.97705,  1138.1594 718.5974C1147.3236 717.72894,  1157.5157 715.2452,  1160.8124 714.88715" stroke-linecap="round" fill="none" stroke-width="5.0" display="none" stroke="#000000" stroke-opacity="0.65882355"/><path stroke-linejoin="round" id="ConsecLine_18" d="M1330.4022 758.9378 C1366.8832 773.8239,  1393.6183 735.77954,  1395.9823 704.82104C1418.91 728.58344,  1452.8976 729.8623,  1483.765 729.4569" stroke-linecap="round" fill="none" stroke-width="5.0" stroke="#000000" stroke-opacity="0.65882355"/></g><g type="COMPO" id="CompositeShape_6"><path rough-pts="1391.47,583.442 1384.0,572.0 1382.9884,590.44995 1381.4518,606.9625 1381.6376,620.90594 1385.7926,631.64795 1396.1643,638.55664 1415.0,641.0 1423.0321,641.28394 1432.2126,641.4666 1440.782,640.54456 1446.9796,637.5137 1449.0461,631.37036 1445.2222,621.1111 1429.105,623.333 1416.6251,618.5319 1406.8289,608.8531 1398.7617,596.4414 " stroke-linejoin="round" id="Polygon_88" d="M1391.47 583.442 C1389.0627 579.24927,  1386.6257 575.3161,  1384.0 572.0C1384.0 610.41583,  1367.3668 641.0,  1415.0 641.0C1428.7433 641.0,  1459.9342 646.41504,  1445.2222 621.1111C1414.7996 631.8585,  1403.5065 604.4057,  1391.47 583.442" stroke-linecap="round" path-type="area" fill="#cbd6a9" fill-opacity="1.0"/><path stroke-linejoin="round" id="ConsecLine_14" d="M1384.0 572.0 C1384.0 610.41583,  1367.3668 641.0,  1415.0 641.0C1428.7433 641.0,  1459.9342 646.41504,  1445.2222 621.1111C1408.715 634.008,  1399.7544 591.8966,  1384.0 572.0" stroke-linecap="round" fill="none" stroke-width="5.0" stroke="#000000" stroke-opacity="0.65882355"/></g><g type="COMPO" id="CompositeShape_7"/><g type="COMPO" id="CompositeShape_8"><path rough-pts="1385.5,691.2387 1393.5641,690.74744 1400.8135,689.3613 1406.958,687.21216 1411.7067,684.43115 1414.7688,681.1499 1415.8542,677.5 1414.7688,673.8501 1411.7064,670.5688 1406.958,667.78784 1400.8136,665.63855 1393.564,664.2525 1385.5,663.7613 1377.4358,664.2525 1370.1862,665.6384 1364.042,667.78784 1359.2933,670.56885 1356.231,673.8501 1355.1458,677.5 1356.231,681.1499 1359.2932,684.431 1364.042,687.21216 1370.1864,689.36145 1377.4358,690.74744 " stroke-linejoin="round" id="Polygon_7" d="M1385.5 691.2387 C1402.249 691.2387,  1415.8542 685.0808,  1415.8542 677.5C1415.8542 669.9192,  1402.249 663.7613,  1385.5 663.7613C1368.751 663.7613,  1355.1458 669.9192,  1355.1458 677.5C1355.1458 685.0808,  1368.751 691.2387,  1385.5 691.2387" stroke-linecap="round" path-type="area" fill="#35252b" fill-opacity="1.0"/><ellipse stroke-linejoin="round" ry="13.73869" id="EllipseShape_0" sc="-0.0,13.73869" stroke-linecap="round" transform="matrix(1.0,0.0,-0.0,1.0,0.0,0.0)" pc="30.354242,0.0" cy="677.5" cx="1385.5" average="1385.5,677.5" rx="30.354242" fill="none" stroke-width="5.0" display="none" stroke="#000000" stroke-opacity="0.65882355"/></g><circle r="5.0" cy="679.0" cx="1451.0" id="PointShape_0" fill="#000000" fill-opacity="1.0"/><circle r="5.0" cy="702.0" cx="1432.0" id="PointShape_1" fill="#000000" fill-opacity="1.0"/><circle r="5.0" cy="707.0" cx="1457.0" id="PointShape_2" fill="#000000" fill-opacity="1.0"/><circle r="5.0" cy="694.0" cx="1324.0" id="PointShape_3" fill="#000000" fill-opacity="1.0"/><circle r="5.0" cy="734.0" cx="1339.0" id="PointShape_4" fill="#000000" fill-opacity="1.0"/><circle r="5.0" cy="708.0" cx="1351.0" id="PointShape_6" fill="#000000" fill-opacity="1.0"/><circle r="5.0" cy="1144.0" cx="1369.0" id="PointShape_8" fill="#000000" fill-opacity="1.0"/><circle r="5.0" cy="1144.0" cx="1212.0" id="PointShape_10" fill="#000000" fill-opacity="1.0"/><g type="COMPO" id="CompositeShape_2"><path rough-pts="1350.347,635.1732 1347.8976,642.19836 1339.4932,646.4324 1327.4629,648.5834 1314.135,649.35925 1301.8387,649.468 1292.9026,649.6177 1291.6448,638.6062 1290.347,627.6719 1288.8888,616.7882 1287.1497,605.9283 1285.0092,595.0654 1282.347,584.1732 1293.7716,591.26447 1304.1887,601.8721 1314.327,613.7814 1324.914,624.7777 1336.6779,632.6465 " stroke-linejoin="round" id="Polygon_1" d="M1350.347 635.1732 C1352.9554 652.4867,  1305.8622 648.80536,  1292.9026 649.6177C1290.3472 627.49994,  1288.2732 606.005,  1282.347 584.1732C1306.689 593.3633,  1320.6183 636.9383,  1350.347 635.1732" stroke-linecap="round" path-type="area" fill="#cbd6a9" fill-opacity="1.0"/><path stroke-linejoin="round" id="ConsecLine_5" d="M1282.347 584.1732 C1306.689 593.3633,  1320.6183 636.9383,  1350.347 635.1732C1352.9554 652.4867,  1305.8622 648.80536,  1292.9026 649.6177C1290.3472 627.49994,  1288.2732 606.005,  1282.347 584.1732" stroke-linecap="round" fill="none" stroke-width="5.0" stroke="#000000" stroke-opacity="0.65882355"/></g><g type="COMPO" id="CompositeShape_22"><path rough-pts="1289.0,557.0 1258.9996,587.00037 1259.0,504.00006 " stroke-linejoin="round" id="Polygon_40" d="M1289.0 557.0 L1258.9996 587.00037 L1259.0 504.00006 L1289.0 557.00006 " stroke-linecap="round" path-type="area" fill="#9c7526" fill-opacity="0.5372549295425415"/><line x1="1258.9996" y1="587.0001" x2="1258.9996" id="StraightLine_284" stroke-linecap="round" y2="504.0" fill="none" stroke-width="5.0" display="none" stroke="#000000" stroke-opacity="0.65882355"/><line x1="1259.0" y1="504.00006" x2="1289.0" id="StraightLine_285" stroke-linecap="round" y2="557.00006" fill="none" stroke-width="5.0" display="none" stroke="#000000" stroke-opacity="0.65882355"/><line x1="1289.0" y1="557.0" x2="1259.0" id="StraightLine_286" stroke-linecap="round" y2="587.0" fill="none" stroke-width="5.0" stroke="#000000" stroke-opacity="0.65882355"/></g><line x1="1312.0" y1="623.0" x2="1312.0" id="StraightLine_293" stroke-linecap="round" y2="623.0" fill="none" stroke-width="5.0" stroke="#000000" stroke-opacity="0.65882355"/><g type="COMPO" id="CompositeShape_23"><path stroke-linejoin="round" id="ConsecLine_62" d="M1299.0 619.0 C1305.2213 623.0737,  1309.2789 629.0155,  1311.0 636.0" stroke-linecap="round" fill="none" stroke-width="5.0" stroke="#000000" stroke-opacity="0.65882355"/></g><g type="COMPO" id="CompositeShape_24"><path stroke-linejoin="round" id="ConsecLine_63" d="M1390.0 610.0 C1389.9397 618.5582,  1396.4701 623.99896,  1404.0 624.0" stroke-linecap="round" fill="none" stroke-width="5.0" stroke="#000000" stroke-opacity="0.65882355"/></g><g type="COMPO" id="CompositeShape_28"/></svg>