<svg xmlns="http://www.w3.org/2000/svg" xmlns:xlink="http://www.w3.org/1999/xlink" width="480.0" height="764.0" background="#FFFFFF"><g type="COMPO" id="CompositeShape_0"><path rough-pts="34.720314,299.78784 155.34872,299.56097 155.26102,295.60565 158.40211,272.26712 167.26476,251.28606 181.00793,233.50345 198.79057,219.76028 219.77164,210.89764 243.11015,207.75653 266.44864,210.89763 287.4297,219.76027 305.21237,233.50345 318.95554,251.28607 327.81818,272.26715 330.95926,295.60565 451.5,295.60565 451.50006,175.21078 52.791985,175.21077 34.720318,175.21077 " stroke-linejoin="round" id="Polygon_8" d="M34.720314 299.78784 L155.34872 299.56097 C155.28772 298.12415,  155.26102 296.86798,  155.26102 295.60565C155.26102 247.13191,  194.63641 207.75653,  243.11015 207.75653C291.5839 207.75653,  330.9593 247.13191,  330.9593 295.60565L451.5 295.60565 L451.50006 175.21078 L34.720318 175.21077 L34.720314 299.78784 " stroke-linecap="round" path-type="area" fill="#b4deb4" fill-opacity="1.0"/><path rough-pts="451.49997,295.60565 330.95926,295.60565 327.81815,318.94415 318.9555,339.92517 305.21237,357.70786 287.42975,371.45102 266.44867,380.31366 243.11015,383.45477 219.77162,380.31363 198.79054,371.451 181.00793,357.70786 167.26477,339.92523 158.40211,318.94415 155.34872,299.56097 34.720314,299.78784 34.720306,416.00058 451.5,416.00052 " stroke-linejoin="round" id="Polygon_9" d="M451.49997 295.60565 L330.95926 295.60565 C330.9593 344.07938,  291.5839 383.45477,  243.11015 383.45477C195.89874 383.45477,  157.318 346.10345,  155.34059 299.3736L34.720314 299.78784 L34.720306 416.00058 L451.5 416.00052 L451.5 295.60565 " stroke-linecap="round" path-type="area" fill="#1a2b1d" fill-opacity="1.0"/><path rough-pts="330.9593,295.60565 327.81815,318.94415 318.9555,339.92517 305.21237,357.70786 287.42975,371.45102 266.44867,380.31366 243.11015,383.45477 219.77162,380.31363 198.79054,371.451 181.00793,357.70786 167.26477,339.92523 158.40211,318.94415 155.34872,299.56097 155.26102,295.60565 158.40211,272.26712 167.26476,251.28606 181.00793,233.50345 198.79057,219.76028 219.77164,210.89764 243.11015,207.75653 266.44864,210.89763 287.4297,219.76027 305.21237,233.50345 318.95554,251.28607 327.81818,272.26715 " stroke-linejoin="round" id="Polygon_7" d="M330.9593 295.60565 C330.9593 344.07938,  291.5839 383.45477,  243.11015 383.45477C194.63641 383.45477,  155.26102 344.07938,  155.26102 295.60565C155.26102 247.13191,  194.63641 207.75653,  243.11015 207.75653C291.5839 207.75653,  330.9593 247.13191,  330.9593 295.60565" stroke-linecap="round" path-type="area" fill="#12391a" fill-opacity="0.8274509906768799"/><line x1="34.72032" y1="175.21077" x2="34.720306" id="StraightLine_0" stroke-linecap="round" y2="416.00058" fill="none" stroke-width="3.0" display="none" stroke="#000000" stroke-opacity="1.0"/><line x1="34.720306" y1="416.00058" x2="451.50006" id="StraightLine_1" stroke-linecap="round" y2="416.00055" fill="none" stroke-width="3.0" display="none" stroke="#000000" stroke-opacity="1.0"/><line x1="451.5" y1="416.00052" x2="451.50003" id="StraightLine_2" stroke-linecap="round" y2="175.21077" fill="none" stroke-width="3.0" display="none" stroke="#000000" stroke-opacity="1.0"/><line x1="330.95926" y1="295.60565" x2="451.49997" id="StraightLine_135" stroke-linecap="round" y2="295.60565" fill="none" stroke-width="3.0" display="none" stroke="#000000" stroke-opacity="1.0"/><line x1="451.50003" y1="175.21077" x2="34.720318" id="StraightLine_3" stroke-linecap="round" y2="175.21077" fill="none" stroke-width="3.0" display="none" stroke="#000000" stroke-opacity="1.0"/><ellipse stroke-linejoin="round" ry="87.84912" id="EllipseShape_0" sc="0.0,-87.84912" stroke-linecap="round" transform="matrix(1.0,0.0,-0.0,1.0,0.0,0.0)" pc="87.84912,0.0" cy="295.60565" cx="243.11015" average="243.11015,295.60565" rx="87.84912" fill="none" stroke-width="3.0" display="none" stroke="#000000" stroke-opacity="1.0"/><line x1="34.720314" y1="299.78784" x2="155.36064" id="StraightLine_124" stroke-linecap="round" y2="299.78784" fill="none" stroke-width="3.0" display="none" stroke="#000000" stroke-opacity="1.0"/></g><g type="COMPO" id="CompositeShape_2"><path rough-pts="148.25,201.75 153.56335,205.12369 158.22856,209.33301 162.42836,214.1235 166.34546,219.2407 170.1626,224.43018 174.0625,229.4375 158.6625,232.68758 143.18582,235.47845 127.656876,237.80768 112.09998,239.67267 96.539566,241.07092 81.0,242.0 69.495094,233.84352 63.68256,226.29268 62.759506,219.41068 65.92303,213.26068 72.37021,207.90593 81.29819,203.40967 92.258484,200.04773 104.65799,198.00928 117.47683,197.22726 129.69505,197.63472 140.29274,199.16461 " stroke-linejoin="round" id="Polygon_1" d="M148.25 201.75 C159.64668 207.49217,  166.0581 219.77467,  174.0625 229.4375C143.35548 236.3952,  112.04202 240.61275,  81.0 242.0C51.762554 225.12364,  61.496735 211.5016,  81.29819 203.40967C101.09963 195.31775,  135.65585 195.56842,  148.25 201.75" stroke-linecap="round" path-type="area" fill="#515a51" fill-opacity="1.0"/><path stroke-linejoin="round" id="ConsecLine_2" d="M81.0 242.0 C51.762554 225.12364,  61.496735 211.5016,  81.29819 203.40967C101.09963 195.31775,  135.65585 195.56842,  148.25 201.75C159.64668 207.49217,  166.0581 219.77467,  174.0625 229.4375C143.35548 236.3952,  112.04202 240.61275,  81.0 242.0" stroke-linecap="round" fill="none" stroke-width="3.0" display="none" stroke="#000000" stroke-opacity="1.0"/></g><g type="COMPO" id="CompositeShape_4"><path rough-pts="194.89926,295.60565 196.62306,282.79764 201.48682,271.28336 209.02896,261.52444 218.78793,253.9823 230.30217,249.11856 243.11017,247.39474 255.91815,249.11856 267.43237,253.98227 277.1914,261.52444 284.7335,271.28342 289.5972,282.79767 291.32108,295.60565 289.5972,308.4136 284.7335,319.92786 277.1914,329.68686 267.4324,337.229 255.91815,342.0927 243.11017,343.81656 230.30215,342.0927 218.78789,337.22897 209.02896,329.68686 201.48682,319.9279 196.62308,308.41364 " stroke-linejoin="round" id="Polygon_3" d="M194.89926 295.60565 C194.89926 269.00363,  216.50816 247.39474,  243.11017 247.39474C269.7122 247.39474,  291.32108 269.00363,  291.32108 295.60565C291.32108 322.20767,  269.7122 343.81656,  243.11017 343.81656C216.50816 343.81656,  194.89926 322.20767,  194.89926 295.60565" stroke-linecap="round" path-type="area" fill="#b4deb4" fill-opacity="1.0"/><ellipse stroke-linejoin="round" ry="48.210907" id="EllipseShape_1" sc="0.0,-48.210907" stroke-linecap="round" transform="matrix(1.0,0.0,-0.0,1.0,0.0,0.0)" pc="48.210907,0.0" cy="295.60565" cx="243.11017" average="243.11017,295.60565" rx="48.210907" fill="none" stroke-width="3.0" display="none" stroke="#000000" stroke-opacity="1.0"/></g><g type="COMPO" id="CompositeShape_7"><path rough-pts="243.11015,321.39996 236.25748,320.47766 230.097,317.87534 224.87567,313.84015 220.84038,308.61877 218.23813,302.4583 217.31584,295.60565 218.23813,288.75296 220.84036,282.5925 224.87566,277.37115 230.09703,273.33588 236.25748,270.73364 243.11015,269.81134 249.9628,270.73364 256.1233,273.33585 261.34467,277.37115 265.37994,282.5925 267.98218,288.753 268.90448,295.60565 267.98212,302.4583 265.37988,308.61874 261.34467,313.84015 256.1233,317.87543 249.96281,320.47766 " stroke-linejoin="round" id="Polygon_6" d="M243.11015 321.39996 C228.87726 321.39996,  217.31584 309.83853,  217.31584 295.60565C217.31584 281.37277,  228.87726 269.81134,  243.11015 269.81134C257.34305 269.81134,  268.90448 281.37277,  268.90448 295.60565C268.90448 309.83853,  257.34305 321.39996,  243.11015 321.39996" stroke-linecap="round" path-type="area" fill="#316031" fill-opacity="1.0"/><ellipse stroke-linejoin="round" ry="25.794313" id="EllipseShape_2" sc="0.0,-25.794313" stroke-linecap="round" transform="matrix(1.0,0.0,-0.0,1.0,0.0,0.0)" pc="25.794313,0.0" cy="295.60565" cx="243.11015" average="243.11015,295.60565" rx="25.794313" fill="none" stroke-width="3.0" display="none" stroke="#000000" stroke-opacity="1.0"/></g></svg>