<svg xmlns="http://www.w3.org/2000/svg" xmlns:xlink="http://www.w3.org/1999/xlink" width="2716.0" height="1528.0" background="#FFFFFF"><g type="COMPO" id="CompositeShape_0"><path rough-pts="1423.3322,1165.0702 1460.2014,1158.476 1523.7703,1140.6023 1540.7588,1134.2686 1586.1549,1101.7379 1530.0485,1095.9993 1455.9622,1092.0635 1372.7996,1090.3772 1289.4646,1091.3864 1243.545,1093.4436 1214.8607,1095.5376 1159.3168,1102.9769 1156.4009,1058.5842 1159.8375,975.1239 1168.1638,883.0853 1177.868,789.8291 1185.4391,702.7159 1187.3654,629.1061 1170.1107,638.022 1151.6635,643.8666 1132.3944,647.0687 1112.6742,648.0568 1092.8743,647.25977 1073.3654,645.1061 1086.3357,605.17725 1100.9264,560.3985 1118.2053,514.43915 1139.2412,470.96863 1165.1024,433.65643 1196.8575,406.17194 1215.2299,378.25525 1247.6876,349.63898 1287.3654,338.10608 1321.0477,366.31808 1331.1675,440.57965 1325.6923,541.69006 1312.5885,650.4485 1299.8239,747.65405 1295.3654,814.1061 1338.8258,790.89746 1361.8005,742.4608 1374.0161,684.5797 1385.1979,633.0377 1405.0721,603.6185 1443.3654,612.1061 1458.022,632.12714 1467.0748,665.15497 1471.9799,705.32825 1474.1925,746.78546 1475.1691,783.66516 1476.3654,810.1061 1517.1718,801.59406 1542.4084,769.372 1553.0233,741.16364 1587.1917,760.6832 1641.8054,773.5863 1696.3427,787.36127 1706.4474,789.7766 1770.6993,819.15753 1824.1445,871.6327 1856.3654,957.1061 1861.7081,1033.7961 1848.1874,1088.3422 1817.6486,1125.445 1771.9353,1149.8058 1712.8927,1166.1259 1642.3654,1179.1061 1594.3411,1186.0112 1542.8406,1189.7673 1491.1285,1188.0146 1442.469,1178.3933 " stroke-linejoin="round" id="Polygon_3" d="M1423.2417 1165.174 C1500.4335 1153.2565,  1568.9701 1130.3666,  1586.1549 1101.7379C1498.3179 1088.8232,  1250.8545 1083.9622,  1159.3169 1102.9769C1146.8188 980.708,  1191.2411 749.8806,  1187.3654 629.1061C1154.2961 650.2948,  1111.8452 650.4843,  1073.3654 645.1061C1098.3983 572.5447,  1126.7416 448.86707,  1196.8575 406.17194C1217.2432 368.1656,  1248.4043 339.08826,  1287.3654 338.10608C1383.6041 335.68,  1290.6648 724.7562,  1295.3654 814.1061C1409.2562 803.43976,  1341.8763 546.702,  1443.3654 612.1061C1479.2533 635.2339,  1472.7826 771.57086,  1476.3654 810.1061C1520.687 815.63763,  1540.024 783.67706,  1553.0233 741.1637C1593.9698 793.422,  1820.0934 746.5591,  1856.3654 957.1061C1887.1438 1135.7646,  1793.6753 1153.3512,  1642.3654 1179.1061C1574.8075 1190.6053,  1484.6603 1199.4589,  1420.9791 1170.2065" stroke-linecap="round" path-type="area" fill="#be9b57" fill-opacity="1.0"/><path rough-pts="1271.2307,1092.2495 1243.545,1093.4436 1289.4646,1091.3864 1372.7996,1090.3772 1455.9622,1092.0635 1530.0485,1095.9993 1586.1549,1101.7379 1540.7588,1134.2686 1523.7703,1140.6023 1467.705,1135.7327 1410.8408,1129.7828 1367.3654,1126.1061 1400.1265,1158.5436 1423.3322,1165.0702 1363.2328,1172.0618 1268.6036,1172.7274 1195.0643,1158.1752 1161.3654,1126.1061 1159.3168,1102.9769 1156.4009,1058.5842 1159.8375,975.1239 1163.7006,932.4215 1171.169,976.8153 1199.4928,1030.423 1241.1213,1075.6168 " stroke-linejoin="round" id="Polygon_9" d="M1271.2695 1093.1406 C1262.0638 1093.3406,  1252.8154 1093.4436,  1243.545 1093.4436C1356.3978 1086.6293,  1518.5526 1091.7983,  1586.1549 1101.7379C1577.2256 1116.6136,  1554.4316 1129.94,  1523.7631 1140.9825C1462.3185 1136.1985,  1400.482 1127.684,  1367.3654 1126.1061C1380.9487 1146.0742,  1399.4517 1160.3177,  1420.9791 1170.2065C1306.6974 1183.167,  1170.4235 1176.1483,  1161.3654 1126.1061C1152.8601 1079.1183,  1156.4556 1008.4636,  1163.3458 932.6002C1170.6056 999.03174,  1209.4163 1059.1632,  1269.1151 1095.6975" stroke-linecap="round" path-type="area" fill-opacity="0.0"/><path rough-pts="1367.3654,1126.1061 1410.8408,1129.7828 1467.705,1135.7327 1523.7703,1140.6023 1540.7588,1134.2686 1586.1549,1101.7379 1530.0485,1095.9993 1455.9622,1092.0635 1372.7996,1090.3772 1289.4646,1091.3864 1243.545,1093.4436 1214.8607,1095.5376 1159.3168,1102.9769 1161.3654,1126.1061 1195.0643,1158.1752 1268.6036,1172.7274 1363.2328,1172.0618 1423.3322,1165.0702 1400.1265,1158.5436 " stroke-linejoin="round" id="Polygon_4" d="M1367.3654 1126.1061 C1400.482 1127.684,  1462.3185 1136.1985,  1523.7533 1140.749C1554.4316 1129.94,  1577.2256 1116.6136,  1586.1549 1101.7379C1498.3179 1088.8232,  1250.8545 1083.9622,  1159.3169 1102.9769C1159.0646 1111.3153,  1160.0759 1118.9827,  1161.3654 1126.1061C1170.4235 1176.1483,  1306.6974 1183.167,  1423.2417 1165.174C1399.4517 1160.3177,  1380.9487 1146.0742,  1367.3654 1126.1061" stroke-linecap="round" path-type="area" fill="#be9b57" fill-opacity="1.0"/><path rough-pts="1696.3427,787.36127 1696.0582,778.56824 1695.9674,759.7642 1695.6583,734.8077 1694.6965,705.8122 1692.6478,674.8919 1689.0773,644.1605 1683.5504,615.7315 1675.6328,591.7188 1664.8901,574.2362 1650.8875,565.3972 1633.1907,567.316 1611.3654,582.1061 1586.5536,619.80695 1570.914,669.54236 1558.2609,722.3761 1553.0233,741.16364 1587.1917,760.6832 1641.8054,773.5863 " stroke-linejoin="round" id="Polygon_1" d="M1696.2445 787.36224 C1695.4569 771.5899,  1697.6567 701.53125,  1689.0773 644.1605C1680.1246 584.2954,  1659.4347 538.2455,  1611.3654 582.1061C1575.9735 614.3992,  1569.7367 686.50366,  1553.0233 741.1637C1572.4719 765.9851,  1633.6968 768.4446,  1696.5116 786.7464" stroke-linecap="round" path-type="area" fill="#be9b57" fill-opacity="1.0"/><path rough-pts="1228.212,510.0747 1221.9027,519.9591 1214.363,528.5615 1205.7662,535.8297 1196.2855,541.71136 1186.094,546.15424 1175.3654,549.1061 1170.0596,509.38025 1175.5272,463.84827 1190.8802,418.23254 1198.995,413.25513 1213.5271,418.2268 1226.0193,433.7129 1234.0343,451.6355 1237.2714,470.99976 1235.4307,490.81104 " stroke-linejoin="round" id="Polygon_12" d="M1228.212 510.0747 C1216.9397 531.0907,  1197.2445 544.7283,  1175.3654 549.1061C1163.7588 512.22736,  1171.6678 456.0561,  1194.3816 410.93628C1235.3566 430.31152,  1247.3374 474.4179,  1228.212 510.0747" stroke-linecap="round" path-type="area" fill="#00ff00" fill-opacity="0.47843137383461"/><path rough-pts="1078.3489,629.78937 1084.2295,611.82904 1086.7126,581.6054 1091.3251,557.8618 1094.0009,538.78455 1090.6732,522.5596 1077.276,507.37317 1049.7427,491.4115 1049.7645,512.3709 1049.64,533.63824 1049.6494,554.68616 1050.0729,574.98737 1051.1907,594.0146 1053.2833,611.2406 1056.7567,626.2398 1061.7655,638.38336 " stroke-linejoin="round" id="Polygon_13" d="M1078.3699 630.1283 C1080.285 624.2469,  1082.2329 618.1288,  1084.2295 611.8291C1084.3552 543.69257,  1121.6563 525.3193,  1049.7427 491.4115C1050.12 532.6711,  1047.9364 578.94135,  1053.2833 611.2406C1055.224 622.5073,  1058.0695 632.09534,  1062.2401 639.21405" stroke-linecap="round" path-type="area" fill="#16161a" fill-opacity="0.8588235378265381"/><path rough-pts="1367.3654,1126.1061 1410.8408,1129.7828 1467.705,1135.7327 1523.7703,1140.6023 1460.2014,1158.476 1423.3322,1165.0702 1400.1265,1158.5436 " stroke-linejoin="round" id="Polygon_5" d="M1367.3654 1126.1061 C1400.482 1127.684,  1462.3185 1136.1985,  1523.7533 1140.749C1495.409 1151.1918,  1460.3241 1159.449,  1423.2418 1165.1741C1399.4517 1160.3177,  1380.9487 1146.0742,  1367.3654 1126.1061" stroke-linecap="round" path-type="area" fill="#be9b57" fill-opacity="1.0"/><path rough-pts="1163.7006,932.4215 1168.1638,883.0853 1177.2877,795.5541 1158.9402,856.3761 1157.2759,917.7981 " stroke-linejoin="round" id="Polygon_6" d="M1163.3458 932.6002 C1167.4451 887.4662,  1172.7104 840.4885,  1177.2877 795.5541C1156.9474 840.2867,  1151.6959 888.07294,  1159.3821 933.1737" stroke-linecap="round" path-type="area" fill-opacity="0.0"/><path rough-pts="1094.9528,642.0763 1092.8743,647.25977 1073.3654,645.1061 1078.3489,629.78937 1068.5902,647.144 1077.5109,651.9942 1088.8076,652.4068 " stroke-linejoin="round" id="Polygon_16" d="M1094.565 647.3873 C1087.4211 646.8702,  1080.3282 646.0793,  1073.3654 645.1061C1075.0155 640.323,  1076.68 635.3178,  1078.3699 630.1283C1069.4475 651.5161,  1080.6125 656.4436,  1097.9044 649.916" stroke-linecap="round" path-type="area" fill-opacity="0.0"/><path rough-pts="1271.8259,1092.68 1243.545,1093.4436 1271.2307,1092.2495 " stroke-linejoin="round" id="Polygon_11" d="M1271.7726 1092.0233 C1262.0924 1092.4211,  1252.658 1092.8933,  1243.545 1093.4436C1252.8154 1093.4436,  1262.0638 1093.3406,  1271.2695 1093.1406C1269.3303 1095.8292,  1269.5458 1095.9607,  1269.7616 1096.0918" stroke-linecap="round" path-type="area" fill-opacity="0.0"/><path stroke-linejoin="round" id="ConsecLine_3" d="M1175.3654 549.1061 C1153.3881 479.27563,  1201.3823 340.27362,  1287.3654 338.10608C1383.6041 335.68,  1290.6648 724.7562,  1295.3654 814.1061C1409.2562 803.43976,  1341.8763 546.702,  1443.3654 612.1061C1479.2533 635.2339,  1472.7826 771.57086,  1476.3654 810.1061C1577.672 822.74963,  1548.4465 639.516,  1611.3654 582.1061C1659.4347 538.2455,  1680.1246 584.2954,  1689.0773 644.1605C1698.0298 704.02563,  1695.2451 777.70593,  1696.3654 789.1061" stroke-linecap="round" fill="none" stroke-width="5.0" display="none" stroke="#000000" stroke-opacity="1.0"/><path stroke-linejoin="round" id="ConsecLine_5" d="M1196.8575 406.17194 C1126.7416 448.86707,  1098.3983 572.5447,  1073.3654 645.1061C1111.8452 650.4843,  1154.2961 650.2948,  1187.3654 629.1061" stroke-linecap="round" fill="none" stroke-width="5.0" display="none" stroke="#000000" stroke-opacity="1.0"/><path stroke-linejoin="round" id="ConsecLine_7" d="M1243.545 1093.4436 C1396.7589 1093.4436,  1543.9766 1065.3053,  1591.1217 1036.6549" stroke-linecap="round" fill="none" stroke-width="5.0" display="none" stroke="#000000" stroke-opacity="1.0"/><path stroke-linejoin="round" id="CircleArc_0" path-type="circle-arc" stroke-linecap="round" end-point="1344.1472,1125.5529" start-point="1177.2877,795.5541" circle-center="1393.0271,893.65283" d="M1177.2877 795.5541 C1123.1583 914.5956,  1175.8868 1055.263,  1294.9283 1109.3922C1311.527 1116.9397,  1328.546 1122.4097,  1344.1472 1125.5529" middle-point="1187.8986,1012.35046" fill="none" stroke-width="5.0" display="none" stroke="#000000" stroke-opacity="1.0"/><path stroke-linejoin="round" id="CircleArc_1" path-type="circle-arc" stroke-linecap="round" end-point="1175.3654,549.1061" start-point="1196.8575,406.17194" circle-center="1160.5834,473.80054" d="M1196.8575 406.17194 C1234.174 426.18744,  1248.2275 472.7583,  1228.212 510.0747C1216.9397 531.0907,  1197.2445 544.7283,  1175.3654 549.1061" middle-point="1237.117,468.1385" fill="none" stroke-width="5.0" display="none" stroke="#000000" stroke-opacity="1.0"/><path stroke-linejoin="round" id="ConsecLine_17" d="M1084.2295 611.82904 C1084.3552 543.69257,  1121.6563 525.3193,  1049.7427 491.4115C1050.12 532.6711,  1047.9364 578.94135,  1053.2833 611.2406C1058.8817 643.7434,  1072.0106 662.2754,  1102.7612 647.8547" stroke-linecap="round" fill="none" stroke-width="5.0" display="none" stroke="#000000" stroke-opacity="1.0"/><path stroke-linejoin="round" id="ConsecLine_6" d="M1187.3654 629.1061 C1191.4989 757.91547,  1140.6945 1011.90796,  1161.3654 1126.1061C1176.423 1209.2932,  1543.0245 1173.5903,  1586.1549 1101.7379C1497.858 1088.7556,  1248.2588 1083.9115,  1157.892 1103.2776" stroke-linecap="round" fill="none" stroke-width="5.0" display="none" stroke="#000000" stroke-opacity="1.0"/><path stroke-linejoin="round" id="ConsecLine_11" d="M1553.0233 741.16364 C1593.9698 793.422,  1820.0934 746.5591,  1856.3654 957.1061C1887.1438 1135.7646,  1793.6753 1153.3512,  1642.3654 1179.1061C1551.9694 1194.4927,  1421.1299 1205.1423,  1367.3654 1126.1061C1436.1049 1129.3812,  1628.5815 1162.5426,  1684.3654 1128.1061C1751.1952 1086.8506,  1717.0005 999.32495,  1672.3654 961.1061" stroke-linecap="round" fill="none" stroke-width="5.0" display="none" stroke="#000000" stroke-opacity="1.0"/></g></svg>