<svg xmlns="http://www.w3.org/2000/svg" xmlns:xlink="http://www.w3.org/1999/xlink" width="2716.0" height="1528.0" background="#FFFFFF"><g type="COMPO" id="CompositeShape_0"><path rough-pts="1332.5482,508.79614 1314.9822,419.65558 1313.3169,412.67908 1311.2545,407.02777 1308.9961,402.6906 1307.856,401.01135 1306.7423,399.65656 1305.6802,398.62473 1304.6945,397.91446 1303.8107,397.52454 1303.0538,397.4535 1302.4487,397.69992 1302.021,398.26248 1301.7954,399.13977 1301.7971,400.33035 1302.0515,401.83304 1302.5836,403.6463 1292.1172,410.1557 1282.9202,417.6204 1275.03,426.1211 1268.4851,435.73846 1263.3237,446.55334 1259.5836,458.6463 1255.3657,506.33487 1248.2806,549.47766 1245.1957,586.15405 1252.9778,614.44293 1278.4943,632.4236 1328.6123,638.1753 1333.0371,604.40204 1334.522,569.9352 1333.8988,535.05634 1332.4993,508.5477 " stroke-linejoin="round" id="Polygon_26" d="M1332.5482 508.79614 L1314.9822 419.65558 C1313.5826 412.01288,  1311.2856 406.37442,  1308.9961 402.6906C1306.7064 399.00684,  1304.4241 397.27768,  1303.0538 397.4535C1301.6835 397.62933,  1301.2252 399.71014,  1302.5836 403.6463C1280.4072 415.76358,  1265.6171 433.12848,  1259.5836 458.6463C1258.5931 557.28864,  1199.1967 640.1816,  1328.6123 638.1753C1336.3276 596.5095,  1335.2024 552.55835,  1332.5481 508.79605" stroke-linecap="round" path-type="area" fill="#742f0d" fill-opacity="0.800000011920929"/><path stroke-linejoin="round" id="ConsecLine_0" d="M1259.5836 458.6463 C1258.5931 557.28864,  1199.1967 640.1816,  1328.6123 638.1753C1340.9569 571.5101,  1330.6696 498.99426,  1327.6982 430.76227" stroke-linecap="round" fill="none" stroke-width="5.0" stroke="#000000" stroke-opacity="0.7176471"/><path stroke-linejoin="round" id="ConsecLine_1" d="M1259.5836 458.6463 C1265.6171 433.12848,  1280.4072 415.76358,  1302.5836 403.6463C1301.2252 399.71014,  1301.6835 397.62933,  1303.0538 397.4535C1304.4241 397.27768,  1306.7064 399.00684,  1308.9961 402.6906C1313.5753 410.05823,  1318.1838 425.2444,  1315.5836 448.6463C1313.8239 464.48486,  1302.4475 479.9121,  1292.1993 487.41608" stroke-linecap="round" fill="none" stroke-width="5.0" stroke="#000000" stroke-opacity="0.7176471"/><line x1="1314.9823" y1="419.6556" x2="1332.5482" id="StraightLine_0" stroke-linecap="round" y2="508.79614" fill="none" stroke-width="5.0" display="none" stroke="#000000" stroke-opacity="0.7176471"/></g><path stroke-linejoin="round" id="ConsecLine_2" d="M1274.0 886.0 C1271.9772 930.15796,  1281.2266 953.6125,  1305.0001 988.94165" stroke-linecap="round" fill="none" stroke-width="5.0" stroke="#000000" stroke-opacity="0.7176471"/><g type="COMPO" id="CompositeShape_1"><path rough-pts="1375.125,706.6805 1369.0717,721.17633 1364.3586,736.29175 1360.7407,751.8286 1357.9719,767.58887 1355.8069,783.3745 1354.0,798.98755 1349.1781,809.9081 1340.9089,822.99524 1330.1245,835.4979 1317.7568,844.6648 1304.738,847.7452 1292.0,841.98755 1301.515,769.4759 1320.1422,666.27936 1339.2069,550.21606 1350.0343,439.10422 1343.9506,350.76205 1312.2808,303.00778 1312.8696,302.46695 1313.4955,301.95834 1314.1462,301.4712 1314.8093,300.99475 1315.4722,300.5183 1316.1228,300.03113 1299.4677,298.93393 1280.4131,298.11597 1260.6757,298.59897 1241.9712,301.40448 1226.016,307.55426 1214.5264,318.07004 1203.908,336.50027 1198.0721,350.18753 1193.4657,360.41272 1186.5354,368.4566 1173.7283,375.60022 1151.4913,383.1245 1155.3439,404.681 1154.6522,425.92804 1149.7223,446.29126 1140.8604,465.19614 1137.306,469.1075 1139.1731,471.17093 1147.0245,472.43802 1150.246,469.6468 1160.2076,470.4883 1173.7108,476.6977 1187.5566,490.00983 1198.5459,512.15967 1203.4803,544.8822 1204.1055,563.91864 1205.4167,584.5675 1207.1343,605.491 1208.9775,625.35095 1210.6665,642.8095 1212.014,657.516 1213.6155,668.44714 1218.2529,700.20264 1223.4646,731.8685 1229.7548,763.3813 1229.6112,782.03503 1229.2004,857.26324 1229.9011,932.87244 1232.8457,1008.0626 1239.1677,1082.0342 1250.0,1153.9875 1249.4185,1174.5157 1249.5288,1192.16 1250.6755,1208.2533 1253.203,1224.1284 1257.4556,1241.1182 1263.7778,1260.5555 1316.1271,1249.1971 1363.0522,1239.0156 1359.3523,1233.0007 1352.1189,1221.3566 1346.0564,1209.2687 1342.3041,1195.5876 1342.0001,1179.1641 1342.0,983.9441 1352.6848,997.82935 1371.273,1007.8108 1394.3318,1014.50366 1418.4279,1018.52277 1440.1282,1020.4832 1456.0,1021.0 1458.6205,1047.222 1457.5876,1072.9362 1453.1057,1097.8567 1445.378,1121.698 1434.6082,1144.1743 1421.0,1165.0 1418.8208,1204.7491 1418.4803,1219.8995 1492.4119,1222.862 1492.125,1208.8673 1491.75,1190.574 1491.375,1172.2806 1491.0,1153.9875 1494.4238,1135.4402 1496.6458,1118.1266 1498.94,1101.6855 1502.3549,1093.5657 1502.5806,1085.7559 1508.8425,1069.977 1519.0,1053.9875 1528.2552,1043.2308 1531.4136,1039.3441 1543.8102,1025.7771 1554.9788,1012.172 1563.7073,997.4147 1568.7848,980.3913 1569.3419,975.65094 1569.0,959.98755 1566.9421,937.85205 1565.5155,916.3012 1563.964,895.08716 1561.5313,873.962 1557.4622,852.67804 1554.8049,846.51416 1565.9031,873.6027 1581.3142,927.5753 1598.4928,984.91077 1621.6979,1037.6538 1655.188,1077.8496 1703.2222,1097.543 1699.5883,1071.6755 1688.0282,1048.481 1671.2656,1026.5369 1652.0242,1004.4213 1633.0278,980.7123 1617.0,953.98755 1609.2959,928.1915 1605.016,898.6056 1600.4531,869.6588 1591.9008,845.78064 1575.6523,831.40076 1551.2601,832.0492 1551.6495,833.6379 1547.8113,830.8839 1534.4016,829.75684 1523.3285,820.7708 1516.1311,808.1527 1510.6423,793.4706 1504.6958,778.2925 1496.125,764.1867 1488.9503,754.23865 1483.7119,744.77203 1479.6788,735.43835 1476.1195,725.88855 1472.3037,715.7743 1467.5,704.7469 1456.9624,694.0382 1440.2533,688.39667 1420.544,687.3313 1401.0054,690.3508 1384.8086,696.96423 " stroke-linejoin="round" id="Polygon_54" d="M1375.125 706.6805 C1361.5143 734.9209,  1357.4193 768.06604,  1354.0 798.98755C1348.4249 816.8279,  1316.5739 864.1748,  1292.0 841.98755C1296.135 739.528,  1406.9897 346.0497,  1312.2808 303.00778C1313.4135 301.88687,  1314.8422 301.02335,  1316.1228 300.03113C1286.3561 298.23868,  1231.896 291.99146,  1214.5264 318.07004C1186.1389 360.52762,  1207.7637 366.8414,  1151.4913 383.1245C1160.3114 413.60553,  1154.5338 444.88416,  1138.0748 469.61435C1140.4365 471.66656,  1143.8674 472.44852,  1147.0245 472.43802C1144.5947 464.37943,  1201.7993 467.70773,  1203.4803 544.8822C1203.858 580.4493,  1210.0323 633.7173,  1211.921 656.52594C1217.0715 692.6998,  1221.9282 728.2441,  1229.7548 763.3813C1228.7964 893.67053,  1226.4359 1030.302,  1250.0 1153.9875C1248.3749 1198.8168,  1248.8342 1218.3445,  1263.7778 1260.5555L1363.0522 1239.0156 C1351.9235 1220.3859,  1339.3171 1206.2611,  1342.0001 1179.1641L1342.0 983.9441 C1353.1775 1016.02844,  1432.3739 1021.0,  1456.0 1021.0C1465.0299 1073.7617,  1450.9188 1125.1896,  1421.0 1165.0C1419.7174 1188.3241,  1418.4146 1206.2279,  1418.4806 1219.9463L1492.4119 1222.862 C1491.9375 1199.7206,  1491.4688 1176.8539,  1491.0 1153.9875C1499.8997 1115.4185,  1493.9401 1086.418,  1519.0 1053.9875C1543.0363 1022.88184,  1574.2404 1004.91846,  1569.0 959.98755C1564.3619 920.2214,  1566.2177 884.3518,  1555.8109 846.23114C1589.7192 923.4061,  1597.3191 1084.8658,  1703.2222 1097.543C1705.6964 1042.1874,  1644.2714 1011.4009,  1617.0 953.98755C1596.0045 909.7864,  1616.5662 817.6833,  1550.9426 830.3242C1551.6489 832.81683,  1551.8077 833.27344,  1551.9645 833.7296C1509.8003 832.21686,  1517.3352 790.28064,  1496.125 764.1867C1479.3528 743.5769,  1478.5823 727.9474,  1467.5 704.7469C1454.7108 677.935,  1385.865 684.47266,  1375.125 706.6805" stroke-linecap="round" path-type="area" fill="#742f0d" fill-opacity="0.800000011920929"/><path rough-pts="1564.2522,1225.7407 1569.4631,1200.9658 1574.3531,1174.9565 1577.1357,1149.5449 1577.1067,1117.556 1575.2891,1081.581 1572.7064,1044.2112 1570.383,1008.0374 1569.3419,975.65094 1568.7848,980.3913 1563.7073,997.4147 1554.9788,1012.172 1543.8102,1025.7771 1531.4136,1039.3441 1528.2552,1043.2308 1528.0391,1067.8077 1527.1594,1087.4098 1524.321,1103.7478 1518.2183,1118.9027 1507.5461,1134.9556 1491.0,1153.9875 1491.375,1172.2806 1491.75,1190.574 1492.125,1208.8673 1492.4119,1222.862 1564.4446,1225.7484 " stroke-linejoin="round" id="Polygon_31" d="M1564.4445 1225.7483 C1568.7405 1208.2351,  1571.0479 1189.4543,  1574.3531 1174.9565C1583.4127 1132.4377,  1569.4596 1034.9094,  1569.3419 975.65094C1566.9501 1004.7627,  1547.1245 1021.52545,  1528.2644 1042.8606C1527.5978 1099.4877,  1530.8368 1111.5573,  1491.0 1153.9875C1491.4688 1176.8539,  1491.9375 1199.7206,  1492.4063 1222.5872L1564.4446 1225.7484 " stroke-linecap="round" path-type="area" fill="#742f0d" fill-opacity="0.800000011920929"/><path rough-pts="1703.2222,1097.543 1655.188,1077.8496 1621.6979,1037.6538 1598.4928,984.91077 1581.3142,927.5753 1565.9031,873.6027 1554.8049,846.51416 1551.6495,833.6379 1551.2601,832.0492 1575.6523,831.40076 1591.9008,845.78064 1600.4531,869.6588 1605.016,898.6056 1609.2959,928.1915 1617.0,953.98755 1633.0278,980.7123 1652.0242,1004.4213 1671.2656,1026.5369 1688.0282,1048.481 1699.5883,1071.6755 " stroke-linejoin="round" id="Polygon_39" d="M1703.2222 1097.543 C1597.3191 1084.8658,  1589.7192 923.4061,  1555.7184 846.1083C1554.5585 841.64355,  1553.1285 837.0233,  1551.4883 832.3598C1616.5662 817.6833,  1596.0045 909.7864,  1617.0 953.98755C1644.2714 1011.4009,  1705.6964 1042.1874,  1703.2222 1097.543" stroke-linecap="round" path-type="area" fill="#742f0d" fill-opacity="0.800000011920929"/><path rough-pts="1111.6028,489.9444 1100.8964,477.14603 1096.571,455.14777 1104.4221,456.41483 1112.9426,459.61948 1121.7977,463.79288 1130.6527,467.96628 1137.306,469.1075 1140.8604,465.19614 1149.7223,446.29126 1154.6522,425.92804 1155.3439,404.681 1151.4913,383.1245 1142.6624,383.4079 1133.3977,384.3044 1124.0221,385.9718 1114.8601,388.5678 1106.2363,392.25018 1098.476,397.1768 1093.5127,406.03125 1088.9921,421.37888 1085.7424,440.12 1084.5922,459.1549 1086.3699,475.3838 1091.9039,485.70715 " stroke-linejoin="round" id="Polygon_46" d="M1110.9058 490.702 C1102.1244 482.7023,  1096.5251 471.5885,  1096.571 455.14777C1108.2238 455.109,  1123.6058 465.86603,  1136.8486 470.43002C1154.5338 444.88416,  1160.3114 413.60553,  1151.4913 383.1245C1134.4858 383.18344,  1112.9174 385.97427,  1098.476 397.1768C1088.6595 406.32617,  1076.527 473.03253,  1091.9039 485.70715C1097.6647 490.68137,  1103.7185 493.748,  1109.8813 495.60165" stroke-linecap="round" path-type="area" fill="#0c0c0d" fill-opacity="1.0"/><path rough-pts="1564.2522,1225.7407 1563.5577,1229.2322 1553.9188,1254.7041 1537.8274,1272.3284 1512.5647,1277.0532 1475.4127,1263.8263 1493.25,1263.7468 1492.875,1245.4536 1492.4998,1227.1604 1492.4119,1222.862 1564.4446,1225.7484 " stroke-linejoin="round" id="Polygon_32" d="M1564.4445 1225.7483 C1554.9933 1264.2773,  1535.9169 1296.6709,  1475.4127 1263.8263C1480.0532 1263.8773,  1486.3448 1263.8391,  1493.25 1263.7468C1492.9688 1250.0271,  1492.6875 1236.3071,  1492.4063 1222.5872L1564.4446 1225.7484 " stroke-linecap="round" path-type="area" fill="#0c0c0d" fill-opacity="1.0"/><path rough-pts="1492.4119,1222.862 1492.4998,1227.1604 1492.875,1245.4536 1493.25,1263.7468 1475.4127,1263.8263 1458.7849,1263.2878 1436.5702,1259.3464 1424.1453,1249.7347 1419.049,1232.2646 1418.4803,1219.8995 " stroke-linejoin="round" id="Polygon_30" d="M1492.4063 1222.5872 C1492.6875 1236.3071,  1492.9688 1250.0271,  1493.25 1263.7468C1431.1577 1264.5763,  1418.6782 1261.039,  1418.4806 1219.9463L1492.4119 1222.862 " stroke-linecap="round" path-type="area" fill="#0c0c0d" fill-opacity="1.0"/><path rough-pts="1203.4803,544.8822 1204.1055,563.91864 1205.4167,584.5675 1207.1343,605.491 1208.9775,625.35095 1210.6665,642.8095 1212.014,657.516 1211.9214,656.5287 1211.6034,654.71313 1188.2839,521.59106 1178.343,504.98047 1164.4003,498.47815 1147.6204,497.69186 1129.1677,498.22937 1117.2643,491.1622 1128.3727,482.0681 1137.306,469.1075 1139.1731,471.17093 1147.0245,472.43802 1150.246,469.6468 1160.2076,470.4883 1173.7108,476.6977 1187.5566,490.00983 1198.5459,512.15967 " stroke-linejoin="round" id="Polygon_53" d="M1203.4803 544.8822 C1203.858 580.45074,  1210.0328 633.7217,  1211.9214 656.5287L1188.2839 521.59106 C1176.4948 485.48428,  1145.8187 502.38596,  1116.1956 497.09863C1125.806 485.49652,  1132.5436 477.9252,  1138.0748 469.61432C1140.4365 471.66656,  1143.8674 472.44852,  1147.0245 472.43802C1144.5947 464.37943,  1201.7993 467.70773,  1203.4803 544.8822" stroke-linecap="round" path-type="area" fill="#742f0d" fill-opacity="0.5372549295425415"/><path rough-pts="1502.3549,1093.5657 1491.0,1153.9875 1507.5461,1134.9556 1518.2183,1118.9027 1524.321,1103.7478 1527.1594,1087.4098 1528.0391,1067.8077 1528.2552,1043.2308 1519.0,1053.9875 1508.8425,1069.977 1502.5806,1085.7559 " stroke-linejoin="round" id="Polygon_42" d="M1502.3549 1093.5657 L1491.0 1153.9875 C1530.8368 1111.5573,  1527.5978 1099.4877,  1528.2644 1042.8606C1525.1211 1046.4165,  1522.0045 1050.0994,  1519.0 1053.9875C1508.696 1067.322,  1503.6364 1080.0767,  1500.6317 1093.155" stroke-linecap="round" path-type="area" fill-opacity="0.0"/><path rough-pts="1323.1111,1277.2222 1318.9084,1260.7181 1316.1271,1249.1971 1363.0522,1239.0156 1366.6182,1245.3506 1372.7778,1259.5555 1371.324,1268.2767 1363.6201,1274.0299 1352.3066,1277.3079 1340.0237,1278.6038 1329.4116,1278.4108 " stroke-linejoin="round" id="Polygon_37" d="M1323.1111 1277.2222 C1320.744 1267.8347,  1318.3616 1258.6478,  1316.0687 1249.5349L1363.0522 1239.0156 C1366.5795 1244.9187,  1370.1155 1251.6525,  1372.7778 1259.5555C1377.8809 1280.2953,  1329.6406 1280.2664,  1323.1111 1277.2222" stroke-linecap="round" path-type="area" fill="#0c0c0d" fill-opacity="1.0"/><path rough-pts="1316.1271,1249.1971 1318.9084,1260.7181 1323.1111,1277.2222 1314.6162,1280.7893 1303.1918,1281.6289 1290.6168,1279.883 1278.6699,1275.6938 1269.1307,1269.2041 1263.7778,1260.5555 " stroke-linejoin="round" id="Polygon_28" d="M1316.0687 1249.5349 C1318.3616 1258.6478,  1320.744 1267.8347,  1323.1111 1277.2222C1310.2369 1287.179,  1269.1115 1279.9165,  1263.7778 1260.5555L1316.1271 1249.1971 " stroke-linecap="round" path-type="area" fill="#0c0c0d" fill-opacity="1.0"/><path rough-pts="1096.571,455.14777 1100.8964,477.14603 1112.5476,492.13165 1115.2482,493.3808 1128.3727,482.0681 1137.306,469.1075 1130.6527,467.96628 1121.7977,463.79288 1112.9426,459.61948 1104.4221,456.41483 " stroke-linejoin="round" id="Polygon_40" d="M1096.571 455.14777 C1096.5188 473.88605,  1103.7997 485.70453,  1114.767 493.8794C1124.4795 486.96735,  1132.0038 478.73633,  1138.0748 469.61435C1123.6058 465.86603,  1108.2238 455.109,  1096.571 455.14777" stroke-linecap="round" path-type="area" fill="#0c0c0d" fill-opacity="1.0"/><path rough-pts="1188.2839,521.59106 1169.393,514.8342 1149.0024,508.99353 1129.3185,502.08676 1115.2482,493.3808 1112.5476,492.13165 1111.6028,489.9444 1110.2074,495.69858 1117.2643,491.1622 1129.1677,498.22937 1147.6204,497.69186 1164.4003,498.47815 1178.343,504.98047 " stroke-linejoin="round" id="Polygon_50" d="M1188.2839 521.59106 C1164.4093 510.78833,  1130.0754 508.16534,  1110.9058 490.702C1141.3475 505.06616,  1175.654 482.9094,  1188.2839 521.59106" stroke-linecap="round" path-type="area" fill-opacity="0.0"/><path rough-pts="1491.0,1153.9875 1502.3549,1093.5657 1498.94,1101.6855 1496.6458,1118.1266 1494.4238,1135.4402 " stroke-linejoin="round" id="Polygon_44" d="M1491.0 1153.9875 L1502.3549 1093.5657 C1496.3287 1111.8842,  1496.2404 1131.2771,  1491.0 1153.9875" stroke-linecap="round" path-type="area" fill-opacity="0.0"/><path rough-pts="1554.8049,846.51416 1547.8113,830.8839 1551.6495,833.6379 " stroke-linejoin="round" id="Polygon_35" d="M1555.7184 846.1083 C1553.2952 840.59924,  1550.7378 835.51776,  1548.0012 830.94806C1548.8301 833.41174,  1550.1469 833.4991,  1551.5167 833.5426C1553.4071 837.9285,  1554.6813 842.0931,  1555.8109 846.23114" stroke-linecap="round" path-type="area" fill-opacity="0.0"/><path rough-pts="1117.2643,491.1622 1115.2482,493.3808 1112.5476,492.13165 1111.6028,489.9444 1110.2074,495.69858 " stroke-linejoin="round" id="Polygon_49" d="M1118.0109 492.0495 C1117.2501 492.68903,  1116.4792 493.31885,  1115.6985 493.93872C1113.4222 492.87704,  1112.1329 491.81992,  1110.9058 490.70197C1111.9758 496.2317,  1114.083 496.7216,  1116.1956 497.09863" stroke-linecap="round" path-type="area" fill-opacity="0.0"/><path rough-pts="1551.5167,833.5426 1547.8113,830.8839 1551.2601,832.0492 1551.6495,833.6379 " stroke-linejoin="round" id="Polygon_33" d="M1551.5167 833.5426 C1550.1469 833.4991,  1548.8301 833.41174,  1547.5637 833.28265C1549.0005 830.7173,  1549.9808 830.5095,  1550.9426 830.3242C1551.6489 832.81683,  1551.8077 833.27344,  1551.9645 833.7296" stroke-linecap="round" path-type="area" fill-opacity="0.0"/><path rough-pts="1212.014,657.516 1211.9214,656.5287 1211.6034,654.71313 " stroke-linejoin="round" id="Polygon_41" d="M1211.921 656.52594 C1211.9211 656.52686,  1211.9213 656.5278,  1211.9214 656.5287L1211.6034 654.71313 C1211.7622 655.4113,  1211.8861 656.2804,  1212.0099 657.1495" stroke-linecap="round" path-type="area" fill="#742f0d" fill-opacity="0.5372549295425415"/><path stroke-linejoin="round" id="ConsecLine_3" d="M1198.1056 573.28015 C1211.261 636.4202,  1215.76 700.5516,  1229.7548 763.3813" stroke-linecap="round" fill="none" stroke-width="5.0" stroke="#000000" stroke-opacity="0.7176471"/><path stroke-linejoin="round" id="ConsecLine_4" d="M1292.0 841.98755 C1316.5739 864.1748,  1348.4249 816.8279,  1354.0 798.98755" stroke-linecap="round" fill="none" stroke-width="5.0" display="none" stroke="#000000" stroke-opacity="0.7176471"/><path stroke-linejoin="round" id="ConsecLine_5" d="M1230.0 707.98755 C1230.0 854.3688,  1223.0696 1012.63257,  1250.0 1153.9875" stroke-linecap="round" fill="none" stroke-width="5.0" stroke="#000000" stroke-opacity="0.7176471"/><path stroke-linejoin="round" id="ConsecLine_6" d="M1551.0 830.98755 C1566.8214 874.9405,  1563.7491 914.9668,  1569.0 959.98755C1574.2404 1004.91846,  1543.0363 1022.88184,  1519.0 1053.9875C1493.9401 1086.418,  1499.8997 1115.4185,  1491.0 1153.9875" stroke-linecap="round" fill="none" stroke-width="5.0" stroke="#000000" stroke-opacity="0.7176471"/><path stroke-linejoin="round" id="ConsecLine_7" d="M1528.2644 1042.8606 C1527.5978 1099.4877,  1530.8368 1111.5573,  1491.0 1153.9875" stroke-linecap="round" fill="none" stroke-width="5.0" stroke="#000000" stroke-opacity="0.7176471"/><path stroke-linejoin="round" id="ConsecLine_8" d="M1569.3419 975.65094 C1569.4596 1034.9094,  1583.4127 1132.4377,  1574.3531 1174.9565C1563.7761 1221.3496,  1563.4188 1311.6003,  1475.4127 1263.8263" stroke-linecap="round" fill="none" stroke-width="5.0" stroke="#000000" stroke-opacity="0.7176471"/><line x1="1505.3044" y1="1077.8704" x2="1491.0" id="StraightLine_16" stroke-linecap="round" y2="1153.9875" fill="none" stroke-width="5.0" stroke="#000000" stroke-opacity="0.7176471"/><path stroke-linejoin="round" id="ConsecLine_9" d="M1551.5167 833.5426 C1509.8003 832.21686,  1517.3352 790.28064,  1496.125 764.1867C1479.3528 743.5769,  1478.5823 727.9474,  1467.5 704.7469C1454.7108 677.935,  1385.865 684.47266,  1375.125 706.6805C1361.5143 734.9209,  1357.4193 768.06604,  1354.0 798.98755" stroke-linecap="round" fill="none" stroke-width="5.0" stroke="#000000" stroke-opacity="0.7176471"/><line x1="1263.7778" y1="1260.5555" x2="1363.0522" id="StraightLine_17" stroke-linecap="round" y2="1239.0156" fill="none" stroke-width="5.0" display="none" stroke="#000000" stroke-opacity="0.7176471"/><line x1="1418.4803" y1="1219.8995" x2="1564.4446" id="StraightLine_18" stroke-linecap="round" y2="1225.7484" fill="none" stroke-width="5.0" display="none" stroke="#000000" stroke-opacity="0.7176471"/><path stroke-linejoin="round" id="ConsecLine_10" d="M1548.0012 830.94806 C1617.1779 814.97314,  1595.6968 909.13855,  1617.0 953.98755C1644.2714 1011.4009,  1705.6964 1042.1874,  1703.2222 1097.543C1589.7714 1083.9624,  1589.1353 899.636,  1548.0012 830.94806" stroke-linecap="round" fill="none" stroke-width="5.0" stroke="#000000" stroke-opacity="0.7176471"/><path stroke-linejoin="round" id="CircleArc_15" path-type="circle-arc" stroke-linecap="round" end-point="1421.0,1165.0" start-point="1456.0,1021.0" circle-center="1271.9023,1052.5076" d="M1456.0 1021.0 C1465.0299 1073.7617,  1450.9188 1125.1896,  1421.0 1165.0" middle-point="1452.0,1102.0" fill="none" stroke-width="5.0" display="none" stroke="#000000" stroke-opacity="0.7176471"/><path stroke-linejoin="round" id="CircleArc_17" path-type="circle-arc" stroke-linecap="round" end-point="1112.5656,496.3329" start-point="1151.4913,383.1245" circle-center="1051.5293,412.04965" d="M1151.4913 383.1245 C1163.9453 426.16394,  1147.2952 470.79364,  1112.5656 496.3329" middle-point="1149.5896,446.8814" fill="none" stroke-width="5.0" stroke="#000000" stroke-opacity="0.7176471"/><path stroke-linejoin="round" id="ConsecLine_11" d="M1312.2808 303.00778 C1313.4135 301.88687,  1314.8422 301.02335,  1316.1228 300.03113C1286.3561 298.23868,  1231.896 291.99146,  1214.5264 318.07004C1186.1389 360.52762,  1207.7637 366.8414,  1151.4913 383.1245" stroke-linecap="round" fill="none" stroke-width="5.0" display="none" stroke="#000000" stroke-opacity="0.7176471"/><path stroke-linejoin="round" id="ConsecLine_12" d="M1151.4913 383.1245 C1134.4858 383.18344,  1112.9174 385.97427,  1098.476 397.1768C1088.6595 406.32617,  1076.527 473.03253,  1091.9039 485.70715C1127.0779 516.07886,  1173.1804 475.33344,  1188.2839 521.59106" stroke-linecap="round" fill="none" stroke-width="5.0" stroke="#000000" stroke-opacity="0.7176471"/><path stroke-linejoin="round" id="ConsecLine_13" d="M1147.0245 472.43802 C1132.2145 472.48727,  1111.3809 455.0985,  1096.571 455.14777C1096.425 507.4787,  1153.4727 505.83975,  1188.2839 521.59106" stroke-linecap="round" fill="none" stroke-width="5.0" stroke="#000000" stroke-opacity="0.7176471"/><path stroke-linejoin="round" id="ConsecLine_14" d="M1342.0 983.9441 C1353.1775 1016.02844,  1432.3739 1021.0,  1456.0 1021.0" stroke-linecap="round" fill="none" stroke-width="5.0" display="none" stroke="#000000" stroke-opacity="0.7176471"/><path stroke-linejoin="round" id="ConsecLine_15" d="M1147.0245 472.43802 C1144.5947 464.37943,  1201.7993 467.70773,  1203.4803 544.8822C1203.858 580.45074,  1210.0328 633.7217,  1211.9214 656.5287" stroke-linecap="round" fill="none" stroke-width="5.0" display="none" stroke="#000000" stroke-opacity="0.7176471"/><line x1="1342.0001" y1="983.9441" x2="1342.0001" id="StraightLine_24" stroke-linecap="round" y2="1179.1641" fill="none" stroke-width="5.0" stroke="#000000" stroke-opacity="0.7176471"/><line x1="1188.2839" y1="521.59106" x2="1211.9214" id="StraightLine_27" stroke-linecap="round" y2="656.5287" fill="none" stroke-width="5.0" display="none" stroke="#000000" stroke-opacity="0.7176471"/><line x1="1293.0" y1="964.0" x2="1302.0" id="StraightLine_28" stroke-linecap="round" y2="1179.0" fill="none" stroke-width="5.0" stroke="#000000" stroke-opacity="0.7176471"/><path stroke-linejoin="round" id="ConsecLine_16" d="M1312.2808 303.00778 C1406.9897 346.0497,  1296.135 739.528,  1292.0 841.98755" stroke-linecap="round" fill="none" stroke-width="5.0" display="none" stroke="#000000" stroke-opacity="0.7176471"/><path stroke-linejoin="round" id="ConsecLine_17" d="M1250.0 1153.9875 C1248.3749 1198.8168,  1248.8342 1218.3445,  1263.7778 1260.5555C1269.1115 1279.9165,  1310.2369 1287.179,  1323.1111 1277.2222C1314.695 1243.8444,  1306.0833 1213.0038,  1302.0 1179.0" stroke-linecap="round" fill="none" stroke-width="5.0" stroke="#000000" stroke-opacity="0.7176471"/><path stroke-linejoin="round" id="ConsecLine_18" d="M1342.0001 1179.1641 C1338.4004 1215.5203,  1362.3239 1228.5243,  1372.7778 1259.5555C1377.8809 1280.2953,  1329.6406 1280.2664,  1323.1111 1277.2222" stroke-linecap="round" fill="none" stroke-width="5.0" display="none" stroke="#000000" stroke-opacity="0.7176471"/><path stroke-linejoin="round" id="ConsecLine_19" d="M1421.0 1165.0 C1415.8752 1258.1904,  1410.4288 1264.8531,  1493.25 1263.7468C1492.5 1227.1609,  1491.75 1190.5737,  1491.0 1153.9875" stroke-linecap="round" fill="none" stroke-width="5.0" stroke="#000000" stroke-opacity="0.7176471"/></g><g type="COMPO" id="CompositeShape_7"><path rough-pts="1283.0,349.0 1267.4337,360.949 1251.067,370.74023 1235.02,380.50745 1220.4131,392.38403 1208.3662,408.50366 1200.0,431.0 1203.9067,412.19122 1212.9248,393.6685 1226.1987,376.75992 1242.8729,362.79355 1262.0918,353.09753 " stroke-linejoin="round" id="Polygon_56" d="M1283.0 349.0 C1253.415 376.47824,  1212.3052 378.20825,  1200.0 431.0C1202.1321 393.98184,  1240.0646 350.71127,  1283.0 349.0" stroke-linecap="round" path-type="area" fill-opacity="0.0"/><path stroke-linejoin="round" id="ConsecLine_20" d="M1200.0 431.0 C1202.1321 393.98184,  1240.0646 350.71127,  1283.0 349.0C1253.415 376.47824,  1212.3052 378.20825,  1200.0 431.0" stroke-linecap="round" fill="none" stroke-width="5.0" stroke="#000000" stroke-opacity="0.7176471"/></g></svg>