<svg xmlns="http://www.w3.org/2000/svg" xmlns:xlink="http://www.w3.org/1999/xlink" width="2716.0" height="1528.0" background="#FFFFFF"><g type="COMPO" id="CompositeShape_0"/><g type="COMPO" id="CompositeShape_1"><path rough-pts="1435.9333,978.36084 1423.478,969.5177 1412.5304,957.2033 1403.4158,942.99414 1396.4596,928.46686 1391.9877,915.1979 1391.2666,938.24304 1393.8273,960.98737 1398.3983,983.54535 1403.7075,1006.03125 1408.4833,1028.5594 1411.454,1051.2443 1395.1125,1047.868 1381.7141,1038.8358 1370.7799,1025.9053 1361.8302,1010.83325 1354.3865,995.3776 1347.9694,981.2956 1344.9061,995.52106 1342.667,1009.87836 1340.8811,1024.3038 1339.4227,1034.1945 1339.1775,1038.7338 1337.1853,1053.1042 1334.5337,1067.3518 1334.265,1068.7339 1333.9034,1070.0881 1333.4801,1071.4241 1333.0254,1072.7505 1332.5708,1074.077 1332.1472,1075.4128 1312.5201,1066.9681 1297.5419,1050.2378 1286.247,1028.1729 1277.6702,1003.7241 1270.8462,979.8424 1264.8098,959.4788 1260.6698,946.5309 1254.7554,929.36975 1248.7388,912.4728 1243.0,896.0 1237.521,920.03876 1232.0374,943.6861 1226.7462,967.17377 1221.8446,990.73395 1217.5303,1014.59863 1215.2195,1029.772 1213.8636,1038.771 1202.9883,1020.1044 1191.5059,1001.2123 1180.459,982.03955 1170.7545,962.3024 1163.2993,941.71716 1159.0,920.0 1158.6077,889.5738 1163.2704,864.06604 1170.8645,841.4657 1179.2662,819.7618 1186.3527,796.94354 1190.0,771.0 1174.3381,781.49274 1161.0797,792.86914 1149.9208,805.4186 1140.557,819.4305 1132.6848,835.1945 1126.0,853.0 1121.0697,821.93445 1125.9873,794.6443 1137.5459,769.56757 1152.5387,745.14246 1167.759,719.8073 1180.0,692.0 1180.4039,703.1201 1181.4086,713.79803 1183.7921,723.32935 1188.3329,731.00964 1195.8094,736.1347 1207.0,738.0 1212.2559,717.3485 1217.9609,692.25793 1224.2014,665.1531 1231.0636,638.45856 1238.6344,614.5993 1247.0,596.0 1232.2327,595.3988 1223.1265,602.28107 1217.9658,614.26447 1215.0348,628.9668 1212.6182,644.00604 1209.0,657.0 1197.7339,637.8113 1192.0518,610.71405 1191.1455,579.4463 1194.2069,547.7459 1200.4277,519.35126 1209.0,498.0 1225.9487,480.77075 1245.4258,474.41833 1248.4618,474.06412 1274.1316,475.2069 1300.5496,481.52588 1325.3083,490.348 1346.0,499.0 1410.55,487.7447 1431.9585,496.5796 1456.1218,495.8992 1484.3341,521.08276 1496.8053,560.9146 1495.1544,613.0139 1481.0,675.0 1469.9767,670.033 1459.895,660.8224 1450.8563,648.84106 1442.9604,635.56165 1436.3081,622.45703 1431.0,611.0 1432.501,628.018 1435.844,646.52783 1439.9485,665.75543 1443.7339,684.9265 1446.1193,703.26685 1446.0245,720.00244 1445.7756,725.73834 1446.3617,730.0637 1447.7118,733.0799 1449.7549,734.8878 1452.4205,735.5885 1455.6381,735.28326 1459.3448,734.07385 1463.4619,732.0607 1467.9191,729.34503 1472.6451,726.0277 1477.5693,722.20984 1482.6215,717.9928 1492.8132,708.76385 1502.6671,699.151 1511.6178,689.9634 1519.0991,682.0094 1524.5459,676.0984 1527.3926,673.03906 1523.7784,712.1417 1524.9497,756.6251 1526.4631,802.87396 1523.874,847.2731 1512.7388,886.20715 1488.6135,916.0611 1488.0958,896.253 1488.4409,876.96936 1488.0708,858.41064 1485.4066,840.7772 1478.8701,824.2694 1466.8834,809.08795 1465.6545,807.6007 1464.536,805.87256 1463.4297,804.132 1462.2374,802.6073 1460.861,801.527 1459.2024,801.1197 1452.2522,830.07587 1448.7058,860.1538 1447.6141,890.87714 1448.0272,921.76953 1448.9958,952.3546 1449.2336,967.9655 1448.8152,978.8672 1448.5813,981.4899 " stroke-linejoin="round" id="Polygon_2" d="M1435.9335 978.36096 C1414.0994 967.3908,  1397.19 935.3884,  1391.9877 915.1979C1386.4159 961.6652,  1408.1656 1005.6418,  1411.454 1051.2443C1375.5088 1051.3195,  1360.0962 1006.9145,  1347.9694 981.2956C1340.772 1009.57245,  1340.7435 1039.0221,  1334.5337 1067.3518C1334.1105 1070.1501,  1332.9427 1072.7258,  1332.1472 1075.4128C1287.6014 1068.7766,  1276.7384 994.72064,  1264.8098 959.4788C1258.2247 937.8875,  1249.8418 916.2595,  1243.0 896.0C1232.1785 944.6239,  1220.1449 989.5062,  1214.0 1039.0C1193.0522 1001.01624,  1163.8385 964.75586,  1159.0 920.0C1151.7448 852.8887,  1187.5604 827.3531,  1190.0 771.0C1156.0701 791.29486,  1138.3853 815.1546,  1126.0 853.0C1104.1538 786.05225,  1160.6353 751.1279,  1180.0 692.0C1180.7262 714.2128,  1180.386 737.99884,  1207.0 738.0C1217.1206 702.7526,  1229.4164 626.32227,  1247.0 596.0C1210.6604 585.7262,  1218.5818 634.6457,  1209.0 657.0C1180.3448 629.0232,  1190.0433 531.1669,  1209.0 498.0C1235.7277 451.23676,  1310.2897 483.64832,  1346.0 499.0C1495.1577 455.4925,  1520.7333 542.7283,  1481.0 675.0C1458.0785 670.29156,  1440.2051 631.28467,  1431.0 611.0C1431.4398 643.0281,  1449.4148 688.65234,  1446.0245 720.00244C1444.6455 732.95215,  1448.6984 736.8324,  1455.6381 735.28326C1462.5941 733.7358,  1472.437 726.7589,  1482.6215 717.9928C1502.966 700.45825,  1524.6768 675.76666,  1527.3926 673.03906C1512.4165 743.4536,  1552.8167 867.8436,  1488.6135 916.0611C1485.6635 876.0543,  1497.3596 837.99115,  1466.8834 809.08795C1464.25 806.507,  1462.8673 801.10913,  1459.2024 801.1197C1442.6669 853.18115,  1448.3287 913.39044,  1449.4105 968.31464C1449.2108 971.4845,  1448.9836 975.89984,  1448.6959 981.01587C1444.1898 981.703,  1439.9773 980.3927,  1435.9335 978.36096" stroke-linecap="round" path-type="area" fill="#0000ff" fill-opacity="0.4588235318660736"/><path rough-pts="1372.9142,1127.8029 1361.7505,1114.8416 1354.5128,1100.5061 1349.9412,1085.082 1346.7747,1068.8541 1343.7529,1052.1082 1339.4227,1034.1945 1340.8811,1024.3038 1342.667,1009.87836 1344.9061,995.52106 1347.9694,981.2956 1354.3865,995.3776 1361.8302,1010.83325 1370.7799,1025.9053 1381.7141,1038.8358 1395.1125,1047.868 1411.454,1051.2443 1408.4833,1028.5594 1403.7075,1006.03125 1398.3983,983.54535 1393.8273,960.98737 1391.2666,938.24304 1391.9877,915.1979 1396.4596,928.46686 1403.4158,942.99414 1412.5304,957.2033 1423.478,969.5177 1435.9333,978.36084 1448.5813,981.4899 1447.7229,998.10815 1446.7222,1020.03754 1446.4606,1041.4521 1447.5854,1059.1489 1450.7446,1069.9252 1463.5691,1078.3572 1479.9368,1077.2737 1498.5549,1072.5209 1518.1301,1069.944 1537.3689,1075.3885 1554.9785,1094.7007 1541.1089,1096.8369 1529.2297,1103.4042 1518.8453,1113.0199 1509.4596,1124.3008 1500.5769,1135.864 1491.7018,1146.3265 1471.4214,1141.3507 1451.1936,1141.4309 1431.1238,1143.342 1411.317,1143.858 1391.8787,1139.7534 " stroke-linejoin="round" id="Polygon_4" d="M1372.9142 1127.8029 C1345.8219 1103.4459,  1349.8453 1069.1322,  1339.6171 1035.1334C1341.8304 1016.49554,  1343.546 998.6741,  1347.9694 981.2956C1360.0962 1006.9145,  1375.5088 1051.3195,  1411.454 1051.2443C1408.1656 1005.6418,  1386.4159 961.6652,  1391.9877 915.1979C1398.1533 939.1278,  1420.7645 979.64996,  1448.5284 982.0832C1447.0925 1009.5194,  1443.6074 1059.7719,  1450.7446 1069.9252C1471.988 1100.2015,  1522.2509 1038.3121,  1554.9785 1094.7007C1524.919 1093.62,  1509.7753 1127.4241,  1491.7018 1146.3265C1451.1593 1129.1683,  1410.299 1161.7006,  1372.9142 1127.8029" stroke-linecap="round" path-type="area" fill="#280d35" fill-opacity="0.529411792755127"/><path rough-pts="1207.4359,1081.4342 1210.1561,1073.2272 1212.3297,1064.7354 1213.9397,1056.0514 1214.9691,1047.2677 1213.8636,1038.771 1215.4014,1038.4769 1215.2195,1029.772 1217.5303,1014.59863 1221.8446,990.73395 1226.7462,967.17377 1232.0374,943.6861 1237.521,920.03876 1243.0,896.0 1248.7388,912.4728 1254.7554,929.36975 1260.6698,946.5309 1264.8098,959.4788 1266.1019,963.79614 1270.6719,981.00586 1274.0,998.0 1276.6259,1037.8458 1275.2996,1081.0756 1266.7388,1120.4501 1247.6611,1148.7299 1214.7844,1158.6755 1164.8262,1143.0482 1155.0286,1134.4677 1148.2476,1121.6661 1143.7839,1106.3412 1140.9384,1090.1891 1139.0117,1074.9073 1137.3049,1062.193 1149.5463,1062.7009 1161.3744,1065.1066 1172.9335,1068.7964 1184.3673,1073.1565 1195.8201,1077.5735 " stroke-linejoin="round" id="Polygon_8" d="M1207.4359 1081.4342 C1213.4121 1065.3672,  1216.2085 1047.0345,  1215.2195 1029.772C1221.6443 983.8813,  1232.8549 941.5849,  1243.0 896.0C1253.9469 928.4153,  1268.8391 964.33374,  1274.0 998.0C1281.0161 1069.4817,  1284.0121 1204.7024,  1164.8262 1143.0482C1141.7485 1131.2395,  1140.9648 1083.9231,  1137.3049 1062.193C1162.2972 1060.9026,  1183.9452 1074.6785,  1207.4359 1081.4342" stroke-linecap="round" path-type="area" fill="#280d35" fill-opacity="0.529411792755127"/><path rough-pts="1430.0,381.33334 1445.7703,377.14438 1462.4736,374.43326 1478.6295,374.3983 1492.7563,378.2378 1503.3735,387.15 1509.0,402.33334 1484.1241,407.5587 1464.8533,419.15363 1450.4963,435.80676 1440.3623,456.20648 1433.7605,479.04138 1431.9585,496.5796 1410.55,487.7447 1346.0,499.0 1346.5681,476.3576 1354.4854,452.57288 1368.2694,429.41202 1386.438,408.64105 1407.5089,392.02612 " stroke-linejoin="round" id="Polygon_42" d="M1430.0 381.33334 C1459.6201 372.27655,  1503.7253 364.8967,  1509.0 402.33334C1455.7249 405.39413,  1436.8616 450.4401,  1430.7847 496.41806C1410.718 485.6229,  1381.9481 488.51437,  1346.0 499.0C1338.7992 456.035,  1384.5859 395.6193,  1430.0 381.33334" stroke-linecap="round" path-type="area" fill="#fda80f" fill-opacity="1.0"/><path rough-pts="1346.0,499.0 1325.3083,490.348 1300.5496,481.52588 1274.1316,475.2069 1248.4618,474.06412 1245.4258,474.41833 1247.5027,456.08905 1245.0526,440.8133 1239.3387,427.4037 1231.6245,414.67307 1223.1738,401.43423 1215.25,386.5 1260.2462,386.91403 1292.7113,394.6225 1315.0822,409.65543 1329.7958,432.04266 1339.2893,461.81418 " stroke-linejoin="round" id="Polygon_38" d="M1346.0 499.0 C1321.4491 488.4457,  1278.5348 469.82797,  1245.4257 474.41833C1254.9497 433.91504,  1229.7283 418.85538,  1215.25 386.5C1319.3989 380.0537,  1333.7368 417.1941,  1346.0 499.0" stroke-linecap="round" path-type="area" fill="#fda80f" fill-opacity="1.0"/><path rough-pts="1215.2195,1029.772 1213.8636,1038.771 1215.4014,1038.4769 " stroke-linejoin="round" id="Polygon_5" d="M1215.2195 1029.772 C1214.7911 1032.8313,  1214.384 1035.9066,  1214.0 1039.0C1215.4481 1035.7645,  1215.3903 1032.7523,  1215.2195 1029.772" stroke-linecap="round" path-type="area" fill-opacity="0.0"/><path rough-pts="1448.5813,981.4899 1449.5706,982.1564 1449.2336,967.9655 1448.8152,978.8672 " stroke-linejoin="round" id="Polygon_1" d="M1448.5284 982.0832 C1448.875 982.1136,  1449.2224 982.138,  1449.5706 982.1564C1449.5609 977.5859,  1449.5022 972.96924,  1449.4105 968.31464C1449.2108 971.4845,  1448.9836 975.89984,  1448.6959 981.01587" stroke-linecap="round" path-type="area" fill-opacity="0.0"/><path stroke-linejoin="round" id="ConsecLine_1" d="M1346.0 499.0 C1310.2897 483.64832,  1235.7277 451.23676,  1209.0 498.0C1190.0433 531.1669,  1180.3448 629.0232,  1209.0 657.0C1218.5818 634.6457,  1210.6604 585.7262,  1247.0 596.0C1229.4164 626.32227,  1217.1206 702.7526,  1207.0 738.0C1180.386 737.99884,  1180.7262 714.2128,  1180.0 692.0C1160.6353 751.1279,  1104.1538 786.05225,  1126.0 853.0C1138.3853 815.1546,  1156.0701 791.29486,  1190.0 771.0C1187.5604 827.3531,  1151.7448 852.8887,  1159.0 920.0C1163.8385 964.75586,  1193.0522 1001.01624,  1214.0 1039.0C1220.1449 989.5062,  1232.1785 944.6239,  1243.0 896.0C1253.9469 928.4153,  1268.8391 964.33374,  1274.0 998.0" stroke-linecap="round" fill="none" stroke-width="3.0" stroke="#008cff" stroke-opacity="0.6862745"/><path stroke-linejoin="round" id="ConsecLine_5" d="M1346.0 499.0 C1495.1577 455.4925,  1520.7333 542.7283,  1481.0 675.0C1458.0785 670.29156,  1440.2051 631.28467,  1431.0 611.0" stroke-linecap="round" fill="none" stroke-width="3.0" display="none" stroke="#008cff" stroke-opacity="0.6862745"/><path stroke-linejoin="round" id="ConsecLine_8" d="M1449.3517 965.5174 C1449.2666 984.1906,  1441.9604 1057.4287,  1450.7446 1069.9252C1471.988 1100.2015,  1522.2509 1038.3121,  1554.9785 1094.7007C1524.919 1093.62,  1509.7753 1127.4241,  1491.7018 1146.3265C1451.1593 1129.1683,  1410.299 1161.7006,  1372.9142 1127.8029C1345.8208 1103.445,  1349.8456 1069.1295,  1339.616 1035.1294" stroke-linecap="round" fill="none" stroke-width="3.0" stroke="#008cff" stroke-opacity="0.6862745"/><path stroke-linejoin="round" id="ConsecLine_9" d="M1274.0 998.0 C1281.0161 1069.4817,  1284.0121 1204.7024,  1164.8262 1143.0482C1141.7485 1131.2395,  1140.9648 1083.9231,  1137.3049 1062.193C1162.2972 1060.9026,  1183.9452 1074.6785,  1207.4359 1081.4342C1213.4121 1065.3672,  1216.2085 1047.0345,  1215.2195 1029.772" stroke-linecap="round" fill="none" stroke-width="3.0" stroke="#008cff" stroke-opacity="0.6862745"/><path stroke-linejoin="round" id="ConsecLine_60" d="M1346.0 499.0 C1338.7992 456.035,  1384.5859 395.6193,  1430.0 381.33334C1459.6201 372.27655,  1503.7253 364.8967,  1509.0 402.33334C1453.1833 405.54016,  1435.1401 454.8334,  1430.0 503.0" stroke-linecap="round" fill="none" stroke-width="5.0" stroke="#ff8800" stroke-opacity="0.6862745"/><path stroke-linejoin="round" id="ConsecLine_7" d="M1431.0 611.0 C1431.4398 643.0281,  1449.4148 688.65234,  1446.0245 720.00244C1444.6455 732.95215,  1448.6984 736.8324,  1455.6381 735.28326C1462.5941 733.7358,  1472.437 726.7589,  1482.6215 717.9928C1502.966 700.45825,  1524.6768 675.76666,  1527.3926 673.03906C1512.4165 743.4536,  1552.8167 867.8436,  1488.6135 916.0611C1485.6635 876.0543,  1497.3596 837.99115,  1466.8834 809.08795C1464.25 806.507,  1462.8673 801.10913,  1459.2024 801.1197C1441.2655 857.59314,  1449.4479 923.65393,  1449.5706 982.1564C1421.3315 980.66425,  1398.2303 939.4265,  1391.9877 915.1979C1386.4159 961.6652,  1408.1656 1005.6418,  1411.454 1051.2443C1375.5088 1051.3195,  1360.0962 1006.9145,  1347.9694 981.2956C1340.772 1009.57245,  1340.7435 1039.0221,  1334.5337 1067.3518C1334.1105 1070.1501,  1332.9427 1072.7258,  1332.1472 1075.4128C1287.6014 1068.7766,  1276.7384 994.72064,  1264.8098 959.4788" stroke-linecap="round" fill="none" stroke-width="3.0" stroke="#008cff" stroke-opacity="0.6862745"/><path stroke-linejoin="round" id="ConsecLine_57" d="M1245.4258 474.41833 C1254.9497 433.91504,  1229.7283 418.85538,  1215.25 386.5C1319.3989 380.0537,  1333.7368 417.1941,  1346.0 499.0" stroke-linecap="round" fill="none" stroke-width="5.0" stroke="#ff8800" stroke-opacity="0.6862745"/><path stroke-linejoin="round" id="ConsecLine_17" d="M1361.0 547.0 C1369.7733 520.4841,  1401.9874 543.9471,  1421.0 535.0C1426.2389 532.5346,  1427.6613 508.63962,  1430.0 503.0" stroke-linecap="round" fill="none" stroke-width="3.0" stroke="#000000" stroke-opacity="0.6862745"/></g><circle r="3.0" cy="623.0" cx="1435.0" id="PointShape_0" fill="#000000" fill-opacity="1.0"/><g type="COMPO" id="CompositeShape_5"><path rough-pts="1273.3212,733.5008 1273.3212,570.8603 1335.4888,685.4147 1402.5001,561.934 1402.5,733.5006 " stroke-linejoin="round" id="Polygon_9" d="M1273.3212 733.5008 L1273.3212 570.8603 L1335.4888 685.4147 L1402.5001 561.934 L1402.5 733.5006 L1273.3212 733.5008 " stroke-linecap="round" path-type="area" fill="#ffbd00" fill-opacity="1.0"/><path rough-pts="1403.1825,784.44476 1401.4192,771.1755 1393.6431,760.7879 1381.6292,752.55444 1367.1523,745.747 1351.9878,739.6384 1337.9106,733.50073 1321.6549,730.1711 1301.6265,732.89374 1281.2136,740.63403 1263.8038,752.35693 1252.7852,767.0275 1251.5457,783.6112 1276.4747,785.91907 1301.721,787.1746 1327.1498,787.51654 1352.6261,787.0831 1378.0151,786.013 " stroke-linejoin="round" id="Polygon_12" d="M1403.1825 784.44476 C1406.8524 754.5396,  1363.7943 746.2902,  1337.9106 733.50073C1311.4303 720.09937,  1241.9872 749.22076,  1251.5457 783.6112C1300.9968 789.37164,  1353.1598 787.9872,  1403.1825 784.44476" stroke-linecap="round" path-type="area" fill="#280d35" fill-opacity="0.8274509906768799"/><line x1="1273.3212" y1="570.8603" x2="1335.4886" id="StraightLine_148" stroke-linecap="round" y2="685.4147" fill="none" stroke-width="3.0" display="none" stroke="#008cff" stroke-opacity="0.6862745"/><line x1="1335.4888" y1="685.4147" x2="1402.5001" id="StraightLine_149" stroke-linecap="round" y2="561.934" fill="none" stroke-width="3.0" display="none" stroke="#008cff" stroke-opacity="0.6862745"/><line x1="1402.5001" y1="561.934" x2="1402.5" id="StraightLine_150" stroke-linecap="round" y2="733.5006" fill="none" stroke-width="3.0" display="none" stroke="#008cff" stroke-opacity="0.6862745"/><line x1="1402.5" y1="733.5006" x2="1273.3212" id="StraightLine_151" stroke-linecap="round" y2="733.5008" fill="none" stroke-width="3.0" display="none" stroke="#008cff" stroke-opacity="0.6862745"/><line x1="1273.3212" y1="733.5008" x2="1273.321" id="StraightLine_152" stroke-linecap="round" y2="570.8602" fill="none" stroke-width="3.0" display="none" stroke="#008cff" stroke-opacity="0.6862745"/><path stroke-linejoin="round" id="ConsecLine_22" d="M1337.9106 733.50073 C1311.4303 720.09937,  1241.9872 749.22076,  1251.5457 783.6112C1300.9968 789.37164,  1353.1598 787.9872,  1403.1825 784.44476C1406.8524 754.5396,  1363.7943 746.2902,  1337.9106 733.50073" stroke-linecap="round" fill="none" stroke-width="3.0" display="none" stroke="#008cff" stroke-opacity="0.6862745"/></g><g type="COMPO" id="CompositeShape_6"><path stroke-linejoin="round" id="ConsecLine_15" d="M1229.0 547.0 C1227.529 539.2617,  1228.0818 521.6022,  1234.0 515.0C1252.2728 494.61542,  1273.4626 538.08575,  1281.0 546.0C1293.9827 559.6318,  1331.9877 574.6124,  1333.0 545.0" stroke-linecap="round" fill="none" stroke-width="3.0" stroke="#000000" stroke-opacity="0.6862745"/></g><g type="COMPO" id="CompositeShape_8"><path rough-pts="1298.0,714.0 1303.7577,713.49585 1309.395,712.1892 1314.9585,710.3889 1320.4939,708.40326 1326.0479,706.54114 1331.6666,705.1111 1326.4512,694.45514 1320.174,686.23566 1313.2128,679.4166 1305.9447,672.9618 1298.7478,665.8349 1292.0,657.0 1292.5822,666.5894 1293.463,676.0903 1294.5442,685.5421 1295.7266,694.9845 1296.9114,704.45715 " stroke-linejoin="round" id="Polygon_10" d="M1298.0 714.0 C1309.6666 714.0,  1320.3336 707.3333,  1331.6666 705.1111C1322.5499 680.672,  1304.7952 677.0687,  1292.0 657.0C1292.7998 676.29425,  1295.9849 694.81793,  1298.0 714.0" stroke-linecap="round" path-type="area" fill="#ff0000" fill-opacity="1.0"/><path stroke-linejoin="round" id="ConsecLine_20" d="M1292.0 657.0 C1292.7998 676.29425,  1295.9849 694.81793,  1298.0 714.0C1309.6666 714.0,  1320.3336 707.3333,  1331.6666 705.1111C1322.5499 680.672,  1304.7952 677.0687,  1292.0 657.0" stroke-linecap="round" fill="none" stroke-width="3.0" display="none" stroke="#008cff" stroke-opacity="0.6862745"/></g><g type="COMPO" id="CompositeShape_9"><path rough-pts="1358.0,708.0 1357.7682,697.9463 1359.0525,687.9805 1361.3857,678.1028 1364.2996,668.31335 1367.3269,658.6123 1370.0,649.0 1372.44,657.3051 1374.0071,666.56335 1375.249,676.23083 1376.7135,685.7637 1378.9479,694.618 1382.5,702.25 1382.6454,700.7652 1382.0255,699.9693 1380.7494,699.76 1378.9263,700.0347 1376.665,700.69116 1374.0753,701.62695 1371.3076,702.8439 1368.4298,704.1353 1365.551,705.3992 1362.7803,706.5327 1360.2268,707.43384 " stroke-linejoin="round" id="Polygon_11" d="M1358.0 708.0 C1355.7086 687.80505,  1365.3198 668.1358,  1370.0 649.0C1376.1179 664.2946,  1373.713 688.571,  1382.5 702.25C1383.6293 698.5234,  1379.5106 699.54425,  1374.0753 701.62695C1368.7233 703.91797,  1362.0546 707.2708,  1358.0 708.0" stroke-linecap="round" path-type="area" fill="#ff0000" fill-opacity="1.0"/><path stroke-linejoin="round" id="ConsecLine_21" d="M1358.0 708.0 C1355.7086 687.80505,  1365.3198 668.1358,  1370.0 649.0C1376.1179 664.2946,  1373.713 688.571,  1382.5 702.25C1383.6293 698.5234,  1379.5106 699.54425,  1374.0753 701.62695C1368.7233 703.91797,  1362.0546 707.2708,  1358.0 708.0" stroke-linecap="round" fill="none" stroke-width="3.0" display="none" stroke="#008cff" stroke-opacity="0.6862745"/></g><line x1="1596.0" y1="935.0" x2="1596.0" id="StraightLine_226" stroke-linecap="round" y2="948.0" fill="none" stroke-width="3.0" stroke="#008cff" stroke-opacity="0.6862745"/><g type="COMPO" id="CompositeShape_7"/><g type="COMPO" id="CompositeShape_28"><path rough-pts="1238.0,805.0 1251.8698,806.66486 1263.427,810.419 1273.7454,815.38354 1283.898,820.6795 1294.9583,825.4279 1308.0,828.75 1328.4866,830.9857 1355.1394,831.8921 1383.513,829.9048 1409.1613,823.4594 1427.6388,810.9917 1434.5,790.9375 1429.391,831.6822 1399.2081,855.36505 1353.3148,866.11224 1301.0736,868.0497 1251.8477,865.3036 1215.0,862.0 1209.9258,849.94336 1209.5735,837.1365 1213.0741,824.90906 1219.5581,814.5906 1228.1564,807.511 " stroke-linejoin="round" id="Polygon_56" d="M1238.0 805.0 C1268.7678 805.65466,  1279.2197 824.11816,  1308.0 828.75C1339.8435 833.50824,  1435.3578 839.67535,  1434.5 790.9375C1455.5979 892.23956,  1270.075 866.41394,  1215.0 862.0C1199.5505 839.52374,  1217.6471 804.56696,  1238.0 805.0" stroke-linecap="round" path-type="area" fill="#ff0000" fill-opacity="0.6470588445663452"/><path stroke-dasharray="8.0,8.0" stroke-linejoin="round" id="ConsecLine_71" d="M1215.0 862.0 C1199.5505 839.52374,  1217.6471 804.56696,  1238.0 805.0C1268.7678 805.65466,  1279.2197 824.11816,  1308.0 828.75C1339.8435 833.50824,  1435.3578 839.67535,  1434.5 790.9375C1455.5979 892.23956,  1270.075 866.41394,  1215.0 862.0" stroke-linecap="round" fill="none" stroke-width="3.0" stroke="#ff0000" stroke-opacity="0.91764706"/></g></svg>