<svg xmlns="http://www.w3.org/2000/svg" xmlns:xlink="http://www.w3.org/1999/xlink" width="2716.0" height="1528.0" background="#FFFFFF"><g type="COMPO" id="CompositeShape_0"><path rough-pts="1509.2773,784.9336 1514.9949,800.3792 1521.3716,818.3852 1527.7748,837.5803 1533.5717,856.5934 1538.1294,874.0531 1540.8156,888.5884 1531.9609,849.5168 1508.6859,821.7351 1478.0759,798.2577 1447.2152,772.0989 1423.1893,736.2731 1413.0829,683.7947 1416.4886,654.9923 1426.6676,631.7788 1442.3789,613.81573 1453.4001,608.5639 1459.2974,608.5079 1469.57,609.11646 1480.0565,609.9529 1490.5516,610.7803 1500.85,611.36145 1510.747,611.4595 1503.6996,613.9668 1497.5769,618.3794 1492.6494,624.21594 1489.1869,630.9948 1487.46,638.2346 1487.7389,645.454 1468.7269,653.8119 1454.5273,668.6836 1449.6758,694.5885 1454.921,715.6997 1466.8835,733.65344 1482.1835,750.0862 1497.4413,766.63403 " stroke-linejoin="round" id="Polygon_5" d="M1509.2773 784.9336 C1519.6318 812.35046,  1537.7368 863.35645,  1540.8156 888.5884C1542.25 794.4985,  1414.6528 810.0611,  1413.0829 683.7947C1412.6217 646.7047,  1428.607 621.7788,  1452.1025 606.5798C1471.4434 608.49634,  1492.6952 611.8767,  1510.747 611.4595C1495.9081 614.248,  1484.995 631.3568,  1487.7389 645.454C1471.3137 650.8477,  1458.731 658.29767,  1454.5273 668.6836C1432.4746 726.3782,  1491.28 745.49207,  1509.2773 784.9336" stroke-linecap="round" path-type="area" fill="#5c584f" fill-opacity="0.7176470756530762"/><path rough-pts="1510.747,611.4595 1503.6996,613.9668 1497.5769,618.3794 1492.6494,624.21594 1489.1869,630.9948 1487.46,638.2346 1487.7389,645.454 1493.9557,643.5582 1525.397,636.9887 1558.2345,633.1692 1587.6517,631.1659 1608.8329,630.0447 1605.4655,616.81494 1594.9486,605.58984 1578.7278,596.7348 1558.2484,590.6151 1534.9559,587.5965 1510.2958,588.04425 1485.4337,592.28687 1462.3812,600.7646 1453.4001,608.5639 1459.2974,608.5079 1469.57,609.11646 1480.0565,609.9529 1490.5516,610.7803 1500.85,611.36145 " stroke-linejoin="round" id="Polygon_4" d="M1510.747 611.4595 C1495.9081 614.248,  1484.995 631.3568,  1487.7389 645.454C1526.6407 632.6794,  1587.0963 631.439,  1608.8329 630.0447C1610.2109 601.82434,  1560.0203 583.43884,  1510.2958 588.04425C1489.2446 589.90247,  1468.7814 595.79034,  1452.1025 606.5798C1471.4434 608.49634,  1492.6952 611.8767,  1510.747 611.4595" stroke-linecap="round" path-type="area" fill="#ffbd00" fill-opacity="0.5098039507865906"/><path stroke-linejoin="round" id="ConsecLine_8" d="M1540.8156 888.5884 C1542.25 794.4985,  1414.6528 810.0611,  1413.0829 683.7947C1412.2943 620.3756,  1459.5898 592.5201,  1510.2958 588.04425C1560.0203 583.43884,  1610.2109 601.82434,  1608.8329 630.0447C1577.9186 632.0278,  1468.6868 633.6994,  1454.5273 668.6836C1432.4746 726.3782,  1491.28 745.49207,  1509.2773 784.9336C1519.6318 812.35046,  1537.7368 863.35645,  1540.8156 888.5884" stroke-linecap="round" fill="none" stroke-width="5.0" display="none" stroke="#000000" stroke-opacity="1.0"/><path stroke-linejoin="round" id="ConsecLine_9" d="M1449.4435 608.36414 C1468.5956 608.02875,  1491.4917 611.90454,  1510.747 611.4595C1495.9081 614.248,  1484.995 631.3568,  1487.7389 645.454" stroke-linecap="round" fill="none" stroke-width="5.0" display="none" stroke="#000000" stroke-opacity="1.0"/></g><g type="COMPO" id="CompositeShape_10"><path rough-pts="1254.3369,707.894 1254.977,717.8043 1255.3643,729.534 1254.942,740.88574 1253.154,749.66235 1249.4445,753.6667 1241.0117,754.6076 1232.0686,754.671 1213.613,753.3355 1204.581,752.5215 1196.0,752.0 1206.587,748.93396 1217.6891,741.5888 1228.6437,731.5938 1238.7885,720.5779 1247.4613,710.1702 1254.0,702.0 " stroke-linejoin="round" id="Polygon_13" d="M1254.3369 707.89404 C1255.3058 721.6747,  1257.5378 752.1903,  1249.4445 753.6667C1233.2499 756.62103,  1212.5507 752.55554,  1196.0 752.0C1216.2181 751.2333,  1243.4983 715.0169,  1254.0 702.0C1254.0 703.05115,  1254.1432 705.1379,  1254.3369 707.89404" stroke-linecap="round" path-type="area" fill="#00ff00" fill-opacity="1.0"/><path stroke-linejoin="round" id="ConsecLine_13" d="M1196.0 752.0 C1216.2181 751.2333,  1243.4983 715.0169,  1254.0 702.0C1254.0 708.3069,  1259.1565 751.895,  1249.4445 753.6667C1233.2499 756.62103,  1212.5507 752.55554,  1196.0 752.0" stroke-linecap="round" fill="none" stroke-width="5.0" stroke="#000000" stroke-opacity="1.0"/></g><g type="COMPO" id="CompositeShape_11"><path rough-pts="1162.5944,764.932 1152.2034,767.22363 1144.1462,771.0673 1140.0,777.0 1140.5555,781.9259 1141.1111,786.85175 1141.6666,791.7778 1142.222,796.7037 1142.7777,801.6296 1143.3334,806.55554 1149.2449,797.5525 1156.8438,789.01166 1165.5243,781.05945 1174.6808,773.82227 1183.708,767.42694 1192.0,762.0 1184.0696,762.85706 1173.742,763.6554 " stroke-linejoin="round" id="Polygon_14" d="M1162.5944 764.932 C1151.5623 766.62665,  1141.6653 769.844,  1140.0 777.0C1141.1111 786.8517,  1142.2222 796.7038,  1143.3334 806.55554C1153.0653 788.1718,  1176.555 771.8014,  1192.0 762.0C1185.7937 763.06537,  1173.6265 763.2373,  1162.5944 764.932" stroke-linecap="round" path-type="area" fill="#ffbd00" fill-opacity="1.0"/><path stroke-linejoin="round" id="ConsecLine_14" d="M1140.0 777.0 C1143.3307 762.6879,  1179.5875 764.13074,  1192.0 762.0C1176.555 771.8014,  1153.0653 788.1718,  1143.3334 806.55554C1142.2222 796.7038,  1141.1111 786.8517,  1140.0 777.0" stroke-linecap="round" fill="none" stroke-width="5.0" display="none" stroke="#000000" stroke-opacity="1.0"/></g><circle r="5.0" cy="773.0" cx="1204.0" id="PointShape_0" fill="#000000" fill-opacity="1.0"/><g type="COMPO" id="CompositeShape_17"><path stroke-linejoin="round" id="ConsecLine_27" d="M1211.0 802.0 C1211.0 799.5963,  1212.5963 796.0,  1215.0 796.0" stroke-linecap="round" fill="none" stroke-width="5.0" stroke="#000000" stroke-opacity="1.0"/></g><g type="COMPO" id="CompositeShape_18"><path rough-pts="1199.5676,785.1448 1199.2833,785.30664 1198.5387,785.4587 1197.5791,785.6151 1196.6509,785.79065 1196.0,786.0 1196.1139,785.4279 1196.4342,785.0419 1196.9296,784.82214 1197.5676,784.7483 1198.3169,784.8003 1199.1455,784.95807 " stroke-linejoin="round" id="Polygon_21" d="M1199.5679 785.1448 C1199.6145 785.4313,  1196.7172 785.61487,  1196.0 786.0C1196.0 784.65625,  1197.4303 784.5502,  1199.1455 784.95807" stroke-linecap="round" path-type="area" fill-opacity="0.0"/><path stroke-linejoin="round" id="ConsecLine_28" d="M1196.0 786.0 C1196.0 784.65625,  1197.4303 784.5502,  1199.1455 784.95807C1200.8606 785.36597,  1196.8606 785.53784,  1196.0 786.0" stroke-linecap="round" fill="none" stroke-width="5.0" stroke="#000000" stroke-opacity="1.0"/></g><g type="COMPO" id="CompositeShape_20"><path rough-pts="1468.75,1034.5 1490.0887,1035.2703 1513.1012,1037.509 1535.6929,1038.8591 1555.7694,1036.9626 1571.2365,1029.4622 1580.0,1014.0 1575.4456,1007.44434 1569.989,1003.2332 1564.6108,999.62476 1560.2911,994.87726 1558.0109,987.2491 1558.7502,974.99854 1554.1489,946.91705 1558.8591,927.0233 1566.0513,911.6456 1568.8956,897.1118 1560.5625,879.75024 1534.2222,855.8889 1512.1628,844.66235 1479.3203,834.3125 1440.4331,825.3331 1400.2395,818.21796 1363.4788,813.46075 1334.8889,811.55554 1320.2363,797.31366 1306.5127,776.6493 1294.5728,752.0741 1285.2709,726.09973 1279.4617,701.2378 1278.8157,696.7874 1278.0,680.0 1265.9414,664.997 1258.5015,647.9316 1255.7047,629.77576 1257.5759,611.50134 1264.1396,594.0801 1275.4208,578.4841 1275.9067,577.9775 1276.3928,577.48035 1276.8751,576.9963 1277.3497,576.5289 1277.8127,576.0817 1278.2605,575.65857 1278.393,574.95605 1281.7793,549.1288 1288.0,524.0 1268.3074,540.7805 1253.9657,564.38446 1244.0696,592.2601 1237.7136,621.8556 1233.9921,650.61945 1232.0,676.0 1201.8151,684.658 1177.1735,708.07324 1159.8732,740.0304 1151.712,774.314 1154.4883,804.709 1164.8812,815.3598 1170.0,825.0 1196.3481,837.2357 1217.7025,840.30475 1234.9539,834.96155 1248.9932,821.9601 1260.7115,802.0548 1271.0,776.0 1269.6139,816.7405 1266.8076,838.09125 1271.8453,851.0918 1275.259,864.66956 1276.9707,878.66797 1276.9026,892.93066 1274.9773,907.30145 1271.117,921.6242 1257.6377,948.68256 1238.1823,970.5077 1214.1206,986.42566 1186.8226,995.7629 1157.659,997.8455 1128.0,992.0 1126.0532,1017.35297 1136.9355,1035.2129 1156.309,1045.8938 1179.8359,1049.7092 1203.1787,1046.9734 1222.0,1038.0 1240.6615,1022.5024 1241.2246,1022.0095 1267.4731,1019.74274 1305.5586,1019.5552 1335.1499,1020.54016 1358.1836,1023.2055 1380.0521,1026.3142 1401.3994,1029.4321 1422.8689,1032.125 1445.1045,1033.959 " stroke-linejoin="round" id="Polygon_31" d="M1468.75 1034.5 C1508.358 1033.0,  1570.5729 1054.4573,  1580.0 1014.0C1572.4469 997.3831,  1553.5985 1005.28345,  1558.7502 974.99854C1535.683 908.2001,  1609.4633 912.5592,  1534.2222 855.8889C1504.046 832.8883,  1380.7386 812.1852,  1334.8889 811.55554C1305.225 791.1687,  1276.0061 717.1771,  1278.0 680.0C1249.281 652.7042,  1248.1249 607.2031,  1275.4208 578.4841C1276.3904 577.4639,  1277.3829 576.4786,  1278.2605 575.65857C1279.7965 558.0311,  1282.6672 540.68646,  1288.0 524.0C1242.6606 549.0368,  1234.8584 630.3234,  1232.0 676.0C1167.2861 674.4156,  1125.0424 798.6654,  1170.0 825.0C1228.2845 859.141,  1251.259 833.7564,  1271.0 776.0C1271.0 805.7335,  1269.4467 824.5188,  1266.8076 838.0912C1278.4554 863.4112,  1280.825 893.13153,  1271.117 921.6242C1251.0482 980.52515,  1186.9009 1012.0687,  1128.0 992.0C1108.3862 1050.4084,  1191.771 1061.9749,  1222.0 1038.0C1228.6198 1032.7498,  1235.0403 1027.4346,  1241.2244 1022.0095C1257.3728 1018.74,  1296.0918 1019.21326,  1335.016 1020.0974C1382.8115 1025.1389,  1419.6202 1035.0,  1468.75 1034.5" stroke-linecap="round" path-type="area" fill="#302e28" fill-opacity="0.7176470756530762"/><path rough-pts="1128.0,992.0 1157.659,997.8455 1186.8226,995.7629 1214.1206,986.42566 1238.1823,970.5077 1257.6377,948.68256 1271.117,921.6242 1274.9773,907.30145 1276.9026,892.93066 1276.9707,878.66797 1275.259,864.66956 1271.8453,851.0918 1266.8076,838.09125 1265.787,842.8662 1260.0156,860.46625 1252.7964,875.6293 1244.6256,894.4442 1236.0,923.0 1231.4373,929.68976 1222.5396,934.9822 1211.0269,939.0186 1198.6194,941.9397 1187.0371,943.8864 1178.0,945.0 1167.8512,945.9548 1158.2802,946.80493 1149.0486,947.79254 1139.9171,949.1594 1130.6472,951.14795 1121.0,954.0 1123.6934,960.2412 1125.7572,966.5832 1127.2057,972.978 1128.0529,979.3777 1128.3129,985.73425 " stroke-linejoin="round" id="Polygon_22" d="M1128.0 992.0 C1186.9009 1012.0687,  1251.0482 980.52515,  1271.117 921.6242C1280.825 893.13153,  1278.4554 863.4112,  1266.8076 838.09125C1260.5573 870.2363,  1248.2169 873.1402,  1236.0 923.0C1232.3563 937.8708,  1192.3822 943.5122,  1178.0 945.0C1156.9653 947.17596,  1140.8308 947.2708,  1121.0 954.0C1127.0261 966.34985,  1129.1892 979.5915,  1128.0 992.0" stroke-linecap="round" path-type="area" fill="#5c584f" fill-opacity="0.7176470756530762"/><path rough-pts="1349.0,984.0 1365.9807,983.4347 1382.9703,983.22894 1399.9182,983.58276 1415.4357,985.5711 1427.6061,991.2567 1436.3097,1002.79565 1440.6321,1012.63214 1438.0,1019.0 1421.7014,1021.16943 1389.586,1021.2986 1348.5674,1020.41724 1335.1499,1020.54016 1333.7954,1011.5205 1333.7148,1003.0653 1335.0518,995.63025 1337.9493,989.67053 1342.5508,985.6419 " stroke-linejoin="round" id="Polygon_24" d="M1349.0 984.0 C1371.1913 983.11237,  1393.5367 982.6346,  1415.5223 984.5824C1432.713 996.1451,  1446.8271 1013.8755,  1438.0 1019.0C1431.2803 1022.90106,  1382.9923 1021.18713,  1335.016 1020.0974C1331.2627 1002.2403,  1334.1588 984.5936,  1349.0 984.0" stroke-linecap="round" path-type="area" fill="#5c584f" fill-opacity="0.7176470756530762"/><path rough-pts="1278.2605,575.65857 1278.2582,576.58734 1278.2998,578.70953 1278.2477,580.8119 1277.0815,601.2192 1277.0852,627.65576 1277.6447,654.00354 1278.0,680.00006 1265.9414,664.997 1258.5015,647.9316 1255.7047,629.77576 1257.5759,611.50134 1264.1396,594.0801 1275.4208,578.4841 1275.9067,577.9775 1276.3928,577.48035 1276.8751,576.9963 1277.3497,576.5289 1277.8127,576.0817 " stroke-linejoin="round" id="Polygon_12" d="M1278.333 575.66956 C1275.4651 610.23267,  1278.0 645.9236,  1278.0 680.0C1249.281 652.7042,  1248.1249 607.2031,  1275.4208 578.4841C1276.3904 577.4639,  1277.3829 576.4786,  1278.2605 575.65857" stroke-linecap="round" path-type="area" fill="#ff0000" fill-opacity="0.3686274588108063"/><path rough-pts="1280.6112,696.5559 1278.0,680.00006 1278.2477,580.8119 1278.2998,578.70953 " stroke-linejoin="round" id="Polygon_10" d="M1278.8157 696.7874 C1278.0286 690.6719,  1277.7317 685.0026,  1278.0 680.0L1278.2477 580.8119 C1277.9979 580.04663,  1278.0424 579.4206,  1278.0884 578.7949L1280.6112 696.5559 " stroke-linecap="round" path-type="area" fill-opacity="0.0"/><path rough-pts="1278.2477,580.8119 1277.0815,601.2192 1277.0852,627.65576 1277.6447,654.00354 1278.0,680.00006 " stroke-linejoin="round" id="Polygon_6" d="M1277.9552 580.673 C1275.7034 613.66815,  1278.0 647.5654,  1278.0 680.0L1278.2477 580.8119 " stroke-linecap="round" path-type="area" fill="#ff0000" fill-opacity="0.3686274588108063"/><path stroke-dasharray="6.0,6.0" stroke-linejoin="round" id="ConsecLine_37" d="M1335.1499 1020.54016 C1331.2627 1002.2403,  1334.1588 984.5936,  1349.0 984.0C1382.9183 982.64325,  1417.1968 982.24414,  1450.0 990.0" stroke-linecap="round" fill="none" stroke-width="3.0" display="none" stroke="#000000" stroke-opacity="0.6666667"/><path stroke-linejoin="round" id="ConsecLine_36" d="M1334.8889 811.55554 C1380.7386 812.1852,  1504.046 832.8883,  1534.2222 855.8889" stroke-linecap="round" fill="none" stroke-width="5.0" display="none" stroke="#000000" stroke-opacity="1.0"/><path stroke-dasharray="6.0,6.0" stroke-linejoin="round" id="ConsecLine_38" d="M1335.1499 1020.54016 C1382.8115 1025.1389,  1419.6202 1035.0,  1468.75 1034.5C1508.358 1033.0,  1570.5729 1054.4573,  1580.0 1014.0" stroke-linecap="round" fill="none" stroke-width="3.0" display="none" stroke="#000000" stroke-opacity="0.6666667"/><path stroke-linejoin="round" id="ConsecLine_32" d="M1334.8889 811.55554 C1305.225 791.1687,  1276.0061 717.1771,  1278.0 680.0" stroke-linecap="round" fill="none" stroke-width="3.0" stroke="#000000" stroke-opacity="0.2"/><path stroke-dasharray="7.0,7.0" stroke-linejoin="round" id="ConsecLine_0" d="M1278.0 680.0 C1278.0 628.53357,  1272.2175 573.3843,  1288.0 524.0C1242.6606 549.0368,  1234.8584 630.3234,  1232.0 676.0C1167.2861 674.4156,  1125.0424 798.6654,  1170.0 825.0C1228.2845 859.141,  1251.259 833.7564,  1271.0 776.0" stroke-linecap="round" fill="none" stroke-width="3.0" stroke="#000000" stroke-opacity="0.2"/><path stroke-linejoin="round" id="ConsecLine_1" d="M1271.0 776.0 C1271.0 876.1551,  1253.3751 852.08826,  1236.0 923.0C1232.3563 937.8708,  1192.3822 943.5122,  1178.0 945.0C1156.9653 947.17596,  1140.8308 947.2708,  1121.0 954.0" stroke-linecap="round" fill="none" stroke-width="5.0" display="none" stroke="#000000" stroke-opacity="1.0"/><line x1="1278.0" y1="680.00006" x2="1278.2582" id="StraightLine_110" stroke-linecap="round" y2="576.5874" fill="none" stroke-width="3.0" stroke="#000000" stroke-opacity="0.2"/><path stroke-linejoin="round" id="CircleArc_1" path-type="circle-arc" stroke-linecap="round" end-point="1278.2605,575.65857" start-point="1278.0,680.00006" circle-center="1327.4684,627.95245" d="M1278.0 680.00006 C1249.281 652.7042,  1248.1249 607.2031,  1275.4208 578.4841C1276.3904 577.4639,  1277.3829 576.4786,  1278.2605 575.65857" middle-point="1256.0,621.0" fill="none" stroke-width="3.0" display="none" stroke="#000000" stroke-opacity="0.2"/><path stroke-linejoin="round" id="ConsecLine_31" d="M1558.7502 974.99854 C1553.5985 1005.28345,  1572.4469 997.3831,  1580.0 1014.0" stroke-linecap="round" fill="none" stroke-width="5.0" display="none" stroke="#000000" stroke-opacity="1.0"/><line x1="1278.2582" y1="576.58734" x2="1280.8501" id="StraightLine_111" stroke-linecap="round" y2="708.7359" fill="none" stroke-width="3.0" stroke="#000000" stroke-opacity="0.2"/><path stroke-dasharray="4.0,4.0" stroke-linejoin="round" id="CircleArc_0" path-type="circle-arc" stroke-linecap="round" end-point="1266.8076,838.09125" start-point="1128.0,992.0" circle-center="1164.3706,885.2536" d="M1128.0 992.0 C1186.9009 1012.0687,  1251.0482 980.52515,  1271.117 921.6242C1280.825 893.13153,  1278.4554 863.4112,  1266.8076 838.09125" middle-point="1247.0,962.0" fill="none" stroke-width="3.0" display="none" stroke="#000000" stroke-opacity="0.2"/><path stroke-dasharray="4.0,4.0" stroke-linejoin="round" id="ConsecLine_3" d="M1128.0 992.0 C1108.3862 1050.4084,  1191.771 1061.9749,  1222.0 1038.0C1260.5153 1007.4534,  1292.2845 974.7009,  1310.0 931.0" stroke-linecap="round" fill="none" stroke-width="3.0" stroke="#000000" stroke-opacity="0.2"/><path stroke-dasharray="7.0,7.0" stroke-linejoin="round" id="ConsecLine_18" d="M1166.0 806.0 C1167.6193 798.66144,  1167.237 795.72266,  1169.5161 796.21295C1171.7953 796.70325,  1176.7356 800.62256,  1189.0 807.0C1204.7473 815.1886,  1222.3645 827.8281,  1228.0 802.0C1230.1484 792.15356,  1241.174 781.48645,  1244.0 772.0" stroke-linecap="round" fill="none" stroke-width="3.0" stroke="#000000" stroke-opacity="0.2"/><path stroke-dasharray="6.0,6.0" stroke-linejoin="round" id="ConsecLine_4" d="M1241.2246 1022.0095 C1277.2764 1014.7101,  1425.8285 1026.0662,  1438.0 1019.0C1451.9338 1010.9109,  1408.7042 971.41113,  1400.9348 964.0881C1383.714 947.83606,  1363.9354 926.8798,  1360.8533 903.1981C1358.2249 883.13794,  1404.8276 869.0383,  1419.7393 865.3523C1437.4835 860.97003,  1457.4238 865.78357,  1475.5925 863.5504C1500.3829 860.4949,  1524.5865 869.9015,  1536.4132 892.7926" stroke-linecap="round" fill="none" stroke-width="3.0" stroke="#000000" stroke-opacity="0.6666667"/><path stroke-dasharray="7.0,7.0" stroke-linejoin="round" id="ConsecLine_19" d="M1166.0 806.0 C1155.1246 803.65314,  1161.3217 810.74133,  1164.246 820.6743" stroke-linecap="round" fill="none" stroke-width="3.0" stroke="#000000" stroke-opacity="0.2"/><path stroke-linejoin="round" id="ConsecLine_7" d="M1558.7502 974.99854 C1535.683 908.2001,  1609.4633 912.5592,  1534.2222 855.8889" stroke-linecap="round" fill="none" stroke-width="5.0" display="none" stroke="#000000" stroke-opacity="1.0"/><path stroke-linejoin="round" id="CircleArc_2" path-type="circle-arc" stroke-linecap="round" end-point="1128.0,992.0" start-point="1121.0,954.0" circle-center="1056.3235,985.55884" d="M1121.0 954.0 C1127.0261 966.34985,  1129.1892 979.5915,  1128.0 992.0" middle-point="1127.0,972.0" fill="none" stroke-width="5.0" stroke="#000000" stroke-opacity="1.0"/></g></svg>