<svg xmlns="http://www.w3.org/2000/svg" xmlns:xlink="http://www.w3.org/1999/xlink" width="2716.0" height="1528.0" background="#FFFFFF"><g type="COMPO" id="CompositeShape_6"><path rough-pts="1401.3611,703.3611 1389.6471,684.94965 1373.5494,672.1466 1354.3103,664.047 1344.4901,663.2217 1343.0,654.0 1333.9521,653.4246 1324.8506,652.8053 1315.8082,652.59344 1306.9381,653.24054 1298.3539,655.1984 1291.6794,658.77783 1281.062,665.5604 1261.7786,681.86536 1245.3054,700.1179 1234.8203,719.15155 1225.1903,726.86755 1221.3489,743.62427 1221.0625,750.7467 1224.4558,755.45605 1223.799,770.7561 1234.595,784.1005 1250.8695,792.11365 1270.041,796.12885 1289.5282,797.47974 1306.75,797.5 1312.91,830.73474 1313.944,850.8719 1314.8525,864.93176 1313.4554,899.6241 1309.596,934.34424 1304.1516,968.62524 1301.259,984.1269 1301.1196,988.3133 1300.1907,1006.1203 1300.125,1007.4248 1310.7767,1027.6375 1326.2971,1047.4481 1343.2205,1065.2109 1351.2562,1073.9025 1356.0269,1079.4623 1360.2056,1084.7046 1375.9124,1109.7079 1389.0001,1144.0 1595.039,1144.0 1597.1726,1128.0391 1602.0747,1094.2534 1606.9767,1052.5 1609.1101,1012.6353 1605.7075,984.5165 1594.0,978.0 1585.1924,988.34265 1571.141,989.50684 1554.2207,984.2235 1536.8066,975.2239 1521.2748,965.239 1510.0,957.0 1495.7949,946.6244 1478.8481,934.8756 1460.8772,922.39636 1443.6,909.8288 1428.735,897.81586 1418.0,887.0 1405.7003,867.81177 1404.6774,860.1906 1408.1592,866.90796 1413.4534,865.5134 1417.5701,862.26874 1420.6903,857.16766 1422.8938,850.4357 1424.2595,842.2977 1424.8668,832.97876 1424.795,822.7043 1423.1859,799.6103 1419.8121,775.39594 1415.3086,751.86255 1410.3091,730.8113 1405.4485,714.0437 " stroke-linejoin="round" id="Polygon_61" d="M1401.3611 703.3611 C1390.8665 678.5676,  1369.167 666.74585,  1344.8156 661.6655C1344.9126 659.66675,  1344.0243 656.67584,  1343.0 654.0C1325.4865 653.2147,  1307.0201 649.6037,  1291.3752 658.2254C1268.9335 673.6052,  1242.3805 696.77814,  1234.8203 719.15155C1224.5981 720.6006,  1221.2135 734.0095,  1221.0625 750.7467C1216.7551 798.3197,  1276.2927 797.9011,  1306.75 797.5C1322.3563 856.9233,  1312.567 923.4717,  1301.3026 984.411C1300.8553 994.12964,  1300.4015 1002.05725,  1300.1906 1006.12024C1322.1068 1061.7598,  1366.8756 1065.516,  1389.0 1144.0L1595.039 1144.0 C1594.6926 1136.4739,  1627.5654 962.8595,  1594.0 978.0C1583.2126 1009.6845,  1526.7091 969.9116,  1510.0 957.0C1485.477 938.0504,  1434.1954 907.0065,  1418.0 887.0C1411.1577 878.5476,  1406.1998 869.8746,  1402.6882 860.97003C1407.2382 867.35077,  1410.6313 866.98474,  1413.4534 865.5134C1422.736 861.0306,  1425.565 844.05884,  1424.795 822.7043C1423.7646 778.8379,  1408.3396 717.44037,  1401.3611 703.3611" stroke-linecap="round" path-type="area" fill="#35252b" fill-opacity="0.7882353067398071"/><path rough-pts="1469.5967,636.1619 1469.341,648.3041 1468.7314,659.58923 1468.8999,669.89185 1470.9777,679.0862 1476.0961,687.04663 1485.5695,694.3125 1485.5684,695.3226 1489.6819,719.39624 1495.5555,735.44446 1500.6106,742.57837 1506.2593,748.0093 1512.2775,752.3744 1518.4406,756.31055 1524.5245,760.45483 1530.3055,765.44446 1547.3751,788.49384 1562.6819,823.1219 1575.6119,864.35767 1585.5509,907.23 1591.8848,946.7677 1594.0,978.0 1583.987,934.1594 1569.2919,891.2091 1549.9298,849.5834 1525.9164,809.71674 1497.2681,772.0441 1464.0,737.0 1459.7074,719.5767 1456.7388,695.5015 1457.1963,685.45276 1457.414,680.251 1458.8135,671.10834 1460.631,661.7948 1462.967,652.6436 1465.922,643.98816 " stroke-linejoin="round" id="Polygon_31" d="M1469.5967 636.1619 C1470.1934 661.21857,  1461.8795 681.88715,  1485.3839 693.64624C1487.4426 712.63257,  1491.1525 728.2459,  1495.5555 735.44446C1504.923 751.8401,  1519.1963 754.1953,  1530.3055 765.44446C1565.7988 796.6506,  1594.3978 927.1551,  1594.0 978.0C1578.6672 889.71857,  1535.1455 804.17035,  1464.0 737.0C1460.3639 726.83636,  1456.9443 706.82825,  1456.1884 685.4891C1458.6671 669.66943,  1461.9692 649.8505,  1469.5967 636.1619" stroke-linecap="round" path-type="area" fill="#35252b" fill-opacity="0.7882353067398071"/><path rough-pts="1389.0,1144.0 1375.9124,1109.7079 1360.2056,1084.7046 1356.0269,1079.4623 1351.2562,1098.1864 1351.2562,1073.9027 1343.2205,1065.2109 1326.2971,1047.4481 1310.7767,1027.6375 1300.125,1007.4248 1300.125,1143.2285 " stroke-linejoin="round" id="Polygon_16" d="M1389.0 1144.0 C1380.6086 1114.2327,  1368.9598 1095.2151,  1356.5038 1080.041L1351.2562 1098.1864 L1351.2562 1073.9027 C1332.9698 1053.1528,  1313.0435 1038.4232,  1300.1251 1007.4248L1300.125 1143.2285 L1389.0 1144.0 " stroke-linecap="round" path-type="area" fill="#35252b" fill-opacity="0.7882353067398071"/><path rough-pts="1313.944,850.8719 1312.91,830.73474 1306.75,797.5 1289.5282,797.47974 1270.041,796.12885 1250.8695,792.11365 1234.595,784.1005 1223.799,770.7561 1224.4558,755.45605 1221.6172,765.3993 1224.315,788.1697 1227.7628,807.9128 1229.5111,820.5037 1230.2813,820.6062 1233.1334,821.3469 1239.7714,822.5018 1249.3619,823.3996 1258.9856,823.8173 1268.5751,824.2723 1278.0631,825.282 1287.3828,827.36395 1296.576,841.9419 1296.2281,848.35364 1299.5098,850.79834 " stroke-linejoin="round" id="Polygon_44" d="M1314.5109 850.84436 C1313.6798 832.669,  1311.2891 814.78314,  1306.75 797.5C1277.3301 797.88745,  1220.7769 798.2912,  1220.841 755.4423C1221.7233 780.8781,  1228.5701 811.63947,  1230.2813 820.6062C1249.1168 825.74023,  1268.9568 821.7827,  1287.3828 827.36395C1292.2207 828.83765,  1295.6465 836.5226,  1298.0283 847.96454C1301.8445 851.09973,  1307.7208 851.2722,  1313.5786 851.0005" stroke-linecap="round" path-type="area" fill="#cbd6a9" fill-opacity="0.3960784375667572"/><path rough-pts="1469.5967,636.1619 1469.341,648.3041 1468.7314,659.58923 1468.8999,669.89185 1470.9777,679.0862 1476.0961,687.04663 1485.5695,694.3125 1483.9667,667.4348 1485.6283,639.9443 1491.3054,617.0622 1501.3005,604.0299 1495.1545,604.0782 1487.233,606.2958 1479.9722,608.7778 1466.7102,621.4127 1459.1465,642.6149 1456.1873,668.5795 1457.1963,685.45276 1457.414,680.251 1458.8135,671.10834 1460.631,661.7948 1462.967,652.6436 1465.922,643.98816 " stroke-linejoin="round" id="Polygon_30" d="M1469.5967 636.1619 C1470.1934 661.21857,  1461.8795 681.88715,  1485.3839 693.64624C1481.695 659.5915,  1484.3612 615.33093,  1500.9434 603.5409C1493.4576 604.3753,  1486.1417 606.423,  1479.9722 608.7778C1460.0737 617.3326,  1455.0359 652.9576,  1456.1884 685.4891C1458.6671 669.66943,  1461.9692 649.8505,  1469.5967 636.1619" stroke-linecap="round" path-type="area" fill="#cbd6a9" fill-opacity="0.3960784375667572"/><path rough-pts="1227.7628,807.9128 1224.315,788.1697 1221.6172,765.3993 1221.0625,750.7467 1212.9354,756.9236 1206.9213,764.7533 1203.1571,773.7389 1201.7799,783.38324 1202.927,793.1892 1206.7355,802.66016 1210.0261,807.5448 1213.9259,811.7624 1218.3456,815.2883 1223.1948,818.09753 1228.3842,820.1653 1229.9996,818.81165 " stroke-linejoin="round" id="Polygon_32" d="M1227.7628 807.91284 C1224.8735 792.9593,  1220.8914 769.7156,  1221.0625 750.7467C1202.7872 761.1165,  1196.3657 784.38495,  1206.7355 802.66016C1211.8699 811.70886,  1220.1665 817.8515,  1229.5111 820.5036C1229.3073 815.6963,  1228.5786 812.135,  1227.7628 807.91284" stroke-linecap="round" path-type="area" fill="#35252b" fill-opacity="1.0"/><path rough-pts="1296.2281,848.35364 1296.576,841.9419 1287.3828,827.36395 1278.0631,825.282 1268.5751,824.2723 1258.9856,823.8173 1249.3619,823.3996 1239.7714,822.5018 1233.1334,821.3469 1229.5111,820.5037 1230.2813,820.6062 1242.6664,830.59564 1255.9879,838.601 1270.0398,844.631 1284.6156,848.69385 " stroke-linejoin="round" id="Polygon_42" d="M1298.0283 847.96454 C1295.6465 836.5226,  1292.2207 828.83765,  1287.3828 827.36395C1269.7245 822.01526,  1250.7677 825.427,  1232.6406 821.20197C1231.912 821.1234,  1230.703 820.8419,  1229.5111 820.50366C1230.0051 819.1863,  1230.1567 819.9539,  1230.2813 820.6062C1249.104 838.05646,  1272.251 847.9628,  1296.0049 850.4808" stroke-linecap="round" path-type="area" fill="#35252b" fill-opacity="0.7882353067398071"/><path rough-pts="1320.1632,910.0204 1320.2448,921.5305 1320.3263,933.04065 1320.4081,944.55096 1320.4897,956.0613 1320.5713,967.5714 1320.6531,979.0816 1319.7457,967.12415 1317.7025,955.2928 1315.6234,943.6272 1314.6073,932.16675 1315.7542,920.9513 " stroke-linejoin="round" id="Polygon_50" d="M1320.1632 910.0204 C1320.3265 933.0408,  1320.4897 956.0613,  1320.6531 979.0816C1320.7075 955.0673,  1307.3496 931.57117,  1320.1632 910.0204" stroke-linecap="round" path-type="area" fill-opacity="0.0"/><path rough-pts="1319.7457,967.12415 1317.7025,955.2928 1315.6234,943.6272 1314.6073,932.16675 1315.7542,920.9513 1320.1632,910.0204 1320.2448,921.5305 1320.3263,933.04065 1320.4081,944.55096 1320.4897,956.0613 1320.5713,967.5714 1320.6531,979.0816 " stroke-linejoin="round" id="Polygon_67" d="M1319.7458 967.12427 C1316.9819 947.2893,  1309.4852 927.9794,  1320.1632 910.0204C1320.3265 933.0408,  1320.4897 956.0613,  1320.6531 979.0816C1320.6621 975.0792,  1320.2986 971.09125,  1319.7458 967.12427" stroke-linecap="round" path-type="area" fill="#35252b" fill-opacity="0.7882353067398071"/><path rough-pts="1356.0269,1079.4623 1351.2562,1073.9027 1351.2562,1098.1864 " stroke-linejoin="round" id="Polygon_17" d="M1356.5038 1080.041 C1354.9419 1078.1383,  1353.3673 1076.296,  1351.7849 1074.5006L1351.2562 1098.1864 L1356.0269 1079.4623 " stroke-linecap="round" path-type="area" fill-opacity="0.0"/><path rough-pts="1298.0,1002.0 1300.1989,1005.9075 1301.1196,988.3133 1301.259,984.1269 " stroke-linejoin="round" id="Polygon_39" d="M1298.0 1002.0 C1298.5201 1003.4151,  1299.0542 1004.7977,  1299.6013 1006.1497C1300.4015 1002.05725,  1300.8553 994.12964,  1301.3353 983.78125C1300.2084 990.3308,  1299.1002 996.1977,  1298.0 1002.0" stroke-linecap="round" path-type="area" fill-opacity="0.0"/><path rough-pts="1527.8889,598.1111 1523.4607,598.32336 1518.9365,598.4468 1514.4098,598.7289 1509.974,599.4168 1505.7227,600.758 1501.75,603.0 1501.3005,604.0299 1503.4592,602.13806 1511.8685,600.4882 1520.1042,599.14154 " stroke-linejoin="round" id="Polygon_29" d="M1527.8889 598.1111 C1519.1917 598.7895,  1509.3549 597.45044,  1501.75 603.0C1501.4775 603.1719,  1501.2086 603.3522,  1500.9434 603.54083C1510.1786 600.6118,  1519.693 599.064,  1527.8889 598.1111" stroke-linecap="round" path-type="area" fill-opacity="0.0"/><path rough-pts="1501.75,603.0 1505.7227,600.758 1509.974,599.4168 1514.4098,598.7289 1518.9365,598.4468 1523.4607,598.32336 1527.8889,598.1111 1520.1042,599.14154 1511.8685,600.4882 1503.4592,602.13806 1501.3005,604.0299 " stroke-linejoin="round" id="Polygon_72" d="M1501.75 603.0 C1509.3549 597.45044,  1519.1917 598.7895,  1527.8889 598.1111C1519.693 599.064,  1510.1786 600.6118,  1501.001 602.6775C1501.2086 603.3522,  1501.4775 603.1719,  1501.75 603.0" stroke-linecap="round" path-type="area" fill="#35252b" fill-opacity="0.7882353067398071"/><path rough-pts="1233.0577,820.9348 1230.2813,820.6062 1229.9996,818.81165 " stroke-linejoin="round" id="Polygon_33" d="M1232.6406 821.20197 C1231.8525 821.01825,  1231.066 820.8201,  1230.2813 820.6062C1230.1567 819.9539,  1230.0051 819.1863,  1229.8307 818.3138C1230.703 820.8419,  1231.912 821.1234,  1233.1335 821.3469" stroke-linecap="round" path-type="area" fill-opacity="0.0"/><path stroke-linejoin="round" id="ConsecLine_47" d="M1400.0 760.0 C1394.4296 807.34845,  1387.5313 849.3616,  1418.0 887.0C1434.1954 907.0065,  1485.477 938.0504,  1510.0 957.0C1526.7091 969.9116,  1583.2126 1009.6845,  1594.0 978.0" stroke-linecap="round" fill="none" stroke-width="5.0" stroke="#000000" stroke-opacity="0.76862746"/><line x1="1356.0269" y1="1079.4623" x2="1351.2562" id="StraightLine_532" stroke-linecap="round" y2="1098.1866" fill="none" stroke-width="5.0" stroke="#000000" stroke-opacity="0.76862746"/><line x1="1352.0" y1="1085.9999" x2="1351.2562" id="StraightLine_534" stroke-linecap="round" y2="1098.1864" fill="none" stroke-width="5.0" stroke="#000000" stroke-opacity="0.76862746"/><line x1="1351.2562" y1="1073.9025" x2="1349.307" id="StraightLine_538" stroke-linecap="round" y2="1105.8363" fill="none" stroke-width="5.0" stroke="#000000" stroke-opacity="0.76862746"/><path stroke-linejoin="round" id="CircleArc_1" path-type="circle-arc" stroke-linecap="round" end-point="1233.8241,821.46686" start-point="1221.0625,750.7467" circle-center="1239.8557,783.86694" d="M1221.0625 750.7467 C1202.7872 761.1165,  1196.3657 784.38495,  1206.7355 802.66016C1212.648 813.0801,  1222.7537 819.6465,  1233.8241 821.46686" middle-point="1202.0,788.0" fill="none" stroke-width="5.0" stroke="#000000" stroke-opacity="0.76862746"/><path stroke-linejoin="round" id="CircleArc_4" path-type="circle-arc" stroke-linecap="round" end-point="1314.5159,850.9532" start-point="1230.2813,820.6062" circle-center="1308.1089,736.6576" d="M1230.2813 820.6062 C1253.9781 842.57526,  1284.5288 852.5875,  1314.5159 850.9532" middle-point="1262.4889,841.64966" fill="none" stroke-width="5.0" display="none" stroke="#000000" stroke-opacity="0.76862746"/><path stroke-linejoin="round" id="ConsecLine_38" d="M1320.6531 979.0816 C1320.7075 955.0673,  1307.3496 931.57117,  1320.1632 910.0204C1320.3265 933.0408,  1320.4897 956.0613,  1320.6531 979.0816C1330.8301 977.2585,  1340.7478 970.6266,  1346.4694 962.18365C1348.5537 980.5759,  1342.6749 1006.3235,  1348.6123 1023.32654C1351.4265 1030.481,  1359.9058 1028.5574,  1368.3093 1024.2278C1376.8217 1019.9118,  1385.258 1013.19,  1387.8776 1010.7347C1385.0553 1054.7888,  1388.2925 1099.7952,  1389.0 1144.0" stroke-linecap="round" fill="none" stroke-width="5.0" stroke="#000000" stroke-opacity="0.76862746"/><line x1="1349.3069" y1="1137.8296" x2="1349.3069" id="StraightLine_540" stroke-linecap="round" y2="1105.8362" fill="none" stroke-width="5.0" stroke="#000000" stroke-opacity="0.76862746"/><path stroke-linejoin="round" id="CircleArc_0" path-type="circle-arc" stroke-linecap="round" end-point="1594.0,978.0" start-point="1464.0,737.0" circle-center="1164.7051,1054.0076" d="M1464.0 737.0 C1535.1455 804.17035,  1578.6672 889.71857,  1594.0 978.0" middle-point="1550.0,850.0" fill="none" stroke-width="5.0" display="none" stroke="#000000" stroke-opacity="0.76862746"/><line x1="1389.0001" y1="1144.0" x2="1595.039" id="StraightLine_816" stroke-linecap="round" y2="1144.0" fill="none" stroke-width="5.0" display="none" stroke="#000000" stroke-opacity="0.76862746"/><path stroke-linejoin="round" id="ConsecLine_34" d="M1221.0625 750.7467 C1216.7551 798.3197,  1276.2927 797.9011,  1306.75 797.5C1323.8723 862.6958,  1310.4255 936.4684,  1298.0 1002.0" stroke-linecap="round" fill="none" stroke-width="5.0" stroke="#000000" stroke-opacity="0.76862746"/><path stroke-linejoin="round" id="ConsecLine_43" d="M1594.0 978.0 C1627.5654 962.8595,  1594.6926 1136.4739,  1595.039 1144.0" stroke-linecap="round" fill="none" stroke-width="5.0" display="none" stroke="#000000" stroke-opacity="0.76862746"/><path stroke-linejoin="round" id="ConsecLine_15" d="M1298.0 1002.0 C1319.9166 1061.6213,  1366.3378 1063.6079,  1389.0 1144.0" stroke-linecap="round" fill="none" stroke-width="5.0" stroke="#000000" stroke-opacity="0.76862746"/><path stroke-linejoin="round" id="ConsecLine_29" d="M1324.0 640.0 C1315.5405 640.69604,  1247.6846 681.0813,  1234.8203 719.15155C1208.6516 722.86115,  1227.2936 804.951,  1230.2813 820.6062C1249.1168 825.74023,  1268.9568 821.7827,  1287.3828 827.36395C1310.9684 834.5486,  1300.9911 989.35974,  1300.125 1007.4248" stroke-linecap="round" fill="none" stroke-width="5.0" stroke="#000000" stroke-opacity="0.76862746"/><path stroke-linejoin="round" id="ConsecLine_27" d="M1464.0 737.0 C1454.8208 711.3419,  1447.0214 622.9441,  1479.9722 608.7778C1493.6478 603.558,  1512.9564 599.8472,  1527.8889 598.1111C1519.1917 598.7895,  1509.3549 597.45044,  1501.75 603.0C1475.5929 619.49713,  1482.5494 714.18097,  1495.5555 735.44446C1504.923 751.8401,  1519.1963 754.1953,  1530.3055 765.44446C1565.7988 796.6506,  1594.3978 927.1551,  1594.0 978.0" stroke-linecap="round" fill="none" stroke-width="5.0" stroke="#000000" stroke-opacity="0.76862746"/><path stroke-linejoin="round" id="ConsecLine_28" d="M1456.3317 688.8894 C1458.2461 672.3392,  1461.4607 650.7631,  1469.5967 636.1619C1470.1934 661.2196,  1461.8788 681.88885,  1485.3868 693.6477" stroke-linecap="round" fill="none" stroke-width="5.0" display="none" stroke="#000000" stroke-opacity="0.76862746"/><line x1="1300.125" y1="1007.4248" x2="1300.125" id="StraightLine_525" stroke-linecap="round" y2="1143.2285" fill="none" stroke-width="5.0" display="none" stroke="#000000" stroke-opacity="0.76862746"/><path stroke-linejoin="round" id="ConsecLine_46" d="M1290.1683 658.9185 C1306.0652 649.41516,  1325.0339 653.19446,  1343.0 654.0C1358.8427 695.3851,  1342.1357 812.14154,  1362.7778 834.7778C1388.027 862.916,  1403.967 870.45917,  1413.4534 865.5134C1422.736 861.0306,  1425.565 844.05884,  1424.795 822.7043C1423.7646 778.8379,  1408.3396 717.44037,  1401.3611 703.3611C1383.1454 660.32666,  1331.1727 656.3722,  1290.1683 658.9185" stroke-linecap="round" fill="none" stroke-width="5.0" stroke="#000000" stroke-opacity="0.76862746"/><line x1="1351.2562" y1="1073.9027" x2="1351.2562" id="StraightLine_528" stroke-linecap="round" y2="1122.4705" fill="none" stroke-width="5.0" stroke="#000000" stroke-opacity="0.76862746"/><line x1="1300.125" y1="1143.2285" x2="1389.0" id="StraightLine_530" stroke-linecap="round" y2="1144.0" fill="none" stroke-width="5.0" display="none" stroke="#000000" stroke-opacity="0.76862746"/></g><circle r="5.0" cy="1144.0" cx="1323.0" id="PointShape_0" fill="#000000" fill-opacity="1.0"/><g type="COMPO" id="CompositeShape_18"><line x1="1447.5" y1="1094.9927" x2="1447.5" id="StraightLine_814" stroke-linecap="round" y2="1130.007" fill="none" stroke-width="5.0" stroke="#000000" stroke-opacity="0.76862746"/><line x1="1450.1443" y1="1095.0925" x2="1447.4999" id="StraightLine_815" stroke-linecap="round" y2="1130.0068" fill="none" stroke-width="5.0" stroke="#000000" stroke-opacity="0.76862746"/></g><g type="COMPO" id="CompositeShape_20"><path rough-pts="1313.0,691.0 1309.0148,689.4903 1304.5311,690.35516 1299.7184,692.5668 1294.7458,695.0968 1289.7832,696.91724 1285.0,697.0 1283.5558,696.6704 1282.3829,696.4635 1281.4706,696.3962 1280.8088,696.48517 1280.3868,696.7473 1280.1947,697.1995 1280.2509,697.7276 1280.5422,698.3614 1281.0664,699.08276 1281.8206,699.874 1282.802,700.71704 1284.0083,701.594 1287.0564,703.50323 1290.972,705.33344 1295.7344,706.9415 1301.3218,708.1841 1307.7136,708.91797 1314.8889,709.0 1322.0337,708.66394 1329.1683,708.308 1336.2821,707.7854 1343.3639,706.9494 1350.4031,705.65314 1357.3889,703.75 1352.4523,698.76685 1345.3827,695.28986 1337.0414,693.0471 1328.2896,691.766 1319.9886,691.1743 " stroke-linejoin="round" id="Polygon_53" d="M1313.0 691.0 C1305.6412 684.92053,  1294.2744 699.2575,  1285.0 697.0C1281.834 696.2294,  1280.3563 696.094,  1280.1947 697.1995C1280.0702 698.13837,  1281.3729 699.81805,  1284.0083 701.594C1289.2234 705.39606,  1299.769 709.5833,  1314.8889 709.0C1329.1818 708.25,  1343.4779 708.2611,  1357.3889 703.75C1350.2233 692.09595,  1325.0908 691.113,  1313.0 691.0" stroke-linecap="round" path-type="area" fill-opacity="0.0"/><path stroke-linejoin="round" id="ConsecLine_44" d="M1313.0 691.0 C1305.6412 684.92053,  1294.2744 699.2575,  1285.0 697.0C1281.834 696.2294,  1280.3563 696.094,  1280.1947 697.1995C1280.0702 698.13837,  1281.3729 699.81805,  1284.0083 701.594C1289.2234 705.39606,  1299.769 709.5833,  1314.8889 709.0C1329.1818 708.25,  1343.4779 708.2611,  1357.3889 703.75C1350.2233 692.09595,  1325.0908 691.113,  1313.0 691.0" stroke-linecap="round" fill="none" stroke-width="5.0" stroke="#000000" stroke-opacity="0.76862746"/></g><g type="COMPO" id="CompositeShape_21"><path rough-pts="1249.0,741.0 1262.6548,740.8092 1276.3303,740.17126 1290.0149,739.3788 1303.6958,738.72424 1317.3616,738.5004 1331.0,739.0 1319.3986,734.0762 1306.2588,732.6264 1292.1147,733.6223 1277.5007,736.0354 1262.9509,738.8374 " stroke-linejoin="round" id="Polygon_54" d="M1249.0 741.0 C1276.2811 741.2608,  1303.7584 737.0825,  1331.0 739.0C1309.6921 724.9929,  1275.9471 738.0,  1249.0 741.0" stroke-linecap="round" path-type="area" fill-opacity="0.0"/><path stroke-linejoin="round" id="ConsecLine_45" d="M1249.0 741.0 C1276.2811 741.2608,  1303.7584 737.0825,  1331.0 739.0C1309.6921 724.9929,  1275.9471 738.0,  1249.0 741.0" stroke-linecap="round" fill="none" stroke-width="5.0" stroke="#000000" stroke-opacity="0.76862746"/></g></svg>