<svg xmlns="http://www.w3.org/2000/svg" xmlns:xlink="http://www.w3.org/1999/xlink" width="480.0" height="800.0" background="#FFFFFF"><g type="COMPO" id="CompositeShape_15"/><g type="COMPO" id="CompositeShape_18"/><g type="COMPO" id="CompositeShape_24"><path rough-pts="256.0,761.00006 170.00002,762.0 168.31473,689.35693 168.13078,580.4772 167.72772,456.83105 167.29868,419.50107 165.38516,339.8891 159.38272,251.12193 150.5226,217.43506 154.7472,224.95935 156.1124,234.25519 155.07195,243.4677 151.74234,252.12022 146.24028,259.73627 138.68228,265.83914 129.77968,269.72662 120.48384,271.0918 111.27135,270.05133 102.61878,266.72174 95.00278,261.21967 89.480225,253.87396 89.0,253.0 88.8999,253.66168 85.696754,248.35452 82.305176,245.5477 79.1325,243.59415 76.485916,241.50853 74.672676,238.3056 74.0,233.0 72.71198,206.06256 76.15126,181.92345 83.583534,160.79887 94.2745,142.90497 107.48985,128.45792 122.49532,117.67392 138.5566,110.76915 154.93939,107.95978 185.73242,115.49199 198.67401,126.26592 200.89883,135.07976 200.33112,138.91444 198.32191,156.9583 195.89279,181.68115 193.4347,210.90651 191.33865,242.45796 189.99567,274.15915 189.96881,289.51154 190.71988,304.27557 192.24197,318.08746 194.52818,330.58316 197.57161,341.3988 201.36542,350.17056 206.22963,356.8614 212.12558,361.07565 219.13318,362.53632 227.33234,360.9661 236.80295,356.08804 234.07735,348.37048 239.12299,434.52896 245.61963,567.80597 251.0951,683.6857 " stroke-linejoin="round" id="Polygon_63" d="M256.0 761.00006 L170.00002 762.0 C164.2318 671.20795,  176.21797 262.39746,  151.441 215.94615C161.04329 233.91556,  155.48228 255.64282,  138.68228 265.83914C121.58806 276.21405,  99.274796 270.75592,  88.8999 253.66168C82.68596 241.21402,  74.0 246.37024,  74.0 233.0C66.20718 176.47095,  91.18381 135.43475,  122.49532 117.67392C151.05103 101.476265,  184.87561 104.63721,  203.91792 133.05992C198.3383 154.6552,  191.47633 219.17383,  189.99567 274.15915C189.15952 305.2097,  193.03206 334.91364,  201.36542 350.17056C208.91594 363.69553,  220.71884 367.39377,  238.62283 354.85556C244.13228 504.49228,  250.19923 699.00665,  256.0 761.0" stroke-linecap="round" path-type="area" fill="#ffbd00" fill-opacity="0.6000000238418579"/><path rough-pts="234.07735,348.37048 236.80295,356.08804 227.33234,360.9661 219.13318,362.53632 212.12558,361.07565 206.22963,356.8614 201.36542,350.17056 197.57161,341.3988 194.52818,330.58316 192.24197,318.08746 190.71988,304.27557 189.96881,289.51154 189.99567,274.15915 191.33865,242.45796 193.4347,210.90651 195.89279,181.68115 198.32191,156.9583 200.33112,138.91444 200.89883,135.07976 209.0,142.0 221.26375,200.4575 231.15454,305.02332 " stroke-linejoin="round" id="Polygon_85" d="M238.62283 354.85556 C220.71884 367.39377,  208.91594 363.69553,  201.36542 350.17056C193.03206 334.91364,  189.15952 305.2097,  189.99567 274.15915C191.47633 219.17383,  198.3383 154.6552,  200.81108 134.9895C205.75563 135.8029,  207.45566 138.78116,  209.0 142.0C219.66077 164.22008,  227.71922 248.44519,  234.15195 348.797" stroke-linecap="round" path-type="area" fill-opacity="0.0"/><path rough-pts="201.52942,129.72598 200.89883,135.07976 209.0,142.0 221.26375,200.4575 231.15454,305.02332 234.07735,348.37048 247.625,347.625 261.0971,320.91205 265.53726,279.24673 261.3731,230.9623 249.03204,184.39189 228.94164,147.86871 " stroke-linejoin="round" id="Polygon_86" d="M201.52942 129.72598 C201.3776 130.65074,  201.13109 132.44453,  200.81108 134.9895C205.75563 135.8029,  207.45566 138.78116,  209.0 142.0C219.66077 164.22008,  227.71922 248.44519,  234.15195 348.797C241.46712 352.8637,  244.46536 350.4621,  247.625 347.625C283.88617 314.70694,  263.39066 142.07555,  201.52942 129.72598" stroke-linecap="round" path-type="area" fill="#ffbd00" fill-opacity="0.6000000238418579"/><path rough-pts="203.3038,456.56613 198.62,483.92825 195.84563,509.5573 195.08344,533.26416 196.27887,555.9761 199.37744,578.6206 204.32468,602.12524 220.83635,567.6903 228.32874,535.17816 226.76152,504.3461 216.0943,474.9511 " stroke-linejoin="round" id="Polygon_56" d="M203.27786 456.3918 C191.68616 516.2688,  192.67888 553.8902,  204.32468 602.12524C236.9905 546.96063,  237.09218 499.65002,  203.94731 456.08533" stroke-linecap="round" path-type="area" fill="#9933cc" fill-opacity="0.6000000238418579"/><path rough-pts="89.480225,253.87396 88.8999,253.66168 96.615524,254.86609 104.70336,253.93655 112.56198,251.2975 119.84924,247.26225 125.70451,242.36647 129.5264,237.03453 130.71349,231.69093 128.66441,226.76018 122.77778,222.66667 116.317245,221.59955 108.01553,222.72156 98.75279,225.22766 89.40917,228.3128 80.86485,231.17194 74.0,233.0 74.672676,238.3056 76.485916,241.50853 79.1325,243.59415 82.305176,245.5477 85.696754,248.35452 88.8999,253.66168 89.0,253.0 " stroke-linejoin="round" id="Polygon_64" d="M89.31968 253.58678 C89.31968 253.58678,  89.31968 253.58678,  89.31968 253.58678C96.22899 256.0746,  105.01844 254.64984,  112.56198 251.2975C128.16757 244.3706,  138.78957 229.73344,  122.77778 222.66667C112.28468 217.80655,  85.4635 230.91167,  74.0 233.0C74.0 246.37024,  82.68596 241.21402,  88.99922 252.99858C89.00797 253.83975,  89.11734 254.01656,  89.22798 254.1921" stroke-linecap="round" path-type="area" fill-opacity="0.0"/><path rough-pts="122.77778,222.66667 128.66441,226.76018 130.71349,231.69093 129.5264,237.03453 125.70451,242.36647 119.84924,247.26225 112.56198,251.2975 104.70336,253.93655 96.615524,254.86609 88.8999,253.66168 89.0,253.0 85.696754,248.35452 82.305176,245.5477 79.1325,243.59415 76.485916,241.50853 74.672676,238.3056 74.0,233.0 80.86485,231.17194 89.40917,228.3128 98.75279,225.22766 108.01553,222.72156 116.317245,221.59955 " stroke-linejoin="round" id="Polygon_61" d="M122.77778 222.66667 C138.78957 229.73344,  128.16757 244.3706,  112.56198 251.2975C105.01844 254.64984,  96.22899 256.0746,  88.8999 253.66168C89.21281 253.39394,  89.10625 253.19835,  89.0 253.0C82.68666 241.2136,  74.0 246.37079,  74.0 233.0C85.4635 230.91167,  112.28468 217.80655,  122.77778 222.66667" stroke-linecap="round" path-type="area" fill="#9933cc" fill-opacity="0.6000000238418579"/><path rough-pts="150.5226,217.43506 148.0,212.0 145.85036,216.70328 142.76802,222.92023 138.88187,230.12653 134.32074,237.79788 129.21358,245.41011 123.68925,252.4389 117.87661,258.35992 111.90457,262.64902 105.90201,264.78183 99.997795,264.23407 94.32082,260.48157 89.480225,253.87396 95.00278,261.21967 102.61878,266.72174 111.27135,270.05133 120.48384,271.0918 129.77968,269.72662 138.68228,265.83914 146.24028,259.73627 151.74234,252.12022 155.07195,243.4677 156.1124,234.25519 154.7472,224.95935 " stroke-linejoin="round" id="Polygon_66" d="M151.441 215.94615 C150.36484 213.92859,  149.21933 212.59462,  148.0 212.0C144.71936 219.54344,  135.06918 239.31433,  123.68925 252.4389C112.42785 265.42676,  99.47256 271.90607,  89.31968 253.58678C99.73909 270.86792,  121.76612 276.106,  138.68228 265.83914C155.48228 255.64282,  161.04329 233.91556,  151.38141 216.94398" stroke-linecap="round" path-type="area" fill="#ffbd00" fill-opacity="0.6000000238418579"/><path rough-pts="74.0,233.0 74.672676,238.3056 76.485916,241.50853 79.1325,243.59415 82.305176,245.5477 85.696754,248.35452 89.0,253.0 88.8999,253.66168 82.15784,249.89883 76.99074,243.15309 " stroke-linejoin="round" id="Polygon_58" d="M74.0 233.0 C74.0 246.37079,  82.68666 241.2136,  89.0 253.0C89.10625 253.19835,  89.21281 253.39394,  89.31968 253.58678C81.570816 251.2488,  75.702095 244.99826,  74.0 233.0" stroke-linecap="round" path-type="area" fill="#9933cc" fill-opacity="0.6000000238418579"/><path rough-pts="88.8999,253.66168 82.15784,249.89883 76.99074,243.15309 74.0,233.0 74.672676,238.3056 76.485916,241.50853 79.1325,243.59415 82.305176,245.5477 85.696754,248.35452 88.8999,253.66168 89.0,253.0 89.480225,253.87396 " stroke-linejoin="round" id="Polygon_94" d="M88.8999 253.66168 C81.570816 251.2488,  75.702095 244.99826,  74.0 233.0C74.0 246.37024,  82.68596 241.21402,  88.99922 252.99858C89.00797 253.83975,  89.11734 254.01656,  89.22798 254.1921" stroke-linecap="round" path-type="area" fill="#ffbd00" fill-opacity="0.6000000238418579"/><path rough-pts="150.85974,216.05676 150.40009,215.319 149.92886,214.60025 149.4497,213.90477 148.9661,213.23672 148.48166,212.60039 148.0,212.0 150.5226,217.43506 " stroke-linejoin="round" id="Polygon_67" d="M150.85974 216.05676 C149.95442 214.5651,  148.95819 213.16203,  148.0 212.0C149.21933 212.59462,  150.36484 213.92859,  151.441 215.94615C151.21219 216.64676,  151.03831 216.35098,  150.85974 216.05676" stroke-linecap="round" path-type="area" fill-opacity="0.0"/><path stroke-linejoin="round" id="ConsecLine_38" d="M74.0 233.0 C66.20718 176.47095,  91.18381 135.43475,  122.49532 117.67392C153.80684 99.913086,  191.45325 105.427605,  209.0 142.0C236.20091 198.69441,  246.4604 659.0495,  256.0 761.0" stroke-linecap="round" fill="none" stroke-width="3.0" stroke="#000000" stroke-opacity="1.0"/><path stroke-linejoin="round" id="ConsecLine_39" d="M74.0 233.0 C74.0 246.37079,  82.68666 241.2136,  89.0 253.0C99.19963 272.04175,  112.30931 265.56348,  123.68925 252.4389C135.06918 239.31433,  144.71936 219.54344,  148.0 212.0C177.29268 226.28499,  163.98126 667.26447,  170.0 762.0" stroke-linecap="round" fill="none" stroke-width="3.0" stroke="#000000" stroke-opacity="1.0"/><path stroke-linejoin="round" id="CircleArc_26" path-type="circle-arc" stroke-linecap="round" end-point="148.0,212.0" start-point="88.8999,253.66168" circle-center="119.87982,234.85922" d="M88.8999 253.66168 C99.274796 270.75592,  121.58806 276.21405,  138.68228 265.83914C155.7765 255.46425,  161.23463 233.15099,  150.85974 216.05676C149.95442 214.5651,  148.95819 213.16203,  148.0 212.0" middle-point="140.0,265.0" fill="none" stroke-width="3.0" stroke="#000000" stroke-opacity="1.0"/><path stroke-linejoin="round" id="ConsecLine_57" d="M201.52942 129.72598 C200.20445 137.7966,  191.66795 212.05807,  189.99567 274.15915C189.15952 305.2097,  193.03206 334.91364,  201.36542 350.17056C210.11543 365.84415,  224.57625 368.3208,  247.625 347.625C283.88617 314.70694,  263.39066 142.07555,  201.52942 129.72598" stroke-linecap="round" fill="none" stroke-width="3.0" stroke="#000000" stroke-opacity="1.0"/><path stroke-linejoin="round" id="ConsecLine_48" d="M74.0 233.0 C85.4635 230.91167,  112.28468 217.80655,  122.77778 222.66667C138.78957 229.73344,  128.16757 244.3706,  112.56198 251.2975C97.4749 258.00217,  77.40419 256.99652,  74.0 233.0" stroke-linecap="round" fill="none" stroke-width="3.0" stroke="#000000" stroke-opacity="1.0"/><line x1="170.00002" y1="762.0" x2="256.0" id="StraightLine_746" stroke-linecap="round" y2="761.00006" fill="none" stroke-width="3.0" stroke="#000000" stroke-opacity="1.0"/><path stroke-linejoin="round" id="ConsecLine_46" d="M203.46097 455.44946 C191.67606 515.8752,  192.6179 553.63763,  204.32468 602.12524C246.34044 531.17084,  234.48248 473.21005,  167.29868 419.50107" stroke-linecap="round" fill="none" stroke-width="3.0" stroke="#000000" stroke-opacity="1.0"/></g><line x1="194.0" y1="762.0" x2="194.0" id="StraightLine_745" stroke-linecap="round" y2="798.0" fill="none" stroke-width="3.0" stroke="#000000" stroke-opacity="1.0"/><g type="COMPO" id="CompositeShape_27"/><g type="COMPO" id="CompositeShape_28"><path rough-pts="126.4529,146.55057 125.37796,152.24062 126.3134,157.68463 128.79736,162.4971 132.36806,166.29251 136.56369,168.68536 141.20023,170.03087 146.20476,170.98056 151.28214,171.59341 156.13724,171.92828 160.47488,172.04417 164.0,172.0 167.13667,159.9224 165.11952,151.69934 159.17296,146.51321 150.52126,143.54636 140.38882,141.98117 130.0,141.0 " stroke-linejoin="round" id="Polygon_54" d="M126.4529 146.55058 C122.72951 156.02486,  129.30675 166.08026,  136.56369 168.68536C145.27202 171.81148,  157.95912 172.20914,  164.0 172.0C176.24341 143.44519,  150.2178 142.92339,  130.0 141.0C128.3543 142.78412,  127.197586 144.65573,  126.4529 146.55058" stroke-linecap="round" path-type="area" fill="#9933cc" fill-opacity="0.6000000238418579"/><path stroke-linejoin="round" id="ConsecLine_44" d="M130.0 141.0 C120.12579 151.70468,  127.855354 165.55925,  136.56369 168.68536C145.27202 171.81148,  157.95912 172.20914,  164.0 172.0C176.24341 143.44519,  150.2178 142.92339,  130.0 141.0" stroke-linecap="round" fill="none" stroke-width="3.0" display="none" stroke="#000000" stroke-opacity="1.0"/></g><g type="COMPO" id="CompositeShape_31"><path rough-pts="227.0,642.0 211.24873,648.64435 200.33707,661.5854 193.41068,678.7073 189.61522,697.89417 188.09644,717.0303 188.0,734.0 213.98047,731.2957 228.16649,721.63617 233.55977,706.4491 233.16199,687.1622 229.97481,665.2032 " stroke-linejoin="round" id="Polygon_57" d="M227.0 642.0 C190.08841 647.5817,  187.34006 703.6377,  188.0 734.0C253.75656 736.4988,  230.73618 688.6988,  227.0 642.0" stroke-linecap="round" path-type="area" fill="#9933cc" fill-opacity="0.6000000238418579"/><path stroke-linejoin="round" id="ConsecLine_47" d="M227.0 642.0 C190.08841 647.5817,  187.34006 703.6377,  188.0 734.0C253.75656 736.4988,  230.73618 688.6988,  227.0 642.0" stroke-linecap="round" fill="none" stroke-width="3.0" display="none" stroke="#000000" stroke-opacity="1.0"/></g><g type="COMPO" id="CompositeShape_29"><path rough-pts="204.0,250.0 198.79338,266.61166 195.17455,291.17242 193.16466,319.7369 192.78482,348.35986 194.05621,373.09598 197.0,390.0 204.56444,383.40558 209.11516,365.03995 210.9931,338.7099 210.53925,308.22205 208.09453,277.38318 " stroke-linejoin="round" id="Polygon_55" d="M204.0 250.0 C192.01314 272.64417,  189.42593 366.65427,  197.0 390.0C215.37 391.1203,  213.6116 298.7728,  204.0 250.0" stroke-linecap="round" path-type="area" fill="#0000ff" fill-opacity="0.3960784375667572"/><path stroke-linejoin="round" id="ConsecLine_45" d="M204.0 250.0 C192.01314 272.64417,  189.42593 366.65427,  197.0 390.0C215.37 391.1203,  213.6116 298.7728,  204.0 250.0" stroke-linecap="round" fill="none" stroke-width="3.0" display="none" stroke="#000000" stroke-opacity="1.0"/></g></svg>