<svg xmlns="http://www.w3.org/2000/svg" xmlns:xlink="http://www.w3.org/1999/xlink" width="480.0" height="764.0" background="#FFFFFF"><g type="COMPO" id="CompositeShape_0"><path rough-pts="215.58,604.3025 178.08026,599.1948 142.59532,607.058 110.341,621.7991 82.533104,637.3251 60.387497,647.54297 45.12,646.36 30.103481,624.0223 30.54867,597.79724 40.839237,571.0049 55.358864,546.96497 68.49123,528.9975 74.62,520.4225 74.830444,518.97797 74.82456,517.5016 74.674484,516.0041 74.452286,514.49585 74.23009,512.9876 74.08,511.49 62.922325,511.44855 52.103592,511.23184 41.4879,510.7375 30.93933,509.86273 20.321999,508.50525 9.5,506.5625 8.41078,478.36877 12.180349,460.36234 21.260384,450.06482 36.102554,444.9975 57.15853,442.68207 84.88,440.64 78.19502,423.16574 55.462223,408.1912 27.489971,389.88797 5.086603,362.42767 -0.9395046,319.982 20.22,256.7225 25.165121,275.89478 29.862606,296.56387 36.129646,316.35986 45.78343,332.91284 60.641144,343.85284 82.520004,346.81 67.10424,328.09946 52.56164,293.24347 41.375072,250.51894 36.027367,208.20267 39.00139,174.57156 52.78,157.9025 60.580345,167.39024 71.2517,180.63751 83.11171,195.58322 94.478,210.16626 103.66821,222.32555 109.0,230.0 108.751434,204.33487 108.02406,178.6777 107.05156,153.02208 106.0676,127.36153 105.30584,101.68965 105.0,76.0 116.86404,88.7184 126.63344,104.7876 134.816,122.92949 141.91943,141.8659 148.4515,160.31879 154.92,177.01 193.59245,148.47372 218.70418,127.329544 238.91904,112.594864 262.90073,103.28714 299.3131,98.42386 356.82,97.0225 333.04416,107.30801 317.59808,122.60043 308.6603,141.35985 304.40912,162.0462 303.02283,183.11958 302.68,203.04 322.793,201.59767 347.9572,197.77559 375.5914,192.34245 403.11414,186.0668 427.9441,179.71727 447.5,174.0625 429.44678,195.00087 405.93036,221.18451 380.3532,250.09937 356.11752,279.2313 336.62567,306.0662 325.28,328.09 363.8702,330.7409 395.60455,323.06198 421.28488,309.6071 441.713,294.92972 457.69073,283.58362 470.02,280.1225 470.15134,297.6993 470.25583,321.20975 469.7493,347.23248 468.04733,372.34604 464.5656,393.129 458.72,406.16 443.0641,415.7177 417.2943,426.89917 388.82587,440.52142 365.07388,457.40137 353.45352,478.35608 361.38,504.2025 377.23236,517.6867 400.53357,530.75696 425.32236,545.5808 445.63724,564.3259 455.51688,589.15967 449.0,622.25 423.761,647.73773 384.71768,654.2116 338.12408,647.3883 290.23395,632.98444 247.30127,616.7169 " stroke-linejoin="round" id="Polygon_0" d="M215.58 604.3025 C139.37634 577.05444,  67.966324 664.18896,  45.12 646.36C-4.118946 607.7853,  73.110245 525.9669,  74.62 520.4225C75.30528 517.5725,  74.26 514.4675,  74.08 511.49C51.335136 511.51416,  31.439259 511.10162,  9.5 506.5625C2.763886 438.33545,  22.47047 446.10315,  84.88 440.64C94.76344 399.30624,  -56.49019 407.94086,  20.220001 256.7225C31.569353 291.99036,  30.529697 350.45847,  82.520004 346.81C52.470554 331.05237,  12.762966 168.76067,  52.78 157.9025C64.38811 171.74443,  103.316444 220.51001,  109.0 230.0C109.13749 178.65753,  105.0 127.40135,  105.0 76.0C131.16121 97.233955,  141.70811 146.24133,  154.92 177.01C251.60152 111.890465,  214.93587 97.01833,  356.82 97.0225C299.7241 111.55994,  303.53674 165.3788,  302.68 203.04C336.13388 203.0475,  415.3832 184.16489,  447.5 174.0625C419.12497 209.01791,  337.55695 290.52957,  325.28 328.09C409.85092 346.75732,  448.47543 276.12405,  470.02 280.1225C469.92 307.06152,  473.1648 390.13092,  458.72 406.16C442.46555 424.1964,  321.0368 447.0732,  361.38 504.2025C381.66165 533.03,  482.40463 546.368,  449.0 622.25C416.49567 696.0509,  263.64185 621.467,  215.58 604.3025" stroke-linecap="round" path-type="area" fill="#0000ff" fill-opacity="0.7490196228027344"/><path rough-pts="400.79984,732.49664 389.21637,721.38434 379.15674,707.7088 370.0453,692.52344 361.30643,676.88104 352.36456,661.835 342.64417,648.4385 338.12408,647.3883 290.23395,632.98444 247.30127,616.7169 228.65593,609.2787 227.55789,631.8913 225.3795,660.564 224.12657,691.2181 225.80475,719.7743 232.41989,742.1537 245.97775,754.2774 274.98398,761.38873 301.70065,763.5925 326.73975,761.3778 350.7132,755.23315 374.23297,745.64746 398.4057,733.02856 398.89084,732.9323 399.3697,732.826 399.84537,732.71454 400.32098,732.603 " stroke-linejoin="round" id="Polygon_1" d="M400.79984 732.49664 C375.72552 713.5374,  363.24725 672.87994,  342.64417 648.4385C300.52588 638.96173,  256.24533 620.16376,  228.65594 609.2787C228.87743 645.7245,  210.58218 743.00507,  245.97775 754.2774C306.68774 773.7334,  349.98865 760.8117,  397.91104 733.1096C399.22134 732.8795,  399.9974 732.66693,  400.79984 732.49664" stroke-linecap="round" path-type="area" fill="#433d3d" fill-opacity="0.7882353067398071"/><path rough-pts="228.65593,609.2787 215.58,604.3025 178.08026,599.1948 142.59532,607.058 110.341,621.7991 99.32667,627.85657 95.37123,638.0545 90.19424,650.78845 84.11377,664.9675 77.44789,679.50037 70.51468,693.29596 63.632214,705.2632 57.83346,715.9086 54.204575,725.46423 53.43438,733.5692 56.211662,739.86224 63.225258,743.9828 75.16399,745.5697 96.0763,745.37 116.957184,744.22906 137.82928,742.59845 158.71518,740.9294 179.63751,739.67334 200.61896,739.28174 200.09001,718.02954 201.59802,695.36554 205.17584,672.22424 210.8562,649.5397 218.67197,628.2464 " stroke-linejoin="round" id="Polygon_3" d="M228.65594 609.2787 C223.72928 607.3349,  219.33484 605.6435,  215.58 604.3025C172.71544 588.97546,  131.36761 609.8398,  99.32667 627.8566C92.84942 644.98895,  77.13435 683.8846,  63.632214 705.2632C50.324074 727.40344,  45.90219 745.17004,  75.16399 745.5697C117.03514 746.41254,  158.58194 738.89954,  200.61896 739.28174C197.54602 698.81213,  206.49794 644.2656,  228.65593 609.2787" stroke-linecap="round" path-type="area" fill="#433d3d" fill-opacity="0.7882353067398071"/><path stroke-linejoin="round" id="ConsecLine_0" d="M109.0 230.0 C109.13749 178.65753,  105.0 127.40135,  105.0 76.0C131.16121 97.233955,  141.70811 146.24133,  154.92 177.01C251.60152 111.890465,  214.93587 97.01833,  356.82 97.0225C299.7241 111.55994,  303.53674 165.3788,  302.68 203.04C336.13388 203.0475,  415.3832 184.16489,  447.5 174.0625C419.12497 209.01791,  337.55695 290.52957,  325.28 328.09C409.85092 346.75732,  448.47543 276.12405,  470.02 280.1225C469.92 307.06152,  473.1648 390.13092,  458.72 406.16C442.46555 424.1964,  321.0368 447.0732,  361.38 504.2025C381.66165 533.03,  482.40463 546.368,  449.0 622.25C416.49567 696.0509,  263.64185 621.467,  215.58 604.3025C139.37634 577.05444,  67.966324 664.18896,  45.12 646.36C-4.118947 607.7853,  73.110245 525.9669,  74.62 520.4225C75.30528 517.5725,  74.26 514.4675,  74.08 511.49C51.335136 511.51416,  31.439259 511.10162,  9.5 506.5625C2.763886 438.33545,  22.47047 446.10315,  84.88 440.64C94.76344 399.30624,  -56.490192 407.94086,  20.22 256.7225C31.569353 291.99036,  30.529697 350.45847,  82.520004 346.81C52.470554 331.05237,  12.762964 168.76067,  52.78 157.9025C64.38811 171.74443,  103.316444 220.51001,  109.0 230.0" stroke-linecap="round" fill="none" stroke-width="3.0" display="none" stroke="#000000" stroke-opacity="1.0"/><path stroke-linejoin="round" id="ConsecLine_1" d="M228.65593 609.2787 C228.87743 645.7245,  210.58218 743.00507,  245.97775 754.2774C306.68774 773.7334,  349.98865 760.8117,  397.91104 733.1096C398.912 732.9662,  399.8369 732.701,  400.79984 732.49664C375.72552 713.5374,  363.24725 672.87994,  342.64417 648.4385" stroke-linecap="round" fill="none" stroke-width="3.0" display="none" stroke="#000000" stroke-opacity="1.0"/><path stroke-linejoin="round" id="ConsecLine_2" d="M99.32667 627.85657 C92.84942 644.98895,  77.13435 683.8846,  63.632214 705.2632C50.324074 727.40344,  45.90219 745.17004,  75.16399 745.5697C117.03514 746.41254,  158.58194 738.89954,  200.61896 739.28174C197.54602 698.81213,  206.49794 644.2656,  228.65593 609.2787" stroke-linecap="round" fill="none" stroke-width="3.0" display="none" stroke="#000000" stroke-opacity="1.0"/></g><g type="COMPO" id="CompositeShape_3"><path rough-pts="166.0,244.0 174.29893,237.02815 182.58975,235.77516 190.78667,239.33868 198.80374,246.81635 206.55511,257.3058 213.95497,269.90472 220.89606,283.8068 227.29457,298.10037 233.05907,311.90866 238.0979,324.35477 242.31961,334.56183 245.63266,341.65308 225.484,342.74628 209.77553,333.29257 196.40741,318.93845 183.27982,305.3304 168.29294,298.11502 149.34694,302.93878 142.80318,307.73672 136.62076,313.41867 130.57347,319.4649 126.5268,321.76538 125.15642,308.66003 129.28069,293.96246 136.89526,279.99048 146.53206,266.90125 156.72299,254.852 " stroke-linejoin="round" id="Polygon_7" d="M166.0 244.0 C182.54874 223.73593,  199.56407 243.19902,  213.95497 269.90472C228.31866 296.73288,  239.97629 331.17102,  245.63266 341.65308C199.4953 358.15085,  192.59793 277.48776,  149.34694 302.93878C141.34929 307.85825,  134.57095 315.6905,  127.35536 322.63022C119.69617 291.72012,  149.69322 263.9678,  166.0 244.0" stroke-linecap="round" path-type="area" fill="#000000" fill-opacity="0.7882353067398071"/><path rough-pts="110.97959,334.59183 108.249054,335.20743 105.820305,334.28702 103.729485,332.1125 102.012726,328.96588 100.70615,325.1291 99.84593,320.88416 100.93536,318.12427 104.76459,317.8452 110.25919,319.16653 116.344666,321.20743 121.946594,323.08743 124.16532,323.71362 124.43501,325.35568 117.97914,330.57123 " stroke-linejoin="round" id="Polygon_5" d="M110.97959 334.59183 C105.24084 337.5471,  101.09595 329.5943,  99.84593 320.88416C98.675156 313.01215,  116.734505 322.08737,  124.23048 323.69193C120.73476 328.7542,  116.14233 332.30807,  110.97959 334.59183" stroke-linecap="round" path-type="area" fill-opacity="0.0"/><path rough-pts="126.5268,321.76538 124.16532,323.71362 125.99055,323.92596 " stroke-linejoin="round" id="Polygon_6" d="M127.35536 322.63022 C126.61221 323.34494,  125.864426 324.0502,  125.11019 324.74185C124.91193 323.8378,  125.50608 323.92194,  125.99055 323.92596C125.8287 323.26636,  125.68431 322.60788,  125.55688 321.95056" stroke-linecap="round" path-type="area" fill-opacity="0.0"/><path stroke-linejoin="round" id="ConsecLine_3" d="M125.99055 323.92596 C118.38521 292.93066,  149.33865 264.40198,  166.0 244.0C182.54874 223.73593,  199.56407 243.19902,  213.95497 269.90472C228.31866 296.73288,  239.97629 331.17102,  245.63266 341.65308C199.4953 358.15085,  192.59793 277.48776,  149.34694 302.93878C135.74721 311.30417,  125.67321 328.09207,  110.97959 334.59183C105.24084 337.5471,  101.09595 329.5943,  99.84593 320.88416C98.568726 312.2965,  120.17695 323.87747,  125.99055 323.92596" stroke-linecap="round" fill="none" stroke-width="3.0" stroke="#000000" stroke-opacity="1.0"/></g><g type="COMPO" id="CompositeShape_4"><path rough-pts="353.0,239.0 344.16922,246.80812 330.985,265.68494 315.3616,291.0365 299.21338,318.26886 284.4547,342.78796 273.0,360.0 276.55994,333.03253 282.5098,307.04974 291.9891,283.35333 306.1375,263.2451 326.09454,248.0267 " stroke-linejoin="round" id="Polygon_8" d="M353.0 239.0 C340.9683 240.48492,  291.32928 335.94577,  273.0 360.0C278.48987 305.94833,  291.48108 249.99394,  353.0 239.0" stroke-linecap="round" path-type="area" fill="#000000" fill-opacity="0.7882353067398071"/><path stroke-linejoin="round" id="ConsecLine_4" d="M273.0 360.0 C278.48987 305.94833,  291.48108 249.99394,  353.0 239.0C340.9683 240.48492,  291.32928 335.94577,  273.0 360.0" stroke-linecap="round" fill="none" stroke-width="3.0" display="none" stroke="#000000" stroke-opacity="1.0"/></g><g type="COMPO" id="CompositeShape_5"><path rough-pts="359.5,354.5 356.35117,365.85397 352.60233,377.58884 348.25092,389.39893 343.29437,400.9784 337.7301,412.0214 331.55554,422.22223 318.48972,431.439 296.54037,437.82028 269.86496,441.2527 242.62073,441.62274 218.96515,438.81708 203.05556,432.72223 191.9341,422.35614 182.86604,409.93097 175.145,396.21475 168.06456,381.97546 160.91833,367.9812 153.0,355.0 191.10893,357.8247 211.5362,365.83792 220.46039,377.85092 224.06003,392.67477 228.51369,409.12073 240.0,426.0 249.99225,430.38126 260.20816,426.5642 270.02686,417.51093 278.82715,406.1836 285.98816,395.54437 290.8889,388.55554 300.1898,379.96063 311.06085,372.91772 322.96475,367.1385 335.3641,362.33466 347.72162,358.2179 " stroke-linejoin="round" id="Polygon_9" d="M359.5 354.5 C353.80072 376.6231,  344.5166 402.86667,  331.55554 422.22223C317.07904 443.41562,  224.35715 448.27676,  203.05556 432.72223C178.2884 414.5612,  170.07976 379.4374,  153.0 355.0C251.01862 354.6684,  205.87573 392.60074,  240.0 426.0C259.34683 444.9358,  283.76178 396.9081,  290.8889 388.55554C307.56247 369.62158,  336.88058 361.7292,  359.5 354.5" stroke-linecap="round" path-type="area" fill="#ff0000" fill-opacity="0.7176470756530762"/><path stroke-linejoin="round" id="ConsecLine_5" d="M153.0 355.0 C251.01862 354.6684,  205.87573 392.60074,  240.0 426.0C259.34683 444.9358,  283.76178 396.9081,  290.8889 388.55554C307.56247 369.62158,  336.88058 361.7292,  359.5 354.5C353.80072 376.6231,  344.5166 402.86667,  331.55554 422.22223C317.07904 443.41562,  224.35715 448.27676,  203.05556 432.72223C178.2884 414.5612,  170.07976 379.4374,  153.0 355.0" stroke-linecap="round" fill="none" stroke-width="3.0" display="none" stroke="#000000" stroke-opacity="1.0"/></g><g type="COMPO" id="CompositeShape_7"><path rough-pts="335.46338,512.0489 334.58655,506.09705 334.79443,496.66205 335.2,487.24 304.36234,476.64526 271.4928,470.6045 237.45656,467.86877 203.11884,467.1888 169.34491,467.31558 137.0,467.0 119.34189,470.87747 107.41387,476.07803 100.705574,482.29333 98.706535,489.21484 100.90639,496.53415 110.91103,498.90836 334.55847,511.9959 " stroke-linejoin="round" id="Polygon_21" d="M334.55862 512.0489 C334.54147 503.77335,  334.75873 495.4933,  335.2 487.24C276.13354 460.66385,  199.68396 468.90625,  137.0 467.0C96.032745 473.16318,  91.75361 488.91818,  106.34088 503.49564L334.55847 511.9959 " stroke-linecap="round" path-type="area" fill="#ffbd00" fill-opacity="0.8470588326454163"/><path rough-pts="335.46338,512.0489 334.5797,515.53467 334.77737,524.9644 335.18298,534.3764 335.8,543.76 311.7787,541.87244 287.8156,539.4355 263.87354,536.8174 239.91507,534.3865 215.90302,532.51117 191.8,531.56 174.37062,530.32367 157.5284,527.3962 141.81151,523.03595 127.75814,517.50134 115.90649,511.05084 106.794716,503.94287 110.91103,498.90836 334.55847,511.9959 " stroke-linejoin="round" id="Polygon_22" d="M334.55862 512.0489 C334.58057 522.6485,  334.98706 533.2408,  335.8 543.76C287.67426 540.77997,  240.12183 532.293,  191.8 531.56C156.71288 530.95087,  121.91958 518.64404,  106.794716 503.94287C106.64147 503.7939,  106.49019 503.64484,  106.34088 503.49564L334.55847 511.9959 " stroke-linecap="round" path-type="area" fill="#ffbd00" fill-opacity="0.8470588326454163"/><line x1="102.05261" y1="498.38998" x2="334.55847" id="StraightLine_204" stroke-linecap="round" y2="511.9959" fill="none" stroke-width="3.0" stroke="#000000" stroke-opacity="1.0"/><path stroke-linejoin="round" id="ConsecLine_7" d="M137.0 467.0 C95.61342 473.22626,  91.66985 489.2417,  106.794716 503.94287C121.91958 518.64404,  156.71288 530.95087,  191.8 531.56C240.12183 532.293,  287.67426 540.77997,  335.8 543.76C334.35236 525.028,  334.19354 506.0644,  335.2 487.24C276.13354 460.66385,  199.68396 468.90625,  137.0 467.0" stroke-linecap="round" fill="none" stroke-width="3.0" stroke="#000000" stroke-opacity="1.0"/></g></svg>