<svg xmlns="http://www.w3.org/2000/svg" xmlns:xlink="http://www.w3.org/1999/xlink" width="2716.0" height="1528.0" background="#FFFFFF"><g type="COMPO" id="CompositeShape_4"><path rough-pts="1222.4673,858.5857 1219.5645,867.44916 1215.513,871.74976 1210.584,872.10504 1205.0486,869.1317 1199.1777,863.44714 1193.2427,855.66864 1187.5145,846.41315 1182.2644,836.2981 1177.7637,825.9408 1174.2831,815.95807 1172.0939,806.9673 1171.4673,799.5857 1173.0555,777.91046 1175.7915,756.297 1179.1382,734.70154 1182.5579,713.0802 1185.5132,691.3894 1187.4673,669.5857 1156.6732,702.5097 1144.3499,745.97186 1146.8325,794.7915 1160.456,843.7875 1181.5559,887.77905 1206.4673,921.5857 1217.9005,928.6186 1231.133,929.4462 1234.5315,928.82367 1311.4711,928.8236 1356.659,888.24133 1359.2802,897.8838 1374.1582,902.05194 1381.0302,892.23926 1406.0238,897.83246 1430.4641,910.289 1439.7877,917.5525 1419.3918,911.7779 1397.6033,911.2645 1380.8448,914.63257 1380.1677,996.4674 1379.0538,998.9675 1395.511,1025.5496 1415.6061,1047.8529 1415.6061,924.6261 1428.3029,928.2764 1449.9653,934.5042 1449.2473,923.80664 1454.1992,927.0806 1470.4735,940.40015 1495.4673,947.5857 1508.1425,951.6201 1518.9458,958.60645 1527.4915,967.99457 1529.7549,978.1808 1577.5935,978.18097 1600.622,990.87164 1604.9194,999.904 1739.1499,1106.6118 1739.0302,1103.1837 1732.7361,1044.296 1721.4673,980.5857 1731.0074,951.52856 1739.5156,918.719 1745.291,884.87585 1746.6334,852.7181 1746.4052,848.9524 1746.413,876.7824 1747.1947,904.54944 1748.3708,932.28357 1749.5615,960.01434 1750.3867,987.7717 1750.4673,1015.5857 1760.919,1015.3764 1768.2834,1008.7122 1772.8931,996.79407 1775.0791,980.8228 1775.1737,961.99927 1773.5082,941.52454 1770.6561,920.406 1767.788,899.174 1765.0195,879.2023 1762.4661,861.86444 1760.2432,848.5343 1758.4673,840.5857 1754.2544,788.9967 1737.1667,749.107 1708.9365,719.1063 1671.2963,697.1844 1625.9791,681.531 1574.7173,670.3357 1543.5283,660.0833 1511.0818,652.5388 1477.595,647.8379 1443.2848,646.11646 1408.3688,647.51025 1373.0638,652.1553 1378.1743,641.20776 1376.2417,631.4358 1363.4673,622.5857 1334.4653,612.5085 1302.1543,606.492 1270.2666,606.76404 1242.5343,615.552 1222.6904,635.0833 1214.4673,667.5857 1214.9764,696.1463 1217.203,731.6548 1220.1062,769.8821 1222.6451,806.5989 1223.7792,837.5764 " stroke-linejoin="round" id="Polygon_34" d="M1222.4673 858.5857 C1217.9912 881.287,  1204.9962 872.9083,  1193.2427 855.66864C1181.4893 838.42896,  1170.9772 812.32837,  1171.4673 799.5857C1173.1381 756.1447,  1184.919 713.33545,  1187.4673 669.5857C1104.9655 721.4419,  1155.2762 867.6115,  1206.4673 921.5857C1213.9601 929.48584,  1224.346 931.14294,  1234.5315 928.8237L1311.4711 928.8236 L1356.659 888.24133 C1363.6384 901.7147,  1373.8187 905.87494,  1385.0023 897.6688C1401.2959 893.299,  1421.1727 903.4553,  1440.306 916.8046C1421.3649 910.5039,  1401.0652 909.4379,  1380.6936 913.44586L1380.1677 996.4674 C1386.457 1017.4576,  1400.4421 1031.8153,  1415.6635 1047.6471L1415.6061 924.6261 L1449.9653 934.5042 L1449.2473 923.80664 C1456.6647 928.87976,  1463.7699 934.64655,  1470.7382 940.4118L1495.4673 947.5857 C1512.5985 950.6035,  1526.1296 962.1021,  1532.5028 977.00214L1577.5935 978.18097 C1590.0422 977.36414,  1599.0605 985.66064,  1605.5509 999.6171L1739.1499 1106.6118 C1738.0455 1069.098,  1729.8363 1025.1172,  1721.4673 980.5857C1734.5151 944.4583,  1749.4587 889.97784,  1746.4052 848.9524C1745.394 904.69543,  1751.3044 959.8814,  1750.4673 1015.5857C1774.6787 1022.42285,  1778.3779 983.32465,  1773.5082 941.52454C1767.8977 900.3171,  1761.4956 850.18555,  1758.4673 840.5857C1764.0719 724.5015,  1682.0305 689.475,  1574.7173 670.3357C1513.7417 647.2137,  1443.918 639.5238,  1373.0638 652.1553C1380.4293 640.5356,  1382.9293 631.05945,  1363.4673 622.5857C1311.2616 599.8554,  1216.8043 588.125,  1214.4673 667.5857C1213.0745 714.94,  1228.2307 829.3549,  1222.4673 858.5857" stroke-linecap="round" path-type="area" fill="#280d35" fill-opacity="0.3764705955982208"/><path rough-pts="1400.3412,772.3214 1399.1614,768.43695 1392.746,758.7179 1385.7319,749.16846 1378.8754,739.64044 1372.9315,729.9862 1368.6563,720.0576 1367.135,715.05505 1364.5283,705.4764 1361.6987,693.81836 1359.5093,682.5775 1361.488,677.2191 1364.7095,664.5315 1373.0638,652.1553 1378.1743,641.20776 1376.2417,631.4358 1363.4673,622.5857 1334.4653,612.5085 1302.1543,606.492 1270.2666,606.76404 1242.5343,615.552 1222.6904,635.0833 1214.4673,667.5857 1214.9764,696.1463 1217.203,731.6548 1220.1062,769.8821 1222.6451,806.5989 1223.7792,837.5764 1222.4673,858.5857 1219.5645,867.44916 1215.513,871.74976 1210.584,872.10504 1205.0486,869.1317 1199.1777,863.44714 1193.2427,855.66864 1187.5145,846.41315 1182.2644,836.2981 1177.7637,825.9408 1174.2831,815.95807 1172.0939,806.9673 1171.4673,799.5857 1173.0555,777.91046 1175.7915,756.297 1179.1382,734.70154 1182.5579,713.0802 1185.5132,691.3894 1187.4673,669.5857 1156.6732,702.5097 1144.3499,745.97186 1146.8325,794.7915 1160.456,843.7875 1181.5559,887.77905 1206.4673,921.5857 1217.9005,928.6186 1231.133,929.4462 1234.5315,928.82367 1311.4711,928.8236 1356.659,888.24133 1359.2802,897.8838 1374.1582,902.05194 1381.0302,892.23926 1389.5952,893.64435 1410.2452,889.2616 1422.9614,879.3205 1428.8335,864.82275 1428.9507,846.77014 1424.4027,826.1643 1416.2793,804.00726 1405.6698,781.30054 " stroke-linejoin="round" id="Polygon_42" d="M1401.1223 771.89966 C1391.591 754.11646,  1374.3431 738.0941,  1368.6563 720.0576C1367.6067 717.19763,  1359.8092 689.84375,  1358.8859 677.4091C1369.502 652.28125,  1394.6195 636.14935,  1363.4673 622.5857C1311.2616 599.8554,  1216.8043 588.125,  1214.4673 667.5857C1213.0745 714.94,  1228.2307 829.3549,  1222.4673 858.5857C1217.9912 881.287,  1204.9962 872.9083,  1193.2427 855.66864C1181.4893 838.42896,  1170.9772 812.32837,  1171.4673 799.5857C1173.1381 756.1447,  1184.919 713.33545,  1187.4673 669.5857C1104.9655 721.4419,  1155.2762 867.6115,  1206.4673 921.5857C1213.9601 929.48584,  1224.346 931.14294,  1234.5315 928.8237L1311.4711 928.8236 L1356.659 888.24133 C1365.1132 902.83527,  1376.5566 906.9238,  1389.5952 893.64435C1439.5557 891.1052,  1435.3755 849.20496,  1416.2793 804.00726C1411.7788 793.3552,  1406.4498 782.52,  1400.8058 771.97375" stroke-linecap="round" path-type="area" fill="#280d35" fill-opacity="0.19607843458652496"/><path rough-pts="1461.7163,1173.0194 1461.7163,1109.5815 1440.327,1075.2961 1419.6511,1052.2256 1415.6061,1110.1731 1415.6061,1047.8529 1395.511,1025.5496 1379.0538,998.9675 1380.1677,996.4674 1371.2109,963.833 1375.4673,914.5857 1380.8448,914.63257 1381.0302,892.23926 1374.1582,902.05194 1359.2802,897.8838 1356.659,888.24133 1311.4711,928.8236 1311.4711,1131.832 1311.4708,1173.022 1378.7069,1173.0223 " stroke-linejoin="round" id="Polygon_38" d="M1461.7163 1173.0194 L1461.7163 1109.5815 C1449.6494 1084.4548,  1434.4618 1067.3485,  1419.9823 1052.154L1415.6061 1110.1731 L1415.6061 1047.8529 C1385.6343 1016.41345,  1360.4163 990.9171,  1375.4673 914.5857C1377.2094 914.16833,  1378.9518 913.7886,  1380.6936 913.44586L1381.0302 892.23926 C1373.8187 905.87494,  1363.6384 901.7147,  1352.7253 893.4224L1311.4711 928.8236 L1311.4711 1131.832 L1311.4708 1173.022 L1461.7162 1173.0227 " stroke-linecap="round" path-type="area" fill="#280d35" fill-opacity="0.3764705955982208"/><path rough-pts="1738.8134,1106.3444 1735.5999,1153.2026 1723.0254,1179.2607 1620.3047,1179.2607 1620.3508,1176.4685 1621.3643,1128.6406 1620.0513,1075.4996 1613.9556,1026.4438 1604.9194,999.904 1739.1499,1106.6118 " stroke-linejoin="round" id="Polygon_25" d="M1739.1499 1106.6117 C1740.0225 1136.2523,  1736.4595 1161.8555,  1725.035 1180.5027L1620.3047 1179.2607 C1621.9524 1127.5399,  1624.3063 1039.9471,  1605.5509 999.6171L1739.1499 1106.6118 " stroke-linecap="round" path-type="area" fill="#280d35" fill-opacity="0.3764705955982208"/><path rough-pts="1379.8685,1032.6309 1378.7069,1173.0223 1311.4708,1173.022 1311.4711,1131.832 1311.4711,928.8236 1324.9343,937.55054 1337.7253,953.8401 1349.7296,974.59265 1360.8314,996.7084 1370.916,1017.08765 " stroke-linejoin="round" id="Polygon_41" d="M1379.8685 1032.6309 L1378.7069 1173.0223 L1311.4708 1173.022 L1311.4711 1131.832 L1311.4711 928.8236 C1338.9932 936.6485,  1363.1726 1008.447,  1379.8685 1032.6309" stroke-linecap="round" path-type="area" fill="#280d35" fill-opacity="0.2980392277240753"/><path rough-pts="1379.8685,1032.6309 1380.1677,996.4674 1379.0538,998.9675 1395.511,1025.5496 1415.6061,1047.8529 1415.6061,924.6261 1428.3029,928.2764 1449.9653,934.5042 1449.2473,923.80664 1439.7877,917.5525 1430.4641,910.289 1406.0238,897.83246 1381.0302,892.23926 1374.1582,902.05194 1359.2802,897.8838 1356.659,888.24133 1311.4711,928.8236 1324.9343,937.55054 1337.7253,953.8401 1349.7296,974.59265 1360.8314,996.7084 1370.916,1017.08765 " stroke-linejoin="round" id="Polygon_40" d="M1379.8685 1032.6309 L1380.1677 996.4674 C1386.457 1017.4576,  1400.4421 1031.8153,  1415.6635 1047.6471L1415.6061 924.6261 L1449.9653 934.5042 L1449.2473 923.80664 C1427.5311 906.94275,  1404.5425 893.46875,  1381.03 892.23926C1373.8187 905.87494,  1363.6384 901.7147,  1352.7253 893.4224L1311.4711 928.8236 C1338.9932 936.6485,  1363.1726 1008.447,  1379.8685 1032.6309" stroke-linecap="round" path-type="area" fill="#280d35" fill-opacity="0.2980392277240753"/><path rough-pts="1604.9194,999.904 1613.9556,1026.4438 1620.0513,1075.4996 1621.3643,1128.6406 1620.3508,1176.4685 1620.3047,1179.2607 1577.5934,1179.2607 1577.5935,978.18097 " stroke-linejoin="round" id="Polygon_23" d="M1605.5509 999.6171 C1624.3063 1039.9471,  1621.9524 1127.5399,  1620.2664 1179.0669L1577.5934 1179.2607 L1577.5935 978.18097 L1604.9194 999.904 " stroke-linecap="round" path-type="area" fill="#280d35" fill-opacity="0.19607843458652496"/><path rough-pts="1461.7163,1173.0194 1461.7163,1211.0859 1311.4708,1211.0859 1311.4708,1173.022 1378.7069,1173.0223 " stroke-linejoin="round" id="Polygon_39" d="M1461.7163 1173.0194 L1461.7163 1211.0859 L1311.4708 1211.0859 L1311.4708 1173.022 L1461.7162 1173.0227 " stroke-linecap="round" path-type="area" fill="#280d35" fill-opacity="0.8666666746139526"/><path rough-pts="1449.2998,924.5895 1449.9653,934.5042 1428.3029,928.2764 1415.6061,924.6261 1415.6061,1047.8529 1395.511,1025.5496 1379.0538,998.9675 1371.2109,963.833 1375.4673,914.5857 1397.6033,911.2645 1419.3918,911.7779 1439.7877,917.5525 1449.2473,923.80664 " stroke-linejoin="round" id="Polygon_16" d="M1449.2998 924.5895 L1449.9653 934.5042 L1415.6061 924.6261 L1415.6061 1047.8529 C1385.6343 1016.41345,  1360.4163 990.9171,  1375.4673 914.5857C1397.5835 909.2869,  1419.7487 910.04736,  1440.267 915.8436C1443.3711 918.9431,  1446.4171 921.1635,  1449.4425 923.4416" stroke-linecap="round" path-type="area" fill="#280d35" fill-opacity="0.3764705955982208"/><path rough-pts="1419.6511,1052.2256 1440.327,1075.2961 1461.7163,1109.5815 1449.9653,934.5042 1428.3029,928.2764 " stroke-linejoin="round" id="Polygon_1" d="M1419.9823 1052.154 C1434.4618 1067.3485,  1449.6494 1084.4548,  1461.7163 1109.5815L1449.9653 934.5042 L1428.3029 928.2764 L1419.6511 1052.2256 " stroke-linecap="round" path-type="area" fill="#280d35" fill-opacity="0.3764705955982208"/><path rough-pts="1750.4673,1015.5857 1760.919,1015.3764 1768.2834,1008.7122 1772.8931,996.79407 1775.0791,980.8228 1775.1737,961.99927 1773.5082,941.52454 1770.6561,920.406 1767.788,899.174 1765.0195,879.2023 1762.4661,861.86444 1760.2432,848.5343 1758.4673,840.5857 1753.3846,839.6506 1748.7556,839.95654 1745.1123,838.4489 1746.4052,848.9524 1746.413,876.7824 1747.1947,904.54944 1748.3708,932.28357 1749.5615,960.01434 1750.3867,987.7717 " stroke-linejoin="round" id="Polygon_12" d="M1750.4673 1015.5857 C1774.6787 1022.42285,  1778.3779 983.32465,  1773.5082 941.52454C1767.8977 900.3171,  1761.4956 850.18555,  1758.4673 840.5857C1753.6124 838.9107,  1749.4027 839.8378,  1745.6163 840.4767C1745.7012 841.6044,  1746.1276 845.2228,  1746.4052 848.9524C1745.394 904.69543,  1751.3044 959.8814,  1750.4673 1015.5857" stroke-linecap="round" path-type="area" fill-opacity="0.0"/><path rough-pts="1723.0254,1179.2607 1620.3047,1179.2607 1619.4673,1209.5857 1632.9681,1211.534 1680.5677,1210.4495 1717.6953,1190.3063 " stroke-linejoin="round" id="Polygon_10" d="M1723.0254 1179.2607 L1620.3047 1179.2607 C1619.8461 1191.911,  1619.4673 1202.5142,  1619.4673 1209.5857C1676.9102 1219.3679,  1708.856 1206.9105,  1725.035 1180.5027" stroke-linecap="round" path-type="area" fill="#280d35" fill-opacity="1.0"/><path rough-pts="1461.7163,1109.5815 1449.9653,934.5042 1470.4735,940.40015 1469.0513,978.1807 1461.7163,1173.0194 " stroke-linejoin="round" id="Polygon_33" d="M1461.7163 1109.5815 L1449.9653 934.5042 L1470.4735 940.40015 L1461.7163 1173.0194 L1461.7163 1109.5815 " stroke-linecap="round" path-type="area" fill="#280d35" fill-opacity="0.3764705955982208"/><path rough-pts="1632.9683,1211.5342 1577.5934,1211.0857 1577.5934,1179.2607 1620.3047,1179.2607 1619.4673,1209.5857 " stroke-linejoin="round" id="Polygon_9" d="M1632.9683 1211.5342 L1577.5934 1211.0857 L1577.5934 1179.2607 L1620.3047 1179.2607 C1619.8461 1191.911,  1619.4673 1202.5142,  1619.4673 1209.5857C1624.1342 1210.3805,  1628.6328 1211.0284,  1632.9684 1211.534" stroke-linecap="round" path-type="area" fill="#280d35" fill-opacity="0.8666666746139526"/><path rough-pts="1415.6061,1047.8529 1417.0969,1049.1389 1419.6511,1052.2256 1428.3029,928.2764 1415.6061,924.6261 " stroke-linejoin="round" id="Polygon_4" d="M1415.6635 1047.647 C1417.0934 1049.1343,  1418.5343 1050.6346,  1419.9823 1052.154L1428.3029 928.2764 L1415.6061 924.6261 L1415.6061 1047.8529 " stroke-linecap="round" path-type="area" fill="#280d35" fill-opacity="0.3764705955982208"/><path rough-pts="1519.6548,978.1808 1469.0513,978.1807 1470.4735,940.40015 1477.0771,945.6787 1498.9463,963.5549 " stroke-linejoin="round" id="Polygon_20" d="M1519.6548 978.1808 L1469.0513 978.1807 L1470.4735 940.40015 C1487.9818 954.6784,  1504.3875 968.93567,  1519.6548 978.1808" stroke-linecap="round" path-type="area" fill="#280d35" fill-opacity="0.3764705955982208"/><path rough-pts="1519.6548,978.1808 1529.7549,978.1808 1527.4915,967.99457 1518.9458,958.60645 1508.1425,951.6201 1495.4673,947.5857 1470.4735,940.40015 1477.0771,945.6787 1498.9463,963.5549 " stroke-linejoin="round" id="Polygon_19" d="M1519.6548 978.1808 L1529.7549 978.1808 C1526.1296 962.1021,  1512.5985 950.6035,  1495.4673 947.5857L1470.4735 940.40015 C1487.9818 954.6784,  1504.3875 968.93567,  1519.6548 978.1808" stroke-linecap="round" path-type="area" fill="#280d35" fill-opacity="0.6078431606292725"/><path rough-pts="1380.8481,914.24176 1397.6033,911.2645 1419.3918,911.7779 1439.7877,917.5525 1430.4641,910.289 1406.0238,897.83246 1381.0302,892.23926 1380.8448,914.63257 " stroke-linejoin="round" id="Polygon_26" d="M1380.6936 913.44586 C1401.0652 909.4379,  1421.3649 910.5039,  1440.267 915.8436C1421.1727 903.4553,  1401.2959 893.299,  1381.03 892.23926L1380.8448 914.63257 " stroke-linecap="round" path-type="area" fill-opacity="0.0"/><path rough-pts="1380.1677,996.4674 1371.2109,963.833 1375.4673,914.5857 1380.8448,914.63257 " stroke-linejoin="round" id="Polygon_29" d="M1378.3258 997.2064 C1370.4154 977.5051,  1368.0453 952.2261,  1375.4673 914.5857C1377.2094 914.16833,  1378.9518 913.7886,  1380.6936 913.44586L1380.1677 996.4674 " stroke-linecap="round" path-type="area" fill="#280d35" fill-opacity="0.3764705955982208"/><path rough-pts="1470.4735,940.4002 1495.4673,947.5857 1478.8707,934.0296 1460.4059,923.39 1440.4529,915.89624 1439.7877,917.5525 1449.2473,923.80664 1454.1992,927.0806 " stroke-linejoin="round" id="Polygon_17" d="M1470.4735 940.4002 L1495.4673 947.5857 C1479.8849 932.60297,  1460.9093 921.6749,  1440.267 915.8436C1450.6879 924.048,  1460.8507 932.23145,  1470.7382 940.4118" stroke-linecap="round" path-type="area" fill-opacity="0.0"/><path rough-pts="1353.4673,694.5857 1355.5706,691.2062 1357.3356,687.5925 1358.7368,683.7717 1359.7487,679.7704 1360.3461,675.6159 1360.5034,671.3349 1358.8234,674.2508 1361.488,677.2191 1359.5093,682.5775 1361.6987,693.81836 1364.5283,705.4764 1367.135,715.05505 1368.2136,717.4127 1360.1633,705.0136 " stroke-linejoin="round" id="Polygon_49" d="M1353.4673 694.5857 C1357.9952 688.07874,  1360.6459 680.00543,  1360.5034 671.3349C1354.8584 670.22107,  1364.7616 707.18256,  1367.879 717.6014C1361.7488 707.38,  1356.4554 699.42926,  1353.4673 694.5857" stroke-linecap="round" path-type="area" fill-opacity="0.0"/><path rough-pts="1415.6063,1110.1733 1419.6511,1052.2256 1417.0969,1049.1389 1415.6061,1047.8529 " stroke-linejoin="round" id="Polygon_6" d="M1415.6063 1110.1733 L1419.6511 1052.2256 C1418.5343 1050.6346,  1417.0934 1049.1343,  1415.6635 1047.647L1415.6061 1110.1731 " stroke-linecap="round" path-type="area" fill="#280d35" fill-opacity="0.2980392277240753"/><path rough-pts="1470.4735,940.4002 1449.9653,934.5042 1449.2473,923.80664 1454.1992,927.0806 " stroke-linejoin="round" id="Polygon_18" d="M1470.4735 940.4002 L1449.9653 934.5042 L1449.2473 923.80664 C1456.6647 928.87976,  1463.7699 934.64655,  1470.7382 940.4118" stroke-linecap="round" path-type="area" fill="#280d35" fill-opacity="0.5176470875740051"/><path rough-pts="1369.4852,719.37805 1372.9315,729.9862 1378.8754,739.64044 1385.7319,749.16846 1392.746,758.7179 1399.1614,768.43695 1400.3412,772.3214 1393.6637,759.0461 1381.3511,738.2456 1369.821,719.9009 " stroke-linejoin="round" id="Polygon_44" d="M1368.657 720.06 C1374.3446 738.0956,  1391.5914 754.11725,  1401.1223 771.89966C1390.3596 752.4544,  1378.8344 733.9248,  1369.4854 719.3781" stroke-linecap="round" path-type="area" fill="#280d35" fill-opacity="0.40784314274787903"/><path rough-pts="1604.9194,999.904 1600.622,990.87164 1577.5935,978.18097 " stroke-linejoin="round" id="Polygon_22" d="M1605.5509 999.6171 C1599.0605 985.66064,  1590.0422 977.36414,  1577.5935 978.18085L1604.9194 999.904 " stroke-linecap="round" path-type="area" fill-opacity="0.0"/><path rough-pts="1361.488,677.2191 1356.911,678.5905 1353.4673,694.5857 1355.5706,691.2062 1357.3356,687.5925 1358.7368,683.7717 1359.7487,679.7704 1360.3461,675.6159 1360.5034,671.3349 1358.8234,674.2508 " stroke-linejoin="round" id="Polygon_21" d="M1358.2299 675.6612 C1355.4177 681.494,  1353.4673 687.77795,  1353.4673 694.5857C1357.9952 688.07874,  1360.6459 680.00543,  1360.5034 671.3349C1358.9894 671.03613,  1358.5939 673.4765,  1358.8859 677.4091" stroke-linecap="round" path-type="area" fill="#280d35" fill-opacity="0.40784314274787903"/><path rough-pts="1368.2136,717.4127 1368.6563,720.0576 1369.4852,719.37805 " stroke-linejoin="round" id="Polygon_47" d="M1367.879 717.6014 C1368.2416 718.81287,  1368.5123 719.66547,  1368.6563 720.0576C1368.6565 720.0584,  1368.6567 720.0592,  1368.657 720.06C1369.0526 718.7051,  1368.6248 718.0405,  1368.2018 717.3848" stroke-linecap="round" path-type="area" fill="#280d35" fill-opacity="0.40784314274787903"/><path stroke-linejoin="round" id="ConsecLine_6" d="M1729.2173 804.3357 C1763.4355 836.6582,  1740.446 928.03674,  1721.4673 980.5857" stroke-linecap="round" fill="none" stroke-width="5.0" stroke="#d6aede" stroke-opacity="0.6666667"/><path stroke-dasharray="25.0,25.0" stroke-linejoin="round" id="ConsecLine_7" d="M1295.4673 670.5857 C1298.8625 706.54504,  1273.1177 821.06055,  1284.232 855.6385C1335.0116 853.5951,  1357.4585 926.37494,  1389.5952 893.64435C1439.5557 891.1052,  1435.3755 849.20496,  1416.2793 804.00726C1397.1832 758.8096,  1363.171 710.31445,  1353.4673 694.5857" stroke-linecap="round" fill="none" stroke-width="7.5" stroke="#d6aede" stroke-opacity="0.6666667"/><path stroke-linejoin="round" id="ConsecLine_8" d="M1353.4673 694.5857 C1353.4673 660.49023,  1402.3914 639.5332,  1363.4673 622.5857C1311.2616 599.8554,  1216.8043 588.125,  1214.4673 667.5857C1213.0745 714.94,  1228.2307 829.3549,  1222.4673 858.5857C1217.9912 881.287,  1204.9962 872.9083,  1193.2427 855.66864C1181.4893 838.42896,  1170.9772 812.32837,  1171.4673 799.5857C1173.1381 756.1447,  1184.919 713.33545,  1187.4673 669.5857C1104.9655 721.4419,  1155.2762 867.6115,  1206.4673 921.5857C1226.448 942.6527,  1267.0023 919.32477,  1269.4673 894.5857" stroke-linecap="round" fill="none" stroke-width="7.5" stroke="#d6aede" stroke-opacity="0.6666667"/><line x1="1577.5935" y1="978.18085" x2="1577.5934" id="StraightLine_287" stroke-linecap="round" y2="1211.0857" fill="none" stroke-width="5.0" display="none" stroke="#000000" stroke-opacity="0.6666667"/><line x1="1461.7163" y1="1211.0859" x2="1461.7163" id="StraightLine_288" stroke-linecap="round" y2="1008.0773" fill="none" stroke-width="3.0" stroke="#d6aede" stroke-opacity="0.6666667"/><line x1="1461.7163" y1="978.1807" x2="1577.5934" id="StraightLine_289" stroke-linecap="round" y2="978.1808" fill="none" stroke-width="3.0" display="none" stroke="#000000" stroke-opacity="0.6666667"/><line x1="1234.5315" y1="928.8236" x2="1311.4711" id="StraightLine_290" stroke-linecap="round" y2="928.8236" fill="none" stroke-width="5.0" display="none" stroke="#000000" stroke-opacity="0.6666667"/><line x1="1311.4711" y1="928.8236" x2="1381.03" id="StraightLine_291" stroke-linecap="round" y2="866.3543" fill="none" stroke-width="5.0" stroke="#000000" stroke-opacity="0.6666667"/><line x1="1577.5934" y1="1179.2607" x2="1725.7784" id="StraightLine_292" stroke-linecap="round" y2="1179.2607" fill="none" stroke-width="5.0" display="none" stroke="#000000" stroke-opacity="0.68235296"/><line x1="1577.5934" y1="1211.0857" x2="1632.9683" id="StraightLine_293" stroke-linecap="round" y2="1211.5342" fill="none" stroke-width="5.0" display="none" stroke="#000000" stroke-opacity="0.68235296"/><line x1="1311.4708" y1="1173.022" x2="1461.7162" id="StraightLine_294" stroke-linecap="round" y2="1173.0227" fill="none" stroke-width="5.0" display="none" stroke="#000000" stroke-opacity="0.68235296"/><path stroke-linejoin="round" id="ConsecLine_9" d="M1746.4052 848.9524 C1745.394 904.69543,  1751.3044 959.8814,  1750.4673 1015.5857C1774.6787 1022.42285,  1778.3779 983.32465,  1773.5082 941.52454C1767.8977 900.3171,  1761.4956 850.18555,  1758.4673 840.5857" stroke-linecap="round" fill="none" stroke-width="3.0" stroke="#d6aede" stroke-opacity="0.6666667"/><line x1="1381.0302" y1="892.23926" x2="1378.7069" id="StraightLine_295" stroke-linecap="round" y2="1173.0223" fill="none" stroke-width="3.0" stroke="#d6aede" stroke-opacity="0.68235296"/><path stroke-dasharray="9.0,9.0" stroke-linejoin="round" id="ConsecLine_10" d="M1381.03 892.23926 C1431.4701 894.87683,  1479.4996 953.8649,  1519.6548 978.1808" stroke-linecap="round" fill="none" stroke-width="3.0" stroke="#008cff" stroke-opacity="0.2"/><line stroke-dasharray="9.0,9.0" x1="1577.5935" y1="978.18097" x2="1739.1499" id="StraightLine_296" stroke-linecap="round" y2="1106.6118" fill="none" stroke-width="3.0" stroke="#d6aede" stroke-opacity="0.40784314"/><path stroke-dasharray="25.0,25.0" stroke-linejoin="round" id="ConsecLine_11" d="M1360.5034 671.3349 C1354.202 670.09155,  1367.2748 716.2931,  1368.6563 720.0576C1375.0348 740.28784,  1395.9575 757.98425,  1404.2231 778.4735" stroke-linecap="round" fill="none" stroke-width="7.5" stroke="#d6aede" stroke-opacity="0.6666667"/><path stroke-dasharray="9.0,9.0" stroke-linejoin="round" id="CircleArc_0" path-type="circle-arc" stroke-linecap="round" end-point="1495.4673,947.5857" start-point="1375.4673,914.5857" circle-center="1405.5155,1040.0013" d="M1375.4673 914.5857 C1419.8333 903.9561,  1464.3961 917.71014,  1495.4673 947.5857" middle-point="1439.4673,915.5857" fill="none" stroke-width="3.0" stroke="#008cff" stroke-opacity="0.2"/><path stroke-dasharray="9.0,9.0" stroke-linejoin="round" id="CircleArc_1" path-type="circle-arc" stroke-linecap="round" end-point="1535.3958,1006.7779" start-point="1495.4673,947.5857" circle-center="1486.8583,996.45605" d="M1495.4673 947.5857 C1522.4331 952.336,  1540.479 978.0992,  1535.7286 1005.06506C1535.6223 1005.66876,  1535.5055 1006.26794,  1535.3958 1006.7779" middle-point="1515.0695,955.6325" fill="none" stroke-width="3.0" stroke="#bb11dd" stroke-opacity="0.40784314"/><path stroke-dasharray="9.0,9.0" stroke-linejoin="round" id="ConsecLine_12" d="M1375.4673 914.5857 C1352.5323 1030.9003,  1423.102 1029.1759,  1461.7163 1109.5815" stroke-linecap="round" fill="none" stroke-width="3.0" display="none" stroke="#d6aede" stroke-opacity="0.2"/><line stroke-dasharray="9.0,9.0" x1="1449.2998" y1="924.5895" x2="1461.7163" id="StraightLine_297" stroke-linecap="round" y2="1109.5815" fill="none" stroke-width="3.0" display="none" stroke="#d6aede" stroke-opacity="0.2"/><line stroke-dasharray="9.0,9.0" x1="1381.03" y1="914.6858" x2="1495.4673" id="StraightLine_298" stroke-linecap="round" y2="947.5857" fill="none" stroke-width="3.0" stroke="#008cff" stroke-opacity="0.2"/><line stroke-dasharray="9.0,9.0" x1="1415.6061" y1="924.6261" x2="1415.6061" id="StraightLine_299" stroke-linecap="round" y2="1110.1731" fill="none" stroke-width="3.0" display="none" stroke="#d6aede" stroke-opacity="0.2"/><line stroke-dasharray="9.0,9.0" x1="1428.611" y1="923.863" x2="1415.6063" id="StraightLine_300" stroke-linecap="round" y2="1110.1733" fill="none" stroke-width="3.0" display="none" stroke="#d6aede" stroke-opacity="0.2"/><line stroke-dasharray="9.0,9.0" x1="1470.4735" y1="940.4002" x2="1461.7162" id="StraightLine_301" stroke-linecap="round" y2="1173.0227" fill="none" stroke-width="3.0" display="none" stroke="#d6aede" stroke-opacity="0.2"/><line x1="1461.7163" y1="978.1807" x2="1461.7163" id="StraightLine_302" stroke-linecap="round" y2="1008.0773" fill="none" stroke-width="3.0" stroke="#008cff" stroke-opacity="0.2"/><path stroke-dasharray="9.0,9.0" stroke-linejoin="round" id="ConsecLine_13" d="M1311.4711 928.8236 C1338.9932 936.6485,  1363.1726 1008.447,  1379.8685 1032.6309" stroke-linecap="round" fill="none" stroke-width="3.0" display="none" stroke="#d6aede" stroke-opacity="0.40784314"/><path stroke-dasharray="9.0,9.0" stroke-linejoin="round" id="CircleArc_2" path-type="circle-arc" stroke-linecap="round" end-point="1574.7173,670.3357" start-point="1373.0638,652.1553" circle-center="1440.5706,1030.8232" d="M1373.0638 652.1553 C1443.918 639.5238,  1513.7417 647.2137,  1574.7173 670.3357" middle-point="1487.0208,649.0" fill="none" stroke-width="5.0" display="none" stroke="#bb11dd" stroke-opacity="0.40784314"/><path stroke-linejoin="round" id="ConsecLine_14" d="M1758.4673 840.5857 C1747.8057 836.9073,  1740.2556 845.77826,  1733.4673 836.5857" stroke-linecap="round" fill="none" stroke-width="5.0" stroke="#d6aede" stroke-opacity="0.68235296"/><line x1="1311.4711" y1="928.8236" x2="1311.4711" id="StraightLine_303" stroke-linecap="round" y2="1131.832" fill="none" stroke-width="3.0" display="none" stroke="#d6aede" stroke-opacity="0.6666667"/><path stroke-dasharray="9.0,9.0" stroke-linejoin="round" id="CircleArc_3" path-type="circle-arc" stroke-linecap="round" end-point="1353.4673,694.5857" start-point="1360.5034,671.3349" circle-center="1320.7281,671.9882" d="M1360.5034 671.3349 C1360.6459 680.00543,  1357.9952 688.07874,  1353.4673 694.5857" middle-point="1355.5773,691.1725" fill="none" stroke-width="7.5" stroke="#d6aede" stroke-opacity="0.6666667"/><path stroke-linejoin="round" id="ConsecLine_15" d="M1574.7173 670.3357 C1682.0305 689.475,  1764.0719 724.5015,  1758.4673 840.5857" stroke-linecap="round" fill="none" stroke-width="5.0" display="none" stroke="#d6aede" stroke-opacity="0.68235296"/><line x1="1311.4711" y1="1131.832" x2="1311.4707" id="StraightLine_304" stroke-linecap="round" y2="1211.0859" fill="none" stroke-width="3.0" display="none" stroke="#d6aede" stroke-opacity="0.6666667"/><line x1="1311.4708" y1="1211.0859" x2="1461.7163" id="StraightLine_305" stroke-linecap="round" y2="1211.0859" fill="none" stroke-width="5.0" display="none" stroke="#000000" stroke-opacity="0.6666667"/><path stroke-linejoin="round" id="ConsecLine_16" d="M1577.5935 978.18085 C1634.9824 974.4157,  1619.4673 1164.3279,  1619.4673 1209.5857C1768.8079 1235.0176,  1745.8135 1110.132,  1721.4673 980.5857" stroke-linecap="round" fill="none" stroke-width="3.0" stroke="#d6aede" stroke-opacity="0.6666667"/></g><g type="COMPO" id="CompositeShape_5"/><g type="COMPO" id="CompositeShape_6"/><g type="COMPO" id="CompositeShape_7"/><g type="COMPO" id="CompositeShape_8"><path rough-pts="1254.2572,764.7432 1254.7811,760.8494 1256.2598,757.34906 1258.5527,754.3824 1261.5195,752.08954 1265.0198,750.61096 1268.9136,750.0869 1272.8073,750.61096 1276.3076,752.08954 1279.2745,754.3824 1281.5673,757.3491 1283.0459,760.84955 1283.57,764.7432 1283.0459,768.6369 1281.5671,772.1372 1279.2744,775.104 1276.3076,777.3969 1272.8071,778.8755 1268.9136,779.39954 1265.0198,778.87537 1261.5194,777.3968 1258.5526,775.104 1256.2599,772.1372 1254.7813,768.63684 " stroke-linejoin="round" id="Polygon_50" d="M1254.2572 764.7432 C1254.2572 756.6561,  1260.8264 750.0869,  1268.9136 750.0869C1277.0007 750.0869,  1283.57 756.6561,  1283.57 764.7432C1283.57 772.8303,  1277.0007 779.39954,  1268.9136 779.39954C1260.8264 779.39954,  1254.2572 772.8303,  1254.2572 764.7432" stroke-linecap="round" path-type="area" fill="#00ff00" fill-opacity="1.0"/><ellipse stroke-linejoin="round" ry="14.656337" id="EllipseShape_0" sc="0.0,-14.656337" stroke-linecap="round" transform="matrix(1.0,0.0,-0.0,1.0,0.0,0.0)" pc="14.656337,0.0" cy="764.7432" cx="1268.9136" average="1268.9136,764.7432" rx="14.656337" fill="none" stroke-width="5.0" display="none" stroke="#ff8800" stroke-opacity="1.0"/></g></svg>