<svg xmlns="http://www.w3.org/2000/svg" xmlns:xlink="http://www.w3.org/1999/xlink" width="480.0" height="764.0" background="#FFFFFF"><g type="COMPO" id="CompositeShape_0"><path rough-pts="21.974348,639.14215 29.822985,627.9531 39.900696,622.95984 51.162247,619.12897 62.562424,611.4275 73.056,594.8224 38.258884,583.0659 20.173609,542.08405 14.439835,482.53656 16.697205,415.08313 22.585373,350.38354 27.744,299.0976 35.85317,298.4685 43.967617,298.19812 52.08664,298.1206 60.20952,298.06995 68.33554,297.88025 76.464005,297.3856 68.41989,282.66318 60.016346,268.8135 51.96589,255.89417 44.98104,243.96268 39.774334,233.07666 37.058304,223.29378 37.55081,214.6737 41.959053,207.27194 50.995567,201.1461 65.37288,196.35376 85.8035,192.95251 113.0,191.0 115.30713,170.68463 120.80101,151.5928 128.69945,133.5015 138.22021,116.1876 148.58113,99.428116 159.0,83.0 160.77037,87.85841 162.59235,96.72227 164.60356,108.49297 166.94167,122.07197 169.74434,136.36067 173.14929,150.26056 177.30252,162.67635 182.34091,172.5092 188.40439,178.66145 195.63278,180.03539 204.16602,175.53333 214.144,164.0576 221.83284,150.9006 228.11456,136.23863 233.49348,120.69982 238.47382,104.912125 243.55988,89.50365 249.256,75.1024 259.34677,83.52851 266.8338,102.540405 271.04993,127.4738 271.3278,153.6644 267.00024,176.44788 257.4,191.16 282.33664,193.66008 317.90378,193.59715 357.9564,192.84703 396.3493,193.28537 426.9375,196.7879 443.576,205.2304 448.13928,218.61104 446.3226,232.38623 439.6523,244.55003 429.6548,253.0965 417.85654,256.01965 405.784,251.3136 413.30942,263.91705 422.88904,277.0212 433.28665,290.87427 443.26587,305.72452 451.5904,321.8202 457.024,339.4096 456.16183,347.8363 450.55008,352.58548 441.87317,354.59277 431.81555,354.7936 422.06165,354.12363 414.296,353.5184 412.63544,387.77014 422.27414,415.20374 437.95102,438.21344 454.40497,459.19324 466.37497,480.53738 468.6,504.64 462.41232,505.60403 456.28156,506.0485 450.1883,505.98065 444.1126,505.40753 438.03503,504.3364 431.936,502.7744 431.46463,512.4975 433.7882,524.22736 438.0929,537.3512 443.56458,551.2561 449.38922,565.32916 454.75296,578.9576 458.84708,591.5305 460.85226,602.433 459.9546,611.05237 455.33997,616.7754 446.1944,618.98944 431.704,617.0816 407.5585,614.89075 393.2624,621.42914 386.09393,634.81573 383.33124,653.1695 382.2525,674.6093 380.136,697.2544 375.31235,706.5992 365.4602,713.24176 352.67126,716.8649 339.03708,717.15063 326.6494,713.78156 317.6,706.44 313.2447,698.04034 309.8773,687.2583 307.53833,675.1604 306.26813,662.81323 306.10718,651.2837 307.096,641.6384 293.97446,658.6838 285.24622,678.0757 278.67926,698.55133 272.0413,718.8475 263.10025,737.7012 249.624,753.8496 232.13594,759.06573 210.65729,751.86847 188.75548,735.4642 169.99773,713.0593 157.95145,687.8602 156.184,663.0736 134.87534,669.2689 120.67581,688.1835 108.87581,712.0812 94.76561,733.22565 73.635574,743.88074 40.776,736.3104 30.577322,728.38715 23.593836,716.938 19.304947,703.24713 17.190067,688.5979 16.728615,674.2743 17.400002,661.56 " stroke-linejoin="round" id="Polygon_0" d="M21.97435 639.1422 C32.61718 612.53467,  56.90288 632.7135,  73.056 594.8224C-16.156967 607.6415,  21.06319 381.14935,  27.744 299.0976C43.95659 297.37012,  60.205116 298.79047,  76.464005 297.3856C61.210266 267.10657,  39.52467 241.71806,  37.058304 223.29378C34.602608 204.87376,  51.366142 193.41794,  113.0 191.0C113.90605 148.99707,  138.62581 115.67356,  159.0 83.0C162.58101 87.97905,  165.64537 123.58203,  173.14929 150.26056C180.66388 176.94334,  192.65005 194.71448,  214.144 164.0576C231.26505 139.66724,  236.91756 102.47894,  249.256 75.1024C271.59647 78.259315,  282.318 172.91667,  257.4 191.16C292.54614 199.97365,  428.34558 182.155,  443.576 205.2304C460.10034 230.25989,  429.18582 269.69223,  405.784 251.3136C417.95648 276.18542,  449.87198 302.57156,  457.024 339.4096C461.1724 360.56427,  426.7161 354.04044,  414.296 353.5184C396.16837 430.43613,  477.4023 452.0802,  468.6 504.64C456.1546 507.09244,  444.16876 506.38443,  431.936 502.7744C427.6556 519.8052,  445.02914 552.5541,  454.75296 578.9576C464.48752 605.36536,  466.5724 625.42786,  431.704 617.0816C371.7491 602.7169,  387.2214 652.01306,  380.136 697.2544C376.9118 718.4343,  330.9662 725.3073,  317.6 706.44C307.9285 692.73456,  303.9417 658.3336,  307.096 641.6384C274.97147 672.54065,  282.59985 725.1002,  249.624 753.8496C221.01675 778.83325,  147.06183 710.09686,  156.184 663.0736C103.31772 657.58765,  121.36444 774.8341,  40.776 736.3104C16.816412 724.8454,  15.271445 684.52344,  17.400002 661.56C18.262934 651.65674,  19.845785 644.46375,  21.97435 639.1422" stroke-linecap="round" path-type="area" fill="#9933cc" fill-opacity="0.8470588326454163"/><path stroke-linejoin="round" id="ConsecLine_0" d="M113.0 191.0 C113.90605 148.99707,  138.62581 115.67356,  159.0 83.0C162.58101 87.97905,  165.64537 123.58203,  173.14929 150.26056C180.66388 176.94334,  192.65005 194.71448,  214.144 164.0576C231.26505 139.66724,  236.91756 102.47894,  249.256 75.1024C271.59647 78.259315,  282.318 172.91667,  257.4 191.16C292.54614 199.97365,  428.34558 182.155,  443.576 205.2304C460.10034 230.25989,  429.18582 269.69223,  405.784 251.3136C417.95648 276.18542,  449.87198 302.57156,  457.024 339.4096C461.1724 360.56427,  426.7161 354.04044,  414.296 353.5184C396.16837 430.43613,  477.4023 452.0802,  468.6 504.64C456.1546 507.09244,  444.16876 506.38443,  431.936 502.7744C427.6556 519.8052,  445.02914 552.5541,  454.75296 578.9576C464.48752 605.36536,  466.5724 625.42786,  431.704 617.0816C371.7491 602.7169,  387.2214 652.01306,  380.136 697.2544C376.9118 718.4343,  330.9662 725.3073,  317.6 706.44C307.9285 692.73456,  303.9417 658.3336,  307.096 641.6384C274.97147 672.54065,  282.59985 725.1002,  249.624 753.8496C221.01675 778.83325,  147.06183 710.09686,  156.184 663.0736C103.31772 657.58765,  121.36444 774.8341,  40.776 736.3104C16.816412 724.8454,  15.271445 684.52344,  17.400002 661.56C22.577595 602.1403,  53.672256 640.29175,  73.056 594.8224C-16.156963 607.6415,  21.063189 381.14935,  27.744 299.0976C43.95659 297.37012,  60.205116 298.79047,  76.464005 297.3856C61.210266 267.10657,  39.52467 241.71806,  37.058304 223.29378C34.602608 204.87376,  51.366142 193.41794,  113.0 191.0" stroke-linecap="round" fill="none" stroke-width="3.0" display="none" stroke="#000000" stroke-opacity="1.0"/></g><g type="COMPO" id="CompositeShape_5"><path rough-pts="240.0,261.0 218.3934,262.04944 196.4431,257.13425 174.23885,248.36311 151.87039,237.8446 129.42752,227.68735 107.0,220.0 129.5106,218.36192 149.19562,209.30519 168.07104,200.93521 188.15292,201.35739 211.4572,218.67717 " stroke-linejoin="round" id="Polygon_21" d="M240.0 261.0 C197.19043 270.46924,  151.77983 231.49907,  107.0 220.0C156.19086 229.54622,  176.33194 145.94768,  240.0 261.0" stroke-linecap="round" path-type="area" fill="#050505" fill-opacity="0.6000000238418579"/><path rough-pts="240.0,261.0 241.13469,228.3436 246.1817,206.3657 256.1164,191.55441 271.91412,180.39766 294.55017,169.38351 325.0,155.0 311.91202,169.00935 294.95978,185.76031 276.71793,204.29388 259.76096,223.65103 246.66344,242.87274 " stroke-linejoin="round" id="Polygon_22" d="M240.0 261.0 C239.00735 182.66739,  255.63638 189.4777,  325.0 155.0C304.4047 179.63776,  245.17645 226.4793,  240.0 261.0" stroke-linecap="round" path-type="area" fill="#050505" fill-opacity="0.6000000238418579"/><path stroke-linejoin="round" id="ConsecLine_12" d="M107.0 220.0 C156.19086 229.54622,  176.33194 145.94768,  240.0 261.0C197.19043 270.46924,  151.77983 231.49907,  107.0 220.0" stroke-linecap="round" fill="none" stroke-width="3.0" display="none" stroke="#000000" stroke-opacity="1.0"/><path stroke-linejoin="round" id="ConsecLine_13" d="M240.0 261.0 C239.00735 182.66739,  255.63638 189.4777,  325.0 155.0C304.4047 179.63776,  245.17645 226.4793,  240.0 261.0" stroke-linecap="round" fill="none" stroke-width="3.0" display="none" stroke="#000000" stroke-opacity="1.0"/></g><g type="COMPO" id="CompositeShape_7"><path rough-pts="223.0,409.0 217.82587,413.80978 212.85822,415.3004 208.14357,414.09055 203.72821,410.7987 199.6586,406.04358 195.98112,400.4438 192.64409,393.86588 189.70349,387.0018 187.17969,380.27045 185.09299,374.0908 183.4638,368.8818 182.3125,365.0625 179.50996,357.01596 177.2148,349.73462 175.2716,342.80545 173.525,335.8153 171.81958,328.3512 170.0,320.0 176.41486,334.342 190.4645,348.5049 207.14836,362.77045 221.46591,377.42035 228.41663,392.73624 " stroke-linejoin="round" id="Polygon_23" d="M223.0 409.0 C212.47614 422.35123,  202.913 412.07562,  195.98112 400.4438C188.92426 387.8536,  184.12369 371.03217,  182.3125 365.0625C176.09653 347.92892,  173.85695 337.8648,  170.0 320.0C171.86133 349.051,  249.5343 375.3369,  223.0 409.0" stroke-linecap="round" path-type="area" fill="#050505" fill-opacity="0.6000000238418579"/><path stroke-linejoin="round" id="ConsecLine_15" d="M170.0 320.0 C171.86133 349.051,  249.5343 375.3369,  223.0 409.0C212.47614 422.35123,  202.913 412.07562,  195.98112 400.4438C188.92426 387.8536,  184.12369 371.03217,  182.3125 365.0625C176.09653 347.92892,  173.85695 337.8648,  170.0 320.0" stroke-linecap="round" fill="none" stroke-width="3.0" display="none" stroke="#000000" stroke-opacity="1.0"/></g><g type="COMPO" id="CompositeShape_8"><path rough-pts="310.0,323.0 308.73178,336.28427 306.5531,349.35678 304.0273,362.34113 301.71765,375.36075 300.18744,388.53918 300.0,402.0 309.97845,398.8746 314.61685,387.1563 315.42676,370.27744 313.91956,351.67023 311.6068,334.767 " stroke-linejoin="round" id="Polygon_24" d="M310.0 323.0 C308.74957 349.86264,  298.6566 374.71368,  300.0 402.0C326.30466 406.6303,  311.5 339.10956,  310.0 323.0" stroke-linecap="round" path-type="area" fill="#050505" fill-opacity="0.6000000238418579"/><path stroke-linejoin="round" id="ConsecLine_16" d="M310.0 323.0 C308.74957 349.86264,  298.6566 374.71368,  300.0 402.0C326.30466 406.6303,  311.5 339.10956,  310.0 323.0" stroke-linecap="round" fill="none" stroke-width="3.0" display="none" stroke="#000000" stroke-opacity="1.0"/></g><path rough-pts="263.5053,550.38684 294.77603,539.9101 299.4122,537.64954 302.16364,526.03455 300.96973,456.45267 279.80743,461.2136 241.39156,468.92072 234.99353,553.34467 238.98297,553.45795 " stroke-linejoin="round" id="Polygon_94" d="M263.50534 550.3869 C276.02353 547.7191,  288.0909 543.4175,  299.4122 537.64954L300.96973 456.45267 C283.69147 460.52542,  262.7488 464.94156,  241.39153 468.92072L234.99353 553.34467 C239.78247 554.4603,  244.30797 553.596,  248.78725 552.4733C247.29024 553.1334,  255.4902 552.0951,  263.50534 550.38696" stroke-linecap="round" path-type="area" fill="#f5f594" fill-opacity="1.0"/><path rough-pts="106.2941,479.2153 108.624756,480.72934 97.4328,459.89105 98.73079,458.8562 " stroke-linejoin="round" id="Polygon_92" d="M106.294106 479.2153 C106.65856 479.93427,  107.032425 480.6534,  107.41617 481.37283C103.62546 474.30264,  100.12813 466.99466,  97.25098 459.41455C100.373825 465.97498,  102.93423 472.58743,  106.2941 479.2153" stroke-linecap="round" path-type="area" fill="#f5f594" fill-opacity="1.0"/><g type="COMPO" id="CompositeShape_9"/><g type="COMPO" id="CompositeShape_10"/><g type="COMPO" id="CompositeShape_1"><path rough-pts="298.6,205.92 304.9571,228.55573 316.22165,266.15628 329.70602,310.27734 342.72235,352.47455 352.5829,384.30353 356.6,397.32 344.23654,413.0899 314.85504,425.3742 275.41803,434.87424 232.88809,442.29108 194.22787,448.3259 166.4,453.68 158.59,415.60858 150.30167,383.2072 142.61678,353.06085 136.61703,321.75427 133.38419,285.87234 134.0,242.0 158.70532,250.40637 187.05507,277.5817 216.10434,316.02737 242.90817,358.24472 264.52167,396.7351 278.0,424.0 278.5967,387.71887 281.25458,351.3639 285.27875,314.97076 289.9743,278.57526 294.64633,242.21309 " stroke-linejoin="round" id="Polygon_1" d="M298.6 205.92 C304.6149 230.59709,  356.20114 395.7292,  356.6 397.32C353.53305 432.81277,  206.58171 443.18518,  166.4 453.68C151.9795 369.59042,  128.19858 340.0119,  134.0 242.0C177.803 235.0447,  261.14188 385.69495,  278.0 424.0C276.66904 351.5355,  291.8743 278.41327,  298.6 205.92" stroke-linecap="round" path-type="area" fill="#ff0000" fill-opacity="0.729411780834198"/><path stroke-linejoin="round" id="ConsecLine_2" d="M134.0 242.0 C177.803 235.0447,  261.14188 385.69495,  278.0 424.0C276.66904 351.5355,  291.8743 278.41327,  298.6 205.92C304.6149 230.59709,  356.20114 395.7292,  356.6 397.32C353.53305 432.81277,  206.58171 443.18518,  166.4 453.68C151.9795 369.59042,  128.19858 340.0119,  134.0 242.0" stroke-linecap="round" fill="none" stroke-width="3.0" display="none" stroke="#000000" stroke-opacity="1.0"/></g><g type="COMPO" id="CompositeShape_16"><path rough-pts="65.10249,502.07758 62.94898,481.86758 64.36634,462.66888 68.91737,444.3322 76.1648,426.70807 85.67142,409.6471 97.0,393.0 96.94696,406.2335 97.29948,419.64825 98.5193,432.9884 101.06817,445.9977 105.407814,458.42026 112.0,470.0 134.61774,490.8246 155.10997,494.17624 173.38496,491.16736 189.35095,492.9101 202.91617,510.51678 213.98892,555.09973 215.40935,559.94366 217.72043,563.0303 220.73643,564.5691 224.27164,564.7698 228.14035,563.8418 232.15689,561.99475 236.1346,559.44653 239.88876,556.3985 243.23367,553.0601 245.98358,549.641 247.95279,546.3507 248.95567,543.39886 251.06424,535.4191 254.0638,530.2071 257.74905,527.438 261.91476,526.7868 266.35562,527.9288 270.86646,530.5392 275.24103,534.3014 279.275,538.8823 282.7632,543.9574 285.50034,549.20135 287.28107,554.2897 287.90027,558.8975 293.1269,555.6232 297.39108,547.2554 300.79486,535.91266 303.4403,523.71375 305.42938,512.77716 306.86426,505.22162 308.0129,509.2681 311.1653,519.9078 316.372,532.85046 323.68347,543.8061 333.15018,548.4845 344.82272,542.5956 352.4049,529.31055 358.71417,508.23935 364.42825,482.67834 370.2247,455.9238 376.78128,431.27203 384.77563,412.01938 390.15356,435.30246 392.5584,465.00504 391.554,497.5013 386.70404,529.1653 377.57245,556.37115 363.723,575.4931 359.03705,579.0767 353.11066,582.82104 346.29834,586.4461 338.95453,589.6721 331.43365,592.21936 324.09024,593.808 317.27777,594.16644 311.35178,593.0067 306.66666,590.0491 303.57684,585.01355 302.43683,577.6205 303.6011,567.59 286.7678,570.6973 271.90594,581.18884 259.03354,596.6754 248.16843,614.7678 239.32854,633.0768 232.53186,649.2133 231.97784,637.4889 231.67625,625.7682 231.50023,614.0495 231.3229,602.33093 231.01746,590.6105 230.45706,578.8864 220.03795,584.75037 211.30891,593.07806 203.82413,603.09875 197.13771,614.0413 190.80386,625.13513 184.37672,635.60944 178.87886,623.5772 175.56833,609.86847 173.64973,595.1889 172.32756,580.24414 170.80641,565.74 168.29086,552.38226 158.72852,553.4932 149.09953,559.4487 139.71803,568.47327 130.89812,578.7911 122.95387,588.62683 116.19945,596.20496 112.5538,592.3304 104.130196,580.84753 93.05096,563.9187 81.43837,543.706 71.41477,522.3715 " stroke-linejoin="round" id="Polygon_320" d="M65.10249 502.07758 C56.93311 460.54675,  72.81238 425.97995,  97.0 393.0C96.7962 419.11502,  96.25528 447.85403,  112.0 470.0C159.29982 536.5303,  194.39711 431.54944,  213.98892 555.09973C215.81541 566.68475,  224.0998 566.46814,  232.15689 561.99475C240.21214 557.538,  248.04012 548.82446,  248.95567 543.39886C252.14508 524.4554,  261.9117 524.0666,  270.86646 530.5392C279.81934 537.0284,  287.96033 550.37897,  287.90027 558.8975C299.3841 558.8549,  304.48074 515.53925,  306.86426 505.22162C307.1916 503.86142,  319.23813 567.8008,  344.82272 542.5956C361.71185 526.00934,  366.89737 442.92798,  384.77563 412.01938C398.2139 449.7488,  396.43054 547.7505,  363.723 575.4931C355.82788 582.31335,  338.36328 591.7759,  324.09024 593.808C309.81534 595.8567,  298.73196 590.4749,  303.6011 567.59C267.975 564.82776,  244.0701 620.70557,  232.53186 649.2133C231.08693 625.75934,  231.91737 602.3395,  230.45706 578.8864C207.63159 587.63696,  197.6215 615.7944,  184.37672 635.60944C170.66339 613.6922,  174.84668 577.48096,  168.29086 552.38226C149.44225 548.57623,  128.3091 584.49,  116.19945 596.20496C115.101036 597.5056,  72.60087 540.18353,  65.10249 502.07758" stroke-linecap="round" path-type="area" fill="#e2a028" fill-opacity="0.6196078658103943"/><path stroke-linejoin="round" id="ConsecLine_42" d="M97.0 393.0 C96.7962 419.11502,  96.25528 447.85403,  112.0 470.0C159.29982 536.5303,  194.39711 431.54944,  213.98892 555.09973C215.81541 566.68475,  224.0998 566.46814,  232.15689 561.99475C240.21214 557.538,  248.04012 548.82446,  248.95567 543.39886C252.14508 524.4554,  261.9117 524.0666,  270.86646 530.5392C279.81934 537.0284,  287.96033 550.37897,  287.90027 558.8975C299.3841 558.8549,  304.48074 515.53925,  306.86426 505.22162C307.1916 503.86142,  319.23813 567.8008,  344.82272 542.5956C361.71185 526.00934,  366.89737 442.92798,  384.77563 412.01938C398.2139 449.7488,  396.43054 547.7505,  363.723 575.4931C355.82788 582.31335,  338.36328 591.7759,  324.09024 593.808C309.81534 595.8567,  298.73196 590.4749,  303.6011 567.59C267.975 564.82776,  244.0701 620.70557,  232.53186 649.2133C231.08693 625.75934,  231.91737 602.3395,  230.45706 578.8864C207.63159 587.63696,  197.6215 615.7944,  184.37672 635.60944C170.66339 613.6922,  174.84668 577.48096,  168.29086 552.38226C149.44225 548.57623,  128.3091 584.49,  116.19945 596.20496C115.101036 597.5056,  72.60087 540.18353,  65.10249 502.07758C56.93311 460.54675,  72.81238 425.97995,  97.0 393.0" stroke-linecap="round" fill="none" stroke-width="3.0" display="none" stroke="#ff8800" stroke-opacity="0.84705883"/></g></svg>