<svg xmlns="http://www.w3.org/2000/svg" xmlns:xlink="http://www.w3.org/1999/xlink" width="2716.0" height="1528.0" background="#FFFFFF"><g type="COMPO" id="CompositeShape_0"><path rough-pts="1143.9244,705.38074 1166.3745,652.2331 1201.1876,607.1877 1246.2332,572.37463 1299.3807,549.92444 1358.5,541.96765 1417.6191,549.92444 1470.7667,572.3746 1515.8124,607.1876 1550.6254,652.2332 1573.0754,705.38074 1581.0323,764.5 1573.0756,823.61914 1550.6252,876.7667 1515.8123,921.8124 1470.7668,956.62537 1417.6191,979.07556 1358.5,987.03235 1299.3806,979.0755 1246.233,956.62537 1201.1876,921.8124 1166.3746,876.76685 1143.9244,823.61926 1135.9677,764.5 " stroke-linejoin="round" id="Polygon_0" d="M1143.9244 705.38074 C1169.8553 611.2333,  1256.1752 541.96765,  1358.5 541.96765C1481.2898 541.96765,  1581.0323 641.7102,  1581.0323 764.5C1581.0323 887.2898,  1481.2898 987.03235,  1358.5 987.03235C1235.7102 987.03235,  1135.9677 887.2898,  1135.9677 764.5C1135.9677 744.03503,  1138.7383 724.21027,  1143.9244 705.38074" stroke-linecap="round" path-type="area" fill="#ffbd00" fill-opacity="0.3294117748737335"/><ellipse stroke-linejoin="round" ry="222.53235" id="EllipseShape_0" sc="0.0,-222.53235" stroke-linecap="round" transform="matrix(1.0,0.0,-0.0,1.0,0.0,0.0)" pc="222.53235,0.0" cy="764.5" cx="1358.5" average="1358.5,764.5" rx="222.53235" fill="none" stroke-width="5.0" display="none" stroke="#000000" stroke-opacity="1.0"/></g><g type="COMPO" id="CompositeShape_1"><path rough-pts="1403.809,600.04913 1444.5413,617.2549 1479.0642,643.93567 1505.745,678.4586 1522.9508,719.1909 1529.049,764.5 1522.9507,809.80896 1505.7449,850.54126 1479.0642,885.06433 1444.5414,911.74506 1403.809,928.9508 1358.5,935.04895 1313.1908,928.95074 1272.4584,911.745 1237.9358,885.06433 1211.2549,850.5414 1194.0491,809.80896 1187.951,764.5 1194.0491,719.1909 1211.2548,678.45856 1237.9357,643.9357 1272.4587,617.25494 1313.1909,600.04913 1358.5,593.95105 " stroke-linejoin="round" id="Polygon_1" d="M1403.809 600.04913 C1475.9637 619.9226,  1529.049 686.0782,  1529.049 764.5C1529.049 858.6062,  1452.6062 935.04895,  1358.5 935.04895C1264.3938 935.04895,  1187.951 858.6062,  1187.951 764.5C1187.951 670.3938,  1264.3938 593.95105,  1358.5 593.95105C1374.1843 593.95105,  1389.378 596.07446,  1403.809 600.04913" stroke-linecap="round" path-type="area" fill="#ffbd00" fill-opacity="0.35686275362968445"/><ellipse stroke-linejoin="round" ry="170.54898" id="EllipseShape_1" sc="0.0,-170.54898" stroke-linecap="round" transform="matrix(1.0,0.0,-0.0,1.0,0.0,0.0)" pc="170.54898,0.0" cy="764.5" cx="1358.5" average="1358.5,764.5" rx="170.54898" fill="none" stroke-width="5.0" display="none" stroke="#000000" stroke-opacity="1.0"/></g><g type="COMPO" id="CompositeShape_2"><path rough-pts="1480.1403,764.5 1475.7908,796.81555 1463.519,825.867 1444.4897,850.4898 1419.8671,869.5193 1390.8157,881.7909 1358.5,886.14026 1326.1842,881.79083 1297.1328,869.51917 1272.5101,850.4898 1253.4807,825.86707 1241.209,796.8156 1236.8597,764.5 1241.209,732.1843 1253.4806,703.1328 1272.5103,678.5102 1297.1329,659.4808 1326.1843,647.2091 1358.5,642.85974 1390.8156,647.20905 1419.8671,659.4807 1444.4899,678.5102 1463.5193,703.13293 1475.7909,732.1843 " stroke-linejoin="round" id="Polygon_2" d="M1480.1403 764.5 C1480.1403 831.61914,  1425.6191 886.14026,  1358.5 886.14026C1291.3809 886.14026,  1236.8597 831.61914,  1236.8597 764.5C1236.8597 697.38086,  1291.3809 642.85974,  1358.5 642.85974C1425.6191 642.85974,  1480.1403 697.38086,  1480.1403 764.5" stroke-linecap="round" path-type="area" fill="#ffbd00" fill-opacity="0.4274509847164154"/><ellipse stroke-linejoin="round" ry="121.64026" id="EllipseShape_2" sc="0.0,-121.64026" stroke-linecap="round" transform="matrix(1.0,0.0,-0.0,1.0,0.0,0.0)" pc="121.64026,0.0" cy="764.5" cx="1358.5" average="1358.5,764.5" rx="121.64026" fill="none" stroke-width="5.0" display="none" stroke="#000000" stroke-opacity="1.0"/></g><g type="COMPO" id="CompositeShape_3"><path rough-pts="1446.4944,764.5 1443.348,787.877 1434.4707,808.8927 1420.7048,826.70483 1402.8928,840.4707 1381.877,849.348 1358.5,852.4943 1335.1229,849.34796 1314.1069,840.4706 1296.2952,826.70483 1282.5293,808.8928 1273.6519,787.877 1270.5056,764.5 1273.6517,741.12286 1282.5292,720.1071 1296.2952,702.29517 1314.1072,688.5293 1335.1229,679.652 1358.5,676.5057 1381.877,679.6519 1402.8927,688.5292 1420.7048,702.29517 1434.4707,720.1072 1443.348,741.1229 " stroke-linejoin="round" id="Polygon_3" d="M1446.4944 764.5 C1446.4944 813.05383,  1407.0538 852.4943,  1358.5 852.4943C1309.9462 852.4943,  1270.5056 813.05383,  1270.5056 764.5C1270.5056 715.94617,  1309.9462 676.5057,  1358.5 676.5057C1407.0538 676.5057,  1446.4944 715.94617,  1446.4944 764.5" stroke-linecap="round" path-type="area" fill="#ffbd00" fill-opacity="0.6000000238418579"/><ellipse stroke-linejoin="round" ry="87.99435" id="EllipseShape_3" sc="0.0,-87.99435" stroke-linecap="round" transform="matrix(1.0,0.0,-0.0,1.0,0.0,0.0)" pc="87.99435,0.0" cy="764.5" cx="1358.5" average="1358.5,764.5" rx="87.99435" fill="none" stroke-width="5.0" display="none" stroke="#000000" stroke-opacity="1.0"/></g><g type="COMPO" id="CompositeShape_4"><path rough-pts="1358.5,817.44666 1344.4338,815.55347 1331.7885,810.2119 1321.071,801.92896 1312.7881,791.2114 1307.4464,778.56604 1305.5533,764.5 1307.4464,750.43384 1312.788,737.7886 1321.071,727.071 1331.7886,718.788 1344.4338,713.4465 1358.5,711.55334 1372.566,713.4465 1385.2112,718.78796 1395.929,727.07104 1404.2119,737.7886 1409.5535,750.43384 1411.4467,764.5 1409.5533,778.5661 1404.2118,791.2113 1395.929,801.929 1385.2113,810.212 1372.566,815.55347 " stroke-linejoin="round" id="Polygon_4" d="M1358.5 817.44666 C1329.2849 817.44666,  1305.5533 793.7151,  1305.5533 764.5C1305.5533 735.2849,  1329.2849 711.55334,  1358.5 711.55334C1387.7151 711.55334,  1411.4467 735.2849,  1411.4467 764.5C1411.4467 793.7151,  1387.7151 817.44666,  1358.5 817.44666" stroke-linecap="round" path-type="area" fill="#ffbd00" fill-opacity="0.7764706015586853"/><ellipse stroke-linejoin="round" ry="52.94663" id="EllipseShape_4" sc="0.0,-52.94663" stroke-linecap="round" transform="matrix(1.0,0.0,-0.0,1.0,0.0,0.0)" pc="52.94663,0.0" cy="764.5" cx="1358.5" average="1358.5,764.5" rx="52.94663" fill="none" stroke-width="5.0" display="none" stroke="#000000" stroke-opacity="1.0"/></g><g type="COMPO" id="CompositeShape_5"><path rough-pts="1331.95,764.5 1332.8993,757.4465 1335.5776,751.1055 1339.7312,745.7313 1345.1056,741.57776 1351.4465,738.89923 1358.5,737.94995 1365.5535,738.89923 1371.8943,741.5777 1377.2687,745.73126 1381.4222,751.1056 1384.1007,757.44653 1385.05,764.5 1384.1007,771.55334 1381.4221,777.89435 1377.2688,783.2687 1371.8944,787.42224 1365.5535,790.1007 1358.5,791.05005 1351.4465,790.10065 1345.1056,787.4221 1339.7313,783.26874 1335.5778,777.8944 1332.8992,771.5534 " stroke-linejoin="round" id="Polygon_5" d="M1331.95 764.5 C1331.95 749.8501,  1343.8501 737.94995,  1358.5 737.94995C1373.1499 737.94995,  1385.05 749.8501,  1385.05 764.5C1385.05 779.1499,  1373.1499 791.05005,  1358.5 791.05005C1343.8501 791.05005,  1331.95 779.1499,  1331.95 764.5" stroke-linecap="round" path-type="area" fill="#ffbd00" fill-opacity="1.0"/><ellipse stroke-linejoin="round" ry="26.550056" id="EllipseShape_5" sc="0.0,-26.550056" stroke-linecap="round" transform="matrix(1.0,0.0,-0.0,1.0,0.0,0.0)" pc="26.550056,0.0" cy="764.5" cx="1358.5" average="1358.5,764.5" rx="26.550056" fill="none" stroke-width="5.0" display="none" stroke="#000000" stroke-opacity="1.0"/></g><g type="COMPO" id="CompositeShape_8"><path rough-pts="995.87036,544.9568 1032.3362,546.40674 1056.7721,566.82654 1070.6359,599.6955 1075.3849,638.4928 1072.477,676.6979 1063.3704,707.7901 1049.2404,736.19135 1033.7826,764.11945 1017.60504,791.7999 1001.31555,819.4584 985.5223,847.3202 970.8333,875.6111 993.7756,858.97614 1023.1409,857.65955 1054.6509,868.3535 1084.0264,887.75006 1106.9888,912.5414 1119.2593,939.41974 1123.2396,968.18365 1124.4031,1000.67285 1122.6876,1034.8542 1118.0313,1068.6941 1110.3721,1100.159 1099.6482,1127.2161 1119.1061,1109.7666 1147.2554,1096.6239 1179.708,1089.2825 1212.0753,1089.2354 1239.9688,1097.9766 1259.0,1117.0 1260.3743,1093.4004 1269.6522,1075.5627 1284.9939,1063.2454 1304.5588,1056.2069 1326.5076,1054.2056 1349.0,1057.0 1367.1556,1063.092 1383.381,1072.0415 1398.0234,1083.1768 1411.43,1095.8254 1423.9482,1109.3157 1435.9259,1122.9753 1442.9889,1064.683 1466.8157,1025.9922 1503.4598,1003.288 1548.975,992.9553 1599.4148,991.379 1650.8334,994.94446 1648.3992,996.76965 1646.1259,997.37524 1644.008,996.8563 1642.0403,995.308 1640.2177,992.82544 1638.5352,989.5039 1636.9811,985.43646 1635.5568,980.72046 1634.2573,975.45123 1633.077,969.72363 1632.0109,963.63306 1631.0538,957.2748 1629.468,944.1425 1628.2567,931.0812 1627.3789,918.8527 1626.7933,908.21826 1626.4584,899.93933 1626.3334,894.7778 1626.3329,874.3208 1626.7802,854.7666 1628.2277,835.8213 1631.2273,817.1907 1636.3314,798.5807 1644.0927,779.6975 1648.1902,766.46674 1647.4109,755.22546 1643.1693,745.1962 1636.8796,735.6014 1629.9565,725.6634 1623.8148,714.6049 1619.8727,703.5291 1617.201,691.5453 1615.5139,679.052 1614.525,666.44763 1613.949,654.1308 1613.5,642.5 1612.9125,622.09894 1613.062,601.54205 1614.3047,581.0108 1616.9958,560.6862 1621.4917,540.74976 1628.1482,521.3827 1567.2129,522.90576 1526.8579,520.90204 1501.5596,509.70322 1485.7927,483.64093 1474.0342,437.04697 1460.7593,364.25308 1421.6798,379.4521 1378.2001,393.64807 1332.9731,403.37662 1288.6512,405.17297 1247.8871,395.57266 1213.3334,371.1111 1195.8955,418.50708 1166.6537,456.52032 1128.8192,486.66147 1085.6028,510.44086 1040.2161,529.3691 " stroke-linejoin="round" id="Polygon_12" d="M995.87036 544.9568 C1081.8042 524.54,  1086.8112 657.0658,  1063.3704 707.7901C1036.8438 765.21625,  998.7017 818.4499,  970.8333 875.6111C1007.44226 824.8177,  1108.2626 885.7814,  1119.2593 939.41974C1129.9961 991.8668,  1124.2018 1078.8658,  1099.6482 1127.2161C1126.9467 1089.006,  1232.7255 1067.6752,  1259.0 1117.0C1252.6188 1063.8779,  1304.6981 1046.7765,  1349.0 1057.0C1387.4736 1065.8785,  1412.2802 1095.9344,  1435.9259 1122.9753C1430.658 984.37933,  1549.6486 985.0822,  1650.8334 994.94446C1645.8014 999.8783,  1641.7638 996.9225,  1638.5352 989.5039C1635.2942 982.08124,  1632.8623 970.19586,  1631.0538 957.2748C1627.4803 931.44696,  1626.4012 901.4761,  1626.3334 894.7778C1626.253 852.7652,  1625.5453 817.9332,  1644.0927 779.6975C1658.108 750.72833,  1634.3743 738.36084,  1623.8148 714.6049C1614.4703 693.6271,  1614.4617 664.81,  1613.5 642.5C1611.8256 601.9747,  1612.4374 559.4265,  1628.1482 521.3827C1482.0146 524.177,  1492.5079 539.81964,  1460.7593 364.25308C1388.769 393.34436,  1274.4619 437.2052,  1213.3334 371.1111C1192.403 476.29285,  1081.3802 516.11505,  995.87036 544.9568" stroke-linecap="round" path-type="area" fill="#f1ec1d" fill-opacity="0.33725491166114807"/><path stroke-linejoin="round" id="ConsecLine_9" d="M1259.0 1117.0 C1252.6188 1063.8779,  1304.6981 1046.7765,  1349.0 1057.0C1387.4736 1065.8785,  1412.2802 1095.9344,  1435.9259 1122.9753C1430.658 984.37933,  1549.6486 985.0822,  1650.8334 994.94446C1645.8014 999.8783,  1641.7638 996.9225,  1638.5352 989.5039C1635.2942 982.08124,  1632.8623 970.19586,  1631.0538 957.2748C1627.4803 931.44696,  1626.4012 901.4761,  1626.3334 894.7778C1626.253 852.7652,  1625.5453 817.9332,  1644.0927 779.6975C1658.108 750.72833,  1634.3743 738.36084,  1623.8148 714.6049C1614.4703 693.6271,  1614.4617 664.81,  1613.5 642.5C1611.8256 601.9747,  1612.4374 559.4265,  1628.1482 521.3827C1482.0146 524.177,  1492.5079 539.81964,  1460.7593 364.25308C1388.769 393.34436,  1274.4619 437.2052,  1213.3334 371.1111C1192.403 476.29285,  1081.3802 516.11505,  995.87036 544.9568C1081.8042 524.54,  1086.8112 657.0658,  1063.3704 707.7901C1036.8438 765.21625,  998.7017 818.4499,  970.8333 875.6111C1007.44226 824.8177,  1108.2626 885.7814,  1119.2593 939.41974C1129.9961 991.8668,  1124.2018 1078.8658,  1099.6482 1127.2161C1126.9467 1089.006,  1232.7255 1067.6752,  1259.0 1117.0" stroke-linecap="round" fill="none" stroke-width="5.0" display="none" stroke="#000000" stroke-opacity="1.0"/></g></svg>