<?xml version="1.0" encoding="UTF-8" standalone="no"?>
<svg
   xmlns:dc="http://purl.org/dc/elements/1.1/"
   xmlns:cc="http://creativecommons.org/ns#"
   xmlns:rdf="http://www.w3.org/1999/02/22-rdf-syntax-ns#"
   xmlns:svg="http://www.w3.org/2000/svg"
   xmlns="http://www.w3.org/2000/svg"
   xmlns:sodipodi="http://sodipodi.sourceforge.net/DTD/sodipodi-0.dtd"
   xmlns:inkscape="http://www.inkscape.org/namespaces/inkscape"
   width="480.0"
   height="764.0"
   background="#FFFFFF"
   id="svg2"
   version="1.1"
   inkscape:version="0.91 r13725"
   sodipodi:docname="the_new_monster.svg">
  <metadata
     id="metadata31">
    <rdf:RDF>
      <cc:Work
         rdf:about="">
        <dc:format>image/svg+xml</dc:format>
        <dc:type
           rdf:resource="http://purl.org/dc/dcmitype/StillImage" />
        <dc:title></dc:title>
      </cc:Work>
    </rdf:RDF>
  </metadata>
  <defs
     id="defs29" />
  <sodipodi:namedview
     pagecolor="#ffffff"
     bordercolor="#666666"
     borderopacity="1"
     objecttolerance="10"
     gridtolerance="10"
     guidetolerance="10"
     inkscape:pageopacity="0"
     inkscape:pageshadow="2"
     inkscape:window-width="1366"
     inkscape:window-height="705"
     id="namedview27"
     showgrid="false"
     inkscape:zoom="0.30890052"
     inkscape:cx="240"
     inkscape:cy="378.76271"
     inkscape:window-x="-8"
     inkscape:window-y="-8"
     inkscape:window-maximized="1"
     inkscape:current-layer="svg2" />
  <path
     style="fill:#0000ff;fill-opacity:0.74901961;stroke-linecap:round;stroke-linejoin:round"
     inkscape:connector-curvature="0"
     path-type="area"
     d="M 225.29187,767.25853 C 149.08821,719.41706 77.678187,872.40571 54.831867,841.10206 c -49.2389502,-67.72851 27.99025,-211.38325 29.5,-221.11797 0.68528,-5.00396 -0.36,-10.45565 -0.54,-15.68347 -22.74486,0.0425 -42.64074,-0.68191 -64.58,-8.65158 -6.73611,-119.79138 12.97047,-106.15304 75.38,-115.74511 9.883443,-72.5728 -141.37019,-57.41235 -64.66,-322.91783 11.34935,61.92244 10.3097,164.57931 62.3,158.17342 -30.04945,-27.66686 -69.75703,-312.6146471 -29.74,-331.679155 11.60811,24.3033209 50.536443,109.924731 56.220003,126.587035 0.13749,-90.145864 -4,-180.140205 -4,-270.38943 26.16121,37.28205 36.70811,123.327999 49.92,177.350876 96.68152,-114.335274 60.01587,-140.447416 201.9,-140.440096 -57.0959,25.524486 -53.28326,120.0183189 -54.14,186.142926 33.45388,0.014 112.70324,-33.14045 144.82004,-50.87798 -28.3751,61.37385 -109.94309,204.490024 -122.22004,270.437704 84.57094,32.77563 123.19544,-91.24054 144.74004,-84.22015 -0.1,47.29887 3.1448,193.15008 -11.3,221.29354 -16.2545,31.66787 -137.68324,71.8344 -97.34004,172.14062 20.28165,50.61462 121.02464,74.03315 87.62004,207.2649 -32.5044,129.57785 -185.35819,-1.37477 -233.42004,-31.51178"
     id="Polygon_0"
     rough-pts="215.58,604.3025 178.08026,599.1948 142.59532,607.058 110.341,621.7991 82.533104,637.3251 60.387497,647.54297 45.12,646.36 30.103481,624.0223 30.54867,597.79724 40.839237,571.0049 55.358864,546.96497 68.49123,528.9975 74.62,520.4225 74.830444,518.97797 74.82456,517.5016 74.674484,516.0041 74.452286,514.49585 74.23009,512.9876 74.08,511.49 62.922325,511.44855 52.103592,511.23184 41.4879,510.7375 30.93933,509.86273 20.321999,508.50525 9.5,506.5625 8.41078,478.36877 12.180349,460.36234 21.260384,450.06482 36.102554,444.9975 57.15853,442.68207 84.88,440.64 78.19502,423.16574 55.462223,408.1912 27.489971,389.88797 5.086603,362.42767 -0.9395046,319.982 20.22,256.7225 25.165121,275.89478 29.862606,296.56387 36.129646,316.35986 45.78343,332.91284 60.641144,343.85284 82.520004,346.81 67.10424,328.09946 52.56164,293.24347 41.375072,250.51894 36.027367,208.20267 39.00139,174.57156 52.78,157.9025 60.580345,167.39024 71.2517,180.63751 83.11171,195.58322 94.478,210.16626 103.66821,222.32555 109.0,230.0 108.751434,204.33487 108.02406,178.6777 107.05156,153.02208 106.0676,127.36153 105.30584,101.68965 105.0,76.0 116.86404,88.7184 126.63344,104.7876 134.816,122.92949 141.91943,141.8659 148.4515,160.31879 154.92,177.01 193.59245,148.47372 218.70418,127.329544 238.91904,112.594864 262.90073,103.28714 299.3131,98.42386 356.82,97.0225 333.04416,107.30801 317.59808,122.60043 308.6603,141.35985 304.40912,162.0462 303.02283,183.11958 302.68,203.04 322.793,201.59767 347.9572,197.77559 375.5914,192.34245 403.11414,186.0668 427.9441,179.71727 447.5,174.0625 429.44678,195.00087 405.93036,221.18451 380.3532,250.09937 356.11752,279.2313 336.62567,306.0662 325.28,328.09 363.8702,330.7409 395.60455,323.06198 421.28488,309.6071 441.713,294.92972 457.69073,283.58362 470.02,280.1225 470.15134,297.6993 470.25583,321.20975 469.7493,347.23248 468.04733,372.34604 464.5656,393.129 458.72,406.16 443.0641,415.7177 417.2943,426.89917 388.82587,440.52142 365.07388,457.40137 353.45352,478.35608 361.38,504.2025 377.23236,517.6867 400.53357,530.75696 425.32236,545.5808 445.63724,564.3259 455.51688,589.15967 449.0,622.25 423.761,647.73773 384.71768,654.2116 338.12408,647.3883 290.23395,632.98444 247.30127,616.7169 " />
  <path
     style="display:none;fill:none;stroke:#000000;stroke-width:3;stroke-linecap:round;stroke-linejoin:round;stroke-opacity:1"
     inkscape:connector-curvature="0"
     display="none"
     d="m -551.40678,113.45763 c 0.13749,-51.342473 -4,-102.598653 -4,-154.000003 26.16121,21.233955 36.70811,70.24133 49.92,101.01 96.68152,-65.1195299 60.01587,-79.99167 201.9,-79.9875 -57.0959,14.5374401 -53.28326,68.3563 -54.14,106.0175 33.45388,0.008 112.7032,-18.87511 144.82,-28.9775 -28.37503,34.95541 -109.94305,116.467073 -122.22,154.027503 84.57092,18.66732 123.19543,-51.96595 144.74,-47.9675 -0.1,26.93902 3.1448,110.00842 -11.3,126.0375 -16.25445,18.0364 -137.6832,40.9132 -97.34,98.0425 20.28165,28.8275 121.02463,42.1655 87.62,118.0475 -32.50433,73.8009 -185.35815,-0.783 -233.42,-17.9475 -76.20366,-27.24806 -147.61368,59.88646 -170.46,42.0575 -49.23895,-38.5747 27.99025,-120.3931 29.5,-125.9375 0.68528,-2.85 -0.36,-5.955 -0.54,-8.9325 -22.74486,0.0242 -42.64074,-0.38838 -64.58,-4.9275 -6.73611,-68.22705 12.97047,-60.45935 75.38,-65.9225 9.88344,-41.33376 -141.37019,-32.69914 -64.66,-183.9175 11.34935,35.26786 10.3097,93.73597 62.3,90.0875 -30.04945,-15.75763 -69.75704,-178.049333 -29.74,-188.907503 11.60811,13.84193 50.53644,62.607513 56.22,72.097503"
     id="ConsecLine_0" />
  <path
     style="display:none;fill:none;stroke:#000000;stroke-width:3;stroke-linecap:round;stroke-linejoin:round;stroke-opacity:1"
     inkscape:connector-curvature="0"
     display="none"
     d="m -431.75085,492.73633 c 0.2215,36.4458 -18.07375,133.72637 17.32182,144.9987 60.70999,19.456 104.0109,6.5343 151.93329,-21.1678 1.00096,-0.1434 1.92586,-0.4086 2.8888,-0.61296 -25.07432,-18.95924 -37.55259,-59.6167 -58.15567,-84.05814"
     id="ConsecLine_1" />
  <path
     style="display:none;fill:none;stroke:#000000;stroke-width:3;stroke-linecap:round;stroke-linejoin:round;stroke-opacity:1"
     inkscape:connector-curvature="0"
     display="none"
     d="m -561.08011,511.3142 c -6.47725,17.13238 -22.19232,56.02803 -35.69446,77.40663 -13.30814,22.14024 -17.73002,39.90684 11.53178,40.3065 41.87115,0.84284 83.41795,-6.67016 125.45497,-6.28796 -3.07294,-40.46961 5.87898,-95.01614 28.03697,-130.00304"
     id="ConsecLine_2" />
  <g
     type="COMPO"
     id="CompositeShape_3"
     transform="translate(9.7118668,87.406776)">
    <path
       rough-pts="166.0,244.0 174.29893,237.02815 182.58975,235.77516 190.78667,239.33868 198.80374,246.81635 206.55511,257.3058 213.95497,269.90472 220.89606,283.8068 227.29457,298.10037 233.05907,311.90866 238.0979,324.35477 242.31961,334.56183 245.63266,341.65308 225.484,342.74628 209.77553,333.29257 196.40741,318.93845 183.27982,305.3304 168.29294,298.11502 149.34694,302.93878 142.80318,307.73672 136.62076,313.41867 130.57347,319.4649 126.5268,321.76538 125.15642,308.66003 129.28069,293.96246 136.89526,279.99048 146.53206,266.90125 156.72299,254.852 "
       id="Polygon_7"
       d="m 166,244 c 16.54874,-20.26407 33.56407,-0.80098 47.95497,25.90472 14.36369,26.82816 26.02132,61.2663 31.67769,71.74836 -46.13736,16.49777 -53.03473,-64.16532 -96.28572,-38.7143 -7.99765,4.91947 -14.77599,12.75172 -21.99158,19.69144 C 119.69617,291.72012 149.69322,263.9678 166,244"
       path-type="area"
       inkscape:connector-curvature="0"
       style="fill:#000000;fill-opacity:0.78823529;stroke-linecap:round;stroke-linejoin:round" />
    <path
       rough-pts="110.97959,334.59183 108.249054,335.20743 105.820305,334.28702 103.729485,332.1125 102.012726,328.96588 100.70615,325.1291 99.84593,320.88416 100.93536,318.12427 104.76459,317.8452 110.25919,319.16653 116.344666,321.20743 121.946594,323.08743 124.16532,323.71362 124.43501,325.35568 117.97914,330.57123 "
       id="Polygon_5"
       d="m 110.97959,334.59183 c -5.73875,2.95527 -9.88364,-4.99753 -11.13366,-13.70767 -1.170774,-7.87201 16.88858,1.20321 24.38455,2.80777 -3.49572,5.06227 -8.08815,8.61614 -13.25089,10.8999"
       path-type="area"
       inkscape:connector-curvature="0"
       style="fill-opacity:0;stroke-linecap:round;stroke-linejoin:round" />
    <path
       rough-pts="126.5268,321.76538 124.16532,323.71362 125.99055,323.92596 "
       id="Polygon_6"
       d="m 127.35536,322.63022 c -0.74315,0.71472 -1.49093,1.41998 -2.24517,2.11163 -0.19826,-0.90405 0.39589,-0.81991 0.88036,-0.81589 -0.16185,-0.6596 -0.30624,-1.31808 -0.43367,-1.9754"
       path-type="area"
       inkscape:connector-curvature="0"
       style="fill-opacity:0;stroke-linecap:round;stroke-linejoin:round" />
    <path
       id="ConsecLine_3"
       d="M 125.99055,323.92596 C 118.38521,292.93066 149.33865,264.40198 166,244 c 16.54874,-20.26407 33.56407,-0.80098 47.95497,25.90472 14.36369,26.82816 26.02132,61.2663 31.67769,71.74836 -46.13736,16.49777 -53.03473,-64.16532 -96.28572,-38.7143 -13.59973,8.36539 -23.67373,25.15329 -38.36735,31.65305 -5.73875,2.95527 -9.88364,-4.99753 -11.13366,-13.70767 -1.277204,-8.58766 20.33102,2.99331 26.14462,3.0418"
       inkscape:connector-curvature="0"
       style="fill:none;stroke:#000000;stroke-width:3;stroke-linecap:round;stroke-linejoin:round;stroke-opacity:1" />
  </g>
  <g
     type="COMPO"
     id="CompositeShape_4"
     transform="translate(9.7118668,87.406776)">
    <path
       rough-pts="353.0,239.0 344.16922,246.80812 330.985,265.68494 315.3616,291.0365 299.21338,318.26886 284.4547,342.78796 273.0,360.0 276.55994,333.03253 282.5098,307.04974 291.9891,283.35333 306.1375,263.2451 326.09454,248.0267 "
       id="Polygon_8"
       d="m 353,239 c -12.0317,1.48492 -61.67072,96.94577 -80,121 5.48987,-54.05167 18.48108,-110.00606 80,-121"
       path-type="area"
       inkscape:connector-curvature="0"
       style="fill:#000000;fill-opacity:0.78823529;stroke-linecap:round;stroke-linejoin:round" />
    <path
       id="ConsecLine_4"
       d="m 273,360 c 5.48987,-54.05167 18.48108,-110.00606 80,-121 -12.0317,1.48492 -61.67072,96.94577 -80,121"
       display="none"
       inkscape:connector-curvature="0"
       style="display:none;fill:none;stroke:#000000;stroke-width:3;stroke-linecap:round;stroke-linejoin:round;stroke-opacity:1" />
  </g>
  <g
     type="COMPO"
     id="CompositeShape_5"
     transform="translate(9.7118668,87.406776)">
    <path
       rough-pts="359.5,354.5 356.35117,365.85397 352.60233,377.58884 348.25092,389.39893 343.29437,400.9784 337.7301,412.0214 331.55554,422.22223 318.48972,431.439 296.54037,437.82028 269.86496,441.2527 242.62073,441.62274 218.96515,438.81708 203.05556,432.72223 191.9341,422.35614 182.86604,409.93097 175.145,396.21475 168.06456,381.97546 160.91833,367.9812 153.0,355.0 191.10893,357.8247 211.5362,365.83792 220.46039,377.85092 224.06003,392.67477 228.51369,409.12073 240.0,426.0 249.99225,430.38126 260.20816,426.5642 270.02686,417.51093 278.82715,406.1836 285.98816,395.54437 290.8889,388.55554 300.1898,379.96063 311.06085,372.91772 322.96475,367.1385 335.3641,362.33466 347.72162,358.2179 "
       id="Polygon_9"
       d="m 359.5,354.5 c -5.69928,22.1231 -14.9834,48.36667 -27.94446,67.72223 -14.4765,21.19339 -107.19839,26.05453 -128.49998,10.5 C 178.2884,414.5612 170.07976,379.4374 153,355 c 98.01862,-0.3316 52.87573,37.60074 87,71 19.34683,18.9358 43.76178,-29.0919 50.8889,-37.44446 C 307.56247,369.62158 336.88058,361.7292 359.5,354.5"
       path-type="area"
       inkscape:connector-curvature="0"
       style="fill:#ff0000;fill-opacity:0.71764706;stroke-linecap:round;stroke-linejoin:round" />
    <path
       id="ConsecLine_5"
       d="m 153,355 c 98.01862,-0.3316 52.87573,37.60074 87,71 19.34683,18.9358 43.76178,-29.0919 50.8889,-37.44446 C 307.56247,369.62158 336.88058,361.7292 359.5,354.5 c -5.69928,22.1231 -14.9834,48.36667 -27.94446,67.72223 -14.4765,21.19339 -107.19839,26.05453 -128.49998,10.5 C 178.2884,414.5612 170.07976,379.4374 153,355"
       display="none"
       inkscape:connector-curvature="0"
       style="display:none;fill:none;stroke:#000000;stroke-width:3;stroke-linecap:round;stroke-linejoin:round;stroke-opacity:1" />
  </g>
  <g
     type="COMPO"
     id="CompositeShape_7"
     transform="translate(9.7118668,87.406776)">
    <path
       rough-pts="335.46338,512.0489 334.58655,506.09705 334.79443,496.66205 335.2,487.24 304.36234,476.64526 271.4928,470.6045 237.45656,467.86877 203.11884,467.1888 169.34491,467.31558 137.0,467.0 119.34189,470.87747 107.41387,476.07803 100.705574,482.29333 98.706535,489.21484 100.90639,496.53415 110.91103,498.90836 334.55847,511.9959 "
       id="Polygon_21"
       d="M 334.55862,512.0489 C 334.54147,503.77335 334.75873,495.4933 335.2,487.24 276.13354,460.66385 199.68396,468.90625 137,467 c -40.967255,6.16318 -45.24639,21.91818 -30.65912,36.49564 l 228.21759,8.50026"
       path-type="area"
       inkscape:connector-curvature="0"
       style="fill:#ffbd00;fill-opacity:0.84705882;stroke-linecap:round;stroke-linejoin:round" />
    <path
       rough-pts="335.46338,512.0489 334.5797,515.53467 334.77737,524.9644 335.18298,534.3764 335.8,543.76 311.7787,541.87244 287.8156,539.4355 263.87354,536.8174 239.91507,534.3865 215.90302,532.51117 191.8,531.56 174.37062,530.32367 157.5284,527.3962 141.81151,523.03595 127.75814,517.50134 115.90649,511.05084 106.794716,503.94287 110.91103,498.90836 334.55847,511.9959 "
       id="Polygon_22"
       d="m 334.55862,512.0489 c 0.022,10.5996 0.42844,21.1919 1.24138,31.7111 -48.12574,-2.98003 -95.67817,-11.467 -144,-12.2 -35.08712,-0.60913 -69.88042,-12.91596 -85.00528,-27.61713 -0.15325,-0.14897 -0.30453,-0.29803 -0.45384,-0.44723 l 228.21759,8.50026"
       path-type="area"
       inkscape:connector-curvature="0"
       style="fill:#ffbd00;fill-opacity:0.84705882;stroke-linecap:round;stroke-linejoin:round" />
    <line
       x1="102.05261"
       y1="498.38998"
       x2="334.55847"
       id="StraightLine_204"
       y2="511.99591"
       style="fill:none;stroke:#000000;stroke-width:3;stroke-linecap:round;stroke-opacity:1" />
    <path
       id="ConsecLine_7"
       d="m 137,467 c -41.38658,6.22626 -45.33015,22.2417 -30.20528,36.94287 15.12486,14.70117 49.91816,27.008 85.00528,27.61713 48.32183,0.733 95.87426,9.21997 144,12.2 -1.44764,-18.732 -1.60646,-37.6956 -0.6,-56.52 C 276.13354,460.66385 199.68396,468.90625 137,467"
       inkscape:connector-curvature="0"
       style="fill:none;stroke:#000000;stroke-width:3;stroke-linecap:round;stroke-linejoin:round;stroke-opacity:1" />
  </g>
</svg>
